<svg width="20" height="20" viewBox="0 0 20 20" fill="none" xmlns="http://www.w3.org/2000/svg" class="MuiSvgIcon-root MuiSvgIcon-colorPrimary MuiSvgIcon-fontSizeSmall" focusable="false" color="#FCFCFC" aria-hidden="true">
	<path d="M12.0833 10.8333C12.0833 10.2808 11.8638 9.75089 11.4731 9.36019C11.0824 8.96949 10.5525 8.75 10 8.75C9.44746 8.75 8.91756 8.96949 8.52686 9.36019C8.13616 9.75089 7.91666 10.2808 7.91666 10.8333C7.91666 11.6667 8.40833 12.3667 9.10833 12.7083L8.18333 13.625C7.58157 13.2331 7.1225 12.6573 6.87451 11.9833C6.62651 11.3094 6.60285 10.5734 6.80705 9.88489C7.01126 9.1964 7.43239 8.5923 8.00774 8.16256C8.58309 7.73282 9.28187 7.50043 10 7.5C10.7181 7.50043 11.4169 7.73282 11.9923 8.16256C12.5676 8.5923 12.9887 9.1964 13.1929 9.88489C13.3971 10.5734 13.3735 11.3094 13.1255 11.9833C12.8775 12.6573 12.4184 13.2331 11.8167 13.625L10.9 12.7083C11.6 12.3667 12.0833 11.6667 12.0833 10.8333ZM10 2.5C5.41666 2.5 1.66666 6.25 1.66666 10.8333C1.66666 13.3833 2.81666 15.6667 4.61666 17.1917L5.50833 16.3083C3.925 15 2.91666 13.0333 2.91666 10.8333C2.91666 6.925 6.09166 3.75 10 3.75C13.9083 3.75 17.0833 6.925 17.0833 10.8333C17.0833 13.0333 16.075 15 14.4917 16.3083L15.3833 17.1917C17.1833 15.6583 18.3333 13.3833 18.3333 10.8333C18.3333 6.25 14.5833 2.5 10 2.5ZM15.8333 10.8333C15.8333 7.60833 13.225 5 10 5C8.78689 4.99925 7.60377 5.37699 6.61554 6.08058C5.62731 6.78417 4.88322 7.77854 4.48696 8.92511C4.09071 10.0717 4.06204 11.3133 4.40496 12.4769C4.74788 13.6406 5.44529 14.6682 6.4 15.4167L7.29166 14.525C6.15833 13.6833 5.41666 12.35 5.41666 10.8333C5.41666 8.30833 7.475 6.25 10 6.25C12.525 6.25 14.5833 8.30833 14.5833 10.8333C14.5833 12.35 13.8417 13.6833 12.7083 14.525L13.6083 15.4167C14.3016 14.8706 14.8619 14.1745 15.2473 13.3806C15.6327 12.5867 15.8331 11.7158 15.8333 10.8333Z" fill="white"></path>
</svg>