<svg width="112" height="28" viewBox="0 0 112 28" fill="none" xmlns="http://www.w3.org/2000/svg">
<path d="M6.58824 0L0 6.58824V13.1765H6.58824V6.58824H13.1765V0H6.58824Z" fill="white"/>
<path d="M0 6.58824L6.58824 0H13.1765V6.58824H0Z" fill="white"/>
<path d="M14.2744 6.58824L14.2744 2.87981e-07L20.8626 0L20.8627 6.58824L27.4509 6.58823V13.1765H20.8627L14.2744 6.58824Z" fill="white"/>
<path d="M14.2744 2.87981e-07L14.2744 6.58824L20.8627 13.1765L20.8627 0L14.2744 2.87981e-07Z" fill="white"/>
<path d="M35.1371 13.1765V6.58824H41.7253V0H35.1371L28.5488 6.58824V13.1765H35.1371Z" fill="white"/>
<path d="M35.1371 0V13.1765H28.5488V6.58824L35.1371 0Z" fill="white"/>
<path d="M0 27.8409H1.66055V25.0269H4.64358V23.7343H1.66055V22.1731H5.07115V20.7612H0V27.8409Z" fill="white"/>
<path d="M6.94425 27.9702C7.67012 27.9702 8.25678 27.7017 8.57497 27.1946H8.6744V27.8409H10.146V24.48C10.146 23.3266 9.22129 22.5908 7.76955 22.5908C6.3377 22.5908 5.41296 23.3067 5.41296 24.4204H6.85475C6.84481 23.9132 7.21272 23.6149 7.74966 23.6149C8.33633 23.6149 8.6744 23.9431 8.6744 24.4303V24.6391L7.59057 24.7684C5.98968 24.9672 5.18426 25.5539 5.18426 26.5085C5.18426 27.4233 5.90018 27.9702 6.94425 27.9702ZM7.43147 27.0056C6.92436 27.0056 6.62606 26.767 6.62606 26.3892C6.62606 26.0411 6.90447 25.7528 7.63034 25.6633L8.6744 25.534V25.892C8.6744 26.5284 8.16729 27.0056 7.43147 27.0056Z" fill="white"/>
<path d="M11.8888 22.0439C12.4058 22.0439 12.7737 21.6859 12.7737 21.1788C12.7737 20.6816 12.4058 20.3137 11.8888 20.3137C11.3717 20.3137 11.0038 20.6816 11.0038 21.1788C11.0038 21.6859 11.3717 22.0439 11.8888 22.0439ZM11.153 27.8409H12.6246V22.7499H11.153V27.8409Z" fill="white"/>
<path d="M13.8027 27.8409H15.2744V25.2357C15.2744 24.4502 15.7119 23.9132 16.3582 23.9132C16.567 23.9132 16.9051 23.9729 17.1934 24.1022V22.7797C17.0343 22.7001 16.8255 22.6504 16.6167 22.6504C16.0798 22.6504 15.5826 22.9686 15.3638 23.4459H15.2545V22.7499H13.8027V27.8409Z" fill="white"/>
<path d="M20.5744 27.8409H25.4566V26.4289H22.225V20.7612H20.5744V27.8409Z" fill="white"/>
<path d="M27.7221 27.9702C28.448 27.9702 29.0347 27.7017 29.3529 27.1946H29.4523V27.8409H30.9239V24.48C30.9239 23.3266 29.9992 22.5908 28.5474 22.5908C27.1156 22.5908 26.1908 23.3067 26.1908 24.4204H27.6326C27.6227 23.9132 27.9906 23.6149 28.5276 23.6149C29.1142 23.6149 29.4523 23.9431 29.4523 24.4303V24.6391L28.3685 24.7684C26.7676 24.9672 25.9622 25.5539 25.9622 26.5085C25.9622 27.4233 26.6781 27.9702 27.7221 27.9702ZM28.2094 27.0056C27.7022 27.0056 27.4039 26.767 27.4039 26.3892C27.4039 26.0411 27.6824 25.7528 28.4082 25.6633L29.4523 25.534V25.892C29.4523 26.5284 28.9452 27.0056 28.2094 27.0056Z" fill="white"/>
<path d="M36.7733 22.7499H35.3017V25.6136C35.3017 26.2599 34.8144 26.7272 34.2278 26.7272C33.6312 26.7272 33.2732 26.2897 33.2732 25.6633V22.7499H31.8016V25.8721C31.8016 27.0951 32.5672 27.99 33.7207 27.99C34.3372 27.99 34.8244 27.7017 35.2022 27.125H35.3017V27.8409H36.7733V22.7499Z" fill="white"/>
<path d="M37.9113 27.8409H39.3829V24.9772C39.3829 24.3309 39.8701 23.8635 40.4568 23.8635C41.0534 23.8635 41.4114 24.301 41.4114 24.9275V27.8409H42.883V24.7187C42.883 23.4956 42.1174 22.6007 40.9639 22.6007C40.3474 22.6007 39.8602 22.8891 39.4823 23.4658H39.3829V22.7499H37.9113V27.8409Z" fill="white"/>
<path d="M46.2781 28C47.6404 28 48.7043 27.2244 48.8933 26.0212L47.5111 25.8522C47.3719 26.3991 46.8747 26.7869 46.2881 26.7869C45.5423 26.7869 44.9855 26.1704 44.9855 25.2954C44.9855 24.4204 45.5523 23.8039 46.298 23.8039C46.8648 23.8039 47.3819 24.1917 47.5111 24.7485L48.8833 24.5695C48.7143 23.3664 47.6603 22.5908 46.2781 22.5908C44.6375 22.5908 43.5139 23.6746 43.5139 25.2954C43.5139 26.9062 44.6574 28 46.2781 28Z" fill="white"/>
<path d="M49.603 27.8409H51.0746V24.9772C51.0746 24.3209 51.5618 23.8536 52.1485 23.8536C52.7451 23.8536 53.113 24.2911 53.113 24.9175V27.8409H54.5846V24.6988C54.5846 23.4857 53.809 22.5908 52.6556 22.5908C52.0391 22.5908 51.5618 22.8791 51.174 23.436H51.0746V20.4629H49.603V27.8409Z" fill="white"/>
<path d="M58.239 27.8409H59.8996V25.0269H62.8826V23.7343H59.8996V22.1731H63.3102V20.7612H58.239V27.8409Z" fill="white"/>
<path d="M66.4361 28C68.1265 28 69.2601 26.946 69.2601 25.2954C69.2601 23.6547 68.1265 22.5908 66.4361 22.5908C64.7358 22.5908 63.6122 23.6547 63.6122 25.2954C63.6122 26.936 64.7358 28 66.4361 28ZM66.4361 26.7471C65.6406 26.7471 65.0838 26.1406 65.0838 25.2954C65.0838 24.4502 65.6406 23.8536 66.4361 23.8536C67.2217 23.8536 67.7785 24.4502 67.7785 25.2954C67.7785 26.1406 67.2217 26.7471 66.4361 26.7471Z" fill="white"/>
<path d="M74.9456 22.7499H73.474V25.6136C73.474 26.2599 72.9867 26.7272 72.4001 26.7272C71.8035 26.7272 71.4455 26.2897 71.4455 25.6633V22.7499H69.9739V25.8721C69.9739 27.0951 70.7395 27.99 71.893 27.99C72.5095 27.99 72.9967 27.7017 73.3745 27.125H73.474V27.8409H74.9456V22.7499Z" fill="white"/>
<path d="M76.0836 27.8409H77.5552V24.9772C77.5552 24.3309 78.0424 23.8635 78.6291 23.8635C79.2257 23.8635 79.5837 24.301 79.5837 24.9275V27.8409H81.0553V24.7187C81.0553 23.4956 80.2896 22.6007 79.1362 22.6007C78.5197 22.6007 78.0325 22.8891 77.6546 23.4658H77.5552V22.7499H76.0836V27.8409Z" fill="white"/>
<path d="M84.1919 28C84.9078 28 85.4448 27.7116 85.8027 27.1946H85.9022V27.8409H87.3738V20.4629H85.9022V23.3862H85.8027C85.4448 22.8791 84.888 22.5908 84.182 22.5908C82.7998 22.5908 81.7856 23.6845 81.7856 25.2954C81.7856 26.9162 82.7899 28 84.1919 28ZM84.6095 26.7471C83.8339 26.7471 83.2572 26.1207 83.2572 25.2954C83.2572 24.48 83.824 23.8536 84.6095 23.8536C85.3951 23.8536 85.9519 24.48 85.9519 25.2954C85.9519 26.1107 85.3951 26.7471 84.6095 26.7471Z" fill="white"/>
<path d="M89.8333 27.9702C90.5591 27.9702 91.1458 27.7017 91.464 27.1946H91.5634V27.8409H93.035V24.48C93.035 23.3266 92.1103 22.5908 90.6586 22.5908C89.2267 22.5908 88.302 23.3067 88.302 24.4204H89.7438C89.7338 23.9132 90.1017 23.6149 90.6387 23.6149C91.2253 23.6149 91.5634 23.9431 91.5634 24.4303V24.6391L90.4796 24.7684C88.8787 24.9672 88.0733 25.5539 88.0733 26.5085C88.0733 27.4233 88.7892 27.9702 89.8333 27.9702ZM90.3205 27.0056C89.8134 27.0056 89.5151 26.767 89.5151 26.3892C89.5151 26.0411 89.7935 25.7528 90.5193 25.6633L91.5634 25.534V25.892C91.5634 26.5284 91.0563 27.0056 90.3205 27.0056Z" fill="white"/>
<path d="M95.961 28C96.2494 28 96.667 27.9403 96.9554 27.8409V26.7869C96.7864 26.8267 96.5676 26.8565 96.4284 26.8565C96.0108 26.8565 95.7522 26.5681 95.7522 26.1406V23.8238H96.9156V22.7499H95.7522L95.7622 21.139H94.6087L94.3204 22.7499H93.5647V23.8238H94.2806V26.2002C94.2806 27.2741 94.9369 28 95.961 28Z" fill="white"/>
<path d="M98.6499 22.0439C99.1669 22.0439 99.5349 21.6859 99.5349 21.1788C99.5349 20.6816 99.1669 20.3137 98.6499 20.3137C98.1328 20.3137 97.7649 20.6816 97.7649 21.1788C97.7649 21.6859 98.1328 22.0439 98.6499 22.0439ZM97.9141 27.8409H99.3857V22.7499H97.9141V27.8409Z" fill="white"/>
<path d="M102.95 28C104.641 28 105.774 26.946 105.774 25.2954C105.774 23.6547 104.641 22.5908 102.95 22.5908C101.25 22.5908 100.126 23.6547 100.126 25.2954C100.126 26.936 101.25 28 102.95 28ZM102.95 26.7471C102.155 26.7471 101.598 26.1406 101.598 25.2954C101.598 24.4502 102.155 23.8536 102.95 23.8536C103.736 23.8536 104.293 24.4502 104.293 25.2954C104.293 26.1406 103.736 26.7471 102.95 26.7471Z" fill="white"/>
<path d="M106.468 27.8409H107.94V24.9772C107.94 24.3309 108.427 23.8635 109.014 23.8635C109.61 23.8635 109.968 24.301 109.968 24.9275V27.8409H111.44V24.7187C111.44 23.4956 110.674 22.6007 109.521 22.6007C108.904 22.6007 108.417 22.8891 108.039 23.4658H107.94V22.7499H106.468V27.8409Z" fill="white"/>
</svg>
