<svg width="20" height="20" viewBox="0 0 20 20" fill="none" xmlns="http://www.w3.org/2000/svg">
    <path fill-rule="evenodd" clip-rule="evenodd" d="M10 0C4.47715 0 0 4.47715 0 10C0 15.5228 4.47715 20 10 20C15.5228 20 20 15.5228 20 10C20 4.47715 15.5228 0 10 0ZM15.1374 13.9524L16.0413 14.8571V14.9048H11.3792V14.8571L12.3306 13.9524C12.4258 13.8571 12.4733 13.7619 12.4733 13.619V8C12.4733 7.7619 12.4733 7.42857 12.5209 7.14286L9.38115 15H9.33358L6.09867 7.7619C6.06696 7.63492 6.03524 7.59259 6.00353 7.55026C5.98767 7.5291 5.97182 7.50794 5.95596 7.47619V12.2381C5.90839 12.5714 5.95596 12.8571 6.09867 13.1429L7.38312 14.8571V14.9048H3.95793V14.8571L5.24238 13.0952C5.38509 12.8095 5.43266 12.4762 5.38509 12.1905V6.95238C5.38509 6.71428 5.33752 6.42857 5.14723 6.23809L4.29093 5.04762V5H7.62098L10.3802 11.1429L12.8064 5H16.0413V5.04762L15.1374 6.09524C15.0422 6.19048 14.9947 6.33333 14.9947 6.42857V13.6667C14.9947 13.7619 15.0422 13.9048 15.1374 13.9524Z" fill="#929292"/>
    </svg>
    