<svg width="21" height="21" viewBox="0 0 20 20" fill="none" xmlns="http://www.w3.org/2000/svg" class="MuiSvgIcon-root MuiSvgIcon-colorPrimary MuiSvgIcon-fontSizeSmall" focusable="false" color="#FCFCFC" aria-hidden="true">
	<path d="M18.8215 0.98487C18.5999 0.995557 18.3843 1.06335 18.1898 1.14898C17.9973 1.23403 16.8892 1.7541 15.2528 2.52341C13.6164 3.29271 11.4892 4.29451 9.38054 5.28789C5.16323 7.27464 1.019 9.22947 1.019 9.22947L1.04921 9.21677C1.04921 9.21677 0.79908 9.3087 0.545487 9.50299C0.418691 9.60013 0.282279 9.72554 0.170586 9.90838C0.0588934 10.0912 -0.0227612 10.3503 0.00801049 10.6244C0.116095 11.5871 1.02344 11.8601 1.02344 11.8601L1.027 11.8621L5.07628 13.386C5.17952 13.7647 6.30445 17.8931 6.5519 18.7674C6.68856 19.2508 6.81648 19.5296 6.9499 19.7198C7.01667 19.815 7.08664 19.8887 7.164 19.9426C7.19474 19.964 7.22707 19.98 7.25906 19.9943C7.25974 19.9947 7.26015 19.994 7.26084 19.9943C7.26477 19.9962 7.26847 19.9964 7.27239 19.9982L7.26173 19.9953C7.26916 19.9986 7.27649 20.0042 7.28394 20.007C7.29837 20.0126 7.30722 20.0124 7.32569 20.0168C7.78944 20.1948 8.17322 19.8644 8.17322 19.8644L8.18921 19.8507L10.6767 17.3139L14.7136 20.7748L14.7642 20.8002C15.4708 21.1452 16.1098 20.9528 16.4637 20.6361C16.8176 20.3195 16.9567 19.9113 16.9567 19.9113L16.9718 19.8683L19.9382 2.86823C20.0141 2.4879 20.0249 2.15915 19.9533 1.86208C19.8817 1.56501 19.7078 1.30677 19.4895 1.16363C19.2713 1.0205 19.043 0.974183 18.8215 0.98487ZM18.8455 2.00177C18.9354 1.99719 19.0021 2.0085 19.0231 2.02228C19.0442 2.03607 19.0536 2.03425 19.0738 2.11801C19.094 2.20177 19.1049 2.37819 19.0498 2.6543L19.048 2.66016L16.0986 19.5616C16.0916 19.5786 16.0301 19.735 15.8898 19.8605C15.7466 19.9886 15.5874 20.0886 15.1649 19.8937L10.7504 16.1084L10.6261 16.001L10.6234 16.0039L9.30325 14.9147L16.7222 5.31719C16.7792 5.24364 16.8156 5.1535 16.827 5.05767C16.8384 4.96185 16.8243 4.86444 16.7865 4.77723C16.7486 4.69002 16.6886 4.61674 16.6136 4.56625C16.5387 4.51576 16.452 4.49023 16.3642 4.49273C16.2783 4.49518 16.1949 4.52431 16.1234 4.57674L5.38811 12.4462L1.3326 10.9194C1.3326 10.9194 0.929892 10.673 0.910616 10.5013C0.909547 10.4918 0.904792 10.5004 0.925719 10.4662C0.946645 10.4319 0.999247 10.3741 1.0652 10.3235C1.19709 10.2225 1.3477 10.1614 1.3477 10.1614L1.36281 10.1555L1.37791 10.1487C1.37791 10.1487 5.52236 8.19376 9.73945 6.2071C11.848 5.21377 13.9748 4.21271 15.6108 3.4436C17.2464 2.67468 18.4282 2.12122 18.5283 2.07699C18.6422 2.02682 18.7555 2.00635 18.8455 2.00177ZM13.9255 7.39006L8.29937 14.6686L8.2967 14.6715C8.28792 14.6831 8.27962 14.6952 8.27183 14.7076C8.2629 14.7212 8.2546 14.7352 8.24695 14.7496C8.21534 14.8086 8.19508 14.8741 8.18743 14.9421C8.18743 14.9434 8.18743 14.9447 8.18743 14.946L7.45451 18.5701C7.44232 18.5309 7.43379 18.5166 7.42075 18.4705V18.4695C7.18796 17.647 6.12662 13.7535 5.97978 13.215L13.9255 7.39006ZM8.93457 15.8613L9.94556 16.6955L8.46017 18.2096L8.93457 15.8613Z"></path>
</svg>