<?xml version="1.0" standalone="no"?>
<!DOCTYPE svg PUBLIC "-//W3C//DTD SVG 20010904//EN"
 "http://www.w3.org/TR/2001/REC-SVG-20010904/DTD/svg10.dtd">
<svg version="1.0" xmlns="http://www.w3.org/2000/svg"
 width="32.000000pt" height="32.000000pt" viewBox="0 0 32.000000 32.000000"
 preserveAspectRatio="xMidYMid meet">
<metadata>
Created by potrace 1.10, written by Peter Selinger 2001-2011
</metadata>
<g transform="translate(0.000000,299.000000) scale(0.100000,-0.100000)"
fill="#bf9000" stroke="none">
<path d="M133 2955 c0 -22 2 -30 4 -17 2 12 2 30 0 40 -3 9 -5 -1 -4 -23z"/>
<path d="M240 2935 l0 -54 -57 -4 -58 -3 63 -2 62 -2 0 60 c0 33 -2 60 -5 60
-3 0 -5 -25 -5 -55z"/>
<path d="M382 2960 c0 -19 2 -27 5 -17 2 9 2 25 0 35 -3 9 -5 1 -5 -18z"/>
<path d="M490 2935 l0 -55 -49 0 c-43 0 -50 3 -54 23 -4 19 -4 18 -6 -5 -1
-28 0 -28 59 -28 l60 0 0 60 c0 33 -2 60 -5 60 -3 0 -5 -25 -5 -55z"/>
<path d="M632 2933 c-2 -60 -1 -63 21 -62 16 1 17 3 5 6 -13 3 -18 18 -21 61
l-3 57 -2 -62z"/>
<path d="M739 2978 c-1 -7 -1 -31 -2 -53 0 -37 -3 -41 -31 -46 -31 -6 -31 -6
7 -8 l37 -1 0 60 c0 33 -2 60 -5 60 -3 0 -6 -6 -6 -12z"/>
<path d="M883 2940 c0 -30 2 -43 4 -27 2 15 2 39 0 55 -2 15 -4 2 -4 -28z"/>
<path d="M992 2965 c0 -16 2 -22 5 -12 2 9 2 23 0 30 -3 6 -5 -1 -5 -18z"/>
<path d="M1365 2980 c-261 -22 -503 -112 -727 -270 -308 -217 -539 -585 -602
-960 -22 -129 -22 -370 -1 -496 100 -585 532 -1053 1105 -1199 270 -68 587
-55 852 36 401 137 742 460 899 852 35 86 77 240 89 323 16 118 13 388 -6 497
-50 292 -198 573 -413 787 -253 252 -584 408 -910 428 -113 7 -140 -1 -41 -13
175 -20 348 -61 460 -111 259 -114 437 -252 614 -475 20 -24 36 -47 36 -50 0
-4 16 -31 36 -60 83 -123 170 -347 193 -494 19 -128 21 -139 27 -240 9 -135
-26 -358 -80 -510 -114 -324 -326 -592 -605 -762 -99 -61 -261 -143 -282 -143
-6 0 -46 -11 -88 -24 -262 -83 -570 -83 -841 0 -114 35 -277 109 -350 159 -19
14 -50 35 -68 47 -128 88 -282 244 -372 378 -157 234 -244 513 -249 798 -2
108 16 292 29 292 3 0 5 12 3 28 -6 40 64 247 125 367 78 157 240 355 388 476
77 63 229 159 251 159 7 0 13 5 13 10 0 6 9 10 19 10 11 0 23 5 26 10 4 6 11
8 16 5 5 -4 9 -2 9 3 0 11 180 74 260 91 61 12 152 28 220 37 25 3 49 10 55
15 5 5 7 8 5 8 -3 -1 -45 -5 -95 -9z"/>
<path d="M1992 2965 c0 -16 2 -22 5 -12 2 9 2 23 0 30 -3 6 -5 -1 -5 -18z"/>
<path d="M2133 2955 c0 -22 2 -30 4 -17 2 12 2 30 0 40 -3 9 -5 -1 -4 -23z"/>
<path d="M2240 2936 c0 -54 0 -55 -32 -59 -32 -4 -32 -4 5 -5 l37 -2 0 60 c0
33 -2 60 -5 60 -3 0 -5 -24 -5 -54z"/>
<path d="M2383 2945 c0 -27 2 -38 4 -22 2 15 2 37 0 50 -2 12 -4 0 -4 -28z"/>
<path d="M2490 2936 l0 -55 -37 -4 -38 -4 43 -1 42 -2 0 60 c0 33 -2 60 -5 60
-3 0 -5 -24 -5 -54z"/>
<path d="M2631 2974 c0 -11 3 -14 6 -6 3 7 2 16 -1 19 -3 4 -6 -2 -5 -13z"/>
<path d="M2740 2936 c0 -52 -1 -55 -27 -59 -26 -4 -26 -4 5 -6 l32 -1 0 60 c0
33 -2 60 -5 60 -3 0 -5 -24 -5 -54z"/>
<path d="M2882 2960 c0 -19 2 -27 5 -17 2 9 2 25 0 35 -3 9 -5 1 -5 -18z"/>
<path d="M2633 2910 c0 -25 2 -35 4 -22 2 12 2 32 0 45 -2 12 -4 2 -4 -23z"/>
<path d="M2881 2898 c-1 -28 -1 -28 62 -26 l62 2 -57 3 c-49 3 -57 7 -61 26
-4 18 -5 17 -6 -5z"/>
<path d="M250 2800 l0 -60 -60 0 -60 0 0 -60 0 -60 60 0 60 0 0 60 0 60 60 0
c33 0 60 3 60 8 0 4 -25 5 -55 4 l-55 -4 0 50 c0 40 4 52 18 55 13 4 11 5 -5
6 -21 1 -23 -3 -23 -59z m-10 -120 l0 -50 -50 0 -50 0 0 50 0 50 50 0 50 0 0
-50z"/>
<path d="M340 2853 c8 -3 18 -11 22 -17 5 -7 8 -4 8 7 0 11 -7 17 -22 16 -16
0 -18 -2 -8 -6z"/>
<path d="M500 2800 l0 -60 -60 0 -60 0 0 -62 c0 -34 3 -58 6 -55 4 3 6 29 5
57 l-1 51 48 -3 47 -3 6 -45 6 -45 1 53 2 52 60 0 60 0 0 60 0 60 -60 0 -60 0
0 -60z m110 0 l0 -50 -50 0 -50 0 0 50 0 50 50 0 50 0 0 -50z"/>
<path d="M750 2840 c0 -11 2 -20 4 -20 2 0 6 9 9 20 3 11 1 20 -4 20 -5 0 -9
-9 -9 -20z"/>
<path d="M2251 2838 c1 -17 2 -19 6 -5 3 13 15 17 53 17 l49 0 4 -47 3 -48 2
53 2 52 -60 0 c-56 0 -60 -2 -59 -22z"/>
<path d="M2500 2800 l0 -60 -57 -2 -58 -2 52 -3 52 -4 4 -42 4 -42 1 48 2 47
60 0 60 0 0 60 c0 33 -3 60 -7 60 -5 0 -6 -25 -5 -55 l4 -55 -51 0 -51 0 0 49
c0 46 2 50 28 54 25 4 25 4 -5 6 l-33 1 0 -60z"/>
<path d="M2750 2800 l0 -60 -60 0 -60 0 0 -60 c0 -56 2 -60 23 -59 16 1 18 2
5 6 -14 3 -18 15 -18 54 l0 49 50 0 50 0 0 -49 c0 -49 -1 -50 -32 -54 -32 -4
-32 -4 5 -5 l37 -2 0 60 0 60 60 0 c33 0 60 3 60 8 0 4 -25 5 -55 4 l-54 -4 1
49 c0 26 6 51 12 55 7 5 5 8 -6 8 -15 0 -18 -9 -18 -60z"/>
<path d="M27 2743 c18 -2 48 -2 66 0 17 2 3 4 -33 4 -36 0 -50 -2 -33 -4z"/>
<path d="M2880 2680 l0 -60 63 2 62 2 -57 3 -58 4 0 49 0 49 58 4 57 3 -62 2
-63 2 0 -60z"/>
<path d="M1414 2640 c-43 -43 -82 -76 -87 -73 -6 3 -7 1 -3 -5 3 -6 -4 -19
-16 -29 -13 -10 -60 -57 -105 -105 -46 -47 -83 -86 -83 -84 0 1 -83 -81 -185
-182 -102 -102 -185 -190 -185 -196 0 -14 272 -286 286 -286 6 0 23 14 39 30
22 22 31 27 38 18 6 -10 7 -9 4 2 -4 17 122 152 135 144 5 -3 7 0 6 7 -2 7 4
13 12 14 8 0 15 5 15 10 0 17 38 54 48 48 6 -3 7 -2 4 4 -8 12 68 85 78 75 4
-4 5 0 3 8 -2 9 3 14 12 12 8 -2 12 -1 8 3 -4 4 10 25 30 46 l36 40 231 -231
c239 -238 258 -253 289 -209 9 13 19 18 27 14 8 -6 10 -4 5 4 -5 8 16 35 60
77 38 35 72 64 77 64 4 0 6 4 2 9 -7 12 30 33 40 23 3 -4 5 -2 4 3 -2 6 4 22
14 36 16 24 16 29 2 62 -15 37 -30 52 -18 20 3 -10 -29 17 -71 60 -42 43 -76
83 -76 88 0 6 -4 8 -9 5 -5 -3 -14 1 -21 9 -7 8 -9 15 -4 15 5 1 -3 7 -18 16
-19 10 -25 19 -21 31 4 11 3 14 -5 9 -14 -9 -94 68 -84 80 4 4 1 4 -6 0 -9 -5
-15 -1 -19 13 -3 11 -9 19 -13 16 -10 -6 -60 52 -52 61 4 4 2 4 -4 1 -12 -7
-71 52 -66 66 1 5 -3 5 -9 1 -9 -5 -10 -2 -6 9 4 12 2 14 -10 10 -11 -4 -14
-3 -9 6 4 6 3 10 -2 9 -14 -4 -129 115 -125 129 2 6 -1 15 -8 19 -8 5 -9 3 -4
-6 5 -8 3 -11 -6 -8 -8 3 -12 12 -11 19 2 8 1 11 -3 8 -3 -4 -18 4 -32 17 -14
13 -32 24 -38 24 -7 0 -48 -36 -91 -80z m705 -816 l-135 -135 -237 238 -237
239 -237 -238 -238 -238 -137 137 -138 138 345 345 c190 190 342 350 338 355
-4 4 -3 5 3 2 6 -4 22 5 35 19 l23 25 376 -376 375 -375 -136 -136z"/>
<path d="M28 2603 c6 -2 18 -2 25 0 6 3 1 5 -13 5 -14 0 -19 -2 -12 -5z"/>
<path d="M110 2555 l0 -54 -57 -4 -58 -3 63 -2 62 -2 0 60 c0 33 -2 60 -5 60
-3 0 -5 -25 -5 -55z"/>
<path d="M250 2550 l0 -60 -60 0 -60 0 0 -60 c0 -33 3 -60 8 -60 4 0 5 25 4
55 l-4 55 51 0 51 0 0 -49 0 -50 -42 -4 -43 -4 48 -1 47 -2 0 60 0 60 58 2 57
2 -52 3 -53 4 1 50 2 49 47 0 c29 0 50 -5 53 -12 3 -8 6 -6 6 5 1 14 -8 17
-59 17 l-60 0 0 -60z"/>
<path d="M2596 2602 c7 -4 14 -18 17 -32 4 -21 4 -20 6 8 1 24 -3 32 -16 32
-12 0 -14 -3 -7 -8z"/>
<path d="M2750 2550 l0 -60 -47 -2 -48 -1 42 -4 42 -4 4 -52 3 -52 2 58 2 57
63 2 62 2 -57 3 -58 4 0 49 c0 29 5 50 13 53 7 3 5 6 -5 6 -15 1 -18 -8 -18
-59z"/>
<path d="M2837 2603 c12 -2 24 -12 26 -21 3 -12 5 -10 6 6 1 18 -4 22 -26 21
-23 -1 -24 -2 -6 -6z"/>
<path d="M2880 2430 l0 -60 63 2 62 2 -57 3 -58 4 0 49 0 49 58 4 57 3 -62 2
-63 2 0 -60z"/>
<path d="M97 2352 c6 -4 13 -28 16 -52 l4 -45 1 53 c2 44 -1 52 -15 52 -12 0
-14 -3 -6 -8z"/>
<path d="M2863 2320 c0 -25 2 -35 4 -22 2 12 2 32 0 45 -2 12 -4 2 -4 -23z"/>
<path d="M27 2243 c18 -2 48 -2 66 0 17 2 3 4 -33 4 -36 0 -50 -2 -33 -4z"/>
<path d="M2838 2243 c6 -2 18 -2 25 0 6 3 1 5 -13 5 -14 0 -19 -2 -12 -5z"/>
<path d="M131 2208 c2 -30 2 -30 6 -6 2 15 12 29 21 31 12 3 10 5 -5 6 -20 1
-23 -4 -22 -31z"/>
<path d="M2882 2203 c1 -37 1 -37 5 -6 4 31 5 32 61 36 l57 3 -62 2 -63 2 2
-37z"/>
<path d="M2923 2123 c15 -2 39 -2 55 0 15 2 2 4 -28 4 -30 0 -43 -2 -27 -4z"/>
<path d="M18 1993 c12 -2 30 -2 40 0 9 3 -1 5 -23 4 -22 0 -30 -2 -17 -4z"/>
<path d="M2953 1983 c9 -2 25 -2 35 0 9 3 1 5 -18 5 -19 0 -27 -2 -17 -5z"/>
<path d="M432 1659 c-78 -78 -142 -150 -142 -159 0 -10 45 -62 99 -116 55 -54
98 -102 95 -106 -3 -5 0 -7 8 -6 7 2 12 -3 10 -9 -1 -7 5 -13 14 -13 9 0 12
-5 8 -12 -4 -7 -3 -8 5 -4 6 4 14 0 17 -8 3 -9 14 -16 23 -16 24 0 291 271
291 295 0 12 -31 51 -75 95 -40 40 -71 78 -68 83 3 6 2 7 -4 4 -5 -3 -36 21
-68 53 -33 33 -62 60 -65 60 -3 0 -70 -64 -148 -141z m285 -11 c73 -73 133
-138 133 -143 0 -6 -62 -72 -138 -148 l-137 -137 -140 140 -140 140 140 140
c77 77 142 140 144 140 2 0 64 -60 138 -132z"/>
<path d="M1388 1698 c-56 -57 -105 -102 -110 -101 -4 2 -8 -1 -8 -7 0 -5 -16
-25 -36 -44 -25 -24 -34 -40 -30 -53 3 -11 71 -84 151 -162 l145 -143 28 18
c15 9 33 26 40 36 7 10 18 15 24 12 6 -4 9 -3 5 2 -7 13 127 146 138 136 4 -4
6 -2 2 3 -3 6 12 28 34 50 38 38 49 68 29 80 -6 4 -8 11 -5 16 4 5 0 9 -7 9
-15 0 -54 41 -50 52 1 5 -4 7 -11 5 -6 -1 -11 4 -9 11 1 8 -1 11 -6 8 -12 -7
-64 48 -55 58 5 4 3 6 -2 4 -6 -1 -28 14 -49 35 -22 20 -43 37 -49 37 -5 0 -6
7 -3 16 3 8 2 12 -3 9 -5 -3 -12 -1 -16 5 -16 26 -51 4 -147 -92z m265 -55
l147 -147 -146 -145 -145 -145 -147 147 -147 147 145 145 c80 80 145 145 145
145 1 0 67 -66 148 -147z"/>
<path d="M2306 1664 c-66 -68 -124 -120 -130 -117 -6 3 -8 2 -3 -2 4 -5 -1
-17 -10 -27 -16 -18 -11 -25 127 -163 80 -80 148 -145 152 -145 3 0 14 7 22
16 9 8 20 12 26 9 6 -4 9 -1 8 7 -2 7 2 12 9 11 8 -2 10 4 6 14 -5 12 -2 15
10 10 10 -4 16 -2 14 6 -1 7 3 11 10 10 8 -2 10 4 6 14 -5 13 -2 15 12 9 11
-4 16 -4 12 0 -10 10 104 125 116 117 6 -3 7 -2 4 4 -4 5 3 20 15 33 18 19 19
26 9 42 -6 10 -9 24 -5 30 5 7 3 8 -5 3 -14 -8 -63 33 -55 46 3 5 -1 9 -8 9
-13 0 -78 68 -78 82 0 5 -5 6 -12 2 -7 -5 -9 -2 -5 9 4 12 2 14 -10 10 -10 -4
-14 -2 -10 4 4 5 -5 15 -19 22 -16 7 -24 17 -20 26 3 9 0 12 -8 9 -7 -3 -19 2
-26 11 -7 8 -18 14 -24 14 -6 -1 -65 -57 -130 -125z m274 -29 l134 -135 -136
-137 -136 -138 -138 138 -137 139 134 134 c73 74 136 134 139 134 3 0 66 -61
140 -135z"/>
<path d="M1036 1323 c-10 -3 -28 -13 -39 -24 -11 -10 -25 -15 -31 -12 -6 3 -8
2 -3 -2 10 -12 -43 -66 -57 -58 -6 3 -8 2 -3 -2 9 -11 -23 -46 -35 -39 -4 3
-7 1 -6 -4 2 -6 -23 -38 -54 -71 -32 -33 -58 -66 -58 -73 0 -8 49 -63 109
-123 61 -60 107 -114 104 -119 -4 -6 -2 -7 2 -3 11 9 526 -503 519 -515 -6 -9
26 1 43 14 7 6 17 7 22 3 6 -3 8 0 5 8 -5 15 20 42 33 34 5 -3 14 6 21 21 6
15 25 36 41 47 16 10 27 24 24 29 -4 5 1 7 10 3 10 -4 16 -2 14 6 -1 7 3 11
10 10 7 -2 10 3 7 11 -6 16 29 39 41 28 5 -4 5 -2 2 4 -8 15 82 106 96 97 6
-3 7 -1 3 6 -9 14 20 45 34 36 6 -4 9 -1 8 7 -2 7 2 12 9 11 7 -2 10 4 6 13
-3 8 -2 14 3 12 5 -2 29 19 54 45 25 27 51 55 58 63 8 8 18 12 23 9 5 -4 6 2
2 11 -5 14 -3 16 11 11 10 -4 15 -3 11 3 -6 9 62 80 77 80 4 0 7 4 5 9 -2 9
72 81 84 81 3 0 12 14 19 30 12 30 11 32 -46 91 -33 33 -58 65 -56 72 2 7 0 9
-4 5 -9 -10 -125 102 -118 114 3 4 -2 5 -10 2 -9 -3 -16 -2 -16 4 0 5 -7 13
-16 16 -10 4 -34 -11 -68 -44 -29 -27 -56 -48 -59 -45 -4 3 -5 2 -2 -2 8 -10
-147 -163 -158 -156 -6 3 -7 2 -4 -4 3 -5 -40 -55 -96 -111 l-102 -102 -48 48
c-26 27 -44 52 -39 57 4 5 2 5 -4 2 -12 -7 -367 346 -357 356 3 4 4 6 2 6 -2
-1 -13 -4 -23 -6z m236 -251 l237 -238 238 238 238 238 135 -135 136 -134
-376 -376 -375 -375 -373 373 -372 373 132 135 c73 75 135 137 138 137 3 1
112 -105 242 -236z"/>
<path d="M18 993 c12 -2 30 -2 40 0 9 3 -1 5 -23 4 -22 0 -30 -2 -17 -4z"/>
<path d="M2953 983 c9 -2 25 -2 35 0 9 3 1 5 -18 5 -19 0 -27 -2 -17 -5z"/>
<path d="M2938 873 c12 -2 32 -2 45 0 12 2 2 4 -23 4 -25 0 -35 -2 -22 -4z"/>
<path d="M108 806 l4 -55 -59 -4 -58 -3 63 -2 62 -2 0 60 c0 33 -3 60 -7 60
-5 0 -6 -24 -5 -54z"/>
<path d="M2845 750 c-19 -8 -19 -9 3 -9 12 -1 22 4 22 9 0 6 -1 10 -2 9 -2 0
-12 -4 -23 -9z"/>
<path d="M130 680 c0 -59 0 -60 28 -59 23 2 24 2 5 6 -20 4 -23 11 -23 53 0
42 3 49 23 53 19 4 18 4 -5 6 -28 1 -28 0 -28 -59z"/>
<path d="M2880 680 l0 -60 63 2 62 2 -58 3 -58 4 2 47 3 47 56 6 55 6 -62 1
-63 2 0 -60z"/>
<path d="M240 641 c0 -5 -8 -12 -17 -14 -14 -4 -12 -5 5 -6 13 -1 22 5 22 14
0 8 -2 15 -5 15 -3 0 -5 -4 -5 -9z"/>
<path d="M108 556 l4 -55 -59 -4 -58 -3 63 -2 62 -2 0 60 c0 33 -3 60 -7 60
-5 0 -6 -24 -5 -54z"/>
<path d="M250 550 l0 -60 -60 0 -60 0 0 -60 0 -60 60 0 60 0 0 60 0 60 43 2
42 1 -38 4 -39 4 4 55 c1 30 0 54 -4 54 -5 0 -8 -27 -8 -60z m-10 -120 l0 -50
-50 0 -50 0 0 50 0 50 50 0 50 0 0 -50z"/>
<path d="M2750 550 l0 -59 -57 -3 -58 -3 -3 -57 -3 -58 43 2 43 1 -37 4 -38 4
0 50 0 50 48 -3 47 -3 3 -44 c2 -28 -1 -47 -10 -52 -10 -7 -9 -9 5 -9 14 0 17
9 17 60 l0 60 60 0 60 0 -2 63 -2 62 -3 -57 -4 -58 -50 0 -51 0 4 55 c1 30 0
55 -4 55 -5 0 -8 -27 -8 -60z"/>
<path d="M348 493 c7 -3 16 -2 19 1 4 3 -2 6 -13 5 -11 0 -14 -3 -6 -6z"/>
<path d="M2880 430 l0 -60 62 0 c34 0 59 3 56 6 -3 3 -29 5 -57 6 l-51 0 0 48
0 49 58 4 57 3 -62 2 -63 2 0 -60z"/>
<path d="M380 378 c0 -5 26 -7 58 -7 61 1 55 6 -15 11 -24 2 -43 0 -43 -4z"/>
<path d="M28 353 c7 -3 16 -2 19 1 4 3 -2 6 -13 5 -11 0 -14 -3 -6 -6z"/>
<path d="M108 306 l4 -55 -49 -4 -48 -3 53 -2 52 -2 0 60 c0 33 -3 60 -7 60
-5 0 -6 -24 -5 -54z"/>
<path d="M250 300 l0 -60 -60 0 -60 0 0 -60 0 -60 60 0 60 0 0 60 0 60 60 0
60 0 -2 63 -2 62 -3 -57 -4 -58 -50 0 -51 0 4 55 c1 30 0 55 -4 55 -5 0 -8
-27 -8 -60z m-10 -120 l0 -50 -50 0 -50 0 0 50 0 50 50 0 50 0 0 -50z"/>
<path d="M500 302 l0 -62 -60 0 -60 0 2 -52 2 -53 3 48 4 48 47 -3 47 -3 3
-47 3 -47 -58 -4 -58 -3 61 -2 62 -2 7 116 c4 63 4 118 1 121 -3 4 -6 -21 -6
-55z"/>
<path d="M2500 302 l0 -62 -60 0 -60 0 1 -32 c2 -31 2 -31 6 -5 4 25 8 27 54
27 l49 0 0 -50 0 -49 -57 -4 -58 -3 63 -2 62 -2 0 60 0 60 60 0 60 0 -2 63 -2
62 -3 -57 -4 -58 -49 0 -48 0 0 51 c-1 28 -3 54 -6 57 -3 3 -6 -22 -6 -56z"/>
<path d="M2752 303 l-2 -63 -60 0 -60 0 0 -60 0 -60 60 0 60 0 0 60 0 60 60 0
c33 0 60 3 60 8 0 4 -24 5 -54 4 l-55 -4 -4 59 -3 58 -2 -62z m-12 -123 l0
-50 -50 0 -50 0 0 50 0 50 50 0 50 0 0 -50z"/>
<path d="M2862 340 c0 -14 2 -19 5 -12 2 6 2 18 0 25 -3 6 -5 1 -5 -13z"/>
<path d="M520 248 c0 -5 23 -8 50 -8 28 0 50 3 50 8 0 4 -22 7 -50 7 -27 0
-50 -3 -50 -7z"/>
<path d="M630 205 c0 -19 2 -35 4 -35 2 0 6 16 8 35 2 19 0 35 -4 35 -4 0 -8
-16 -8 -35z"/>
<path d="M2882 203 c1 -37 1 -37 5 -6 4 31 5 32 61 36 l57 3 -62 2 -63 2 2
-37z"/>
<path d="M741 163 c-1 -29 -4 -32 -38 -36 l-38 -4 43 -1 42 -2 2 -62 c1 -52 2
-55 5 -18 2 25 0 70 -5 100 -7 39 -10 46 -11 23z"/>
<path d="M2240 151 c0 -14 -8 -21 -27 -24 -26 -4 -26 -4 5 -6 28 -1 32 2 32
24 0 14 -2 25 -5 25 -3 0 -5 -9 -5 -19z"/>
<path d="M2881 143 c-1 -22 2 -23 62 -21 l62 2 -57 3 c-43 3 -58 8 -61 21 -3
12 -5 11 -6 -5z"/>
<path d="M45 110 c-19 -8 -19 -9 3 -9 12 -1 22 4 22 9 0 6 -1 10 -2 9 -2 0
-12 -4 -23 -9z"/>
<path d="M355 111 c-3 -5 -1 -12 5 -16 5 -3 10 1 10 9 0 18 -6 21 -15 7z"/>
<path d="M607 113 c-3 -5 -1 -17 4 -28 7 -17 8 -17 8 8 1 27 -4 34 -12 20z"/>
<path d="M108 75 c5 -45 12 -45 12 0 0 19 -4 35 -8 35 -4 0 -6 -16 -4 -35z"/>
<path d="M251 53 c1 -62 6 -56 11 15 2 23 0 42 -4 42 -5 0 -7 -26 -7 -57z"/>
<path d="M503 55 c0 -33 2 -45 4 -27 2 18 2 45 0 60 -2 15 -4 0 -4 -33z"/>
<path d="M2253 55 c0 -33 2 -45 4 -27 2 18 2 45 0 60 -2 15 -4 0 -4 -33z"/>
<path d="M2363 75 c0 -22 2 -30 4 -17 2 12 2 30 0 40 -3 9 -5 -1 -4 -23z"/>
<path d="M2503 55 c0 -33 2 -45 4 -27 2 18 2 45 0 60 -2 15 -4 0 -4 -33z"/>
<path d="M2613 75 c0 -22 2 -30 4 -17 2 12 2 30 0 40 -3 9 -5 -1 -4 -23z"/>
<path d="M2753 55 c0 -33 2 -45 4 -27 2 18 2 45 0 60 -2 15 -4 0 -4 -33z"/>
<path d="M2113 55 c0 -22 2 -30 4 -17 2 12 2 30 0 40 -3 9 -5 -1 -4 -23z"/>
<path d="M1003 35 c0 -22 2 -30 4 -17 2 12 2 30 0 40 -3 9 -5 -1 -4 -23z"/>
<path d="M612 40 c0 -14 2 -19 5 -12 2 6 2 18 0 25 -3 6 -5 1 -5 -13z"/>
<path d="M862 40 c0 -14 2 -19 5 -12 2 6 2 18 0 25 -3 6 -5 1 -5 -13z"/>
<path d="M2002 30 c0 -19 2 -27 5 -17 2 9 2 25 0 35 -3 9 -5 1 -5 -18z"/>
</g>
</svg>
