<svg width="1012" height="506" xmlns="http://www.w3.org/2000/svg">
 <g>
  <title>Layer 1</title>
  <path stroke="null" d="m0,0l0,30l27,0l0,-30l-27,0z" fill="#fefef2" id="svg_1"/>
  <path stroke="null" d="m10.26,1.2l0,0.6l2.7,0l-2.7,-0.6z" fill="#fceca2" id="svg_2"/>
  <path stroke="null" d="m13.32002,1.4l0.35996,0.2l-0.35996,-0.2z" fill="#f2d96d" id="svg_3"/>
  <path stroke="null" d="m14.04,1.2l0,0.6l2.16,0l-2.16,-0.6m-4.86,0.6l0.54,0.6l-0.54,-0.6z" fill="#fceca2" id="svg_4"/>
  <path stroke="null" d="m10.08002,2l0.35996,0.2l-0.35996,-0.2z" fill="#f2d96d" id="svg_5"/>
  <path stroke="null" d="m10.8,1.8l0.54,0.6l-0.54,-0.6z" fill="#e4c555" id="svg_6"/>
  <path stroke="null" d="m11.34,2.08796c-14.93294,3.31907 -10.43327,28.75096 4.32,25.20094c14.34661,-3.45216 10.15324,-28.41784 -4.32,-25.20094z" fill="#edbd17" id="svg_7"/>
  <path stroke="null" d="m15.48002,2l0.35996,0.2l-0.35996,-0.2z" fill="#e4c555" id="svg_8"/>
  <path stroke="null" d="m16.56002,2l0.35996,0.2l-0.35996,-0.2z" fill="#f2d96d" id="svg_9"/>
  <path stroke="null" d="m17.28,1.8l0.54,0.6l-0.54,-0.6m-9.72,0.6l0.54,0.6l-0.54,-0.6z" fill="#fceca2" id="svg_10"/>
  <path stroke="null" d="m8.1,2.4l0.54,0.6l-0.54,-0.6z" fill="#f2d96d" id="svg_11"/>
  <path stroke="null" d="m8.64,2.4l0.54,0.6l-0.54,-0.6m8.64,0l0.54,0.6l-0.54,-0.6z" fill="#e4c555" id="svg_12"/>
  <path stroke="null" d="m17.82,2.4l0.54,0.6l-0.54,-0.6z" fill="#f2d96d" id="svg_13"/>
  <path stroke="null" d="m18.36,2.4l0.54,0.6l-0.54,-0.6m-11.88,0.6l-1.08,1.8l1.08,-1.8z" fill="#fceca2" id="svg_14"/>
  <path stroke="null" d="m7.02,3l-0.54,1.2l0.54,-1.2z" fill="#f2d96d" id="svg_15"/>
  <path stroke="null" d="m7.92002,3.2l0.35996,0.2l-0.35996,-0.2m10.43998,-0.2l0.54,0.6l-0.54,-0.6z" fill="#e4c555" id="svg_16"/>
  <path stroke="null" d="m18.9,3l0.54,0.6l-0.54,-0.6z" fill="#f2d96d" id="svg_17"/>
  <path stroke="null" d="m19.44,3l1.62,1.2l0,-0.6l-1.62,-0.6z" fill="#fceca2" id="svg_18"/>
  <path stroke="null" d="m7.02,3.6l0.54,0.6l-0.54,-0.6m12.42,0l0.54,0.6l-0.54,-0.6m-13.5,0.6l0.54,0.6l-0.54,-0.6z" fill="#e4c555" id="svg_19"/>
  <path stroke="null" d="m20.52,4.2l0.54,0.6l-0.54,-0.6m-15.66,0.6l-0.54,1.2l0.54,-1.2z" fill="#f2d96d" id="svg_20"/>
  <path stroke="null" d="m5.4,4.8l0.54,0.6l-0.54,-0.6m15.66,0l0.54,0.6l-0.54,-0.6z" fill="#e4c555" id="svg_21"/>
  <path stroke="null" d="m21.6,4.8l1.08,1.2l-1.08,-1.2z" fill="#fceca2" id="svg_22"/>
  <path stroke="null" d="m4.86,5.4l0.54,0.6l-0.54,-0.6m7.56,0l0,0.6l2.16,0l-2.16,-0.6z" fill="#e4c555" id="svg_23"/>
  <path stroke="null" d="m21.6,5.4l0.54,0.6l-0.54,-0.6z" fill="#f2d96d" id="svg_24"/>
  <path stroke="null" d="m3.78,6l-0.54,1.2l0.54,-1.2z" fill="#fceca2" id="svg_25"/>
  <path stroke="null" d="m4.32,6l0.54,0.6l-0.54,-0.6m5.94,0l0.54,0.6l-0.54,-0.6z" fill="#e4c555" id="svg_26"/>
  <path stroke="null" d="m10.8,6l0.54,0.6l-0.54,-0.6z" fill="#f2d96d" id="svg_27"/>
  <path stroke="null" d="m11.34,6l0.54,0.6l-0.54,-0.6z" fill="#fceca2" id="svg_28"/>
  <path stroke="null" d="m19.98,16.2c-1.43694,1.5984 -2.29084,3.46002 -4.32999,4.24812c-8.72867,3.37356 -11.64882,-12.36162 -2.69001,-13.06338c2.88668,-0.22614 4.93225,2.60574 7.56,3.41526c-4.62688,-9.45612 -17.67154,-3.74286 -14.09751,6.59952c2.34911,6.79776 13.56761,7.07268 13.55751,-1.19952z" fill="#fefef2" id="svg_29"/>
  <path stroke="null" d="m14.94002,6.19998l0.35996,0.20004l-0.35996,-0.20004z" fill="#fceca2" id="svg_30"/>
  <path stroke="null" d="m15.66,6l0.54,0.6l-0.54,-0.6m6.48,0l0.54,0.6l-0.54,-0.6z" fill="#f2d96d" id="svg_31"/>
  <path stroke="null" d="m3.78,6.6l0.54,0.6l-0.54,-0.6m5.4,0l0.54,0.6l-0.54,-0.6z" fill="#e4c555" id="svg_32"/>
  <path stroke="null" d="m9.72,6.6l0.54,0.6l-0.54,-0.6m6.48,0l0.54,0.6l-0.54,-0.6z" fill="#fceca2" id="svg_33"/>
  <path stroke="null" d="m16.74,6.6l0.54,0.6l-0.54,-0.6m5.94,0l0.54,0.6l-0.54,-0.6m-19.44,0.6l0.54,0.6l-0.54,-0.6z" fill="#f2d96d" id="svg_34"/>
  <path stroke="null" d="m8.1,7.2l-1.08,1.8l1.08,-1.8z" fill="#e4c555" id="svg_35"/>
  <path stroke="null" d="m9.00002,7.39998l0.35996,0.20004l-0.35996,-0.20004m8.27998,-0.19998l1.08,1.2l-1.08,-1.2z" fill="#fceca2" id="svg_36"/>
  <path stroke="null" d="m17.82,7.2l0.54,0.6l-0.54,-0.6m4.86,0l1.08,1.2l-1.08,-1.2z" fill="#e4c555" id="svg_37"/>
  <path stroke="null" d="m23.22,7.2l0.54,0.6l-0.54,-0.6m-20.52,0.6l-0.54,1.2l0.54,-1.2m5.4,0l0.54,0.6l-0.54,-0.6m3.60002,0.19998l0.35996,0.20004l-0.35996,-0.20004z" fill="#fceca2" id="svg_38"/>
  <path stroke="null" d="m12.42,7.8l0,0.6l1.62,0l-1.62,-0.6z" fill="#f2d96d" id="svg_39"/>
  <path stroke="null" d="m14.40002,7.99998l0.35996,0.20004l-0.35996,-0.20004z" fill="#fceca2" id="svg_40"/>
  <path stroke="null" d="m18.36,7.8l0.54,0.6l-0.54,-0.6z" fill="#f2d96d" id="svg_41"/>
  <path stroke="null" d="m2.7,8.4l0.54,0.6l-0.54,-0.6z" fill="#e4c555" id="svg_42"/>
  <path stroke="null" d="m7.56,8.4l0.54,0.6l-0.54,-0.6m2.7,0l0.54,0.6l-0.54,-0.6z" fill="#fceca2" id="svg_43"/>
  <path stroke="null" d="m10.8,8.4l0.54,0.6l-0.54,-0.6z" fill="#f2d96d" id="svg_44"/>
  <path stroke="null" d="m11.34,8.4l0.54,0.6l-0.54,-0.6z" fill="#e4c555" id="svg_45"/>
  <path stroke="null" d="m14.58,21l0,-0.6c-2.66236,-0.32946 -4.24067,-1.50456 -5.4,-4.2c1.86295,0.80922 4.28144,2.58438 6.24542,1.09212c2.31752,-1.76088 0.57542,-5.69502 -1.93374,-5.71482c-1.70861,-0.0135 -3.33769,1.4928 -4.85168,2.2227c2.19305,-4.64172 5.33369,-4.75098 9.18,-2.4c-4.71069,-8.26207 -15.02588,3.58824 -6.92707,8.80926c1.15182,0.74256 2.4003,0.74826 3.68707,0.79074z" fill="#edbd17" id="svg_46"/>
  <path stroke="null" d="m15.12,8.4l0.54,0.6l-0.54,-0.6z" fill="#e4c555" id="svg_47"/>
  <path stroke="null" d="m15.66,8.4l0.54,0.6l-0.54,-0.6z" fill="#f2d96d" id="svg_48"/>
  <path stroke="null" d="m16.2,8.4l1.08,1.2l-1.08,-1.2z" fill="#fceca2" id="svg_49"/>
  <path stroke="null" d="m18.9,8.4l0.54,0.6l-0.54,-0.6z" fill="#f2d96d" id="svg_50"/>
  <path stroke="null" d="m23.76,8.4l0.54,1.8l0.54,0l-1.08,-1.8z" fill="#fceca2" id="svg_51"/>
  <path stroke="null" d="m2.16,9l0.54,0.6l-0.54,-0.6z" fill="#f2d96d" id="svg_52"/>
  <path stroke="null" d="m7.02,9l0.54,0.6l-0.54,-0.6m2.16,0l-1.08,1.8l1.08,-1.8z" fill="#fceca2" id="svg_53"/>
  <path stroke="null" d="m9.72,9l0.54,0.6l-0.54,-0.6z" fill="#f2d96d" id="svg_54"/>
  <path stroke="null" d="m10.26,9l0.54,0.6l-0.54,-0.6m5.94,0l0.54,0.6l-0.54,-0.6m3.24,0l0.54,0.6l-0.54,-0.6m4.32,0l0.54,0.6l-0.54,-0.6m-21.6,0.6l0.54,0.6l-0.54,-0.6z" fill="#e4c555" id="svg_55"/>
  <path stroke="null" d="m6.48,9.6l-0.54,2.4l0.54,0l0,-2.4z" fill="#fceca2" id="svg_56"/>
  <path stroke="null" d="m9.18,9.6l0.54,0.6l-0.54,-0.6m0,2.4l2.7,-1.8l-2.7,1.8z" fill="#e4c555" id="svg_57"/>
  <path stroke="null" d="m11.88,9.6l0,0.6l1.62,0.6l-1.62,-1.2z" fill="#fceca2" id="svg_58"/>
  <path stroke="null" d="m12.96,9.6l0,0.6c2.66971,1.33926 4.09158,2.63562 4.32,6l0.54,0c-0.11043,-3.7806 -1.57102,-5.64534 -4.86,-6.6z" fill="#fefef2" id="svg_59"/>
  <path stroke="null" d="m14.40002,9.79998l0.35996,0.20004l-0.35996,-0.20004z" fill="#fceca2" id="svg_60"/>
  <path stroke="null" d="m15.12,9.6l0.54,0.6l-0.54,-0.6z" fill="#f2d96d" id="svg_61"/>
  <path stroke="null" d="m15.66,9.6l2.16,4.2l0.54,0l-0.54,-3.6l-0.54,0l0.54,1.2l-0.54,0l-1.62,-1.8z" fill="#e4c555" id="svg_62"/>
  <path stroke="null" d="m17.28,9.6l0.54,0.6l-0.54,-0.6z" fill="#f2d96d" id="svg_63"/>
  <path stroke="null" d="m19.98,9.6l0.54,0.6l-0.54,-0.6z" fill="#e4c555" id="svg_64"/>
  <path stroke="null" d="m1.62,10.2l0.54,0.6l-0.54,-0.6z" fill="#fceca2" id="svg_65"/>
  <path stroke="null" d="m5.94,10.2l0.54,0.6l-0.54,-0.6m2.7,0l0.54,0.6l-0.54,-0.6z" fill="#e4c555" id="svg_66"/>
  <path stroke="null" d="m10.8,10.2l-1.62,3.6l2.7,-3l-1.08,-0.6z" fill="#fceca2" id="svg_67"/>
  <path stroke="null" d="m11.34,10.2l0,0.6l1.62,0l-1.62,-0.6z" fill="#fefef2" id="svg_68"/>
  <path stroke="null" d="m15.66,10.2l0.54,0.6l-0.54,-0.6z" fill="#fceca2" id="svg_69"/>
  <path stroke="null" d="m17.82,10.2l0.54,0.6l-0.54,-0.6m2.16,0l0.54,0.6l-0.54,-0.6m4.32,0l0.54,0.6l-0.54,-0.6m-22.5,1.00002l0.18,0.39996l-0.18,-0.39996m6.3,-0.40002l0.54,0.6l-0.54,-0.6z" fill="#f2d96d" id="svg_70"/>
  <path stroke="null" d="m10.8,10.8l-0.54,1.2l0.54,-1.2z" fill="#fefef2" id="svg_71"/>
  <path stroke="null" d="m12.24002,10.99998l0.35996,0.20004l-0.35996,-0.20004z" fill="#f2d96d" id="svg_72"/>
  <path stroke="null" d="m12.96,10.8l0,0.6l1.62,0l-1.62,-0.6z" fill="#e4c555" id="svg_73"/>
  <path stroke="null" d="m14.58,10.8l0.54,0.6l-0.54,-0.6z" fill="#f2d96d" id="svg_74"/>
  <path stroke="null" d="m15.12,10.8l1.62,3l0.54,0l-2.16,-3m1.08,0l0.54,0.6l-0.54,-0.6m2.16,0l0,0.6l2.16,0.6l0,-0.6l-2.16,-0.6z" fill="#fceca2" id="svg_75"/>
  <path stroke="null" d="m20.52,10.8l0.54,0.6l-0.54,-0.6m3.78,0l0.54,0.6l-0.54,-0.6m-18.9,0.6l0.54,0.6l-0.54,-0.6z" fill="#e4c555" id="svg_76"/>
  <path stroke="null" d="m7.56,11.4l0.54,0.6l-0.54,-0.6z" fill="#fceca2" id="svg_77"/>
  <path stroke="null" d="m8.1,11.4l0.54,0.6l-0.54,-0.6m3.24,0l0.54,0.6l-0.54,-0.6m3.78,0l0.54,0.6l-0.54,-0.6z" fill="#e4c555" id="svg_78"/>
  <path stroke="null" d="m16.74,11.4l0.54,0.6l-0.54,-0.6z" fill="#fceca2" id="svg_79"/>
  <path stroke="null" d="m18.36,11.4l0.54,0.6l-0.54,-0.6m2.16,0l0.54,0.6l-0.54,-0.6z" fill="#f2d96d" id="svg_80"/>
  <path stroke="null" d="m25.01998,11.80002l0.18004,0.39996l-0.18004,-0.39996z" fill="#fceca2" id="svg_81"/>
  <path stroke="null" d="m1.8,12.40002l0.18,0.39996l-0.18,-0.39996z" fill="#e4c555" id="svg_82"/>
  <path stroke="null" d="m5.4,12l0.54,0.6l-0.54,-0.6m2.16,0l0.54,0.6l-0.54,-0.6m1.62,0l0.54,0.6l-0.54,-0.6z" fill="#f2d96d" id="svg_83"/>
  <path stroke="null" d="m9.72,12l0.54,0.6l-0.54,-0.6z" fill="#fefef2" id="svg_84"/>
  <path stroke="null" d="m10.8,12l0.54,0.6l-0.54,-0.6m4.86,0l0.54,0.6l-0.54,-0.6z" fill="#e4c555" id="svg_85"/>
  <path stroke="null" d="m17.28,12l0.54,0.6l-0.54,-0.6z" fill="#f2d96d" id="svg_86"/>
  <path stroke="null" d="m19.26002,12.19998l0.35996,0.20004l-0.35996,-0.20004z" fill="#e4c555" id="svg_87"/>
  <path stroke="null" d="m1.26,13.00002l0.18,0.39996l-0.18,-0.39996m4.14,-0.40002l0,4.2l0.54,0l-0.54,-4.2z" fill="#fceca2" id="svg_88"/>
  <path stroke="null" d="m7.73998,13.00002l0.18004,0.39996l-0.18004,-0.39996m1.08,0l0.18004,0.39996l-0.18004,-0.39996m1.44002,-0.40002l0.54,0.6l-0.54,-0.6m6.11998,0.40002l0.18004,0.39996l-0.18004,-0.39996z" fill="#e4c555" id="svg_89"/>
  <path stroke="null" d="m25.01998,13.00002l0.18004,0.39996l-0.18004,-0.39996z" fill="#f2d96d" id="svg_90"/>
  <path stroke="null" d="m7.02,13.2l0,3.6l0.54,0l-0.54,-3.6z" fill="#fceca2" id="svg_91"/>
  <path stroke="null" d="m9.72,13.2l0.54,0.6l-0.54,-0.6m-8.64,0.6l0.54,0.6l-0.54,-0.6z" fill="#f2d96d" id="svg_92"/>
  <path stroke="null" d="m4.86,13.8l0,1.8l0.54,0l-0.54,-1.8z" fill="#e4c555" id="svg_93"/>
  <path stroke="null" d="m16.74,13.8l0,1.8l0.54,0l-0.54,-1.8z" fill="#f2d96d" id="svg_94"/>
  <path stroke="null" d="m17.82,13.8l0.54,0.6l-0.54,-0.6z" fill="#fceca2" id="svg_95"/>
  <path stroke="null" d="m25.01998,14.20002l0.18004,0.39996l-0.18004,-0.39996z" fill="#e4c555" id="svg_96"/>
  <path stroke="null" d="m1.08,14.4l0,3l0.54,0l-0.54,-3z" fill="#fceca2" id="svg_97"/>
  <path stroke="null" d="m17.82,14.4l0,1.8l0.54,0l-0.54,-1.8m7.02,0.6l0,1.8l0.54,0l-0.54,-1.8z" fill="#f2d96d" id="svg_98"/>
  <path stroke="null" d="m16.74,15.6l0,2.4l-0.54,0.6l-6.48,-1.8l2.16,3l3.24,0l2.7,-3.6l-1.08,-0.6z" fill="#fceca2" id="svg_99"/>
  <path stroke="null" d="m1.62,16.2l0,1.8l0.54,0l-0.54,-1.8m5.94,0l0.54,0.6l-0.54,-0.6z" fill="#e4c555" id="svg_100"/>
  <path stroke="null" d="m9.18,16.2l0,1.2l1.08,-1.2l-1.08,0z" fill="#f2d96d" id="svg_101"/>
  <path stroke="null" d="m10.26,16.2l0.54,0.6l-0.54,-0.6m5.94,0l0.54,0.6l-0.54,-0.6m1.62,0l-1.08,4.2l2.7,-4.2l-1.62,0z" fill="#e4c555" id="svg_102"/>
  <path stroke="null" d="m19.44,16.2l0,0.6l1.62,0l-1.62,-0.6m-14.04,0.6l0.54,0.6l-0.54,-0.6m2.16,0l0.54,0.6l-0.54,-0.6z" fill="#f2d96d" id="svg_103"/>
  <path stroke="null" d="m10.8,16.8l0.54,0.6l-0.54,-0.6z" fill="#e4c555" id="svg_104"/>
  <path stroke="null" d="m16.74,16.8l0.54,0.6l-0.54,-0.6z" fill="#fefef2" id="svg_105"/>
  <path stroke="null" d="m17.28,16.8l0.54,0.6l-0.54,-0.6m1.62,0l0.54,0.6l-0.54,-0.6z" fill="#f2d96d" id="svg_106"/>
  <path stroke="null" d="m19.98,16.8l-0.54,3l0.54,0l1.08,-3l-1.08,0m5.03998,0.40002l0.18004,0.39996l-0.18004,-0.39996z" fill="#fceca2" id="svg_107"/>
  <path stroke="null" d="m5.4,17.4l0.54,0.6l-0.54,-0.6z" fill="#e4c555" id="svg_108"/>
  <path stroke="null" d="m6.11998,17.80002l0.18004,0.39996l-0.18004,-0.39996m1.44002,-0.40002l1.08,1.8l-1.08,-1.8z" fill="#fceca2" id="svg_109"/>
  <path stroke="null" d="m8.1,17.4l3.24,3.6l0,-0.6l-3.24,-3m1.08,0l0.54,0.6l-0.54,-0.6z" fill="#e4c555" id="svg_110"/>
  <path stroke="null" d="m10.26,17.4l1.08,1.2l-1.08,-1.2z" fill="#fefef2" id="svg_111"/>
  <path stroke="null" d="m11.34,17.4l0.54,0.6l-0.54,-0.6m3.78,0l0.54,0.6l-0.54,-0.6z" fill="#e4c555" id="svg_112"/>
  <path stroke="null" d="m15.66,17.4l0.54,0.6l-0.54,-0.6z" fill="#f2d96d" id="svg_113"/>
  <path stroke="null" d="m16.2,17.4l0.54,0.6l-0.54,-0.6z" fill="#fefef2" id="svg_114"/>
  <path stroke="null" d="m17.82,17.4l0.54,0.6l-0.54,-0.6z" fill="#edbd17" id="svg_115"/>
  <path stroke="null" d="m24.3,17.4l-0.54,3l0.54,0l0,-3z" fill="#e4c555" id="svg_116"/>
  <path stroke="null" d="m1.62,18l0.54,0.6l-0.54,-0.6m6.48,0l0.54,0.6l-0.54,-0.6m1.62,0l0.54,0.6l-0.54,-0.6m2.16,0l0.54,0.6l-0.54,-0.6z" fill="#f2d96d" id="svg_117"/>
  <path stroke="null" d="m12.42,18l0,0.6l2.16,0l-2.16,-0.6z" fill="#e4c555" id="svg_118"/>
  <path stroke="null" d="m14.58,18l0.54,0.6l-0.54,-0.6z" fill="#f2d96d" id="svg_119"/>
  <path stroke="null" d="m15.66,18l0.54,0.6l-0.54,-0.6z" fill="#fefef2" id="svg_120"/>
  <path stroke="null" d="m16.74,18l-0.54,1.2l0.54,-1.2z" fill="#f2d96d" id="svg_121"/>
  <path stroke="null" d="m17.28,18l-1.62,2.4l1.62,-2.4z" fill="#edbd17" id="svg_122"/>
  <path stroke="null" d="m18.36,18l0.54,0.6l-0.54,-0.6z" fill="#f2d96d" id="svg_123"/>
  <path stroke="null" d="m20.52,18l0.54,0.6l-0.54,-0.6z" fill="#e4c555" id="svg_124"/>
  <path stroke="null" d="m1.62,18.6l0.54,0.6l-0.54,-0.6z" fill="#fceca2" id="svg_125"/>
  <path stroke="null" d="m5.94,18.6l0.54,0.6l-0.54,-0.6m4.32,0l0.54,0.6l-0.54,-0.6z" fill="#e4c555" id="svg_126"/>
  <path stroke="null" d="m11.34,18.6l0.54,0.6l-0.54,-0.6m3.78,0l0.54,0.6l-0.54,-0.6z" fill="#fefef2" id="svg_127"/>
  <path stroke="null" d="m2.16,19.2l0.54,0.6l-0.54,-0.6z" fill="#e4c555" id="svg_128"/>
  <path stroke="null" d="m6.48,19.2l0.54,0.6l-0.54,-0.6m2.16,0l0.54,0.6l-0.54,-0.6z" fill="#f2d96d" id="svg_129"/>
  <path stroke="null" d="m10.8,19.2l0.54,0.6l-0.54,-0.6z" fill="#e4c555" id="svg_130"/>
  <path stroke="null" d="m11.34,19.2l0.54,0.6l-0.54,-0.6z" fill="#f2d96d" id="svg_131"/>
  <path stroke="null" d="m13.32002,19.39998l0.35996,0.20004l-0.35996,-0.20004z" fill="#fefef2" id="svg_132"/>
  <path stroke="null" d="m15.12,19.2l0.54,0.6l-0.54,-0.6z" fill="#f2d96d" id="svg_133"/>
  <path stroke="null" d="m15.66,19.2l0.54,0.6l-0.54,-0.6z" fill="#e4c555" id="svg_134"/>
  <path stroke="null" d="m17.82,19.2l-0.54,1.2l1.08,0l-0.54,-1.2z" fill="#fceca2" id="svg_135"/>
  <path stroke="null" d="m19.98,19.2l0.54,0.6l-0.54,-0.6m4.32,0l0.54,0.6l-0.54,-0.6z" fill="#f2d96d" id="svg_136"/>
  <path stroke="null" d="m2.16,19.8l0.54,0.6l-0.54,-0.6z" fill="#fceca2" id="svg_137"/>
  <path stroke="null" d="m6.48,19.8l0.54,0.6l-0.54,-0.6z" fill="#e4c555" id="svg_138"/>
  <path stroke="null" d="m7.02,19.8l2.16,2.4l-2.16,-2.4m2.16,0l0.54,0.6l-0.54,-0.6z" fill="#fceca2" id="svg_139"/>
  <path stroke="null" d="m11.88,19.8l0,0.6l2.7,0l0,0.6l-2.7,0l0,0.6l4.32,-1.2l-4.32,-0.6z" fill="#e4c555" id="svg_140"/>
  <path stroke="null" d="m19.44,19.8l-1.62,2.4l1.62,-2.4z" fill="#f2d96d" id="svg_141"/>
  <path stroke="null" d="m2.7,20.4l0.54,0.6l-0.54,-0.6z" fill="#e4c555" id="svg_142"/>
  <path stroke="null" d="m7.02,20.4l0.54,0.6l-0.54,-0.6z" fill="#f2d96d" id="svg_143"/>
  <path stroke="null" d="m9.72,20.4l0.54,0.6l-0.54,-0.6z" fill="#fceca2" id="svg_144"/>
  <path stroke="null" d="m10.26,20.4l0.54,0.6l-0.54,-0.6z" fill="#f2d96d" id="svg_145"/>
  <path stroke="null" d="m16.2,20.4l0.54,0.6l-0.54,-0.6m2.16,0l0.54,0.6l-0.54,-0.6z" fill="#fceca2" id="svg_146"/>
  <path stroke="null" d="m19.44,20.4l0.54,0.6l-0.54,-0.6z" fill="#e4c555" id="svg_147"/>
  <path stroke="null" d="m23.76,20.4l0.54,0.6l-0.54,-0.6m-21.06,0.6l0.54,0.6l-0.54,-0.6z" fill="#fceca2" id="svg_148"/>
  <path stroke="null" d="m7.56,21l0.54,0.6l-0.54,-0.6z" fill="#f2d96d" id="svg_149"/>
  <path stroke="null" d="m11.16002,21.19998l0.35996,0.20004l-0.35996,-0.20004z" fill="#fceca2" id="svg_150"/>
  <path stroke="null" d="m14.58,21l0.54,0.6l-0.54,-0.6z" fill="#f2d96d" id="svg_151"/>
  <path stroke="null" d="m15.12,21l0.54,0.6l-0.54,-0.6z" fill="#fceca2" id="svg_152"/>
  <path stroke="null" d="m23.22,21l-0.54,1.2l0.54,-1.2z" fill="#e4c555" id="svg_153"/>
  <path stroke="null" d="m3.24,21.6l0.54,0.6l-0.54,-0.6z" fill="#f2d96d" id="svg_154"/>
  <path stroke="null" d="m8.1,21.6l0.54,0.6l-0.54,-0.6z" fill="#e4c555" id="svg_155"/>
  <path stroke="null" d="m17.28,21.6l-1.08,0.6l0,0.6l1.08,-1.2z" fill="#fceca2" id="svg_156"/>
  <path stroke="null" d="m18.36,21.6l0.54,0.6l-0.54,-0.6z" fill="#e4c555" id="svg_157"/>
  <path stroke="null" d="m23.22,21.6l0.54,0.6l-0.54,-0.6m-19.98,0.6l1.08,1.2l-1.08,-1.2z" fill="#fceca2" id="svg_158"/>
  <path stroke="null" d="m3.78,22.2l0.54,0.6l-0.54,-0.6m4.86,0l0.54,0.6l-0.54,-0.6z" fill="#e4c555" id="svg_159"/>
  <path stroke="null" d="m9.18,22.2l0.54,0.6l-0.54,-0.6z" fill="#f2d96d" id="svg_160"/>
  <path stroke="null" d="m9.72,22.2l0.54,0.6l-0.54,-0.6z" fill="#fceca2" id="svg_161"/>
  <path stroke="null" d="m17.28,22.2l0.54,0.6l-0.54,-0.6z" fill="#e4c555" id="svg_162"/>
  <path stroke="null" d="m22.68,22.2l0.54,0.6l-0.54,-0.6z" fill="#f2d96d" id="svg_163"/>
  <path stroke="null" d="m9.72,22.8l0,0.6l3.24,0.6l0,-0.6l-3.24,-0.6z" fill="#e4c555" id="svg_164"/>
  <path stroke="null" d="m11.16002,22.99998l0.35996,0.20004l-0.35996,-0.20004m1.79998,-0.19998l0.54,0.6l-0.54,-0.6m2.16,0l0.54,0.6l-0.54,-0.6z" fill="#fceca2" id="svg_165"/>
  <path stroke="null" d="m15.66,22.8l0.54,0.6l-0.54,-0.6z" fill="#f2d96d" id="svg_166"/>
  <path stroke="null" d="m16.2,22.8l0.54,0.6l-0.54,-0.6m5.94,0l-0.54,1.2l0.54,-1.2z" fill="#e4c555" id="svg_167"/>
  <path stroke="null" d="m4.32,23.4l0.54,0.6l-0.54,-0.6m9.00002,0.19998l0.35996,0.20004l-0.35996,-0.20004z" fill="#f2d96d" id="svg_168"/>
  <path stroke="null" d="m14.40002,23.59998l0.35996,0.20004l-0.35996,-0.20004z" fill="#e4c555" id="svg_169"/>
  <path stroke="null" d="m22.14,23.4l0.54,0.6l-0.54,-0.6z" fill="#fceca2" id="svg_170"/>
  <path stroke="null" d="m4.86,24l1.08,1.2l-1.08,-1.2z" fill="#f2d96d" id="svg_171"/>
  <path stroke="null" d="m21.06,24l0.54,0.6l-0.54,-0.6z" fill="#e4c555" id="svg_172"/>
  <path stroke="null" d="m4.86,24.6l0.54,0.6l-0.54,-0.6z" fill="#fceca2" id="svg_173"/>
  <path stroke="null" d="m5.94,24.6l1.08,1.2l-1.08,-1.2z" fill="#e4c555" id="svg_174"/>
  <path stroke="null" d="m20.52,24.6l-0.54,1.2l0.54,-1.2z" fill="#f2d96d" id="svg_175"/>
  <path stroke="null" d="m21.06,24.6l0.54,0.6l-0.54,-0.6m-15.12,0.6l0.54,0.6l-0.54,-0.6z" fill="#fceca2" id="svg_176"/>
  <path stroke="null" d="m19.44,25.2l0.54,0.6l-0.54,-0.6z" fill="#e4c555" id="svg_177"/>
  <path stroke="null" d="m20.52,25.2l0.54,0.6l-0.54,-0.6m-14.04,0.6l0.54,0.6l-0.54,-0.6z" fill="#fceca2" id="svg_178"/>
  <path stroke="null" d="m7.02,25.8l0.54,0.6l-0.54,-0.6z" fill="#f2d96d" id="svg_179"/>
  <path stroke="null" d="m7.56,25.8l0.54,0.6l-0.54,-0.6z" fill="#e4c555" id="svg_180"/>
  <path stroke="null" d="m18.9,25.8l0.54,0.6l-0.54,-0.6z" fill="#f2d96d" id="svg_181"/>
  <path stroke="null" d="m19.44,25.8l0.54,0.6l-0.54,-0.6m-11.88,0.6l0.54,0.6l-0.54,-0.6z" fill="#fceca2" id="svg_182"/>
  <path stroke="null" d="m8.1,26.4l0.54,0.6l-0.54,-0.6z" fill="#f2d96d" id="svg_183"/>
  <path stroke="null" d="m8.64,26.4l0.54,0.6l-0.54,-0.6m7.02,0.6l0,0.6l2.7,-0.6l-2.7,0z" fill="#e4c555" id="svg_184"/>
  <path stroke="null" d="m18.72002,26.59998l0.35996,0.20004l-0.35996,-0.20004m-9.72,0.6l0.35996,0.20004l-0.35996,-0.20004z" fill="#fceca2" id="svg_185"/>
  <path stroke="null" d="m10.08002,27.19998l0.35996,0.20004l-0.35996,-0.20004z" fill="#e4c555" id="svg_186"/>
  <path stroke="null" d="m17.64002,27.19998l0.35996,0.20004l-0.35996,-0.20004m-6.48,0.6l0.35996,0.20004l-0.35996,-0.20004z" fill="#fceca2" id="svg_187"/>
  <path stroke="null" d="m11.88,27.6l0.54,0.6l-0.54,-0.6z" fill="#f2d96d" id="svg_188"/>
  <path stroke="null" d="m12.42,27.6l0.54,0.6l-0.54,-0.6z" fill="#e4c555" id="svg_189"/>
  <path stroke="null" d="m12.96,27.6l0,0.6l2.16,0l-2.16,-0.6z" fill="#f2d96d" id="svg_190"/>
  <path stroke="null" d="m15.48002,27.79998l0.35996,0.20004l-0.35996,-0.20004z" fill="#fceca2" id="svg_191"/>
 </g>

</svg>