<svg width="44" height="42" xmlns="http://www.w3.org/2000/svg" version="1.1">
 <g>
  <title>Layer 1</title>
  <g id="svg_1">
   <path id="path0" d="m11.53082,1.86651c-2.61036,0.00868 -3.30006,0.01621 -3.30732,0.03609c-0.00572,0.01571 -0.05121,0.0251 -0.1215,0.0251c-0.11242,0 -0.36927,0.03931 -0.39001,0.05969c-0.01969,0.01938 -0.16693,0.06079 -0.21604,0.06079c-0.0264,0 -0.04796,0.00778 -0.04796,0.01732c0,0.00954 -0.06188,0.02917 -0.1375,0.04357c-0.07563,0.01441 -0.14284,0.03343 -0.14933,0.04222c-0.00655,0.00884 -0.08575,0.02731 -0.176,0.04106c-0.09031,0.01376 -0.16913,0.03112 -0.17518,0.03865c-0.00605,0.00748 -0.08773,0.02485 -0.1815,0.0386c-0.09378,0.01376 -0.1705,0.03218 -0.1705,0.04091c0,0.00873 -0.05522,0.02219 -0.12271,0.02987c-0.09994,0.0114 -0.12716,0.02289 -0.14658,0.0617c-0.01309,0.02626 -0.03212,0.04769 -0.04224,0.04769c-0.01018,0 -0.03757,0.01581 -0.06089,0.03514c-0.08624,0.07139 -0.11039,0.08479 -0.198,0.10979c-0.04928,0.01401 -0.0896,0.03198 -0.0896,0.03991c0,0.00793 -0.0396,0.02415 -0.088,0.03604c-0.0484,0.0119 -0.088,0.02952 -0.088,0.03911c0,0.00964 -0.06842,0.02806 -0.15202,0.04091c-0.14058,0.02164 -0.15411,0.02821 -0.18018,0.08715c-0.01551,0.03509 -0.0412,0.07098 -0.05704,0.07982c-0.01579,0.00884 -0.02877,0.02917 -0.02877,0.04518c0,0.01601 -0.0143,0.02912 -0.03174,0.02912c-0.01749,0 -0.04521,0.01747 -0.0616,0.03886c-0.01639,0.02139 -0.07882,0.0499 -0.13871,0.06345c-0.05995,0.0135 -0.11688,0.0367 -0.12656,0.05151c-0.00968,0.01481 -0.02915,0.02691 -0.04329,0.02691c-0.0302,0 -0.12612,0.09709 -0.12612,0.12766c0,0.02706 -0.19272,0.19362 -0.22402,0.19362c-0.02959,0 -0.21599,0.16827 -0.21599,0.19503c0,0.01079 -0.02475,0.04588 -0.055,0.07796c-0.0302,0.03208 -0.05495,0.06903 -0.055,0.08213c0,0.0131 -0.03465,0.03524 -0.077,0.0492c-0.04235,0.01401 -0.077,0.03268 -0.077,0.04147c0,0.00884 -0.01326,0.01606 -0.02948,0.01606c-0.0308,0 -0.08052,0.08117 -0.08052,0.13148c0,0.01601 -0.00776,0.02917 -0.01722,0.02917c-0.00946,0 -0.03036,0.04066 -0.04642,0.09036c-0.01606,0.0497 -0.03685,0.09036 -0.0462,0.09036c-0.00941,0 -0.02222,0.01802 -0.02849,0.04006c-0.00633,0.02204 -0.02976,0.04618 -0.05209,0.05371c-0.02233,0.00748 -0.04829,0.02525 -0.0577,0.03946c-0.00941,0.01416 -0.05027,0.03148 -0.09086,0.0384c-0.07161,0.0123 -0.07425,0.01616 -0.0885,0.13138c-0.00809,0.06526 -0.02415,0.11867 -0.03564,0.11867c-0.0115,0 -0.0209,0.01928 -0.0209,0.04287c0,0.05146 -0.04703,0.20407 -0.06721,0.21817c-0.00792,0.00552 -0.02673,0.05748 -0.0418,0.11546c-0.01507,0.05798 -0.03383,0.10547 -0.04169,0.10547c-0.00787,0.00005 -0.03262,0.04071 -0.055,0.09036c-0.02233,0.0497 -0.04774,0.09031 -0.05638,0.09031c-0.00864,0 -0.02915,0.03128 -0.04554,0.06943c-0.01645,0.0382 -0.0418,0.07364 -0.05638,0.07877c-0.01546,0.00542 -0.03322,0.0747 -0.04257,0.16647c-0.00886,0.0865 -0.02349,0.16175 -0.03256,0.16727c-0.01755,0.01069 -0.06688,0.68143 -0.06688,0.90883c0,0.07686 -0.00952,0.13534 -0.022,0.13534c-0.0121,0 -0.022,0.01355 -0.022,0.03012c0,0.01657 0.01238,0.03027 0.0275,0.03042c0.01969,0.00025 0.01881,0.00532 -0.00314,0.01802c-0.04026,0.02324 -0.05066,1.33951 -0.01084,1.3629c0.01348,0.00788 0.03157,0.03499 0.04021,0.06024c0.04318,0.12615 0.14135,0.14362 0.18865,0.03358c0.01639,-0.03815 0.03773,-0.06943 0.04741,-0.06943c0.00968,0 0.02899,-0.04142 0.04296,-0.09207c0.01397,-0.05065 0.03889,-0.09679 0.05533,-0.10256c0.01645,-0.00577 0.02992,-0.02164 0.02992,-0.03524c0,-0.02887 0.16968,-0.19182 0.19971,-0.19182c0.01117,0 0.0203,-0.01355 0.0203,-0.03012c0,-0.01657 0.00924,-0.03012 0.02052,-0.03012c0.01128,0 0.02712,-0.01898 0.03515,-0.04212c0.01755,-0.0504 0.26912,-0.2878 0.32384,-0.30557c0.02118,-0.00688 0.0385,-0.02184 0.0385,-0.03318c0,-0.0114 0.01485,-0.02073 0.033,-0.02073c0.01815,0 0.033,-0.00863 0.033,-0.01918c0,-0.03655 0.23612,-0.23976 0.29392,-0.25301c0.03196,-0.00728 0.05808,-0.02063 0.05808,-0.02962c0,-0.00899 0.03713,-0.02736 0.0825,-0.04086c0.04538,-0.01345 0.09042,-0.03675 0.1001,-0.05176c0.00968,-0.01496 0.03196,-0.02726 0.0495,-0.02726c0.01755,0 0.0319,-0.01195 0.0319,-0.02651c0,-0.03665 0.10093,-0.11325 0.18398,-0.13966c0.03795,-0.01205 0.08025,-0.03208 0.094,-0.04458c0.0137,-0.0125 0.08052,-0.03484 0.1485,-0.04975c0.06793,-0.01486 0.12353,-0.03363 0.12353,-0.04167c0,-0.00803 0.06435,-0.02565 0.143,-0.03921c0.07865,-0.01355 0.143,-0.03223 0.143,-0.04152c0,-0.00929 0.03482,-0.02284 0.07733,-0.03012c0.04252,-0.00728 0.08459,-0.02354 0.0935,-0.03609c0.022,-0.03097 0.10709,-0.07299 0.1479,-0.07299c0.01832,0 0.03328,-0.00778 0.03328,-0.01732c0,-0.00954 0.06188,-0.02917 0.1375,-0.04357c0.07563,-0.01441 0.14245,-0.03253 0.1485,-0.04026c0.01271,-0.01627 0.39397,-0.05949 0.52443,-0.05949c0.04835,0 0.09119,-0.00818 0.09526,-0.01817c0.0088,-0.02179 0.92428,-0.06215 1.40998,-0.06215c0.19052,0 0.34634,-0.00763 0.34634,-0.01702c0,-0.00934 0.30938,-0.02279 0.6875,-0.02987c1.40052,-0.02631 1.87578,-0.03966 1.8865,-0.05301c0.01353,-0.01687 0.93577,-0.0616 1.2595,-0.06109c0.14328,0.0002 0.2365,-0.00758 0.2365,-0.01973c0,-0.0123 0.10313,-0.02008 0.26543,-0.02008c0.43164,0 1.57014,-0.04202 1.58235,-0.05838c0.00616,-0.00833 0.1248,-0.0262 0.26367,-0.03971c0.13882,-0.0135 0.25762,-0.03178 0.264,-0.04061c0.00633,-0.00884 0.07838,-0.02746 0.16005,-0.04137c0.08168,-0.01391 0.1485,-0.03158 0.1485,-0.03931c0,-0.00768 0.0495,-0.02555 0.11,-0.03971c0.0605,-0.01416 0.11,-0.03419 0.11,-0.04448c0,-0.01029 0.02475,-0.02731 0.055,-0.0378c0.03025,-0.01049 0.055,-0.02691 0.055,-0.03645c0,-0.00954 0.03911,-0.02912 0.08685,-0.04352c0.0478,-0.01441 0.09163,-0.0376 0.09752,-0.05151c0.00589,-0.01396 0.04103,-0.03148 0.07816,-0.03891c0.03713,-0.00743 0.06749,-0.02234 0.06749,-0.03308c0,-0.01074 0.0297,-0.02897 0.066,-0.04051c0.0363,-0.01155 0.066,-0.02841 0.066,-0.0375c0,-0.00909 0.03218,-0.02274 0.0715,-0.03032c0.06617,-0.01275 0.1474,-0.07982 0.30789,-0.25417c0.02728,-0.02967 0.06188,-0.05452 0.07695,-0.05522c0.01502,-0.0007 0.03966,-0.01938 0.05478,-0.04147c0.01513,-0.02209 0.03834,-0.04016 0.0517,-0.04016c0.03993,0 0.2062,-0.16009 0.22061,-0.2124c0.00732,-0.02676 0.0225,-0.04864 0.03366,-0.04864c0.01117,0 0.02679,-0.01581 0.03465,-0.03514c0.00792,-0.01933 0.07112,-0.0869 0.14047,-0.15015c0.0693,-0.0632 0.13756,-0.14679 0.15164,-0.18574c0.01408,-0.03891 0.03317,-0.07073 0.04241,-0.07073c0.00924,0 0.02866,-0.03614 0.04318,-0.08032c0.01447,-0.04418 0.03427,-0.08032 0.044,-0.08032c0.00968,0 0.02948,-0.03614 0.044,-0.08032c0.01447,-0.04418 0.03476,-0.08032 0.04505,-0.08032c0.01023,0 0.02508,-0.03138 0.033,-0.06973c0.00787,-0.03835 0.02629,-0.07676 0.04098,-0.08534c0.01463,-0.00858 0.04147,-0.04272 0.05957,-0.07585c0.0181,-0.03313 0.04527,-0.06747 0.06039,-0.07625c0.01507,-0.00879 0.03366,-0.05171 0.04131,-0.09538c0.00765,-0.04367 0.02167,-0.07937 0.03113,-0.07937c0.00946,0 0.02888,-0.06325 0.04318,-0.14056c0.0143,-0.07731 0.0335,-0.14056 0.04268,-0.14056c0.00913,0 0.02877,-0.07892 0.04356,-0.1754c0.01474,-0.09644 0.03537,-0.18017 0.04582,-0.18609c0.0104,-0.00587 0.03069,-0.09182 0.0451,-0.19106c0.01436,-0.0992 0.03575,-0.18594 0.04752,-0.19277c0.03047,-0.01757 0.03317,-0.25733 0.00314,-0.27465c-0.01348,-0.00778 -0.03718,-0.06611 -0.05264,-0.12962c-0.01551,-0.0635 -0.03652,-0.11546 -0.0467,-0.11546c-0.01018,0 -0.01848,-0.01441 -0.01848,-0.03198c0,-0.01762 -0.0198,-0.03675 -0.044,-0.04252c-0.0242,-0.00577 -0.044,-0.01762 -0.044,-0.02631c0,-0.06637 0.51959,-0.0629 -6.12519,-0.04071m0.95519,6.76802c0,0.0133 -1.05056,0.02013 -3.1075,0.02018c-2.92958,0.0001 -3.81161,0.01345 -3.8439,0.05818c-0.00638,0.00889 -0.07579,0.02129 -0.15417,0.02766c-0.10373,0.00833 -0.15197,0.02204 -0.17694,0.0502c-0.01892,0.02129 -0.07106,0.04975 -0.11594,0.0633c-0.04488,0.0135 -0.08157,0.03117 -0.08157,0.03926c0,0.00813 -0.0495,0.02631 -0.11,0.04046c-0.0605,0.01416 -0.11,0.03233 -0.11,0.04036c0,0.00803 -0.0495,0.02686 -0.11,0.04192c-0.0605,0.01506 -0.11,0.03318 -0.11,0.04036c0,0.00713 -0.04972,0.02344 -0.1105,0.03624c-0.11022,0.02324 -0.16759,0.06436 -0.28248,0.20231c-0.0286,0.03434 -0.06468,0.06245 -0.08014,0.06245c-0.01551,0 -0.03339,0.0124 -0.03977,0.02756c-0.00638,0.01511 -0.03663,0.03323 -0.06727,0.04026c-0.06298,0.01446 -0.26917,0.19679 -0.28985,0.25638c-0.01661,0.04769 -0.19476,0.21797 -0.22803,0.21797c-0.0132,0 -0.02398,0.01325 -0.02398,0.02942c0,0.01616 -0.01892,0.03865 -0.04202,0.04995c-0.02541,0.0124 -0.04791,0.05241 -0.05693,0.1011c-0.0082,0.04433 -0.02299,0.08057 -0.03278,0.08057c-0.00985,0 -0.02976,0.04518 -0.04428,0.1004c-0.01452,0.05522 -0.03438,0.1004 -0.04411,0.1004c-0.00979,0 -0.03284,0.04036 -0.05121,0.08966c-0.03432,0.09182 -0.03949,0.09955 -0.13508,0.1994c-0.03058,0.03203 -0.05561,0.0743 -0.05561,0.09398c0,0.01968 -0.01524,0.0497 -0.03388,0.06672c-0.02019,0.01842 -0.04411,0.10221 -0.05918,0.20728c-0.01392,0.09694 -0.03273,0.18107 -0.04191,0.18685c-0.00913,0.00582 -0.02888,0.13233 -0.04389,0.28112c-0.01496,0.14885 -0.0363,0.2762 -0.04747,0.28308c-0.03366,0.02083 -0.03284,2.77344 0.00083,2.78368c0.03542,0.01079 0.04092,4.2018 0.0055,4.2018c-0.0121,0 -0.022,0.01807 -0.022,0.04016c0,0.02209 0.0099,0.04016 0.022,0.04016c0.0121,0 0.022,0.01355 0.022,0.03012c0,0.01657 -0.0099,0.03012 -0.022,0.03012c-0.01364,0 -0.022,0.10708 -0.022,0.28112c0,0.15462 0.00831,0.28112 0.01848,0.28112c0.01012,0 0.03097,0.07681 0.04626,0.17068c0.01529,0.09388 0.03669,0.17068 0.04752,0.17068c0.01089,0 0.01975,0.01747 0.01975,0.03881c0,0.02134 0.0198,0.04453 0.044,0.05156c0.0242,0.00703 0.044,0.02118 0.044,0.03148c0,0.01029 0.0297,0.01872 0.066,0.01872c0.0363,0 0.066,-0.00758 0.066,-0.01687c0,-0.00929 0.05445,-0.02801 0.121,-0.04162c0.06655,-0.0136 0.121,-0.03243 0.121,-0.04182c0,-0.00939 0.03685,-0.02816 0.0819,-0.04172c0.04505,-0.0136 0.09488,-0.03655 0.11072,-0.051c0.01584,-0.01446 0.06314,-0.03218 0.10511,-0.03936c0.04197,-0.00718 0.07629,-0.01993 0.07629,-0.02826c0,-0.00838 0.0594,-0.0259 0.132,-0.03896c0.0726,-0.01305 0.132,-0.03087 0.132,-0.03956c0,-0.00873 0.05445,-0.02701 0.121,-0.04061c0.06655,-0.0136 0.121,-0.03278 0.121,-0.04257c0,-0.00984 0.04098,-0.02796 0.09103,-0.04026c0.05308,-0.01305 0.12073,-0.05105 0.16214,-0.09111c0.03905,-0.03785 0.08173,-0.06878 0.09482,-0.06878c0.01309,0 0.03174,-0.0123 0.04142,-0.02726c0.00968,-0.01501 0.05473,-0.0383 0.1001,-0.05176c0.04538,-0.0135 0.0825,-0.03183 0.0825,-0.04081c0,-0.00894 0.03515,-0.02229 0.07816,-0.02967c0.04301,-0.00733 0.08333,-0.0256 0.0896,-0.04056c0.00627,-0.01496 0.03768,-0.03323 0.06974,-0.04056c0.03207,-0.00733 0.09422,-0.0488 0.13805,-0.09217c0.04384,-0.04332 0.08866,-0.07897 0.09961,-0.07917c0.01089,-0.0002 0.04318,-0.02279 0.07167,-0.0502c0.02849,-0.02741 0.05984,-0.04985 0.06963,-0.04985c0.00979,0 0.05577,-0.03153 0.10219,-0.07008c0.13156,-0.10929 0.16033,-0.13072 0.17551,-0.13072c0.02492,0 0.16137,-0.12962 0.16165,-0.15346c0.00011,-0.01265 0.01507,-0.02816 0.03322,-0.03454c0.01815,-0.00633 0.033,-0.02485 0.033,-0.04116c0,-0.01627 0.01821,-0.04142 0.04054,-0.05582c0.02228,-0.01446 0.05352,-0.04885 0.06947,-0.07646c0.01595,-0.02761 0.04719,-0.062 0.06947,-0.07646c0.02233,-0.01441 0.04054,-0.03474 0.04054,-0.04518c0,-0.01039 0.03713,-0.05402 0.0825,-0.09689c0.11237,-0.10612 0.15901,-0.16471 0.1738,-0.21822c0.00688,-0.02485 0.02057,-0.04518 0.03053,-0.04518c0.00996,0 0.02937,-0.0497 0.04318,-0.11044c0.01381,-0.06074 0.03218,-0.11044 0.04076,-0.11044c0.00858,0 0.0286,-0.04001 0.04439,-0.08891c0.01584,-0.0489 0.0418,-0.09347 0.05775,-0.09905c0.01595,-0.00557 0.03608,-0.04011 0.04483,-0.07676c0.00869,-0.03665 0.022,-0.07113 0.02954,-0.07666c0.02888,-0.02108 0.06875,-0.10151 0.06875,-0.1386c0,-0.02134 0.00963,-0.04177 0.0214,-0.04548c0.02464,-0.00768 0.06551,-0.24352 0.06617,-0.38153c0.00022,-0.05151 0.00952,-0.09669 0.02057,-0.1004c0.02008,-0.00663 0.06798,-2.45893 0.06793,-3.47555c-0.00006,-0.28439 0.00803,-0.51707 0.01793,-0.51707c0.0099,0 0.02948,-0.07841 0.04356,-0.17425c0.01403,-0.09583 0.03416,-0.17942 0.04472,-0.18574c0.01051,-0.00633 0.03091,-0.03183 0.04521,-0.05668c0.01436,-0.02485 0.0401,-0.04518 0.0572,-0.04518c0.01716,0 0.03905,-0.01275 0.04873,-0.02836c0.00968,-0.01561 0.08195,-0.04016 0.1606,-0.05457c0.07865,-0.01441 0.15004,-0.03549 0.15868,-0.04694c0.01051,-0.01391 0.699,-0.02405 2.08819,-0.03077c1.63059,-0.00788 2.07444,-0.01541 2.08164,-0.03514c0.00523,-0.01426 0.0456,-0.0251 0.09367,-0.0251c0.10247,0 0.30784,-0.04132 0.30784,-0.06195c0,-0.00813 0.03894,-0.02083 0.08657,-0.02821c0.04763,-0.00733 0.10857,-0.03072 0.13541,-0.05196c0.02679,-0.02123 0.0616,-0.0386 0.07728,-0.0386c0.01573,0 0.03647,-0.0123 0.04615,-0.02726c0.00968,-0.01501 0.05473,-0.0383 0.1001,-0.05176c0.04538,-0.0135 0.0825,-0.03168 0.0825,-0.04041c0,-0.00873 0.04703,-0.02791 0.1045,-0.04257c0.12419,-0.03168 0.11473,-0.0253 0.34722,-0.23459c0.1012,-0.09111 0.19074,-0.16566 0.19905,-0.16566c0.02937,0 0.20147,-0.17144 0.2167,-0.21586c0.00853,-0.02485 0.02288,-0.04518 0.0319,-0.04518c0.00902,0 0.03003,-0.03163 0.04664,-0.07028c0.01661,-0.03865 0.03856,-0.07028 0.04879,-0.07028c0.01023,0 0.02492,-0.01581 0.03262,-0.03514c0.0077,-0.01933 0.05121,-0.06702 0.09669,-0.10597c0.04543,-0.03896 0.08938,-0.09543 0.09763,-0.1255c0.00831,-0.03007 0.02211,-0.05467 0.03069,-0.05467c0.00858,0 0.0291,-0.04518 0.0456,-0.1004c0.0165,-0.05522 0.03685,-0.1004 0.04521,-0.1004c0.00842,0 0.02849,-0.05422 0.04461,-0.12048c0.01606,-0.06627 0.03526,-0.12048 0.04257,-0.12048c0.00732,0 0.02662,-0.04744 0.04285,-0.10542c0.01628,-0.05798 0.0418,-0.11446 0.05676,-0.1255c0.01491,-0.01104 0.03894,-0.05397 0.0533,-0.09538c0.01436,-0.04142 0.0335,-0.0753 0.04246,-0.0753c0.00897,0 0.02921,-0.07229 0.04494,-0.16064c0.01568,-0.08835 0.03729,-0.16064 0.04796,-0.16064c0.01062,0 0.01936,-0.10346 0.01936,-0.22987c0,-0.30668 -0.01568,-0.32445 -0.30399,-0.34433c-0.1111,-0.00763 -0.20202,-0.02164 -0.20202,-0.03107c0,-0.02937 -0.98439,-0.02159 -0.99743,0.00788c-0.00886,0.02008 -0.01144,0.02008 -0.01282,0c-0.0022,-0.03107 -0.33176,-0.03609 -0.33176,-0.00502" fill="#e99411" fill-rule="evenodd" stroke="null"/>
   <path id="path2" d="m10.85982,1.62585c-2.49623,0.00848 -3.15706,0.01591 -3.16432,0.03579c-0.00517,0.01416 -0.04527,0.0251 -0.09185,0.0251c-0.11462,0 -0.45029,0.04227 -0.46365,0.05838c-0.00605,0.00728 -0.07535,0.02495 -0.154,0.03931c-0.07865,0.01436 -0.14614,0.03389 -0.14993,0.04337c-0.0038,0.00954 -0.04312,0.02821 -0.0874,0.04157c-0.04422,0.0133 -0.0929,0.03559 -0.10813,0.0495c-0.01524,0.01391 -0.06749,0.03138 -0.11611,0.03891c-0.04862,0.00748 -0.08844,0.02103 -0.08844,0.03012c0,0.00909 -0.0693,0.02716 -0.154,0.04021c-0.0847,0.01305 -0.154,0.03027 -0.154,0.0383c0,0.00803 -0.06435,0.02626 -0.143,0.04051c-0.07865,0.01426 -0.143,0.03203 -0.143,0.03946c0,0.00743 -0.04455,0.02555 -0.099,0.04021c-0.05445,0.01466 -0.099,0.03373 -0.099,0.04237c0,0.00863 -0.02503,0.02144 -0.05566,0.02841c-0.03058,0.00703 -0.07695,0.03509 -0.10296,0.06245c-0.02602,0.02731 -0.05935,0.04965 -0.07398,0.04965c-0.01469,0 -0.0319,0.0124 -0.03828,0.02756c-0.00638,0.01521 -0.04708,0.03368 -0.09037,0.04111c-0.04334,0.00738 -0.07876,0.02023 -0.07876,0.02846c0,0.00828 -0.04455,0.0259 -0.099,0.03921c-0.05445,0.01325 -0.099,0.03248 -0.099,0.04272c0,0.01019 -0.03036,0.02465 -0.06749,0.03208c-0.03713,0.00743 -0.07282,0.0262 -0.07937,0.04177c-0.00649,0.01551 -0.02558,0.02821 -0.0423,0.02821c-0.01678,0 -0.04285,0.01807 -0.05797,0.04016c-0.01513,0.02209 -0.03927,0.04016 -0.05368,0.04016c-0.01447,0 -0.03218,0.01712 -0.03944,0.038c-0.00726,0.02088 -0.04263,0.0491 -0.07849,0.0627c-0.03592,0.01355 -0.06529,0.03218 -0.06529,0.04137c0,0.00919 -0.03713,0.03263 -0.0825,0.05211c-0.04538,0.01948 -0.09554,0.04478 -0.11143,0.05617c-0.06364,0.04563 -0.24607,0.2118 -0.24607,0.22415c0,0.02289 -0.14185,0.14754 -0.16814,0.14779c-0.01386,0.0001 -0.03086,0.01376 -0.03784,0.03032c-0.00693,0.01657 -0.0264,0.03012 -0.04323,0.03012c-0.01689,0 -0.04934,0.02395 -0.07222,0.05326c-0.02288,0.02927 -0.05643,0.06782 -0.07458,0.08559c-0.01815,0.01782 -0.04532,0.05743 -0.06039,0.0881c-0.03152,0.06406 -0.04664,0.08183 -0.18161,0.21386c-0.13266,0.12977 -0.17545,0.18303 -0.1903,0.2369c-0.00688,0.02485 -0.01969,0.04518 -0.02849,0.04518c-0.00886,0 -0.0346,0.0497 -0.0572,0.11044c-0.02261,0.06074 -0.04681,0.11044 -0.05379,0.11044c-0.00693,0 -0.0258,0.04066 -0.04186,0.09036c-0.01606,0.0497 -0.03619,0.09036 -0.04466,0.09036c-0.00853,0 -0.0291,0.03163 -0.04571,0.07028c-0.01661,0.03865 -0.03878,0.07028 -0.04923,0.07028c-0.01051,0 -0.02943,0.02711 -0.04208,0.06024c-0.01265,0.03313 -0.03157,0.06024 -0.04197,0.06024c-0.01045,0 -0.0313,0.05422 -0.04626,0.12048c-0.01502,0.06627 -0.03399,0.12048 -0.04219,0.12048c-0.0082,0 -0.0275,0.07455 -0.04285,0.16566c-0.01535,0.09111 -0.03515,0.17018 -0.04395,0.1757c-0.00886,0.00552 -0.02904,0.12299 -0.04494,0.26104c-0.01584,0.13805 -0.03542,0.25552 -0.04356,0.26104c-0.00809,0.00552 -0.02701,0.16817 -0.04202,0.36145c-0.01502,0.19327 -0.03504,0.35592 -0.04444,0.36145c-0.00946,0.00552 -0.0297,0.33534 -0.04499,0.73293c-0.01535,0.39759 -0.03636,0.7259 -0.04675,0.72957c-0.02343,0.00833 -0.02519,0.7865 -0.00176,0.7865c0.00935,0 0.02921,0.07003 0.04417,0.15562c0.01491,0.08559 0.03691,0.15863 0.04895,0.1623c0.01199,0.00371 0.02184,0.01827 0.02184,0.03238c0,0.01652 0.01953,0.02224 0.055,0.01606c0.03025,-0.00527 0.055,-0.01632 0.055,-0.02455c0,-0.01662 0.2194,-0.06069 0.30217,-0.06069c0.06661,0 0.23892,-0.15 0.2596,-0.2259c0.00825,-0.03037 0.02371,-0.05522 0.03432,-0.05522c0.01062,0 0.03047,-0.04066 0.04422,-0.09036c0.0137,-0.0497 0.03245,-0.09036 0.04164,-0.09036c0.00919,0 0.02904,-0.02711 0.04406,-0.06024c0.01502,-0.03313 0.03526,-0.06024 0.04494,-0.06024c0.00968,0 0.02459,-0.02937 0.03317,-0.06526c0.01562,-0.06546 0.17969,-0.23594 0.22699,-0.23594c0.0137,0 0.02492,-0.01195 0.02492,-0.02651c0,-0.01456 0.02448,-0.04593 0.0544,-0.06968c0.02998,-0.02374 0.06072,-0.06606 0.06842,-0.09398c0.00765,-0.02796 0.02079,-0.0508 0.02915,-0.0508c0.00836,0 0.02756,-0.03117 0.04268,-0.06933c0.01997,-0.0505 0.04807,-0.07615 0.1034,-0.09438c0.0418,-0.01381 0.07596,-0.03233 0.07596,-0.04111c0,-0.00884 0.0143,-0.01606 0.03174,-0.01606c0.01749,0 0.04472,-0.01642 0.0605,-0.03645c0.01584,-0.02008 0.04609,-0.04237 0.06727,-0.0496c0.02118,-0.00718 0.0385,-0.02475 0.0385,-0.03901c0,-0.01426 0.0198,-0.0372 0.044,-0.051c0.0242,-0.01381 0.044,-0.03855 0.044,-0.05502c0,-0.01652 0.00875,-0.02997 0.01942,-0.02997c0.01073,0 0.02437,-0.01707 0.03036,-0.038c0.00748,-0.02615 0.03905,-0.04232 0.10153,-0.05196c0.04989,-0.00768 0.0907,-0.02038 0.0907,-0.02826c0,-0.00783 0.03465,-0.0257 0.077,-0.03971c0.04235,-0.01396 0.077,-0.03273 0.077,-0.04172c0,-0.00899 0.0297,-0.02761 0.066,-0.04132c0.0363,-0.0137 0.066,-0.03218 0.066,-0.04101c0,-0.00884 0.02888,-0.02184 0.06413,-0.02892c0.03526,-0.00703 0.09218,-0.03489 0.1265,-0.0618c0.03432,-0.02691 0.07409,-0.04895 0.08839,-0.049c0.0143,0 0.03229,-0.01807 0.03999,-0.04016c0.0077,-0.02209 0.03229,-0.04016 0.05467,-0.04016c0.02233,0 0.04395,-0.00863 0.04802,-0.01923c0.00402,-0.01054 0.08157,-0.02962 0.17232,-0.04237c0.09075,-0.01275 0.17034,-0.03092 0.17683,-0.04036c0.00655,-0.00949 0.08575,-0.02846 0.176,-0.04222c0.09031,-0.01376 0.16913,-0.03092 0.17518,-0.03815c0.00605,-0.00723 0.0902,-0.02977 0.187,-0.0501c0.0968,-0.02033 0.18095,-0.04247 0.187,-0.0491c0.00605,-0.00668 0.0704,-0.02395 0.143,-0.0384c0.0726,-0.01446 0.13717,-0.03368 0.1435,-0.04277c0.01656,-0.02369 0.27324,-0.05863 0.43219,-0.05884c0.07458,-0.0001 0.13893,-0.00868 0.143,-0.01908c0.00435,-0.0113 0.65362,-0.02882 1.61332,-0.04342c0.8833,-0.0135 1.6093,-0.03208 1.61332,-0.04132c0.00407,-0.00924 0.14267,-0.01662 0.308,-0.01642c0.67326,0.0009 3.03969,-0.04925 3.03969,-0.06441c0,-0.00899 0.08949,-0.01632 0.19888,-0.01632c0.22968,0 0.62051,-0.03619 0.63696,-0.05899c0.00611,-0.00853 0.06314,-0.02676 0.12667,-0.04051c0.06353,-0.01376 0.1155,-0.03133 0.1155,-0.03906c0,-0.00768 0.03465,-0.02545 0.077,-0.03946c0.04235,-0.01396 0.077,-0.03278 0.077,-0.04177c0,-0.00904 0.0792,-0.02816 0.176,-0.04247c0.0968,-0.01436 0.176,-0.03228 0.176,-0.03981c0,-0.00758 0.0594,-0.02525 0.132,-0.03931c0.0726,-0.01406 0.132,-0.03223 0.132,-0.04041c0,-0.00813 0.02723,-0.01993 0.0605,-0.02615c0.07062,-0.0132 0.12452,-0.04874 0.27225,-0.17942c0.05929,-0.05246 0.12749,-0.09538 0.15153,-0.09538c0.02404,0 0.04373,-0.00788 0.04373,-0.01757c0,-0.00964 0.02723,-0.02269 0.0605,-0.02892c0.03328,-0.00622 0.08377,-0.02766 0.1122,-0.04769c0.08509,-0.05979 0.1793,-0.14438 0.17952,-0.16119c0.00039,-0.0243 0.14427,-0.14623 0.17265,-0.14623c0.01381,0 0.02514,-0.00934 0.02514,-0.02073c0,-0.01135 0.01733,-0.02656 0.0385,-0.03379c0.0539,-0.01832 0.1595,-0.11114 0.1595,-0.14021c0,-0.0133 0.01348,-0.03138 0.02987,-0.04021c0.01645,-0.00884 0.04197,-0.04995 0.05671,-0.09137c0.0148,-0.04142 0.04092,-0.0753 0.05814,-0.0753c0.01722,0 0.0313,-0.00919 0.0313,-0.02038c0,-0.01124 0.0341,-0.03529 0.07579,-0.05341c0.04246,-0.01847 0.08712,-0.05808 0.10164,-0.09001c0.01425,-0.03143 0.03465,-0.05708 0.04532,-0.05708c0.01067,0 0.03135,-0.04066 0.04587,-0.09036c0.01458,-0.0497 0.03328,-0.09036 0.04147,-0.09036c0.00825,0 0.0214,-0.03097 0.02915,-0.06888c0.00869,-0.04217 0.05225,-0.10562 0.11248,-0.16381c0.05407,-0.05226 0.09829,-0.10713 0.09829,-0.12194c0,-0.01481 0.00913,-0.02691 0.0203,-0.02691c0.01117,0 0.03245,-0.03363 0.0473,-0.07475c0.01491,-0.04111 0.03949,-0.08609 0.05473,-0.1c0.01524,-0.01391 0.03438,-0.0616 0.04263,-0.10597c0.0082,-0.04438 0.02206,-0.08072 0.03075,-0.08072c0.00864,0 0.02899,-0.08133 0.0451,-0.18072c0.01612,-0.0994 0.03784,-0.18072 0.04829,-0.18072c0.0104,0 0.01892,-0.01928 0.01892,-0.04287c0,-0.0635 0.04796,-0.19809 0.07062,-0.19809c0.01084,0 0.03003,-0.02711 0.04268,-0.06024c0.01265,-0.03313 0.03058,-0.06024 0.03982,-0.06024c0.0093,0 0.02981,-0.05648 0.0456,-0.1255c0.01579,-0.06903 0.03944,-0.13193 0.05247,-0.13981c0.0363,-0.02189 0.03273,-0.86315 -0.00369,-0.87425c-0.01513,-0.00462 -0.0275,-0.01973 -0.0275,-0.03363c0,-0.05201 -0.17265,-0.1872 -0.25757,-0.20176c-0.04582,-0.00788 -0.08833,-0.02169 -0.09449,-0.03077c-0.04384,-0.06476 0.01485,-0.06441 -6.97213,-0.04071m6.75219,0.19784c0,0.00904 0.0495,0.02871 0.11,0.04378c0.0605,0.01506 0.11,0.03474 0.11,0.04378c0,0.00909 0.01518,0.01647 0.03372,0.01647c0.01848,0 0.04004,0.01581 0.0478,0.03514c0.00781,0.01933 0.02618,0.04177 0.04081,0.0499c0.01469,0.00813 0.03366,0.0488 0.04219,0.09031c0.00853,0.04157 0.02701,0.08203 0.04103,0.08996c0.03751,0.02129 0.03559,0.64192 -0.00204,0.65336c-0.01513,0.00462 -0.0275,0.02741 -0.0275,0.05065c0,0.06526 -0.05104,0.27565 -0.06688,0.27565c-0.00776,0 -0.02717,0.0497 -0.04312,0.11044c-0.01595,0.06074 -0.03575,0.11044 -0.044,0.11044c-0.0082,0 -0.028,0.06325 -0.044,0.14056c-0.01601,0.07731 -0.03669,0.14056 -0.04593,0.14056c-0.0093,0 -0.0291,0.0497 -0.044,0.11044c-0.01491,0.06074 -0.03432,0.11044 -0.04312,0.11044c-0.00886,0 -0.0225,0.03133 -0.03036,0.06963c-0.00787,0.0383 -0.02728,0.08148 -0.04312,0.09593c-0.01584,0.01446 -0.04098,0.05994 -0.05588,0.10105c-0.01485,0.04111 -0.03493,0.07475 -0.04461,0.07475c-0.00974,0 -0.02998,0.02711 -0.04499,0.06024c-0.01502,0.03313 -0.03526,0.06024 -0.04499,0.06024c-0.00968,0 -0.02965,0.03338 -0.04444,0.07415c-0.02618,0.07249 -0.04026,0.09357 -0.10951,0.16411c-0.0187,0.01898 -0.04681,0.0629 -0.06254,0.09749c-0.01568,0.03464 -0.04252,0.06787 -0.05957,0.07385c-0.017,0.00597 -0.03097,0.02435 -0.03097,0.04086c0,0.01657 -0.0198,0.03976 -0.044,0.05156c-0.0242,0.0118 -0.044,0.03107 -0.044,0.04282c0,0.0117 -0.0792,0.09347 -0.176,0.18173c-0.0968,0.0882 -0.176,0.16867 -0.176,0.17876c0,0.01009 -0.0099,0.01837 -0.022,0.01837c-0.0121,0 -0.022,0.01355 -0.022,0.03012c0,0.01657 -0.01485,0.03012 -0.033,0.03012c-0.01815,0 -0.033,0.00904 -0.033,0.02008c0,0.01104 -0.01249,0.02008 -0.02772,0.02008c-0.01524,0 -0.04004,0.01807 -0.05517,0.04016c-0.01513,0.02209 -0.0412,0.04016 -0.05797,0.04016c-0.01672,0 -0.03614,0.01355 -0.04312,0.03012c-0.00693,0.01657 -0.02536,0.03027 -0.04081,0.03047c-0.01551,0.0002 -0.05154,0.02279 -0.08003,0.0502c-0.02849,0.02741 -0.06562,0.04985 -0.0825,0.04985c-0.01689,0 -0.03069,0.00924 -0.03069,0.02058c0,0.0113 -0.02475,0.02917 -0.055,0.03966c-0.03025,0.01049 -0.055,0.02666 -0.055,0.03589c0,0.00929 -0.03465,0.02927 -0.077,0.04443c-0.04235,0.01516 -0.077,0.03539 -0.077,0.04493c0,0.00959 -0.0297,0.02686 -0.066,0.0384c-0.0363,0.01155 -0.066,0.02796 -0.066,0.0365c0,0.00853 -0.04703,0.02746 -0.1045,0.04207c-0.05748,0.01461 -0.11666,0.03755 -0.13156,0.05095c-0.01491,0.01345 -0.06688,0.03057 -0.1155,0.0381c-0.04862,0.00748 -0.08844,0.02073 -0.08844,0.02942c0,0.00868 -0.0594,0.02786 -0.132,0.04257c-0.0726,0.01466 -0.132,0.03243 -0.132,0.03946c0,0.00698 -0.05693,0.0243 -0.1265,0.03845c-0.06958,0.01411 -0.13162,0.03303 -0.13789,0.04197c-0.00627,0.00899 -0.12012,0.02761 -0.253,0.04147c-0.13288,0.01381 -0.24657,0.03138 -0.25262,0.03901c-0.01254,0.01581 -1.74389,0.05949 -2.34669,0.05924c-0.21978,-0.0001 -0.40293,0.00778 -0.407,0.01757c-0.00402,0.00974 -0.70032,0.02922 -1.54732,0.04327c-0.847,0.01401 -1.5433,0.03313 -1.54732,0.04247c-0.00407,0.00934 -0.15257,0.01712 -0.33,0.01737c-0.41129,0.00045 -1.10875,0.03544 -1.12459,0.05633c-0.00666,0.00879 -0.10049,0.02656 -0.20851,0.03946c-0.10802,0.0129 -0.20207,0.03168 -0.209,0.04177c-0.00693,0.01009 -0.08932,0.02957 -0.1831,0.04332c-0.09378,0.01376 -0.1705,0.03173 -0.1705,0.03991c0,0.00818 -0.0792,0.0261 -0.176,0.03986c-0.0968,0.01376 -0.176,0.03138 -0.176,0.03921c0,0.00778 -0.0792,0.02972 -0.176,0.04869c-0.0968,0.01903 -0.176,0.04116 -0.176,0.04925c0,0.00808 -0.04455,0.02676 -0.099,0.04142c-0.05445,0.01466 -0.099,0.03288 -0.099,0.04051c0,0.00758 -0.03465,0.02525 -0.077,0.03926c-0.04235,0.01396 -0.077,0.03298 -0.077,0.04222c0,0.00924 -0.0297,0.02626 -0.066,0.0378c-0.0363,0.01155 -0.066,0.02907 -0.066,0.03896c0,0.00984 -0.0396,0.02877 -0.088,0.04202c-0.0484,0.0132 -0.088,0.03128 -0.088,0.04016c0,0.00884 -0.0396,0.02691 -0.088,0.04016c-0.0484,0.0132 -0.088,0.03128 -0.088,0.04011c0,0.00884 -0.02679,0.02721 -0.05957,0.04081c-0.03273,0.0136 -0.07288,0.04217 -0.08921,0.06345c-0.01634,0.02129 -0.03938,0.0387 -0.05121,0.0387c-0.01183,0 -0.05055,0.02711 -0.08602,0.06024c-0.03548,0.03313 -0.0742,0.06024 -0.08602,0.06024c-0.01183,0 -0.03443,0.01662 -0.05022,0.037c-0.01584,0.02033 -0.05016,0.04729 -0.07634,0.05999c-0.0544,0.02636 -0.46943,0.40336 -0.46943,0.42651c0,0.00838 -0.03454,0.0499 -0.07678,0.09227c-0.12216,0.12244 -0.14322,0.14634 -0.14333,0.16235c-0.00006,0.00828 -0.05698,0.06551 -0.1265,0.12716c-0.06952,0.06165 -0.14564,0.14297 -0.16918,0.18072c-0.02349,0.03775 -0.05319,0.07967 -0.066,0.09322c-0.01276,0.0135 -0.04169,0.04568 -0.06424,0.07149l-0.04103,0.04684l-0.06347,-0.0508c-0.03493,-0.02796 -0.06347,-0.0624 -0.06347,-0.07651c0,-0.01411 -0.0082,-0.02565 -0.01821,-0.02565c-0.02057,0 -0.0698,-0.17816 -0.0698,-0.25256c0,-0.02676 -0.0099,-0.04864 -0.022,-0.04864c-0.01353,0 -0.022,-0.1004 -0.022,-0.26104c0,-0.14357 0.00825,-0.26104 0.01837,-0.26104c0.01012,0 0.03152,-0.26657 0.04763,-0.59237c0.01612,-0.3258 0.03581,-0.59237 0.04384,-0.59237c0.00803,0 0.02794,-0.18072 0.04417,-0.40161c0.01623,-0.22088 0.03674,-0.40161 0.04549,-0.40161c0.00875,0 0.02299,-0.07294 0.03168,-0.16215c0.00941,-0.09709 0.02646,-0.16586 0.04252,-0.17149c0.01474,-0.00517 0.04026,-0.04066 0.05671,-0.07887c0.01639,-0.03815 0.03691,-0.06943 0.04554,-0.06943c0.00864,0 0.03405,-0.04061 0.05638,-0.09031c0.02239,-0.04965 0.04714,-0.09031 0.055,-0.09036c0.00787,0 0.02662,-0.04749 0.04169,-0.10547c0.01507,-0.05798 0.03388,-0.10994 0.0418,-0.11546c0.02019,-0.01411 0.06721,-0.16672 0.06721,-0.21817c0,-0.02359 0.00941,-0.04287 0.0209,-0.04287c0.0115,0 0.02756,-0.05341 0.03564,-0.11867c0.01425,-0.11521 0.01689,-0.11908 0.0885,-0.13138c0.04059,-0.00693 0.08146,-0.02425 0.09086,-0.0384c0.00941,-0.01421 0.03537,-0.03198 0.0577,-0.03946c0.02233,-0.00753 0.04576,-0.03168 0.05209,-0.05371c0.00627,-0.02204 0.01909,-0.04006 0.02849,-0.04006c0.00935,0 0.03014,-0.04066 0.0462,-0.09036c0.01606,-0.0497 0.03696,-0.09036 0.04642,-0.09036c0.00946,0 0.01722,-0.01315 0.01722,-0.02917c0,-0.0503 0.04972,-0.13148 0.08052,-0.13148c0.01623,0 0.02948,-0.00723 0.02948,-0.01606c0,-0.00879 0.03465,-0.02746 0.077,-0.04147c0.04235,-0.01396 0.077,-0.03609 0.077,-0.0492c0.00006,-0.0131 0.02481,-0.05005 0.055,-0.08213c0.03025,-0.03208 0.055,-0.06717 0.055,-0.07796c0,-0.02676 0.1864,-0.19503 0.21599,-0.19503c0.0313,0 0.22402,-0.16657 0.22402,-0.19362c0,-0.03057 0.09592,-0.12766 0.12612,-0.12766c0.01414,0 0.03361,-0.0121 0.04329,-0.02691c0.00968,-0.01481 0.06661,-0.038 0.12656,-0.05151c0.0599,-0.01355 0.12232,-0.04207 0.13871,-0.06345c0.01639,-0.02139 0.04411,-0.03886 0.0616,-0.03886c0.01744,0 0.03174,-0.0131 0.03174,-0.02912c0,-0.01601 0.01298,-0.03635 0.02877,-0.04518c0.01584,-0.00884 0.04153,-0.04473 0.05704,-0.07982c0.02607,-0.05894 0.0396,-0.06551 0.18018,-0.08715c0.0836,-0.01285 0.15202,-0.03128 0.15202,-0.04091c0,-0.00959 0.0396,-0.02721 0.088,-0.03911c0.0484,-0.0119 0.088,-0.02811 0.088,-0.03604c0,-0.00793 0.04032,-0.0259 0.0896,-0.03991c0.10032,-0.02861 0.11682,-0.03911 0.25229,-0.16084c0.07997,-0.07179 0.11451,-0.08815 0.20702,-0.09814c0.06111,-0.00663 0.1111,-0.01898 0.1111,-0.02746c0,-0.00853 0.07178,-0.02696 0.1595,-0.04101c0.08773,-0.01406 0.16445,-0.03097 0.1705,-0.03765c0.00605,-0.00663 0.07535,-0.0238 0.154,-0.03815c0.07865,-0.01436 0.14625,-0.03419 0.15015,-0.04403c0.00396,-0.00989 0.0566,-0.02395 0.11699,-0.03122c0.06039,-0.00733 0.1215,-0.0239 0.1358,-0.0368c0.01436,-0.0129 0.07557,-0.03594 0.13607,-0.0512c0.0605,-0.01521 0.12034,-0.04021 0.13294,-0.05557c0.01331,-0.01621 0.0825,-0.03273 0.165,-0.03936c0.07816,-0.00633 0.1479,-0.01963 0.15505,-0.02957c0.02442,-0.03414 0.97741,-0.05497 2.54452,-0.05562c1.02982,-0.00045 1.5675,-0.00758 1.5675,-0.02078c0,-0.0133 0.94232,-0.02008 2.783,-0.02008c1.53065,0 2.783,0.00738 2.783,0.01647m-11.33,6.56988c0,0.01195 -0.08245,0.02003 -0.2035,0.01998c-0.2288,-0.0001 -0.76962,0.04106 -0.7865,0.05989c-0.00605,0.00673 -0.0902,0.0241 -0.187,0.0386c-0.0968,0.01446 -0.18095,0.03258 -0.187,0.04021c-0.00605,0.00768 -0.05434,0.0255 -0.10725,0.03966c-0.09939,0.02651 -0.11435,0.03499 -0.2244,0.12766c-0.03586,0.03022 -0.08982,0.06059 -0.11979,0.06747c-0.03003,0.00688 -0.05456,0.01913 -0.05456,0.02721c0,0.00808 -0.05445,0.0258 -0.121,0.03941c-0.06655,0.0136 -0.121,0.03248 -0.121,0.04202c0,0.00949 -0.02057,0.02324 -0.04565,0.03052c-0.02514,0.00728 -0.08047,0.04403 -0.12293,0.08168c-0.04246,0.0376 -0.08542,0.06842 -0.09543,0.06842c-0.01007,0 -0.04631,0.02711 -0.08058,0.06024c-0.03427,0.03313 -0.06974,0.06024 -0.07887,0.06024c-0.0236,0 -0.28056,0.2373 -0.28056,0.25909c0,0.00994 -0.0297,0.02756 -0.066,0.03911c-0.0363,0.01155 -0.066,0.03504 -0.066,0.05216c0,0.01717 -0.0099,0.03117 -0.022,0.03117c-0.0121,0 -0.022,0.01195 -0.022,0.02651c0,0.01456 -0.02547,0.04669 -0.0566,0.07139c-0.03108,0.0247 -0.06672,0.07149 -0.07915,0.10402c-0.01238,0.03253 -0.03113,0.05914 -0.04164,0.05914c-0.01051,0 -0.02574,0.04578 -0.03388,0.10171c-0.00814,0.05597 -0.02827,0.11406 -0.04477,0.12912c-0.0165,0.01506 -0.02998,0.03624 -0.02998,0.04719c0,0.01089 -0.0297,0.04538 -0.066,0.07666c-0.0363,0.03128 -0.066,0.06722 -0.066,0.07987c0,0.01265 -0.01386,0.02786 -0.0308,0.03379c-0.01694,0.00597 -0.03762,0.04759 -0.04593,0.09252c-0.00836,0.04493 -0.02365,0.08173 -0.0341,0.08173c-0.01045,0 -0.03064,0.05422 -0.04494,0.12048c-0.0143,0.06627 -0.03355,0.12048 -0.04285,0.12048c-0.00924,0 -0.02882,0.07681 -0.0434,0.17068c-0.01458,0.09388 -0.03443,0.17068 -0.04406,0.17068c-0.00963,0 -0.02448,0.06355 -0.033,0.14121c-0.00858,0.07771 -0.02783,0.15246 -0.04285,0.16616c-0.01507,0.0137 -0.04021,0.0744 -0.05594,0.13489c-0.01568,0.06044 -0.03922,0.11621 -0.05225,0.12395c-0.06083,0.03589 -0.05825,8.22555 0.00259,8.24402c0.01513,0.00462 0.0275,0.02063 0.0275,0.03569c0,0.01501 0.01799,0.03911 0.03993,0.05351c0.022,0.01446 0.04642,0.04207 0.05434,0.0614c0.00787,0.01933 0.02954,0.03514 0.04802,0.03514c0.01854,0 0.03372,0.00949 0.03372,0.02113c0,0.0116 0.0297,0.03057 0.066,0.04212c0.0363,0.01155 0.066,0.02816 0.066,0.03695c0,0.05633 0.65406,0.05728 0.704,0.00105c0.00605,-0.00683 0.08487,-0.02364 0.17518,-0.0374c0.09026,-0.01376 0.16946,-0.03203 0.176,-0.04056c0.00649,-0.00853 0.04648,-0.02806 0.08883,-0.04337c0.04235,-0.01531 0.08195,-0.03288 0.088,-0.03906c0.00605,-0.00617 0.0407,-0.02475 0.077,-0.04132c0.0363,-0.01652 0.07893,-0.04588 0.09477,-0.06521c0.01579,-0.01933 0.04796,-0.03514 0.0715,-0.03514c0.02349,0 0.04274,-0.00813 0.04274,-0.01807c0,-0.00994 0.05198,-0.02932 0.1155,-0.04307c0.06353,-0.01376 0.12045,-0.03092 0.1265,-0.03815c0.00605,-0.00718 0.05308,-0.0243 0.1045,-0.03805c0.05143,-0.0137 0.0935,-0.03288 0.0935,-0.04257c0,-0.00974 0.02976,-0.02364 0.06617,-0.03097c0.03641,-0.00728 0.07634,-0.03057 0.08877,-0.05181c0.01243,-0.02118 0.0374,-0.0385 0.05555,-0.0385c0.0181,0 0.03861,-0.01355 0.04554,-0.03012c0.00699,-0.01657 0.02739,-0.03012 0.04538,-0.03012c0.01799,0 0.03768,-0.01722 0.04367,-0.03825c0.00699,-0.0243 0.03812,-0.04292 0.08536,-0.051c0.04092,-0.00703 0.08206,-0.02465 0.09147,-0.03926c0.00941,-0.01456 0.05423,-0.03745 0.09961,-0.0509c0.04538,-0.0135 0.0825,-0.03062 0.0825,-0.0381c0,-0.00753 0.03042,-0.02595 0.06765,-0.04096c0.07964,-0.03218 0.16088,-0.09874 0.18079,-0.14814c0.00781,-0.01933 0.02442,-0.03514 0.03685,-0.03514c0.01249,0 0.02272,-0.01295 0.02272,-0.02877c0,-0.01581 0.0198,-0.03449 0.044,-0.04152c0.0242,-0.00703 0.044,-0.02164 0.044,-0.03253c0,-0.01084 0.02893,-0.02897 0.06424,-0.04021c0.03531,-0.01124 0.06969,-0.03333 0.07629,-0.04915c0.00666,-0.01581 0.02338,-0.02871 0.03718,-0.02871c0.03471,0 0.12947,-0.08469 0.12991,-0.11611c0.00022,-0.01411 0.01436,-0.03057 0.03141,-0.03655c0.01705,-0.00602 0.03663,-0.03128 0.04345,-0.05612c0.01535,-0.05577 0.11523,-0.15256 0.19883,-0.19257c0.03438,-0.01647 0.07266,-0.05035 0.08509,-0.0753c0.01249,-0.025 0.03036,-0.04543 0.03971,-0.04543c0.00941,0 0.02959,-0.03163 0.04488,-0.07028c0.01535,-0.03865 0.03421,-0.07028 0.04191,-0.07028c0.00776,0 0.02717,-0.03614 0.04312,-0.08032c0.01595,-0.04418 0.03537,-0.08032 0.04312,-0.08032c0.0077,0 0.02657,-0.03163 0.04191,-0.07028c0.01529,-0.03865 0.03735,-0.07028 0.04895,-0.07028c0.01161,0 0.03053,-0.02259 0.04202,-0.0502c0.0115,-0.02761 0.02866,-0.0502 0.03806,-0.0502c0.00946,0 0.03141,-0.02937 0.04873,-0.06526c0.01733,-0.03589 0.04329,-0.0761 0.0577,-0.08936c0.01441,-0.0133 0.03328,-0.05843 0.04191,-0.10035c0.00858,-0.04197 0.02459,-0.08133 0.03559,-0.0875c0.01095,-0.00617 0.03152,-0.08755 0.04571,-0.18077c0.01419,-0.09322 0.03273,-0.17405 0.04125,-0.17957c0.01887,-0.0123 0.06507,-0.4745 0.06507,-0.6513c0,-0.07068 0.0088,-0.13148 0.01964,-0.13519c0.02365,-0.00803 0.0401,-0.34674 0.06006,-1.2366c0.00825,-0.36722 0.02343,-0.66767 0.03366,-0.66767c0.01023,0 0.01898,-0.16039 0.01942,-0.35643c0.00044,-0.19603 0.00979,-0.58203 0.0209,-0.85778c0.0203,-0.50602 0.01711,-0.6135 -0.01183,-0.39895c-0.00869,0.06446 -0.02508,0.12264 -0.03641,0.12927c-0.02459,0.01446 -0.05973,0.52741 -0.06072,0.8865c-0.00044,0.15688 -0.00924,0.25602 -0.02272,0.25602c-0.01304,0 -0.02189,0.07179 -0.02173,0.1757c0.00044,0.30216 -0.05066,1.33986 -0.0665,1.3504c-0.00825,0.00552 -0.02761,0.21787 -0.04301,0.47189c-0.0154,0.25402 -0.03476,0.46637 -0.04301,0.47189c-0.00831,0.00552 -0.02706,0.12254 -0.0418,0.26009c-0.01474,0.1375 -0.03526,0.25497 -0.04565,0.26104c-0.0104,0.00602 -0.03003,0.0873 -0.04367,0.18057c-0.0137,0.09322 -0.0335,0.17455 -0.04411,0.18072c-0.01056,0.00612 -0.0319,0.0631 -0.04736,0.12661c-0.01551,0.0635 -0.03652,0.11546 -0.0467,0.11546c-0.01018,0 -0.01848,0.01852 -0.01848,0.04111c0,0.02264 -0.02299,0.06104 -0.05115,0.08534c-0.02811,0.02435 -0.05753,0.06004 -0.06529,0.07937c-0.00781,0.01933 -0.02376,0.03514 -0.03548,0.03514c-0.01166,0 -0.03377,0.03163 -0.04906,0.07028c-0.01535,0.03865 -0.03421,0.07028 -0.04191,0.07028c-0.00776,0 -0.02717,0.03614 -0.04312,0.08032c-0.01595,0.04418 -0.03762,0.08032 -0.04807,0.08032c-0.01045,0 -0.02844,0.02259 -0.03993,0.0502c-0.0115,0.02761 -0.02866,0.0502 -0.03806,0.0502c-0.00946,0 -0.03014,0.02666 -0.04593,0.05929c-0.01584,0.03263 -0.04796,0.06486 -0.07139,0.07164c-0.02343,0.00678 -0.04263,0.02078 -0.04263,0.03107c0,0.01029 -0.01485,0.01872 -0.033,0.01872c-0.01815,0 -0.033,0.0131 -0.033,0.02912c0,0.01601 -0.01238,0.03635 -0.02756,0.04518c-0.01513,0.00884 -0.04109,0.04016 -0.0577,0.06958c-0.01661,0.02947 -0.0495,0.05813 -0.0731,0.06381c-0.0236,0.00562 -0.04829,0.02897 -0.05484,0.05186c-0.0066,0.02294 -0.02316,0.04182 -0.03691,0.04202c-0.0137,0.0002 -0.04824,0.02279 -0.07673,0.0502c-0.02849,0.02741 -0.06023,0.04985 -0.07057,0.04985c-0.01034,0 -0.07194,0.0497 -0.1369,0.11044c-0.06496,0.06074 -0.12942,0.11044 -0.14317,0.11044c-0.01375,0 -0.03498,0.01702 -0.04719,0.0378c-0.01221,0.02083 -0.05709,0.04383 -0.09977,0.05115c-0.04268,0.00728 -0.07761,0.02093 -0.07761,0.03027c0,0.00934 -0.02503,0.02274 -0.05566,0.02972c-0.03058,0.00703 -0.07695,0.03509 -0.10296,0.06245c-0.02602,0.02731 -0.06039,0.04965 -0.07634,0.04965c-0.01595,0 -0.02904,0.01099 -0.02904,0.02445c0,0.04292 -0.10995,0.1126 -0.19949,0.12636c-0.04758,0.00738 -0.08652,0.01988 -0.08652,0.02791c0,0.00798 -0.0495,0.02605 -0.11,0.04021c-0.0605,0.01416 -0.11,0.03384 -0.11,0.04367c0,0.00989 -0.04455,0.02816 -0.099,0.04071c-0.05445,0.0125 -0.099,0.02887 -0.099,0.0364c0,0.00753 -0.03614,0.0256 -0.0803,0.04016c-0.04417,0.01461 -0.10918,0.05346 -0.14443,0.0864c-0.05044,0.04709 -0.09554,0.06466 -0.2112,0.08218c-0.08091,0.0123 -0.15411,0.03163 -0.16264,0.04302c-0.00908,0.01205 -0.15274,0.02374 -0.34353,0.02796c-0.35233,0.00783 -0.42191,-0.01215 -0.42191,-0.12118c0,-0.02003 -0.00886,-0.0364 -0.01975,-0.0364c-0.01084,0 -0.03223,-0.07681 -0.04752,-0.17068c-0.01529,-0.09388 -0.03614,-0.17068 -0.04626,-0.17068c-0.01018,0 -0.01848,-0.12651 -0.01848,-0.28112c0,-0.17405 0.00836,-0.28112 0.022,-0.28112c0.0121,0 0.022,-0.01355 0.022,-0.03012c0,-0.01657 -0.0099,-0.03012 -0.022,-0.03012c-0.0121,0 -0.022,-0.01807 -0.022,-0.04016c0,-0.02209 0.0099,-0.04016 0.022,-0.04016c0.01408,0 0.022,-0.1874 0.022,-0.52209c0,-0.33469 -0.00792,-0.52209 -0.022,-0.52209c-0.01419,0 -0.022,-0.22134 -0.022,-0.62379c0,-0.66616 -0.03608,-1.50778 -0.06534,-1.52465c-0.0462,-0.02656 -0.07475,-0.93705 -0.04829,-1.53906c0.01452,-0.32982 0.02624,-0.68323 0.02602,-0.78539c-0.00022,-0.11069 0.00853,-0.18574 0.02162,-0.18574c0.03399,0 0.02871,-0.3757 -0.0055,-0.3883c-0.022,-0.00808 -0.022,-0.01044 0,-0.0117c0.02052,-0.0012 0.0275,-0.06908 0.02761,-0.26767c0.00006,-0.30607 0.03889,-0.82249 0.06292,-0.83795c0.00897,-0.00572 0.02926,-0.09629 0.0451,-0.2012c0.01584,-0.10492 0.03597,-0.19528 0.04466,-0.2008c0.00875,-0.00552 0.02767,-0.07641 0.04208,-0.15758c0.01447,-0.08112 0.04087,-0.16084 0.05869,-0.17711c0.01788,-0.01632 0.03245,-0.04573 0.03245,-0.06541c0,-0.01968 0.02503,-0.06195 0.05561,-0.09398c0.09559,-0.09985 0.10076,-0.10758 0.13508,-0.1994c0.01837,-0.0493 0.04142,-0.08966 0.05121,-0.08966c0.00974,0 0.02959,-0.04518 0.04411,-0.1004c0.01452,-0.05522 0.03443,-0.1004 0.04428,-0.1004c0.00979,0 0.02459,-0.03624 0.03278,-0.08057c0.00902,-0.04869 0.03152,-0.0887 0.05693,-0.1011c0.0231,-0.0113 0.04202,-0.03379 0.04202,-0.04995c0,-0.01616 0.01078,-0.02942 0.02398,-0.02942c0.03328,0 0.21142,-0.17028 0.22803,-0.21797c0.02068,-0.05959 0.22688,-0.24192 0.28985,-0.25638c0.03064,-0.00703 0.06089,-0.02515 0.06727,-0.04026c0.00638,-0.01516 0.02426,-0.02756 0.03977,-0.02756c0.01546,0 0.05154,-0.02811 0.08014,-0.06245c0.1149,-0.13795 0.17226,-0.17907 0.28248,-0.20231c0.06078,-0.0128 0.1105,-0.02912 0.1105,-0.03624c0,-0.00718 0.0495,-0.0253 0.11,-0.04036c0.0605,-0.01506 0.11,-0.03389 0.11,-0.04192c0,-0.00803 0.0495,-0.0262 0.11,-0.04036c0.0605,-0.01416 0.11,-0.03233 0.11,-0.04046c0,-0.00808 0.03669,-0.02575 0.08157,-0.03926c0.04488,-0.01355 0.09702,-0.04202 0.11594,-0.0633c0.02497,-0.02816 0.07321,-0.04187 0.17694,-0.0502c0.07838,-0.00638 0.14779,-0.01878 0.15417,-0.02766c0.02629,-0.0365 0.81615,-0.05808 2.12608,-0.05818c0.86433,-0.00005 1.39244,-0.00738 1.397,-0.01933c0.0154,-0.04036 5.1661,-0.03624 5.1909,0.00417c0.01188,0.01933 0.03234,0.03514 0.04549,0.03514c0.12821,0 0.19806,0.34513 0.15257,0.75427c-0.01452,0.13112 -0.03504,0.24322 -0.04554,0.24915c-0.01056,0.00592 -0.03207,0.06948 -0.04791,0.14121c-0.01579,0.07179 -0.03443,0.13499 -0.04136,0.14051c-0.00699,0.00552 -0.02624,0.04844 -0.04279,0.09538c-0.01656,0.04694 -0.0368,0.08534 -0.04499,0.08534c-0.0082,0 -0.03344,0.0497 -0.05605,0.11044c-0.02261,0.06074 -0.04857,0.11044 -0.0577,0.11044c-0.00913,0 -0.02728,0.03614 -0.04032,0.08032c-0.01304,0.04418 -0.03245,0.08032 -0.04312,0.08032c-0.01073,0 -0.03091,0.03163 -0.04488,0.07028c-0.01397,0.03865 -0.03267,0.07028 -0.04158,0.07028c-0.00891,0 -0.02981,0.03163 -0.04642,0.07028c-0.01661,0.03865 -0.03718,0.07028 -0.04571,0.07028c-0.00853,0 -0.02129,0.02093 -0.02833,0.04649c-0.01089,0.03956 -0.09631,0.13178 -0.32175,0.34719c-0.02431,0.02324 -0.04422,0.0493 -0.04422,0.05788c0,0.0248 -0.18953,0.19101 -0.2178,0.19101c-0.01408,0 -0.0313,0.01355 -0.03823,0.03012c-0.00699,0.01657 -0.0264,0.03012 -0.04312,0.03012c-0.01678,0 -0.04285,0.01807 -0.05797,0.04016c-0.01513,0.02209 -0.03746,0.04016 -0.04967,0.04016c-0.01964,0.00005 -0.06815,0.03188 -0.18909,0.12405c-0.05742,0.04378 -0.12744,0.07676 -0.16286,0.07676c-0.01832,0 -0.03328,0.00758 -0.03328,0.01687c0,0.00929 -0.0396,0.02882 -0.088,0.04337c-0.0484,0.01456 -0.088,0.03343 -0.088,0.04192c0,0.00848 -0.05693,0.02681 -0.1265,0.04076c-0.06958,0.01391 -0.13167,0.03208 -0.13794,0.04036c-0.00633,0.00828 -0.10038,0.02651 -0.209,0.04046c-0.10868,0.01401 -0.20251,0.03173 -0.20856,0.03941c-0.0291,0.0369 -0.82935,0.05813 -2.19241,0.05813c-0.81488,0 -1.48159,0.00723 -1.48159,0.01611c0,0.00889 -0.09961,0.02746 -0.22132,0.04132c-0.21131,0.0241 -0.32868,0.06938 -0.32868,0.12691c0,0.00904 -0.01733,0.03389 -0.0385,0.05517c-0.07255,0.07299 -0.09372,0.1004 -0.12067,0.15633c-0.0148,0.03077 -0.03702,0.06345 -0.04939,0.07254c-0.01381,0.01019 -0.01029,0.0136 0.00897,0.00889c0.01733,-0.00427 0.04208,-0.0246 0.055,-0.04513c0.06067,-0.09613 0.23425,-0.23133 0.29706,-0.23133c0.03515,0 0.06716,-0.00868 0.07123,-0.01933c0.01403,-0.0369 0.85124,-0.06079 2.13582,-0.06089c0.71539,-0.00005 1.2925,-0.00788 1.2925,-0.01752c0,-0.00959 0.16088,-0.02892 0.3575,-0.04297c0.19663,-0.01406 0.36245,-0.03163 0.3685,-0.03906c0.00605,-0.00743 0.10478,-0.02465 0.21934,-0.0383c0.11462,-0.01365 0.21362,-0.03208 0.22,-0.04101c0.00644,-0.00894 0.06287,-0.02731 0.12551,-0.04086c0.06259,-0.0135 0.11919,-0.03745 0.12579,-0.05311c0.0066,-0.01566 0.02679,-0.02846 0.04488,-0.02846c0.01815,0 0.04356,-0.01807 0.05649,-0.04016c0.01293,-0.02209 0.03559,-0.04031 0.05027,-0.04051c0.01469,-0.0002 0.05005,-0.02279 0.07854,-0.0502c0.02849,-0.02741 0.06562,-0.04985 0.0825,-0.04985c0.01689,0 0.03069,-0.00833 0.03069,-0.01852c0,-0.01019 0.03608,-0.02942 0.08025,-0.04267c0.04411,-0.0133 0.11088,-0.05467 0.14834,-0.09192c0.03746,-0.0373 0.07623,-0.06777 0.08619,-0.06777c0.03537,0 0.36575,-0.32349 0.41146,-0.40286c0.01551,-0.02691 0.04164,-0.05617 0.05797,-0.06501c0.01639,-0.00884 0.02981,-0.02882 0.02981,-0.04448c0,-0.01561 0.0198,-0.0381 0.044,-0.0499c0.0242,-0.0118 0.044,-0.03474 0.044,-0.0509c0,-0.01616 0.01485,-0.02942 0.033,-0.02942c0.01815,0 0.033,-0.01305 0.033,-0.02897c0,-0.01596 0.01826,-0.04081 0.04065,-0.05522c0.02233,-0.01446 0.0528,-0.06014 0.06771,-0.10156c0.01491,-0.04142 0.03438,-0.0753 0.04334,-0.0753c0.00897,0 0.03377,-0.06777 0.05517,-0.1506c0.0214,-0.08283 0.04818,-0.1506 0.05957,-0.1506c0.01139,0 0.03009,-0.02259 0.04158,-0.0502c0.0115,-0.02761 0.02904,-0.0502 0.03905,-0.0502c0.00996,0 0.03064,-0.03163 0.04598,-0.07028c0.01529,-0.03865 0.03493,-0.07028 0.04362,-0.07028c0.00864,0 0.02943,-0.04292 0.04615,-0.09538c0.01672,-0.05246 0.03823,-0.1002 0.0478,-0.10602c0.00957,-0.00587 0.02943,-0.07816 0.04411,-0.16064c0.01469,-0.08253 0.03597,-0.15562 0.0473,-0.16255c0.04136,-0.0251 0.04895,-0.84809 0.00814,-0.88534c-0.01986,-0.01812 -0.03614,-0.04076 -0.03614,-0.0503c0,-0.0755 -0.22534,-0.20643 -0.3553,-0.20643c-0.03449,0 -0.0627,-0.00904 -0.0627,-0.02008c0,-0.0133 -1.32369,-0.02008 -3.927,-0.02008c-2.60332,0 -3.927,0.00678 -3.927,0.02008" fill="#ddc49c" fill-rule="evenodd" stroke="null"/>
   <path id="path3" d="m12.046,1.82731c0,0.0132 -0.53768,0.02033 -1.5675,0.02078c-1.56712,0.00065 -2.5201,0.02149 -2.54452,0.05562c-0.00715,0.00994 -0.07689,0.02324 -0.15505,0.02957c-0.0825,0.00663 -0.15169,0.02314 -0.165,0.03936c-0.0126,0.01536 -0.07244,0.04036 -0.13294,0.05557c-0.12238,0.03082 -0.22127,0.09362 -0.10714,0.06807c0.03471,-0.00778 0.06644,-0.02179 0.07046,-0.03112c0.00407,-0.00934 0.02811,-0.01697 0.05346,-0.01697c0.04769,0 0.19487,-0.04177 0.21423,-0.06079c0.02074,-0.02038 0.27759,-0.05969 0.39001,-0.05969c0.06732,0 0.11583,-0.00959 0.12106,-0.0239c0.02382,-0.06521 9.43294,-0.0629 9.43294,0.00226c0,0.00934 0.0198,0.02169 0.044,0.02746c0.0242,0.00577 0.044,0.0249 0.044,0.04252c0,0.01757 0.00831,0.03198 0.01848,0.03198c0.01018,0 0.03119,0.05196 0.0467,0.11546c0.01546,0.0635 0.03916,0.12184 0.05264,0.12962c0.03003,0.01732 0.02734,0.25708 -0.00314,0.27465c-0.01177,0.00683 -0.03317,0.09357 -0.04752,0.19277c-0.01441,0.09925 -0.03471,0.18519 -0.0451,0.19106c-0.01045,0.00592 -0.03108,0.08966 -0.04582,0.18609c-0.0148,0.09649 -0.03443,0.1754 -0.04356,0.1754c-0.00919,0 -0.02838,0.06325 -0.04268,0.14056c-0.0143,0.07731 -0.03372,0.14056 -0.04318,0.14056c-0.00946,0 -0.02349,0.03569 -0.03113,0.07937c-0.00765,0.04367 -0.02624,0.0866 -0.04131,0.09538c-0.01513,0.00879 -0.0423,0.04312 -0.06039,0.07625c-0.0181,0.03313 -0.04494,0.06727 -0.05957,0.07585c-0.01469,0.00858 -0.03311,0.04699 -0.04098,0.08534c-0.00792,0.03835 -0.02277,0.06973 -0.033,0.06973c-0.01029,0 -0.03058,0.03614 -0.04505,0.08032c-0.01452,0.04418 -0.03432,0.08032 -0.044,0.08032c-0.00974,0 -0.02954,0.03614 -0.044,0.08032c-0.01452,0.04418 -0.03394,0.08032 -0.04318,0.08032c-0.00924,0 -0.02833,0.03183 -0.04241,0.07073c-0.01408,0.03896 -0.08234,0.12254 -0.15164,0.18574c-0.06936,0.06325 -0.13255,0.13082 -0.14047,0.15015c-0.00787,0.01933 -0.02349,0.03514 -0.03465,0.03514c-0.01117,0 -0.02635,0.02189 -0.03366,0.04864c-0.01441,0.05231 -0.18068,0.2124 -0.22061,0.2124c-0.01337,0 -0.03658,0.01807 -0.0517,0.04016c-0.01513,0.02209 -0.03977,0.04076 -0.05478,0.04147c-0.01507,0.0007 -0.04967,0.02555 -0.07695,0.05522c-0.16049,0.17435 -0.24173,0.24142 -0.30789,0.25417c-0.03933,0.00758 -0.0715,0.02123 -0.0715,0.03032c0,0.00909 -0.0297,0.02595 -0.066,0.0375c-0.0363,0.01155 -0.066,0.02977 -0.066,0.04051c0,0.01074 -0.03036,0.02565 -0.06749,0.03308c-0.03713,0.00743 -0.07227,0.02495 -0.07816,0.03891c-0.00589,0.01391 -0.04972,0.0371 -0.09752,0.05151c-0.04774,0.01441 -0.08685,0.03399 -0.08685,0.04352c0,0.00954 -0.02475,0.02595 -0.055,0.03645c-0.03025,0.01049 -0.055,0.02751 -0.055,0.0378c0,0.01029 -0.0495,0.03032 -0.11,0.04448c-0.0605,0.01416 -0.11,0.03203 -0.11,0.03971c0,0.00773 -0.06683,0.0254 -0.1485,0.03931c-0.08168,0.01391 -0.15373,0.03253 -0.16005,0.04137c-0.00638,0.00884 -0.12518,0.02711 -0.264,0.04061c-0.13888,0.0135 -0.25751,0.03138 -0.26367,0.03971c-0.01221,0.01637 -1.15071,0.05838 -1.58235,0.05838c-0.16231,0 -0.26543,0.00778 -0.26543,0.02008c0,0.01215 -0.09323,0.01993 -0.2365,0.01973c-0.32373,-0.0005 -1.24597,0.04423 -1.2595,0.06109c-0.01073,0.01335 -0.48598,0.02671 -1.8865,0.05301c-0.37813,0.00708 -0.6875,0.02053 -0.6875,0.02987c0,0.00939 -0.15582,0.01702 -0.34634,0.01702c-0.48571,0 -1.40118,0.04036 -1.40998,0.06215c-0.00407,0.00999 -0.04692,0.01817 -0.09526,0.01817c-0.13046,0 -0.51172,0.04322 -0.52443,0.05949c-0.00605,0.00773 -0.07288,0.02585 -0.1485,0.04026c-0.07563,0.01441 -0.1375,0.03404 -0.1375,0.04357c0,0.00954 -0.01496,0.01732 -0.03328,0.01732c-0.04081,0 -0.1259,0.04202 -0.1479,0.07299c-0.00891,0.01255 -0.05099,0.02882 -0.0935,0.03609c-0.04252,0.00728 -0.07733,0.02083 -0.07733,0.03012c0,0.00929 -0.06435,0.02796 -0.143,0.04152c-0.07865,0.01355 -0.143,0.03117 -0.143,0.03921c0,0.00803 -0.05561,0.02681 -0.12353,0.04167c-0.06798,0.01491 -0.13481,0.03725 -0.1485,0.04975c-0.01375,0.0125 -0.05605,0.03253 -0.094,0.04458c-0.08305,0.02641 -0.18398,0.10301 -0.18398,0.13966c0,0.01456 -0.01436,0.02651 -0.0319,0.02651c-0.01755,0 -0.03982,0.0123 -0.0495,0.02726c-0.00968,0.01501 -0.05473,0.0383 -0.1001,0.05176c-0.04538,0.0135 -0.0825,0.03188 -0.0825,0.04086c0,0.00899 -0.02613,0.02234 -0.05808,0.02962c-0.05781,0.01325 -0.29392,0.21647 -0.29392,0.25301c0,0.01054 -0.01485,0.01918 -0.033,0.01918c-0.01815,0 -0.033,0.00934 -0.033,0.02073c0,0.01135 -0.01733,0.02631 -0.0385,0.03318c-0.05473,0.01777 -0.3063,0.25517 -0.32384,0.30557c-0.00803,0.02314 -0.02387,0.04212 -0.03515,0.04212c-0.01128,0 -0.02052,0.01355 -0.02052,0.03012c0,0.01657 -0.00913,0.03012 -0.0203,0.03012c-0.03003,0 -0.19971,0.16295 -0.19971,0.19182c0,0.0136 -0.01348,0.02947 -0.02992,0.03524c-0.01645,0.00577 -0.04136,0.05191 -0.05533,0.10256c-0.01397,0.05065 -0.03328,0.09207 -0.04296,0.09207c-0.00968,0 -0.03102,0.03128 -0.04741,0.06943c-0.0473,0.11004 -0.14548,0.09257 -0.18865,-0.03358c-0.00864,-0.02525 -0.02618,-0.05201 -0.039,-0.05954c-0.01463,-0.00853 -0.02855,-0.18163 -0.03724,-0.46185c-0.0077,-0.24649 -0.01562,-0.35557 -0.01771,-0.24237c-0.00226,0.12154 -0.01282,0.20582 -0.0258,0.20582c-0.01353,0 -0.022,0.1004 -0.022,0.26104c0,0.16064 0.00847,0.26104 0.022,0.26104c0.0121,0 0.022,0.02189 0.022,0.04864c0,0.0744 0.04923,0.25256 0.0698,0.25256c0.01001,0 0.01821,0.01155 0.01821,0.02565c0,0.01411 0.02855,0.04854 0.06347,0.07651l0.06347,0.0508l0.04103,-0.04684c0.02255,-0.0258 0.05148,-0.05798 0.06424,-0.07149c0.01282,-0.01355 0.04252,-0.05547 0.066,-0.09322c0.02354,-0.03775 0.09966,-0.11908 0.16918,-0.18072c0.06952,-0.06165 0.12645,-0.11888 0.1265,-0.12716c0.00011,-0.01601 0.02118,-0.03991 0.14333,-0.16235c0.04224,-0.04237 0.07678,-0.08389 0.07678,-0.09227c0,-0.02314 0.41503,-0.40015 0.46943,-0.42651c0.02618,-0.0127 0.0605,-0.03966 0.07634,-0.05999c0.01579,-0.02038 0.03839,-0.037 0.05022,-0.037c0.01183,0 0.05055,-0.02711 0.08602,-0.06024c0.03548,-0.03313 0.0742,-0.06024 0.08602,-0.06024c0.01183,0 0.03487,-0.01742 0.05121,-0.0387c0.01634,-0.02129 0.05649,-0.04985 0.08921,-0.06345c0.03278,-0.0136 0.05957,-0.03198 0.05957,-0.04081c0,-0.00884 0.0396,-0.02691 0.088,-0.04011c0.0484,-0.01325 0.088,-0.03133 0.088,-0.04016c0,-0.00889 0.0396,-0.02696 0.088,-0.04016c0.0484,-0.01325 0.088,-0.03218 0.088,-0.04202c0,-0.00989 0.0297,-0.02741 0.066,-0.03896c0.0363,-0.01155 0.066,-0.02856 0.066,-0.0378c0,-0.00924 0.03465,-0.02826 0.077,-0.04222c0.04235,-0.01401 0.077,-0.03168 0.077,-0.03926c0,-0.00763 0.04455,-0.02585 0.099,-0.04051c0.05445,-0.01466 0.099,-0.03333 0.099,-0.04142c0,-0.00808 0.0792,-0.03022 0.176,-0.04925c0.0968,-0.01898 0.176,-0.04091 0.176,-0.04869c0,-0.00783 0.0792,-0.02545 0.176,-0.03921c0.0968,-0.01376 0.176,-0.03168 0.176,-0.03986c0,-0.00818 0.07673,-0.02615 0.1705,-0.03991c0.09378,-0.01376 0.17617,-0.03323 0.1831,-0.04332c0.00693,-0.01009 0.10098,-0.02887 0.209,-0.04177c0.10802,-0.0129 0.20185,-0.03067 0.20851,-0.03946c0.01584,-0.02088 0.7133,-0.05587 1.12459,-0.05633c0.17743,-0.00025 0.32593,-0.00803 0.33,-0.01737c0.00402,-0.00934 0.70032,-0.02846 1.54732,-0.04247c0.847,-0.01406 1.5433,-0.03353 1.54732,-0.04327c0.00407,-0.00979 0.18722,-0.01767 0.407,-0.01757c0.6028,0.00025 2.33415,-0.04342 2.34669,-0.05924c0.00605,-0.00763 0.11974,-0.0252 0.25262,-0.03901c0.13288,-0.01386 0.24673,-0.03248 0.253,-0.04147c0.00627,-0.00894 0.06831,-0.02786 0.13789,-0.04197c0.06958,-0.01416 0.1265,-0.03148 0.1265,-0.03845c0,-0.00703 0.0594,-0.0248 0.132,-0.03946c0.0726,-0.01471 0.132,-0.03389 0.132,-0.04257c0,-0.00868 0.03982,-0.02194 0.08844,-0.02942c0.04862,-0.00753 0.1006,-0.02465 0.1155,-0.0381c0.01491,-0.0134 0.07409,-0.03635 0.13156,-0.05095c0.05748,-0.01461 0.1045,-0.03353 0.1045,-0.04207c0,-0.00853 0.0297,-0.02495 0.066,-0.0365c0.0363,-0.01155 0.066,-0.02882 0.066,-0.0384c0,-0.00954 0.03465,-0.02977 0.077,-0.04493c0.04235,-0.01516 0.077,-0.03514 0.077,-0.04443c0,-0.00924 0.02475,-0.0254 0.055,-0.03589c0.03025,-0.01049 0.055,-0.02836 0.055,-0.03966c0,-0.01135 0.01381,-0.02058 0.03069,-0.02058c0.01689,0 0.05401,-0.02244 0.0825,-0.04985c0.02849,-0.02741 0.06452,-0.05 0.08003,-0.0502c0.01546,-0.0002 0.03388,-0.01391 0.04081,-0.03047c0.00699,-0.01657 0.0264,-0.03012 0.04312,-0.03012c0.01678,0 0.04285,-0.01807 0.05797,-0.04016c0.01513,-0.02209 0.03993,-0.04016 0.05517,-0.04016c0.01524,0 0.02772,-0.00904 0.02772,-0.02008c0,-0.01104 0.01485,-0.02008 0.033,-0.02008c0.01815,0 0.033,-0.01355 0.033,-0.03012c0,-0.01657 0.0099,-0.03012 0.022,-0.03012c0.0121,0 0.022,-0.00828 0.022,-0.01837c0,-0.01009 0.0792,-0.09056 0.176,-0.17876c0.0968,-0.08825 0.176,-0.17003 0.176,-0.18173c0,-0.01175 0.0198,-0.03102 0.044,-0.04282c0.0242,-0.0118 0.044,-0.03499 0.044,-0.05156c0,-0.01652 0.01397,-0.03489 0.03097,-0.04086c0.01705,-0.00597 0.04389,-0.03921 0.05957,-0.07385c0.01573,-0.03459 0.04384,-0.07851 0.06254,-0.09749c0.06925,-0.07053 0.08333,-0.09162 0.10951,-0.16411c0.0148,-0.04076 0.03476,-0.07415 0.04444,-0.07415c0.00974,0 0.02998,-0.02711 0.04499,-0.06024c0.01502,-0.03313 0.03526,-0.06024 0.04499,-0.06024c0.00968,0 0.02976,-0.03363 0.04461,-0.07475c0.01491,-0.04111 0.04004,-0.0866 0.05588,-0.10105c0.01584,-0.01446 0.03526,-0.05763 0.04312,-0.09593c0.00787,-0.0383 0.02151,-0.06963 0.03036,-0.06963c0.0088,0 0.02822,-0.0497 0.04312,-0.11044c0.01491,-0.06074 0.03471,-0.11044 0.044,-0.11044c0.00924,0 0.02992,-0.06325 0.04593,-0.14056c0.01601,-0.07731 0.03581,-0.14056 0.044,-0.14056c0.00825,0 0.02805,-0.0497 0.044,-0.11044c0.01595,-0.06074 0.03537,-0.11044 0.04312,-0.11044c0.01584,0 0.06688,-0.21039 0.06688,-0.27565c0,-0.02324 0.01238,-0.04603 0.0275,-0.05065c0.03762,-0.01145 0.03955,-0.63208 0.00204,-0.65336c-0.01403,-0.00793 -0.03251,-0.04839 -0.04103,-0.08996c-0.00853,-0.04152 -0.0275,-0.08218 -0.04219,-0.09031c-0.01463,-0.00813 -0.033,-0.03057 -0.04081,-0.0499c-0.00776,-0.01933 -0.02932,-0.03514 -0.0478,-0.03514c-0.01854,0 -0.03372,-0.00738 -0.03372,-0.01647c0,-0.00904 -0.0495,-0.02871 -0.11,-0.04378c-0.0605,-0.01506 -0.11,-0.03474 -0.11,-0.04378c0,-0.00909 -1.25235,-0.01647 -2.783,-0.01647c-1.84069,0 -2.783,0.00678 -2.783,0.02008m-4.95,0.32128c0,0.01104 0.01485,0.02008 0.033,0.02008c0.01815,0 0.033,-0.00904 0.033,-0.02008c0,-0.01104 -0.01485,-0.02008 -0.033,-0.02008c-0.01815,0 -0.033,0.00904 -0.033,0.02008m-4.268,4.63855c0,0.06692 0.00979,0.12048 0.022,0.12048c0.01221,0 0.022,-0.05356 0.022,-0.12048c0,-0.06692 -0.00979,-0.12048 -0.022,-0.12048c-0.01221,0 -0.022,0.05356 -0.022,0.12048m-0.0143,0.44177c0,0.09388 0.0038,0.13228 0.00842,0.08534c0.00462,-0.04694 0.00462,-0.12374 0,-0.17068c-0.00462,-0.04694 -0.00842,-0.00853 -0.00842,0.08534m7.3238,1.38072c-0.69696,0.00336 -1.0835,0.0123 -1.0835,0.0251c0,0.01295 0.59758,0.01988 1.716,0.01988c1.12932,0 1.716,-0.00688 1.716,-0.02008c0,-0.03067 0.32379,-0.02585 0.33743,0.00502c0.00886,0.02008 0.01144,0.02008 0.01282,0c0.00209,-0.02952 0.99176,-0.0374 0.99176,-0.00788c0,0.00944 0.09092,0.02344 0.20202,0.03107c0.28831,0.01988 0.30399,0.03765 0.30399,0.34433c0,0.12641 -0.00875,0.22987 -0.01936,0.22987c-0.01067,0 -0.03229,0.07229 -0.04796,0.16064c-0.01573,0.08835 -0.03597,0.16064 -0.04494,0.16064c-0.00897,0 -0.02811,0.03389 -0.04246,0.0753c-0.01436,0.04142 -0.03839,0.08434 -0.0533,0.09538c-0.01496,0.01104 -0.04048,0.06752 -0.05676,0.1255c-0.01623,0.05798 -0.03553,0.10542 -0.04285,0.10542c-0.00732,0 -0.02651,0.05422 -0.04257,0.12048c-0.01612,0.06627 -0.03619,0.12048 -0.04461,0.12048c-0.00836,0 -0.02871,0.04518 -0.04521,0.1004c-0.0165,0.05522 -0.03702,0.1004 -0.0456,0.1004c-0.00858,0 -0.02239,0.0246 -0.03069,0.05467c-0.00825,0.03007 -0.0522,0.08655 -0.09763,0.1255c-0.04549,0.03896 -0.08899,0.08665 -0.09669,0.10597c-0.0077,0.01933 -0.02239,0.03514 -0.03262,0.03514c-0.01023,0 -0.03218,0.03163 -0.04879,0.07028c-0.01661,0.03865 -0.03762,0.07028 -0.04664,0.07028c-0.00902,0 -0.02338,0.02033 -0.0319,0.04518c-0.01524,0.04443 -0.18733,0.21586 -0.2167,0.21586c-0.00831,0 -0.09785,0.07455 -0.19905,0.16566c-0.23249,0.20929 -0.22303,0.20291 -0.34722,0.23459c-0.05748,0.01466 -0.1045,0.03384 -0.1045,0.04257c0,0.00873 -0.03713,0.02691 -0.0825,0.04041c-0.04538,0.01345 -0.09042,0.03675 -0.1001,0.05176c-0.00968,0.01496 -0.03042,0.02726 -0.04615,0.02726c-0.01568,0 -0.05049,0.01737 -0.07728,0.0386c-0.02684,0.02123 -0.08778,0.04463 -0.13541,0.05196c-0.04763,0.00738 -0.08657,0.02008 -0.08657,0.02821c0,0.02063 -0.20537,0.06195 -0.30784,0.06195c-0.04807,0 -0.08844,0.01084 -0.09367,0.0251c-0.00721,0.01973 -0.45106,0.02726 -2.08164,0.03514c-1.38919,0.00673 -2.07768,0.01687 -2.08819,0.03077c-0.00864,0.01145 -0.08003,0.03253 -0.15868,0.04694c-0.07865,0.01441 -0.15092,0.03896 -0.1606,0.05457c-0.00968,0.01561 -0.03157,0.02836 -0.04873,0.02836c-0.01711,0 -0.04285,0.02033 -0.0572,0.04518c-0.0143,0.02485 -0.03471,0.05035 -0.04521,0.05668c-0.01056,0.00633 -0.03069,0.08991 -0.04472,0.18574c-0.01408,0.09583 -0.03366,0.17425 -0.04356,0.17425c-0.0099,0 -0.01799,0.23268 -0.01793,0.51707c0.00006,1.01662 -0.04785,3.46892 -0.06793,3.47555c-0.01106,0.00371 -0.02035,0.0489 -0.02057,0.1004c-0.00066,0.138 -0.04153,0.37385 -0.06617,0.38153c-0.01177,0.00371 -0.0214,0.02415 -0.0214,0.04548c0,0.0371 -0.03988,0.11752 -0.06875,0.1386c-0.00754,0.00552 -0.02085,0.04001 -0.02954,0.07666c-0.00875,0.03665 -0.02888,0.07118 -0.04483,0.07676c-0.01595,0.00557 -0.04191,0.05015 -0.05775,0.09905c-0.01579,0.0489 -0.03581,0.08891 -0.04439,0.08891c-0.00858,0 -0.02695,0.0497 -0.04076,0.11044c-0.01381,0.06074 -0.03322,0.11044 -0.04318,0.11044c-0.00996,0 -0.02365,0.02033 -0.03053,0.04518c-0.0148,0.05351 -0.06144,0.1121 -0.1738,0.21822c-0.04538,0.04287 -0.0825,0.0865 -0.0825,0.09689c0,0.01044 -0.01821,0.03077 -0.04054,0.04518c-0.02228,0.01446 -0.05352,0.04885 -0.06947,0.07646c-0.01595,0.02761 -0.04719,0.062 -0.06947,0.07646c-0.02233,0.01441 -0.04054,0.03956 -0.04054,0.05582c0,0.01632 -0.01485,0.03484 -0.033,0.04116c-0.01815,0.00638 -0.03311,0.02189 -0.03322,0.03454c-0.00028,0.02385 -0.13673,0.15346 -0.16165,0.15346c-0.01518,0 -0.04395,0.02144 -0.17551,0.13072c-0.04642,0.03855 -0.0924,0.07008 -0.10219,0.07008c-0.00979,0 -0.04114,0.02244 -0.06963,0.04985c-0.02849,0.02741 -0.06078,0.05 -0.07167,0.0502c-0.01095,0.0002 -0.05577,0.03584 -0.09961,0.07917c-0.04384,0.04337 -0.10599,0.08484 -0.13805,0.09217c-0.03207,0.00733 -0.06347,0.0256 -0.06974,0.04056c-0.00627,0.01496 -0.04659,0.03323 -0.0896,0.04056c-0.04301,0.00738 -0.07816,0.02073 -0.07816,0.02967c0,0.00899 -0.03713,0.02731 -0.0825,0.04081c-0.04538,0.01345 -0.09042,0.03675 -0.1001,0.05176c-0.00968,0.01496 -0.02833,0.02726 -0.04142,0.02726c-0.01309,0 -0.05577,0.03092 -0.09482,0.06878c-0.04142,0.04006 -0.10907,0.07806 -0.16214,0.09111c-0.05005,0.0123 -0.09103,0.03042 -0.09103,0.04026c0,0.00979 -0.05445,0.02897 -0.121,0.04257c-0.06655,0.0136 -0.121,0.03188 -0.121,0.04061c0,0.00868 -0.0594,0.02651 -0.132,0.03956c-0.0726,0.01305 -0.132,0.03057 -0.132,0.03896c0,0.00833 -0.03432,0.02108 -0.07629,0.02826c-0.04197,0.00718 -0.08927,0.0249 -0.10511,0.03936c-0.01584,0.01446 -0.06567,0.0374 -0.11072,0.051c-0.04505,0.01355 -0.0819,0.03233 -0.0819,0.04172c0,0.00939 -0.05445,0.02821 -0.121,0.04182c-0.06655,0.0136 -0.121,0.03233 -0.121,0.04162c0,0.00929 -0.0297,0.01687 -0.066,0.01687c-0.0363,0 -0.066,-0.00808 -0.066,-0.01792c0,-0.00989 -0.01436,-0.02294 -0.0319,-0.02912c-0.02134,-0.00748 -0.02778,-0.00151 -0.01958,0.01812c0.02321,0.05517 0.68866,0.07118 0.72919,0.01752c0.00842,-0.01114 0.08146,-0.03027 0.16236,-0.04257c0.11567,-0.01752 0.16077,-0.03509 0.2112,-0.08218c0.03526,-0.03293 0.10027,-0.07179 0.14443,-0.0864c0.04417,-0.01456 0.0803,-0.03263 0.0803,-0.04016c0,-0.00753 0.04455,-0.0239 0.099,-0.0364c0.05445,-0.01255 0.099,-0.03082 0.099,-0.04071c0,-0.00984 0.0495,-0.02952 0.11,-0.04367c0.0605,-0.01416 0.11,-0.03223 0.11,-0.04021c0,-0.00803 0.03894,-0.02053 0.08652,-0.02791c0.08954,-0.01376 0.19949,-0.08343 0.19949,-0.12636c0,-0.01345 0.01309,-0.02445 0.02904,-0.02445c0.01595,0 0.05033,-0.02234 0.07634,-0.04965c0.02602,-0.02736 0.07238,-0.05542 0.10296,-0.06245c0.03064,-0.00698 0.05566,-0.02038 0.05566,-0.02972c0,-0.00934 0.03493,-0.02299 0.07761,-0.03027c0.04268,-0.00733 0.08756,-0.03032 0.09977,-0.05115c0.01221,-0.02078 0.03344,-0.0378 0.04719,-0.0378c0.01375,0 0.07821,-0.0497 0.14317,-0.11044c0.06496,-0.06074 0.12656,-0.11044 0.1369,-0.11044c0.01034,0 0.04208,-0.02244 0.07057,-0.04985c0.02849,-0.02741 0.06303,-0.05 0.07673,-0.0502c0.01375,-0.0002 0.03031,-0.01908 0.03691,-0.04202c0.00655,-0.02289 0.03124,-0.04623 0.05484,-0.05186c0.0236,-0.00567 0.05649,-0.03434 0.0731,-0.06381c0.01661,-0.02942 0.04257,-0.06074 0.0577,-0.06958c0.01518,-0.00884 0.02756,-0.02917 0.02756,-0.04518c0,-0.01601 0.01485,-0.02912 0.033,-0.02912c0.01815,0 0.033,-0.00843 0.033,-0.01872c0,-0.01029 0.0192,-0.0243 0.04263,-0.03107c0.02343,-0.00678 0.05555,-0.03901 0.07139,-0.07164c0.01579,-0.03263 0.03647,-0.05929 0.04593,-0.05929c0.00941,0 0.02657,-0.02259 0.03806,-0.0502c0.0115,-0.02761 0.02948,-0.0502 0.03993,-0.0502c0.01045,0 0.03212,-0.03614 0.04807,-0.08032c0.01595,-0.04418 0.03537,-0.08032 0.04312,-0.08032c0.0077,0 0.02657,-0.03163 0.04191,-0.07028c0.01529,-0.03865 0.0374,-0.07028 0.04906,-0.07028c0.01172,0 0.02767,-0.01581 0.03548,-0.03514c0.00776,-0.01933 0.03718,-0.05502 0.06529,-0.07937c0.02816,-0.0243 0.05115,-0.0627 0.05115,-0.08534c0,-0.02259 0.00831,-0.04111 0.01848,-0.04111c0.01018,0 0.03119,-0.05196 0.0467,-0.11546c0.01546,-0.0635 0.0368,-0.12048 0.04736,-0.12661c0.01062,-0.00617 0.03042,-0.0875 0.04411,-0.18072c0.01364,-0.09327 0.03328,-0.17455 0.04367,-0.18057c0.0104,-0.00607 0.03091,-0.12354 0.04565,-0.26104c0.01474,-0.13755 0.0335,-0.25457 0.0418,-0.26009c0.00825,-0.00552 0.02761,-0.21787 0.04301,-0.47189c0.0154,-0.25402 0.03476,-0.46637 0.04301,-0.47189c0.01584,-0.01054 0.06694,-1.04824 0.0665,-1.3504c-0.00017,-0.10392 0.00869,-0.1757 0.02173,-0.1757c0.01348,0 0.02228,-0.09915 0.02272,-0.25602c0.00099,-0.34789 0.03586,-0.87164 0.05902,-0.8865c0.0104,-0.00663 0.03124,-0.07952 0.04631,-0.16195c0.01507,-0.08238 0.03471,-0.15467 0.04362,-0.16064c0.00897,-0.00592 0.02838,-0.03599 0.04318,-0.06677c0.02695,-0.05592 0.04813,-0.08333 0.12067,-0.15633c0.02118,-0.02129 0.0385,-0.04613 0.0385,-0.05517c0,-0.05753 0.11737,-0.10281 0.32868,-0.12691c0.12172,-0.01386 0.22132,-0.03243 0.22132,-0.04132c0,-0.00889 0.66671,-0.01611 1.48159,-0.01611c1.36307,0 2.16332,-0.02123 2.19241,-0.05813c0.00605,-0.00768 0.09988,-0.0254 0.20856,-0.03941c0.10863,-0.01396 0.20268,-0.03218 0.209,-0.04046c0.00627,-0.00828 0.06837,-0.02646 0.13794,-0.04036c0.06958,-0.01396 0.1265,-0.03228 0.1265,-0.04076c0,-0.00848 0.0396,-0.02736 0.088,-0.04192c0.0484,-0.01456 0.088,-0.03409 0.088,-0.04337c0,-0.00929 0.01496,-0.01687 0.03328,-0.01687c0.03542,0 0.10544,-0.03298 0.16286,-0.07676c0.12095,-0.09217 0.16946,-0.124 0.18909,-0.12405c0.01221,0 0.03454,-0.01807 0.04967,-0.04016c0.01513,-0.02209 0.0412,-0.04016 0.05797,-0.04016c0.01672,0 0.03614,-0.01355 0.04312,-0.03012c0.00693,-0.01657 0.02415,-0.03012 0.03823,-0.03012c0.02827,0 0.2178,-0.16621 0.2178,-0.19101c0,-0.00858 0.01991,-0.03464 0.04422,-0.05788c0.22545,-0.21541 0.31086,-0.30763 0.32175,-0.34719c0.00704,-0.02555 0.0198,-0.04649 0.02833,-0.04649c0.00853,0 0.0291,-0.03163 0.04571,-0.07028c0.01661,-0.03865 0.03751,-0.07028 0.04642,-0.07028c0.00891,0 0.02761,-0.03163 0.04158,-0.07028c0.01397,-0.03865 0.03416,-0.07028 0.04488,-0.07028c0.01067,0 0.03009,-0.03614 0.04312,-0.08032c0.01304,-0.04418 0.03119,-0.08032 0.04032,-0.08032c0.00913,0 0.03509,-0.0497 0.0577,-0.11044c0.02261,-0.06074 0.04785,-0.11044 0.05605,-0.11044c0.0082,0 0.02844,-0.0384 0.04499,-0.08534c0.01656,-0.04694 0.03581,-0.08986 0.04279,-0.09538c0.00693,-0.00552 0.02558,-0.06872 0.04136,-0.14051c0.01584,-0.07174 0.03735,-0.13529 0.04791,-0.14121c0.01051,-0.00592 0.03102,-0.11802 0.04554,-0.24915c0.04549,-0.40914 -0.02437,-0.75427 -0.15257,-0.75427c-0.01315,0 -0.03361,-0.01581 -0.04543,-0.03514c-0.02288,-0.0373 -1.0378,-0.04473 -4.11114,-0.02992m-7.3095,2.56506c0,0.01657 0.0099,0.03012 0.022,0.03012c0.0121,0 0.022,-0.01355 0.022,-0.03012c0,-0.01657 -0.0099,-0.03012 -0.022,-0.03012c-0.0121,0 -0.022,0.01355 -0.022,0.03012m-0.044,0.28951c0,0.04322 -0.00935,0.08163 -0.02074,0.08534c-0.02739,0.00884 -0.06705,0.5008 -0.06716,0.83333c-0.00011,0.19262 -0.00759,0.26712 -0.02761,0.2745c-0.022,0.00808 -0.022,0.01044 0,0.0117c0.03438,0.00201 0.03988,0.38313 0.0055,0.38313c-0.01309,0 -0.02184,0.07505 -0.02162,0.18574c0.00022,0.10216 -0.0115,0.45557 -0.02602,0.78539c-0.02646,0.60201 0.00209,1.5125 0.04829,1.53906c0.02926,0.01687 0.06534,0.85848 0.06534,1.52465c0,0.40246 0.00781,0.62379 0.022,0.62379c0.03537,0 0.02987,-3.14689 -0.0055,-3.15763c-0.0346,-0.01054 -0.03443,-2.7633 0.00022,-2.78368c0.02272,-0.01335 0.06127,-0.38399 0.03993,-0.38399c-0.00693,0 -0.01265,0.03539 -0.01265,0.07866" fill="#c8a488" fill-rule="evenodd" stroke="null"/>
   <path id="path4" d="m8.064,1.58634c0,0.01104 -0.05429,0.02008 -0.12056,0.02008c-0.19938,0 -0.68189,0.04388 -0.68976,0.06275c-0.00407,0.00964 -0.03108,0.01757 -0.06012,0.01757c-0.08789,0 -0.36157,0.04734 -0.36157,0.06255c0,0.00783 -0.03982,0.02038 -0.08844,0.02786c-0.04862,0.00753 -0.10192,0.02595 -0.11836,0.04096c-0.01645,0.01501 -0.05665,0.03343 -0.08932,0.04091c-0.03267,0.00748 -0.06446,0.0255 -0.07057,0.04011c-0.00611,0.01456 -0.06474,0.0374 -0.13024,0.0508c-0.06551,0.01335 -0.11908,0.03047 -0.11908,0.03795c0,0.00753 -0.0693,0.0256 -0.154,0.04021c-0.0847,0.01461 -0.154,0.03348 -0.154,0.04197c0,0.00848 -0.05445,0.02575 -0.121,0.03835c-0.06655,0.0126 -0.121,0.03017 -0.121,0.03906c0,0.00889 -0.02723,0.02129 -0.0605,0.02751c-0.0632,0.0118 -0.12012,0.04654 -0.22847,0.13926c-0.03553,0.03037 -0.08399,0.05522 -0.1078,0.05522c-0.02376,0 -0.04323,0.00868 -0.04323,0.01928c0,0.01059 -0.0396,0.03012 -0.088,0.04332c-0.0484,0.01325 -0.088,0.03133 -0.088,0.04016c0,0.00889 -0.0396,0.02696 -0.088,0.04016c-0.0484,0.01325 -0.088,0.03097 -0.088,0.03941c0,0.00843 -0.03575,0.0261 -0.07942,0.03926c-0.0825,0.02485 -0.22858,0.149 -0.22858,0.19423c0,0.01431 -0.01238,0.02595 -0.0275,0.02595c-0.01513,0.00005 -0.05555,0.02209 -0.08987,0.049c-0.03432,0.02691 -0.09191,0.05487 -0.12799,0.0621c-0.03608,0.00728 -0.07095,0.02585 -0.0775,0.04142c-0.00649,0.01551 -0.02387,0.02821 -0.03856,0.02821c-0.03047,0 -0.10621,0.07465 -0.14597,0.14388c-0.03306,0.05763 -0.18997,0.19749 -0.22154,0.19749c-0.0319,0 -0.15109,0.10517 -0.15109,0.13333c0,0.01265 -0.01392,0.02791 -0.03091,0.03384c-0.01705,0.00597 -0.03762,0.03855 -0.04576,0.07244c-0.00814,0.03389 -0.02426,0.0616 -0.03575,0.0616c-0.01155,0 -0.02734,0.01581 -0.03515,0.03514c-0.01678,0.04157 -0.15461,0.16566 -0.18398,0.16566c-0.01128,0 -0.02046,0.00904 -0.02046,0.02008c0,0.01104 -0.01733,0.0375 -0.0385,0.05879c-0.07051,0.07088 -0.08366,0.09111 -0.12518,0.19222c-0.02272,0.05522 -0.04763,0.10492 -0.05539,0.11044c-0.00776,0.00552 -0.02635,0.04844 -0.04142,0.09538c-0.01502,0.04694 -0.03603,0.08534 -0.04664,0.08534c-0.01067,0 -0.02591,0.02716 -0.03394,0.06039c-0.00798,0.03323 -0.0335,0.06968 -0.05676,0.08102c-0.02321,0.01135 -0.04219,0.03414 -0.04219,0.0507c0,0.01652 -0.01375,0.03484 -0.03053,0.04071c-0.01683,0.00587 -0.04329,0.05306 -0.05891,0.10482c-0.01557,0.05176 -0.03663,0.09925 -0.04686,0.10552c-0.01018,0.00633 -0.02959,0.06958 -0.04318,0.14056c-0.01353,0.07103 -0.03267,0.13389 -0.04252,0.13976c-0.00985,0.00582 -0.03014,0.09618 -0.0451,0.2008c-0.01496,0.10457 -0.03355,0.19468 -0.04131,0.2002c-0.00776,0.00552 -0.02536,0.09518 -0.03916,0.19925c-0.01381,0.10402 -0.03465,0.19458 -0.04642,0.2012c-0.01172,0.00663 -0.03388,0.09317 -0.04917,0.19232c-0.01535,0.0992 -0.03416,0.18484 -0.04175,0.19036c-0.01931,0.01396 -0.06567,0.8369 -0.06534,1.15964c0.00011,0.16416 -0.0082,0.26606 -0.02178,0.26606c-0.01419,0 -0.022,0.22756 -0.022,0.64257c0,0.41501 0.00781,0.64257 0.022,0.64257c0.0121,0 0.022,0.03213 0.022,0.07144c0,0.08875 0.04312,0.24985 0.06688,0.24985c0.00968,0 0.02464,0.02937 0.03328,0.06526c0.01738,0.07264 0.11088,0.16657 0.12804,0.12861c0.00721,-0.01601 0.01832,-0.01386 0.03581,0.00693c0.01914,0.02274 0.02811,0.024 0.03652,0.00502c0.0132,-0.02977 0.09548,-0.03409 0.09548,-0.00502c0,0.01104 0.03465,0.02008 0.077,0.02008c0.04675,0 0.07711,-0.00984 0.07733,-0.0251c0.00022,-0.01576 0.00633,-0.01757 0.0165,-0.00477c0.00891,0.01119 0.04587,0.02972 0.08217,0.04121c0.06496,0.02048 0.08976,0.13459 0.03669,0.16857c-0.02057,0.0132 -0.06969,0.20592 -0.06969,0.27344c0,0.02676 -0.01205,0.04864 -0.02679,0.04864c-0.04054,0 -0.12271,0.09623 -0.1386,0.16235c-0.00776,0.03218 -0.02195,0.05853 -0.03152,0.05853c-0.00957,0 -0.02954,0.05648 -0.04439,0.1255c-0.01491,0.06903 -0.03526,0.13012 -0.04521,0.13579c-0.01001,0.00567 -0.03102,0.08474 -0.0467,0.1757c-0.01568,0.09096 -0.03553,0.16541 -0.04411,0.16541c-0.00853,0 -0.02244,0.0504 -0.03086,0.11205c-0.00847,0.0616 -0.02756,0.11632 -0.04246,0.12154c-0.01491,0.00522 -0.03999,0.04513 -0.05577,0.08875c-0.01579,0.04357 -0.03575,0.07927 -0.04444,0.07927c-0.00869,0 -0.02838,0.07455 -0.04373,0.16566c-0.01535,0.09111 -0.03768,0.17149 -0.04967,0.17856c-0.0352,0.02088 -0.06144,1.79392 -0.04972,3.36059c0.00583,0.78414 0.01337,2.2009 0.01678,3.14834c0.00446,1.24804 0.01298,1.72656 0.03091,1.73695c0.01359,0.00788 0.03185,0.04428 0.04054,0.08092c0.00875,0.03665 0.02976,0.07149 0.04681,0.07746c0.017,0.00592 0.03091,0.02018 0.03091,0.03163c0,0.02851 0.13701,0.15512 0.16814,0.15542c0.01386,0.0001 0.03086,0.01376 0.03784,0.03032c0.00693,0.01657 0.02536,0.03027 0.04081,0.03047c0.01551,0.0002 0.05154,0.02279 0.08003,0.0502c0.02849,0.02741 0.06512,0.04985 0.0814,0.04985c0.01628,0 0.03933,0.01581 0.05115,0.03514c0.02541,0.04142 0.67199,0.05437 0.70197,0.01406c0.01634,-0.02194 0.22919,-0.08936 0.28221,-0.08936c0.01678,0 0.03047,-0.00838 0.03047,-0.01862c0,-0.01029 0.05445,-0.02977 0.121,-0.04337c0.06655,-0.0136 0.121,-0.03087 0.121,-0.0384c0,-0.00753 0.05445,-0.0248 0.121,-0.0384c0.06655,-0.0136 0.121,-0.03298 0.121,-0.04307c0,-0.01009 0.04455,-0.02856 0.099,-0.04111c0.05445,-0.0125 0.099,-0.02927 0.099,-0.0372c0,-0.00798 0.03911,-0.02626 0.08685,-0.04066c0.0478,-0.01441 0.09202,-0.03845 0.09834,-0.05341c0.00627,-0.01501 0.02415,-0.02741 0.0396,-0.02761c0.01551,-0.0002 0.05154,-0.02279 0.08003,-0.0502c0.02849,-0.02741 0.07057,-0.04985 0.0935,-0.04985c0.02294,0 0.04169,-0.00758 0.04169,-0.01687c0,-0.00929 0.0396,-0.02882 0.088,-0.04337c0.0484,-0.01456 0.088,-0.03228 0.088,-0.03936c0,-0.00703 0.03465,-0.02425 0.077,-0.03825c0.04235,-0.01396 0.077,-0.03298 0.077,-0.04222c0,-0.00924 0.0297,-0.02626 0.066,-0.0378c0.0363,-0.01155 0.066,-0.02907 0.066,-0.03891c0,-0.00984 0.02497,-0.02826 0.05544,-0.04096c0.03047,-0.01265 0.09196,-0.05929 0.13657,-0.10361c0.04466,-0.04433 0.09394,-0.08057 0.10962,-0.08057c0.01562,0 0.02838,-0.00904 0.02838,-0.02008c0,-0.01104 0.01408,-0.02008 0.03124,-0.02008c0.039,0 0.36476,-0.28273 0.36476,-0.31657c0,-0.01365 0.00836,-0.0248 0.01859,-0.0248c0.01023,0 0.04736,-0.02259 0.0825,-0.0502c0.03515,-0.02756 0.07123,-0.05015 0.08025,-0.0502c0.02629,0 0.14614,-0.12174 0.16049,-0.163c0.00721,-0.02078 0.02288,-0.0378 0.03482,-0.0378c0.01188,0 0.03201,-0.02711 0.04466,-0.06024c0.01265,-0.03313 0.02954,-0.06024 0.03746,-0.06024c0.00798,0 0.02668,-0.02485 0.04153,-0.05522c0.01485,-0.03037 0.05665,-0.07324 0.09295,-0.09528c0.03625,-0.02204 0.07717,-0.06496 0.09103,-0.09538c0.01381,-0.03042 0.03339,-0.05532 0.04351,-0.05532c0.01018,0 0.03036,-0.03614 0.04483,-0.08032c0.01452,-0.04418 0.03432,-0.08032 0.044,-0.08032c0.00974,0 0.02954,-0.03614 0.044,-0.08032c0.01452,-0.04418 0.03339,-0.08032 0.04191,-0.08032c0.00853,0 0.02838,-0.05648 0.04417,-0.1255c0.01573,-0.06903 0.04109,-0.13233 0.05627,-0.14066c0.01518,-0.00838 0.03416,-0.04227 0.04213,-0.0753c0.00792,-0.03308 0.02316,-0.06014 0.03383,-0.06014c0.01062,0 0.03163,-0.0384 0.04664,-0.08534c0.01507,-0.04694 0.03399,-0.08986 0.04219,-0.09538c0.00814,-0.00552 0.02717,-0.07781 0.0423,-0.16064c0.01513,-0.08283 0.03526,-0.15517 0.04477,-0.16069c0.0231,-0.01355 0.06523,-0.54433 0.06523,-0.82199c0,-0.13469 0.00864,-0.22214 0.022,-0.22214c0.01419,0 0.02283,-0.23404 0.02437,-0.65763c0.00506,-1.41265 0.02921,-2.42093 0.05814,-2.42972c0.01513,-0.00462 0.0275,-0.03022 0.0275,-0.05688c0,-0.02671 0.0198,-0.06662 0.044,-0.0887c0.0242,-0.02209 0.044,-0.04699 0.044,-0.05527c0,-0.06581 0.23128,-0.16561 0.38374,-0.16561c0.03097,0 0.05627,-0.00904 0.05627,-0.02008c0,-0.0132 0.49302,-0.02003 1.4355,-0.01988c1.33969,0.00015 2.2995,-0.02515 2.3265,-0.0613c0.00605,-0.00813 0.08492,-0.0252 0.17529,-0.03795c0.09037,-0.01275 0.16957,-0.03047 0.176,-0.03946c0.00644,-0.00899 0.06369,-0.02756 0.12722,-0.04132c0.06353,-0.01376 0.1155,-0.03253 0.1155,-0.04172c0,-0.00919 0.02228,-0.02299 0.0495,-0.03062c0.02723,-0.00763 0.06633,-0.02997 0.0869,-0.0496c0.02052,-0.01968 0.07744,-0.04192 0.1265,-0.0495c0.04901,-0.00753 0.0891,-0.01998 0.0891,-0.02766c0,-0.00763 0.04455,-0.02595 0.099,-0.04061c0.05445,-0.01466 0.099,-0.03494 0.099,-0.04503c0,-0.01009 0.02475,-0.02696 0.055,-0.03745c0.03025,-0.01049 0.055,-0.02726 0.055,-0.03725c0,-0.00994 0.02899,-0.02907 0.06441,-0.04247c0.03542,-0.0134 0.0698,-0.0371 0.07634,-0.05266c0.00655,-0.01551 0.02459,-0.02836 0.04004,-0.02846c0.01551,-0.0001 0.06287,-0.03614 0.10522,-0.08012c0.04235,-0.04398 0.0869,-0.08017 0.099,-0.08047c0.0291,-0.0007 0.121,-0.08996 0.121,-0.11742c0,-0.0119 0.02057,-0.03163 0.04576,-0.04393c0.0649,-0.03173 0.13024,-0.08519 0.13024,-0.10668c0,-0.01004 0.03218,-0.04644 0.0715,-0.08087c0.03933,-0.03444 0.08635,-0.08971 0.10445,-0.12284c0.01815,-0.03313 0.04499,-0.06727 0.05962,-0.07585c0.01469,-0.00858 0.03333,-0.04804 0.04147,-0.08775c0.0082,-0.03971 0.04565,-0.1011 0.08338,-0.1367c0.03773,-0.03549 0.08261,-0.08865 0.09983,-0.11807c0.01716,-0.02942 0.03867,-0.05351 0.0478,-0.05351c0.00908,0 0.028,-0.03163 0.04197,-0.07028c0.01397,-0.03865 0.03355,-0.07028 0.04351,-0.07028c0.00996,0 0.02998,-0.04518 0.0445,-0.1004c0.01452,-0.05522 0.03421,-0.1004 0.04378,-0.1004c0.00963,0 0.03025,-0.05873 0.04587,-0.13052c0.01562,-0.07179 0.03652,-0.13052 0.04637,-0.13052c0.0099,0 0.01799,-0.01516 0.01799,-0.03373c0,-0.04789 0.05011,-0.17239 0.08162,-0.20286c0.01469,-0.01416 0.03311,-0.05708 0.04098,-0.09538c0.00787,-0.0383 0.02173,-0.06963 0.0308,-0.06963c0.02156,0 0.06661,-0.20592 0.06661,-0.30457c0,-0.04232 0.0099,-0.07696 0.022,-0.07696c0.01282,0 0.022,-0.06692 0.022,-0.16064c0,-0.08835 -0.00913,-0.16064 -0.02024,-0.16064c-0.01117,0 -0.02712,-0.05853 -0.03553,-0.13007c-0.00968,-0.08253 -0.03042,-0.14608 -0.05676,-0.1738c-0.02283,-0.024 -0.04147,-0.0503 -0.04147,-0.05848c0,-0.02781 -0.24453,-0.2381 -0.29282,-0.25186c-0.02651,-0.00753 -0.05319,-0.02068 -0.05924,-0.02927c-0.00611,-0.00853 -0.07541,-0.02736 -0.154,-0.04182c-0.07865,-0.01441 -0.15037,-0.03554 -0.15945,-0.04699c-0.01067,-0.01345 -0.02415,-0.01014 -0.03817,0.00939c-0.01447,0.02013 -0.02178,0.02179 -0.022,0.00502c-0.00028,-0.01993 -0.58938,-0.0251 -2.87133,-0.0251c-1.89932,0 -2.871,0.00678 -2.871,0.02008c0,0.01305 -0.32978,0.02008 -0.94529,0.02008c-0.91152,0 -1.71589,0.02751 -1.73872,0.05944c-0.00605,0.00843 -0.14218,0.02676 -0.3025,0.04071c-0.16033,0.01396 -0.2915,0.03218 -0.2915,0.04051c0,0.00838 -0.0792,0.02696 -0.176,0.04127c-0.0968,0.01436 -0.176,0.03263 -0.176,0.04061c0,0.00798 -0.0297,0.02395 -0.066,0.03549c-0.0363,0.01155 -0.066,0.03052 -0.066,0.04212c0,0.01165 -0.01518,0.02113 -0.03372,0.02113c-0.01848,0 -0.04015,0.01581 -0.04813,0.03514c-0.02332,0.05673 -0.07568,0.08218 -0.19866,0.09654c-0.06353,0.00743 -0.1155,0.02078 -0.1155,0.02972c0,0.00894 -0.03685,0.02731 -0.0819,0.04086c-0.04505,0.0136 -0.09609,0.0376 -0.11336,0.05341c-0.03911,0.03569 -0.16632,0.01787 -0.22253,-0.03112c-0.06886,-0.05999 -0.07282,-0.11421 -0.01216,-0.16672c0.03036,-0.02631 0.05533,-0.05863 0.05555,-0.07189c0.00022,-0.01325 0.01337,-0.03133 0.02915,-0.04016c0.01584,-0.00884 0.04268,-0.04729 0.05957,-0.08549c0.03982,-0.08981 0.06677,-0.11817 0.31317,-0.33027c0.06958,-0.05989 0.1265,-0.11822 0.1265,-0.12967c0,-0.0115 0.01238,-0.02806 0.02756,-0.0369c0.01513,-0.00884 0.04131,-0.04046 0.05814,-0.07033c0.01788,-0.03163 0.05605,-0.05934 0.09158,-0.06647c0.03355,-0.00673 0.08905,-0.03429 0.12337,-0.06119c0.03432,-0.02691 0.06897,-0.04895 0.077,-0.049c0.00803,0 0.04934,-0.03082 0.0918,-0.06842c0.04246,-0.03765 0.09779,-0.0744 0.12293,-0.08168c0.02508,-0.00728 0.04565,-0.02058 0.04565,-0.02952c0,-0.00899 0.0297,-0.02756 0.066,-0.04127c0.0363,-0.0137 0.066,-0.03338 0.066,-0.04362c0,-0.01029 0.0297,-0.02816 0.066,-0.03971c0.0363,-0.01155 0.066,-0.02826 0.066,-0.0371c0,-0.00889 0.05198,-0.02736 0.1155,-0.04111c0.06353,-0.01376 0.12045,-0.03092 0.1265,-0.03815c0.00605,-0.00718 0.05308,-0.0243 0.1045,-0.03805c0.05143,-0.0137 0.0935,-0.03273 0.0935,-0.04232c0,-0.00959 0.0495,-0.02902 0.11,-0.04317c0.0605,-0.01416 0.11,-0.03188 0.11,-0.03941c0,-0.00748 0.04703,-0.02555 0.1045,-0.04011c0.05748,-0.01451 0.11473,-0.03891 0.12727,-0.05412c0.01254,-0.01526 0.06699,-0.03298 0.121,-0.03941c0.05401,-0.00648 0.10318,-0.01762 0.10923,-0.0248c0.01161,-0.01381 0.40959,-0.06175 0.50969,-0.06145c0.03223,0.0001 0.06193,-0.00808 0.066,-0.01817c0.0088,-0.02204 0.75669,-0.06195 1.16045,-0.06195c0.15835,0 0.28787,-0.00763 0.28787,-0.01692c0,-0.00934 0.24998,-0.02279 0.5555,-0.02997c1.41235,-0.03298 2.29444,-0.06114 2.3045,-0.07354c0.00605,-0.00748 0.40189,-0.0247 0.87962,-0.03825c0.47773,-0.0136 0.87373,-0.03188 0.88,-0.04061c0.00627,-0.00873 0.34056,-0.02766 0.74289,-0.04202c0.40233,-0.01441 0.7315,-0.03373 0.7315,-0.04302c0,-0.00929 0.05286,-0.01687 0.11748,-0.01687c0.1452,0 0.48356,-0.04011 0.49852,-0.05909c0.00605,-0.00768 0.08278,-0.02545 0.1705,-0.03951c0.08773,-0.01406 0.1595,-0.03273 0.1595,-0.04157c0,-0.00879 0.03432,-0.02189 0.07629,-0.02907c0.04197,-0.00718 0.08927,-0.0249 0.10511,-0.03936c0.01584,-0.01446 0.06567,-0.0374 0.11072,-0.051c0.04505,-0.01355 0.0819,-0.03188 0.0819,-0.04071c0,-0.00889 0.0297,-0.02736 0.066,-0.04106c0.0363,-0.0137 0.066,-0.03278 0.066,-0.04232c0,-0.00954 0.04455,-0.02756 0.099,-0.04011c0.05445,-0.0125 0.099,-0.02927 0.099,-0.0372c0,-0.00798 0.0396,-0.02646 0.088,-0.04101c0.0484,-0.01456 0.088,-0.03409 0.088,-0.04337c0,-0.00929 0.0143,-0.01687 0.03174,-0.01687c0.01749,0 0.04472,-0.01581 0.0605,-0.03514c0.01584,-0.01933 0.05583,-0.04789 0.08888,-0.06345c0.03311,-0.01556 0.06595,-0.04493 0.07299,-0.06526c0.0071,-0.02033 0.02706,-0.03695 0.04439,-0.03695c0.01733,0 0.03152,-0.00924 0.03152,-0.02058c0,-0.0113 0.02475,-0.02917 0.055,-0.03966c0.03025,-0.01049 0.055,-0.02836 0.055,-0.03966c0,-0.01135 0.0143,-0.02058 0.03174,-0.02058c0.01749,0 0.04472,-0.01642 0.0605,-0.03645c0.01584,-0.02008 0.04609,-0.04237 0.06727,-0.0496c0.02118,-0.00718 0.0385,-0.02661 0.0385,-0.04312c0,-0.01657 0.0198,-0.03976 0.044,-0.05156c0.0242,-0.0118 0.044,-0.03474 0.044,-0.0509c0,-0.01616 0.01507,-0.02942 0.0335,-0.02942c0.01837,0 0.04472,-0.02259 0.05852,-0.0502c0.01375,-0.02761 0.03339,-0.0502 0.04351,-0.0502c0.03025,0 0.1809,-0.14719 0.21643,-0.21145c0.01815,-0.03278 0.04499,-0.06667 0.05962,-0.07525c0.01469,-0.00858 0.03273,-0.04508 0.0401,-0.08107c0.00974,-0.04734 0.03174,-0.07284 0.07942,-0.09212c0.03625,-0.01461 0.07491,-0.04819 0.08586,-0.07455c0.011,-0.02636 0.02948,-0.04789 0.04109,-0.04789c0.01161,0 0.03366,-0.03163 0.04895,-0.07028c0.01535,-0.03865 0.03421,-0.07028 0.04191,-0.07028c0.00776,0 0.02717,-0.03614 0.04312,-0.08032c0.01595,-0.04418 0.03619,-0.08032 0.04494,-0.08032c0.00869,0 0.02706,-0.04066 0.04076,-0.09036c0.01375,-0.0497 0.03471,-0.09036 0.04664,-0.09036c0.01194,0 0.02167,-0.02269 0.02167,-0.05045c0,-0.05447 0.0396,-0.13122 0.08003,-0.15512c0.01381,-0.00813 0.0313,-0.0375 0.03894,-0.06526c0.00765,-0.02776 0.02266,-0.05045 0.03344,-0.05045c0.01073,0 0.03223,-0.04518 0.04774,-0.1004c0.01551,-0.05522 0.03487,-0.1004 0.04301,-0.1004c0.00814,0 0.02778,-0.05648 0.04356,-0.1255c0.01579,-0.06903 0.03647,-0.13027 0.04593,-0.13614c0.00952,-0.00582 0.02948,-0.09618 0.04444,-0.2008c0.01496,-0.10457 0.03768,-0.19659 0.05055,-0.20447c0.03229,-0.01978 0.03229,-0.95557 0,-0.97535c-0.01282,-0.00788 -0.03619,-0.06772 -0.05181,-0.13298c-0.01568,-0.06521 -0.04725,-0.13695 -0.07018,-0.15939c-0.02288,-0.02244 -0.04164,-0.05095 -0.04164,-0.0634c0,-0.0124 -0.03465,-0.03499 -0.077,-0.05015c-0.04235,-0.01516 -0.077,-0.03384 -0.077,-0.04152c0,-0.01993 -0.18112,-0.05889 -0.27374,-0.05889c-0.04307,0 -0.07827,-0.00904 -0.07827,-0.02008c0,-0.0133 -1.62432,-0.02008 -4.829,-0.02008c-3.20469,0 -4.829,0.00678 -4.829,0.02008m9.5848,0.04192c0.0946,0.012 0.17699,0.02927 0.18315,0.0383c0.00616,0.00909 0.04868,0.02289 0.09449,0.03077c0.08492,0.01456 0.25757,0.14975 0.25757,0.20176c0,0.01391 0.01238,0.02902 0.0275,0.03363c0.03641,0.01109 0.03999,0.85236 0.00369,0.87425c-0.01304,0.00788 -0.03669,0.07078 -0.05247,0.13981c-0.01579,0.06903 -0.0363,0.1255 -0.0456,0.1255c-0.00924,0 -0.02717,0.02711 -0.03982,0.06024c-0.01265,0.03313 -0.03185,0.06024 -0.04268,0.06024c-0.02266,0 -0.07062,0.13459 -0.07062,0.19809c0,0.02359 -0.00853,0.04287 -0.01892,0.04287c-0.01045,0 -0.03218,0.08133 -0.04829,0.18072c-0.01612,0.0994 -0.03647,0.18072 -0.0451,0.18072c-0.00869,0 -0.02255,0.03635 -0.03075,0.08072c-0.00825,0.04438 -0.02739,0.09207 -0.04263,0.10597c-0.01524,0.01391 -0.03982,0.05889 -0.05473,0.1c-0.01485,0.04111 -0.03614,0.07475 -0.0473,0.07475c-0.01117,0 -0.0203,0.0121 -0.0203,0.02691c0,0.01481 -0.04422,0.06968 -0.09829,0.12194c-0.06023,0.05818 -0.10379,0.12164 -0.11248,0.16381c-0.00776,0.0379 -0.0209,0.06888 -0.02915,0.06888c-0.0082,0 -0.0269,0.04066 -0.04147,0.09036c-0.01452,0.0497 -0.0352,0.09036 -0.04587,0.09036c-0.01067,0 -0.03108,0.02565 -0.04532,0.05708c-0.01452,0.03193 -0.05918,0.07154 -0.10164,0.09001c-0.04169,0.01812 -0.07579,0.04217 -0.07579,0.05341c0,0.01119 -0.01408,0.02038 -0.0313,0.02038c-0.01722,0 -0.04334,0.03389 -0.05814,0.0753c-0.01474,0.04142 -0.04026,0.08253 -0.05671,0.09137c-0.01639,0.00884 -0.02987,0.02691 -0.02987,0.04021c0,0.02907 -0.1056,0.12189 -0.1595,0.14021c-0.02118,0.00723 -0.0385,0.02244 -0.0385,0.03379c0,0.0114 -0.01133,0.02073 -0.02514,0.02073c-0.02838,0 -0.17226,0.12194 -0.17265,0.14623c-0.00022,0.01682 -0.09444,0.10141 -0.17952,0.16119c-0.02844,0.02003 -0.07893,0.04147 -0.1122,0.04769c-0.03328,0.00622 -0.0605,0.01928 -0.0605,0.02892c0,0.00969 -0.01969,0.01757 -0.04373,0.01757c-0.02404,0 -0.09224,0.04292 -0.15153,0.09538c-0.14773,0.13067 -0.20163,0.16621 -0.27225,0.17942c-0.03328,0.00622 -0.0605,0.01802 -0.0605,0.02615c0,0.00818 -0.0594,0.02636 -0.132,0.04041c-0.0726,0.01406 -0.132,0.03173 -0.132,0.03931c0,0.00753 -0.0792,0.02545 -0.176,0.03981c-0.0968,0.01431 -0.176,0.03343 -0.176,0.04247c0,0.00899 -0.03465,0.02781 -0.077,0.04177c-0.04235,0.01401 -0.077,0.03178 -0.077,0.03946c0,0.00773 -0.05198,0.0253 -0.1155,0.03906c-0.06353,0.01376 -0.12056,0.03198 -0.12667,0.04051c-0.01645,0.02279 -0.40728,0.05899 -0.63696,0.05899c-0.1094,0 -0.19888,0.00733 -0.19888,0.01632c0,0.01516 -2.36643,0.06531 -3.03969,0.06441c-0.16533,-0.0002 -0.30393,0.00718 -0.308,0.01642c-0.00402,0.00924 -0.73002,0.02781 -1.61332,0.04132c-0.9597,0.01461 -1.60897,0.03213 -1.61332,0.04342c-0.00407,0.01039 -0.06842,0.01898 -0.143,0.01908c-0.15895,0.0002 -0.41564,0.03514 -0.43219,0.05884c-0.00633,0.00909 -0.0709,0.02831 -0.1435,0.04277c-0.0726,0.01446 -0.13695,0.03173 -0.143,0.0384c-0.00605,0.00663 -0.0902,0.02877 -0.187,0.0491c-0.0968,0.02033 -0.18095,0.04287 -0.187,0.0501c-0.00605,0.00723 -0.08487,0.0244 -0.17518,0.03815c-0.09026,0.01376 -0.16946,0.03273 -0.176,0.04222c-0.00649,0.00944 -0.08608,0.02761 -0.17683,0.04036c-0.09075,0.01275 -0.1683,0.03183 -0.17232,0.04237c-0.00407,0.01059 -0.02569,0.01923 -0.04802,0.01923c-0.02239,0 -0.04697,0.01807 -0.05467,0.04016c-0.0077,0.02209 -0.02569,0.04016 -0.03999,0.04016c-0.0143,0.00005 -0.05407,0.02209 -0.08839,0.049c-0.03432,0.02691 -0.09125,0.05477 -0.1265,0.0618c-0.03526,0.00708 -0.06413,0.02008 -0.06413,0.02892c0,0.00884 -0.0297,0.02731 -0.066,0.04101c-0.0363,0.0137 -0.066,0.03233 -0.066,0.04132c0,0.00899 -0.03465,0.02776 -0.077,0.04172c-0.04235,0.01401 -0.077,0.03188 -0.077,0.03971c0,0.00788 -0.04081,0.02058 -0.0907,0.02826c-0.06248,0.00964 -0.09405,0.0258 -0.10153,0.05196c-0.006,0.02093 -0.01964,0.038 -0.03036,0.038c-0.01067,0 -0.01942,0.01345 -0.01942,0.02997c0,0.01647 -0.0198,0.04121 -0.044,0.05502c-0.0242,0.01381 -0.044,0.03675 -0.044,0.051c0,0.01426 -0.01733,0.03183 -0.0385,0.03901c-0.02118,0.00723 -0.05143,0.02952 -0.06727,0.0496c-0.01579,0.02003 -0.04301,0.03645 -0.0605,0.03645c-0.01744,0 -0.03174,0.00723 -0.03174,0.01606c0,0.00879 -0.03416,0.02731 -0.07596,0.04111c-0.05533,0.01822 -0.08344,0.04388 -0.1034,0.09438c-0.01513,0.03815 -0.03432,0.06933 -0.04268,0.06933c-0.00836,0 -0.02151,0.02284 -0.02915,0.0508c-0.0077,0.02791 -0.03845,0.07023 -0.06842,0.09398c-0.02992,0.02374 -0.0544,0.05512 -0.0544,0.06968c0,0.01456 -0.01122,0.02651 -0.02492,0.02651c-0.0473,0 -0.21137,0.17048 -0.22699,0.23594c-0.00858,0.03589 -0.02349,0.06526 -0.03317,0.06526c-0.00968,0 -0.02992,0.02711 -0.04494,0.06024c-0.01502,0.03313 -0.03487,0.06024 -0.04406,0.06024c-0.00919,0 -0.02794,0.04066 -0.04164,0.09036c-0.01375,0.0497 -0.03361,0.09036 -0.04422,0.09036c-0.01062,0 -0.02607,0.02485 -0.03432,0.05522c-0.02068,0.0759 -0.193,0.2259 -0.2596,0.2259c-0.08278,0 -0.30217,0.04408 -0.30217,0.06069c0,0.00823 -0.02475,0.01928 -0.055,0.02455c-0.03548,0.00617 -0.055,0.00045 -0.055,-0.01606c0,-0.01411 -0.00985,-0.02866 -0.02184,-0.03238c-0.01205,-0.00366 -0.03405,-0.07671 -0.04895,-0.1623c-0.01496,-0.08559 -0.03482,-0.15562 -0.04417,-0.15562c-0.02343,0 -0.02167,-0.77816 0.00176,-0.7865c0.0104,-0.00366 0.03141,-0.33198 0.04675,-0.72957c0.01529,-0.39759 0.03553,-0.72741 0.04499,-0.73293c0.00941,-0.00552 0.02943,-0.16817 0.04444,-0.36145c0.01502,-0.19327 0.03394,-0.35592 0.04202,-0.36145c0.00814,-0.00552 0.02772,-0.12299 0.04356,-0.26104c0.0159,-0.13805 0.03608,-0.25552 0.04494,-0.26104c0.0088,-0.00552 0.0286,-0.08459 0.04395,-0.1757c0.01535,-0.09111 0.03465,-0.16566 0.04285,-0.16566c0.0082,0 0.02717,-0.05422 0.04219,-0.12048c0.01496,-0.06627 0.03581,-0.12048 0.04626,-0.12048c0.0104,0 0.02932,-0.02711 0.04197,-0.06024c0.01265,-0.03313 0.03157,-0.06024 0.04208,-0.06024c0.01045,0 0.03262,-0.03163 0.04923,-0.07028c0.01661,-0.03865 0.03718,-0.07028 0.04571,-0.07028c0.00847,0 0.0286,-0.04066 0.04466,-0.09036c0.01606,-0.0497 0.03493,-0.09036 0.04186,-0.09036c0.00699,0 0.03119,-0.0497 0.05379,-0.11044c0.02261,-0.06074 0.04835,-0.11044 0.0572,-0.11044c0.0088,0 0.02162,-0.02033 0.02849,-0.04518c0.01485,-0.05387 0.05764,-0.10713 0.1903,-0.2369c0.13497,-0.13203 0.1501,-0.1498 0.18161,-0.21386c0.01507,-0.03067 0.04224,-0.07028 0.06039,-0.0881c0.01815,-0.01777 0.0517,-0.05633 0.07458,-0.08559c0.02288,-0.02932 0.05533,-0.05326 0.07222,-0.05326c0.01683,0 0.0363,-0.01355 0.04323,-0.03012c0.00699,-0.01657 0.02398,-0.03022 0.03784,-0.03032c0.02629,-0.00025 0.16814,-0.1249 0.16814,-0.14779c0,-0.01235 0.18244,-0.17851 0.24607,-0.22415c0.0159,-0.0114 0.06606,-0.0367 0.11143,-0.05617c0.04538,-0.01948 0.0825,-0.04292 0.0825,-0.05211c0,-0.00919 0.02937,-0.02781 0.06529,-0.04137c0.03586,-0.0136 0.07123,-0.04182 0.07849,-0.0627c0.00726,-0.02088 0.02497,-0.038 0.03944,-0.038c0.01441,0 0.03856,-0.01807 0.05368,-0.04016c0.01513,-0.02209 0.0412,-0.04016 0.05797,-0.04016c0.01672,0 0.03581,-0.0127 0.0423,-0.02821c0.00655,-0.01556 0.04224,-0.03434 0.07937,-0.04177c0.03713,-0.00743 0.06749,-0.02189 0.06749,-0.03208c0,-0.01024 0.04455,-0.02947 0.099,-0.04272c0.05445,-0.0133 0.099,-0.03092 0.099,-0.03921c0,-0.00823 0.03542,-0.02108 0.07876,-0.02846c0.04329,-0.00743 0.08399,-0.0259 0.09037,-0.04111c0.00638,-0.01516 0.0236,-0.02756 0.03828,-0.02756c0.01463,0 0.04796,-0.02234 0.07398,-0.04965c0.02602,-0.02736 0.07238,-0.05542 0.10296,-0.06245c0.03064,-0.00698 0.05566,-0.01978 0.05566,-0.02841c0,-0.00863 0.04455,-0.02771 0.099,-0.04237c0.05445,-0.01466 0.099,-0.03278 0.099,-0.04021c0,-0.00743 0.06435,-0.0252 0.143,-0.03946c0.07865,-0.01426 0.143,-0.03248 0.143,-0.04051c0,-0.00803 0.0693,-0.02525 0.154,-0.0383c0.0847,-0.01305 0.154,-0.03112 0.154,-0.04021c0,-0.00909 0.03982,-0.02264 0.08844,-0.03012c0.04862,-0.00753 0.10087,-0.025 0.11611,-0.03891c0.01524,-0.01391 0.06391,-0.03619 0.10813,-0.0495c0.04428,-0.01335 0.0836,-0.03203 0.0874,-0.04157c0.0038,-0.00949 0.07128,-0.02902 0.14993,-0.04337c0.07865,-0.01436 0.14795,-0.03203 0.154,-0.03931c0.01337,-0.01611 0.34903,-0.05838 0.46365,-0.05838c0.04659,0 0.08668,-0.01094 0.09185,-0.0251c0.00726,-0.01988 0.66809,-0.02731 3.16432,-0.03579c6.06045,-0.02053 6.60979,-0.02033 6.78898,0.00241m-3.5128,6.76531c0,0.01104 0.02822,0.02008 0.0627,0.02008c0.12997,0 0.3553,0.13092 0.3553,0.20643c0,0.00954 0.01628,0.03218 0.03614,0.0503c0.04081,0.03725 0.03322,0.86024 -0.00814,0.88534c-0.01133,0.00693 -0.03262,0.08002 -0.0473,0.16255c-0.01469,0.08248 -0.03454,0.15477 -0.04411,0.16064c-0.00957,0.00582 -0.03108,0.05356 -0.0478,0.10602c-0.01672,0.05246 -0.03751,0.09538 -0.04615,0.09538c-0.00869,0 -0.02833,0.03163 -0.04362,0.07028c-0.01535,0.03865 -0.03603,0.07028 -0.04598,0.07028c-0.01001,0 -0.02756,0.02259 -0.03905,0.0502c-0.0115,0.02761 -0.0302,0.0502 -0.04158,0.0502c-0.01139,0 -0.03817,0.06777 -0.05957,0.1506c-0.0214,0.08283 -0.0462,0.1506 -0.05517,0.1506c-0.00897,0 -0.02844,0.03389 -0.04334,0.0753c-0.01491,0.04142 -0.04538,0.0871 -0.06771,0.10156c-0.02239,0.01441 -0.04065,0.03926 -0.04065,0.05522c0,0.01591 -0.01485,0.02897 -0.033,0.02897c-0.01815,0 -0.033,0.01325 -0.033,0.02942c0,0.01616 -0.0198,0.03911 -0.044,0.0509c-0.0242,0.0118 -0.044,0.03429 -0.044,0.0499c0,0.01566 -0.01342,0.03564 -0.02981,0.04448c-0.01634,0.00884 -0.04246,0.0381 -0.05797,0.06501c-0.04571,0.07937 -0.37609,0.40286 -0.41146,0.40286c-0.00996,0 -0.04873,0.03047 -0.08619,0.06777c-0.03746,0.03725 -0.10423,0.07861 -0.14834,0.09192c-0.04417,0.01325 -0.08025,0.03248 -0.08025,0.04267c0,0.01019 -0.01381,0.01852 -0.03069,0.01852c-0.01689,0 -0.05401,0.02244 -0.0825,0.04985c-0.02849,0.02741 -0.06386,0.05 -0.07854,0.0502c-0.01469,0.0002 -0.03735,0.01842 -0.05027,0.04051c-0.01293,0.02209 -0.03834,0.04016 -0.05649,0.04016c-0.0181,0 -0.03828,0.0128 -0.04488,0.02846c-0.0066,0.01566 -0.0632,0.03961 -0.12579,0.05311c-0.06265,0.01355 -0.11908,0.03193 -0.12551,0.04086c-0.00638,0.00894 -0.10538,0.02736 -0.22,0.04101c-0.11457,0.01365 -0.21329,0.03087 -0.21934,0.0383c-0.00605,0.00743 -0.17188,0.025 -0.3685,0.03906c-0.19663,0.01406 -0.3575,0.03338 -0.3575,0.04297c0,0.00964 -0.57712,0.01747 -1.2925,0.01752c-1.28458,0.0001 -2.12179,0.024 -2.13582,0.06089c-0.00407,0.01064 -0.03608,0.01933 -0.07123,0.01933c-0.06259,0 -0.28446,0.17118 -0.28446,0.21948c0,0.01054 -0.01975,0.03183 -0.04384,0.04724c-0.04785,0.03057 -0.08723,0.6871 -0.08789,1.46521c-0.00017,0.18499 -0.00869,0.33635 -0.01892,0.33635c-0.01023,0 -0.02541,0.30045 -0.03366,0.66767c-0.01997,0.88986 -0.03641,1.22856 -0.06006,1.2366c-0.01084,0.00371 -0.01964,0.06451 -0.01964,0.13519c0,0.17681 -0.0462,0.63901 -0.06507,0.6513c-0.00853,0.00552 -0.02706,0.08635 -0.04125,0.17957c-0.01419,0.09322 -0.03476,0.1746 -0.04571,0.18077c-0.011,0.00617 -0.02701,0.04553 -0.03559,0.0875c-0.00864,0.04192 -0.0275,0.08705 -0.04191,0.10035c-0.01441,0.01325 -0.04037,0.05346 -0.0577,0.08936c-0.01733,0.03589 -0.03927,0.06526 -0.04873,0.06526c-0.00941,0 -0.02657,0.02259 -0.03806,0.0502c-0.0115,0.02761 -0.03042,0.0502 -0.04202,0.0502c-0.01161,0 -0.03366,0.03163 -0.04895,0.07028c-0.01535,0.03865 -0.03421,0.07028 -0.04191,0.07028c-0.00776,0 -0.02717,0.03614 -0.04312,0.08032c-0.01595,0.04418 -0.03537,0.08032 -0.04312,0.08032c-0.0077,0 -0.02657,0.03163 -0.04191,0.07028c-0.01529,0.03865 -0.03548,0.07028 -0.04488,0.07028c-0.00935,0 -0.02723,0.02043 -0.03971,0.04543c-0.01243,0.02495 -0.05071,0.05884 -0.08509,0.0753c-0.0836,0.04001 -0.18348,0.1368 -0.19883,0.19257c-0.00682,0.02485 -0.0264,0.0501 -0.04345,0.05612c-0.01705,0.00597 -0.03119,0.02244 -0.03141,0.03655c-0.00044,0.03143 -0.09521,0.11611 -0.12991,0.11611c-0.01381,0 -0.03053,0.0129 -0.03718,0.02871c-0.0066,0.01581 -0.04098,0.0379 -0.07629,0.04915c-0.03531,0.01124 -0.06424,0.02937 -0.06424,0.04021c0,0.01089 -0.0198,0.0255 -0.044,0.03253c-0.0242,0.00703 -0.044,0.0257 -0.044,0.04152c0,0.01581 -0.01023,0.02877 -0.02272,0.02877c-0.01243,0 -0.02904,0.01581 -0.03685,0.03514c-0.01991,0.0494 -0.10115,0.11596 -0.18079,0.14814c-0.03724,0.01501 -0.06765,0.03343 -0.06765,0.04096c0,0.00748 -0.03713,0.0246 -0.0825,0.0381c-0.04538,0.01345 -0.0902,0.03635 -0.09961,0.0509c-0.00941,0.01461 -0.05055,0.03223 -0.09147,0.03926c-0.04725,0.00808 -0.07838,0.02671 -0.08536,0.051c-0.006,0.02103 -0.02569,0.03825 -0.04367,0.03825c-0.01799,0 -0.03839,0.01355 -0.04538,0.03012c-0.00693,0.01657 -0.02745,0.03012 -0.04554,0.03012c-0.01815,0 -0.04312,0.01732 -0.05555,0.0385c-0.01243,0.02123 -0.05236,0.04453 -0.08877,0.05181c-0.03641,0.00733 -0.06617,0.02123 -0.06617,0.03097c0,0.00969 -0.04208,0.02887 -0.0935,0.04257c-0.05143,0.01376 -0.09845,0.03087 -0.1045,0.03805c-0.00605,0.00723 -0.06298,0.0244 -0.1265,0.03815c-0.06353,0.01376 -0.1155,0.03313 -0.1155,0.04307c0,0.00994 -0.01925,0.01807 -0.04274,0.01807c-0.02354,0 -0.05572,0.01581 -0.0715,0.03514c-0.01584,0.01933 -0.05847,0.04869 -0.09477,0.06521c-0.0363,0.01657 -0.07095,0.03514 -0.077,0.04132c-0.00605,0.00617 -0.04565,0.02374 -0.088,0.03906c-0.04235,0.01531 -0.08234,0.03484 -0.08883,0.04337c-0.00655,0.00853 -0.08575,0.02681 -0.176,0.04056c-0.09031,0.01376 -0.16913,0.03057 -0.17518,0.0374c-0.04994,0.05622 -0.704,0.05527 -0.704,-0.00105c0,-0.00879 -0.0297,-0.0254 -0.066,-0.03695c-0.0363,-0.01155 -0.066,-0.03052 -0.066,-0.04212c0,-0.01165 -0.01518,-0.02113 -0.03372,-0.02113c-0.01848,0 -0.04015,-0.01581 -0.04802,-0.03514c-0.00792,-0.01933 -0.03234,-0.04694 -0.05434,-0.0614c-0.02195,-0.01441 -0.03993,-0.0385 -0.03993,-0.05351c0,-0.01506 -0.01238,-0.03107 -0.0275,-0.03569c-0.06083,-0.01847 -0.06342,-8.20813 -0.00259,-8.24402c0.01304,-0.00773 0.03658,-0.0635 0.05225,-0.12395c0.01573,-0.06049 0.04087,-0.12118 0.05594,-0.13489c0.01502,-0.0137 0.03427,-0.08845 0.04285,-0.16616c0.00853,-0.07766 0.02338,-0.14121 0.033,-0.14121c0.00963,0 0.02948,-0.07681 0.04406,-0.17068c0.01458,-0.09388 0.03416,-0.17068 0.0434,-0.17068c0.0093,0 0.02855,-0.05422 0.04285,-0.12048c0.0143,-0.06627 0.03449,-0.12048 0.04494,-0.12048c0.01045,0 0.02574,-0.0368 0.0341,-0.08173c0.00831,-0.04493 0.02899,-0.08655 0.04593,-0.09252c0.01694,-0.00592 0.0308,-0.02113 0.0308,-0.03379c0,-0.01265 0.0297,-0.04859 0.066,-0.07987c0.0363,-0.03128 0.066,-0.06576 0.066,-0.07666c0,-0.01094 0.01348,-0.03213 0.02998,-0.04719c0.0165,-0.01506 0.03663,-0.07314 0.04477,-0.12912c0.00814,-0.05592 0.02338,-0.10171 0.03388,-0.10171c0.01051,0 0.02926,-0.02661 0.04164,-0.05914c0.01243,-0.03253 0.04807,-0.07932 0.07915,-0.10402c0.03113,-0.0247 0.0566,-0.05683 0.0566,-0.07139c0,-0.01456 0.0099,-0.02651 0.022,-0.02651c0.0121,0 0.022,-0.01401 0.022,-0.03117c0,-0.01712 0.0297,-0.04061 0.066,-0.05216c0.0363,-0.01155 0.066,-0.02917 0.066,-0.03911c0,-0.02179 0.25696,-0.25909 0.28056,-0.25909c0.00913,0 0.04461,-0.02711 0.07887,-0.06024c0.03427,-0.03313 0.07051,-0.06024 0.08058,-0.06024c0.01001,0 0.05297,-0.03082 0.09543,-0.06842c0.04246,-0.03765 0.09779,-0.0744 0.12293,-0.08168c0.02508,-0.00728 0.04565,-0.02103 0.04565,-0.03052c0,-0.00954 0.05445,-0.02841 0.121,-0.04202c0.06655,-0.0136 0.121,-0.03133 0.121,-0.03941c0,-0.00808 0.02453,-0.02033 0.05456,-0.02721c0.02998,-0.00688 0.08393,-0.03725 0.11979,-0.06747c0.11006,-0.09267 0.12502,-0.10115 0.2244,-0.12766c0.05291,-0.01416 0.1012,-0.03198 0.10725,-0.03966c0.00605,-0.00763 0.0902,-0.02575 0.187,-0.04021c0.0968,-0.01451 0.18095,-0.03188 0.187,-0.0386c0.01689,-0.01883 0.5577,-0.05999 0.7865,-0.05989c0.12106,0.00005 0.2035,-0.00803 0.2035,-0.01998c0,-0.0133 1.32369,-0.02008 3.927,-0.02008c2.60332,0 3.927,0.00678 3.927,0.02008m-10.626,0.72339c0,0.00899 0.0055,0.02942 0.01227,0.04548c0.02508,0.05959 -0.05594,0.10246 -0.10423,0.05517c-0.03839,-0.0376 -0.03916,-0.04458 -0.00825,-0.07279c0.01881,-0.01717 0.03421,-0.03936 0.03421,-0.04925c0,-0.00989 0.01485,-0.0128 0.033,-0.00648c0.01815,0.00638 0.033,0.01893 0.033,0.02786" fill="#d1ccc6" fill-rule="evenodd" stroke="null"/>
  </g>
 </g>

</svg>