<svg width="44" height="42" xmlns="http://www.w3.org/2000/svg" version="1.1">
 <g>
  <title>Layer 1</title>
  <path id="path0" d="m10.93075,6.59364c-0.06641,0.00535 -0.12075,0.01955 -0.12075,0.03157c0,0.01196 -0.02116,0.02179 -0.04704,0.02179c-0.07705,0 -0.35334,0.07527 -0.38232,0.10419c-0.01484,0.01472 -0.07694,0.04054 -0.138,0.05733c-0.06112,0.01685 -0.11632,0.03761 -0.12265,0.04623c-0.00633,0.00863 -0.09171,0.03341 -0.18975,0.05503c-0.09804,0.02168 -0.17825,0.0479 -0.17825,0.05831c0,0.01041 -0.06871,0.0326 -0.15272,0.04928c-0.08401,0.01668 -0.16422,0.04123 -0.17825,0.05457c-0.01403,0.01328 -0.05658,0.04405 -0.09453,0.06837c-0.03795,0.02432 -0.08786,0.0682 -0.11092,0.09746c-0.02306,0.02927 -0.0567,0.05325 -0.07475,0.05325c-0.01806,0 -0.03283,0.00955 -0.03283,0.02122c0,0.01167 -0.03519,0.03283 -0.07814,0.04698c-0.04295,0.0142 -0.10149,0.04606 -0.13001,0.07078c-0.02852,0.02478 -0.06475,0.04502 -0.08044,0.04502c-0.01576,0 -0.07751,0.04623 -0.13731,0.1027c-0.0598,0.05647 -0.13357,0.11897 -0.16399,0.13892c-0.03036,0.0199 -0.10367,0.08752 -0.16296,0.15031c-0.05923,0.06273 -0.11552,0.11408 -0.12512,0.11408c-0.03249,0 -0.20873,0.19251 -0.28773,0.31435c-0.04192,0.06457 -0.0521,0.07757 -0.15738,0.20073c-0.03134,0.03669 -0.05693,0.07573 -0.05693,0.08688c0,0.01116 -0.04399,0.06423 -0.09775,0.11805c-0.05376,0.05376 -0.11816,0.14404 -0.14312,0.20062c-0.02496,0.05658 -0.05089,0.10804 -0.05762,0.11437c-0.00673,0.00633 -0.03197,0.07101 -0.05612,0.14375c-0.02409,0.07274 -0.05054,0.13225 -0.05871,0.13225c-0.00817,0 -0.03312,0.0414 -0.05543,0.092c-0.02231,0.0506 -0.04934,0.092 -0.06003,0.092c-0.0107,0 -0.03784,0.04916 -0.06038,0.10925c-0.02254,0.06009 -0.04796,0.11443 -0.05647,0.12075c-0.02041,0.01512 -0.09039,0.32597 -0.09039,0.40129c0,0.03232 -0.00857,0.05871 -0.01903,0.05871c-0.01921,0 -0.06072,0.28169 -0.08803,0.598c-0.00817,0.09488 -0.02559,0.17946 -0.0387,0.18797c-0.03306,0.02156 -0.02697,0.96962 0.00633,0.98072c0.01346,0.00449 0.02444,0.04468 0.02444,0.08936c0,0.12064 0.07412,0.66068 0.09252,0.67396c0.00874,0.00633 0.03214,0.10873 0.05198,0.22759c0.0199,0.11885 0.04497,0.22235 0.05572,0.23c0.01075,0.00765 0.0387,0.05727 0.06204,0.11029c0.0234,0.05302 0.05474,0.10109 0.06963,0.10684c0.01495,0.00575 0.04117,0.0529 0.05831,0.10482c0.01714,0.05198 0.03847,0.09447 0.04738,0.09447c0.00891,0 0.03473,0.04916 0.05744,0.10925c0.02271,0.06009 0.0479,0.11443 0.05601,0.12075c0.00811,0.00633 0.03243,0.06728 0.05405,0.13541c0.03025,0.09557 0.07314,0.15772 0.18739,0.27203c0.08148,0.08148 0.15956,0.18262 0.17348,0.22483c0.01392,0.04215 0.04031,0.08246 0.05865,0.08947c0.0184,0.00707 0.03341,0.02611 0.03341,0.04238c0,0.0341 0.10287,0.13587 0.1775,0.17555c0.06981,0.03715 0.1675,0.12989 0.1675,0.15899c0,0.036 0.1422,0.18935 0.17561,0.18935c0.01599,0 0.03979,0.01811 0.05284,0.04025c0.01541,0.02616 0.0299,0.03174 0.0414,0.01593c0.00972,-0.01334 0.05215,-0.03824 0.09436,-0.05532c0.10408,-0.04215 0.12012,-0.09925 0.09499,-0.33839c-0.01179,-0.11161 -0.02156,-0.31338 -0.02179,-0.44833c-0.00029,-0.17342 -0.00886,-0.24926 -0.02915,-0.25875c-0.023,-0.0107 -0.023,-0.0161 0,-0.0268c0.02013,-0.00943 0.02875,-0.08073 0.02875,-0.23753c0,-0.28532 0.05813,-0.70748 0.10373,-0.75308c0.01886,-0.01886 0.03427,-0.04905 0.03427,-0.06716c0,-0.01806 0.01811,-0.05187 0.04025,-0.0751c0.05284,-0.05549 0.09585,-0.12064 0.11259,-0.17049c0.00748,-0.02214 0.02128,-0.04025 0.03071,-0.04025c0.00949,0 0.03577,-0.04916 0.05848,-0.10925c0.02271,-0.06009 0.04847,-0.11443 0.05721,-0.12075c0.0088,-0.00633 0.03542,-0.0529 0.05911,-0.1035c0.05267,-0.11218 0.07975,-0.1468 0.23391,-0.29923c0.06641,-0.06561 0.12075,-0.13076 0.12075,-0.14467c0,-0.01392 0.01409,-0.03358 0.03122,-0.0437c0.04008,-0.02358 0.07596,-0.1426 0.0958,-0.3174c0.00863,-0.0759 0.02248,-0.14318 0.03088,-0.1495c0.0084,-0.00633 0.03398,-0.10448 0.05687,-0.21816c0.02289,-0.11368 0.05118,-0.21264 0.06285,-0.21982c0.01167,-0.00725 0.0372,-0.06687 0.0567,-0.1326c0.01949,-0.06567 0.04399,-0.11943 0.05445,-0.11943c0.01041,0 0.03686,-0.05693 0.05871,-0.1265c0.02191,-0.06958 0.04715,-0.1265 0.05606,-0.1265c0.00891,0 0.02864,-0.03433 0.04382,-0.0763c0.03122,-0.08631 0.16439,-0.2457 0.20533,-0.2457c0.01489,0 0.03531,-0.01294 0.04543,-0.02875c0.01012,-0.01581 0.05066,-0.04663 0.09005,-0.06848c0.03939,-0.02179 0.11908,-0.08648 0.17716,-0.14375c0.05802,-0.05721 0.12081,-0.10402 0.1395,-0.10402c0.01863,0 0.04893,-0.01501 0.06728,-0.03335c0.01834,-0.0184 0.12518,-0.05204 0.23742,-0.07475c0.11218,-0.02277 0.20746,-0.04916 0.21166,-0.05865c0.0119,-0.02674 0.55585,-0.0211 0.55585,0.00575c0,0.01265 0.03278,0.023 0.07285,0.023c0.11569,0 0.36317,0.04853 0.39416,0.07728c0.01558,0.01443 0.06434,0.04635 0.10839,0.07101c0.04405,0.02461 0.09896,0.0686 0.12202,0.09775c0.02306,0.0291 0.0556,0.05296 0.07228,0.05296c0.01673,0 0.03559,0.01351 0.04192,0.03002c0.00633,0.0165 0.05399,0.04405 0.10592,0.06118c0.05198,0.01714 0.09447,0.03761 0.09447,0.04554c0,0.00788 0.03134,0.03283 0.06958,0.05549c0.0383,0.0226 0.09626,0.06578 0.12886,0.09597c0.06296,0.05836 0.14617,0.03594 0.17842,-0.04807c0.00696,-0.01823 0.02473,-0.03312 0.03945,-0.03312c0.02266,0 0.26789,-0.24104 0.36047,-0.35437c0.0161,-0.01967 0.04715,-0.10586 0.069,-0.19148c0.02185,-0.08562 0.04974,-0.16284 0.06199,-0.17164c0.03565,-0.02553 0.03082,-1.12781 -0.005,-1.13977c-0.01581,-0.00529 -0.02898,-0.04238 -0.02933,-0.0824c-0.00086,-0.11466 -0.0395,-0.25317 -0.07866,-0.28175c-0.01967,-0.01443 -0.03594,-0.03536 -0.03623,-0.04663c-0.00023,-0.01127 -0.03646,-0.06176 -0.0805,-0.11224c-0.04399,-0.05043 -0.08004,-0.10316 -0.08004,-0.11713c0,-0.01403 -0.02588,-0.05555 -0.0575,-0.09229c-0.03157,-0.03674 -0.05744,-0.07308 -0.0575,-0.08073c0,-0.00759 -0.02559,-0.04382 -0.05693,-0.0805c-0.10517,-0.12299 -0.1154,-0.1361 -0.15634,-0.19924c-0.02243,-0.03456 -0.05555,-0.06285 -0.0736,-0.06285c-0.01806,0 -0.04111,-0.01305 -0.05123,-0.02898c-0.01012,-0.01593 -0.0598,-0.04957 -0.1104,-0.07475c-0.0506,-0.02519 -0.10235,-0.0571 -0.115,-0.07096c-0.01265,-0.01386 -0.05923,-0.03916 -0.1035,-0.05624c-0.04428,-0.01702 -0.08568,-0.03726 -0.092,-0.04497c-0.00633,-0.00771 -0.06066,-0.03243 -0.12075,-0.05497c-0.06009,-0.02254 -0.10925,-0.05095 -0.10925,-0.06319c0,-0.02944 -0.14444,-0.08895 -0.21586,-0.08895c-0.03099,0 -0.06049,-0.01248 -0.06555,-0.02777c-0.00943,-0.02823 -0.86802,-0.04755 -1.13885,-0.02559m3.53228,0.99078c-0.09568,0.02059 -0.10557,0.77947 -0.01087,0.83852c0.03899,0.02438 0.03674,0.75825 -0.00242,0.77131c-0.01581,0.00529 -0.02852,0.0372 -0.02829,0.0709c0.00086,0.10287 -0.07757,0.53285 -0.09712,0.53285c-0.01006,0 -0.01834,0.02398 -0.01834,0.0533c0,0.07211 -0.06647,0.2917 -0.08826,0.2917c-0.0096,0 -0.03151,0.0387 -0.04859,0.08602c-0.01714,0.04732 -0.05802,0.11287 -0.09091,0.14565c-0.03283,0.03272 -0.08044,0.08786 -0.10574,0.12242c-0.0253,0.03456 -0.06503,0.08378 -0.08826,0.10937c-0.02323,0.02565 -0.05704,0.08188 -0.07504,0.12506c-0.01806,0.04318 -0.04232,0.07849 -0.05394,0.07849c-0.01167,0 -0.02818,0.02214 -0.03674,0.04916c-0.00863,0.02703 -0.05934,0.09286 -0.11282,0.14634c-0.13145,0.13145 -0.17371,0.24633 -0.17371,0.47196c0,0.10701 -0.0096,0.18354 -0.023,0.18354c-0.01265,0 -0.023,0.02996 -0.023,0.06653c0,0.11207 -0.07216,0.42291 -0.10603,0.45678c-0.0176,0.0176 -0.03197,0.04445 -0.03197,0.05969c0,0.0153 -0.02846,0.05399 -0.06325,0.08602c-0.07176,0.06607 -0.12213,0.12702 -0.18228,0.22074c-0.02289,0.03559 -0.0598,0.08481 -0.08205,0.10931c-0.02225,0.02455 -0.04042,0.05468 -0.04042,0.06699c0,0.0368 -0.14076,0.151 -0.22264,0.18061c-0.04203,0.01518 -0.07636,0.03479 -0.07636,0.04364c0,0.00886 -0.05175,0.03467 -0.115,0.05744c-0.06325,0.02271 -0.115,0.04824 -0.115,0.0567c0,0.0084 -0.04916,0.03387 -0.10925,0.05658c-0.06009,0.02271 -0.11443,0.04905 -0.12081,0.05854c-0.08424,0.12581 -0.98682,0.11391 -1.06335,-0.01403c-0.00932,-0.01553 -0.06365,-0.04203 -0.12075,-0.05888c-0.0571,-0.01691 -0.10385,-0.03772 -0.10385,-0.04635c0,-0.00863 -0.05175,-0.03427 -0.115,-0.05704c-0.06325,-0.02271 -0.115,-0.04893 -0.115,-0.05825c0,-0.00932 -0.02087,-0.02352 -0.0464,-0.03163c-0.02553,-0.00811 -0.07987,-0.04543 -0.12075,-0.08292c-0.04088,-0.03749 -0.09764,-0.07406 -0.1261,-0.08131c-0.02846,-0.00725 -0.05175,-0.02237 -0.05175,-0.03364c0,-0.01133 -0.02007,-0.02053 -0.04462,-0.02053c-0.02455,0 -0.05031,-0.0092 -0.05727,-0.02041c-0.00696,-0.01121 -0.04893,-0.0272 -0.09338,-0.03554c-0.04439,-0.00834 -0.08073,-0.02501 -0.08073,-0.03709c0,-0.10356 -0.16319,0.02001 -0.20637,0.15629c-0.01708,0.05376 -0.03864,0.09775 -0.04801,0.09775c-0.00937,0 -0.03559,0.05175 -0.05836,0.115c-0.02271,0.06325 -0.0483,0.115 -0.05675,0.115c-0.00851,0 -0.03289,0.0621 -0.05417,0.138c-0.02128,0.0759 -0.04807,0.138 -0.05946,0.138c-0.01139,0 -0.03881,0.03881 -0.06084,0.08625c-0.02208,0.04744 -0.04847,0.09206 -0.05871,0.09919c-0.05261,0.03663 -0.05083,0.92322 0.00196,0.96456c0.00805,0.00633 0.03502,0.05031 0.05992,0.09775c0.0249,0.04744 0.05273,0.08625 0.06187,0.08625c0.00909,0 0.0349,0.05951 0.05739,0.13225c0.02243,0.07274 0.04721,0.13743 0.05503,0.14375c0.00782,0.00633 0.03347,0.06325 0.05693,0.1265c0.02352,0.06325 0.04899,0.12018 0.0567,0.1265c0.00771,0.00633 0.02846,0.04773 0.04617,0.092c0.03318,0.08303 0.14042,0.207 0.17906,0.207c0.03485,0 0.32666,0.28106 0.32666,0.31464c0,0.01668 0.0084,0.03036 0.01869,0.03036c0.01024,0 0.0387,0.01846 0.06325,0.04094c0.0245,0.02254 0.10925,0.06043 0.18831,0.08418c0.07906,0.02375 0.14375,0.04991 0.14375,0.05819c0,0.01783 0.1744,0.06199 0.32775,0.08297c0.06009,0.00822 0.10925,0.02289 0.10925,0.03255c0,0.08309 1.1841,0.08085 1.21515,-0.0023c0.00426,-0.01133 0.03013,-0.02041 0.0575,-0.02018c0.09896,0.00058 0.56735,-0.07975 0.56735,-0.09735c0,-0.00989 0.02634,-0.018 0.05854,-0.018c0.08522,0 0.35547,-0.0713 0.35547,-0.09378c0,-0.01052 0.03479,-0.02565 0.07728,-0.03364c0.04249,-0.00794 0.11753,-0.04962 0.16675,-0.09258c0.04922,-0.04295 0.10241,-0.07832 0.11822,-0.07855c0.01581,-0.00029 0.02875,-0.01029 0.02875,-0.02231c0,-0.01196 0.05951,-0.04031 0.13225,-0.06291c0.07274,-0.0226 0.13576,-0.04928 0.14013,-0.05923c0.00431,-0.01001 0.04169,-0.03232 0.08303,-0.04957c0.08562,-0.03582 0.15657,-0.0889 0.24058,-0.18021c0.03203,-0.03479 0.07113,-0.06325 0.08683,-0.06325c0.0157,0 0.03968,-0.0207 0.05319,-0.046c0.01351,-0.0253 0.03749,-0.046 0.05319,-0.046c0.0157,0 0.06158,-0.02846 0.10189,-0.06325c0.04037,-0.03479 0.1012,-0.08395 0.1353,-0.10925c0.06354,-0.04721 0.1909,-0.17664 0.29411,-0.299c0.03203,-0.03795 0.12064,-0.13605 0.19688,-0.21793c0.07625,-0.08194 0.13863,-0.16215 0.13863,-0.17825c0,-0.01616 0.01006,-0.02933 0.02243,-0.02933c0.01231,0 0.03956,-0.03364 0.06061,-0.07475c0.02099,-0.04111 0.05112,-0.08234 0.06693,-0.09166c0.01581,-0.00932 0.04255,-0.06365 0.0594,-0.12075c0.01691,-0.0571 0.0383,-0.10385 0.04761,-0.10385c0.00926,0 0.03462,-0.03743 0.05635,-0.08315c0.02168,-0.04577 0.07469,-0.11742 0.11782,-0.15928c0.05486,-0.0533 0.08878,-0.11621 0.11333,-0.21011c0.01921,-0.07366 0.0437,-0.13938 0.0544,-0.14599c0.0107,-0.00661 0.03743,-0.10494 0.05946,-0.2185c0.02202,-0.11356 0.04652,-0.21166 0.05451,-0.21798c0.00799,-0.00633 0.03364,-0.08395 0.05698,-0.1725c0.0234,-0.08855 0.04916,-0.16618 0.05727,-0.1725c0.02053,-0.0161 0.09292,-0.24944 0.09292,-0.29975c0,-0.02277 0.01041,-0.04491 0.02317,-0.04916c0.06015,-0.02001 0.06314,-1.44779 0.00311,-1.49069c-0.0092,-0.00656 -0.03525,-0.09212 -0.05796,-0.19015c-0.02266,-0.09804 -0.04899,-0.17825 -0.05854,-0.17825c-0.00949,0 -0.03646,-0.08539 -0.05997,-0.18975c-0.02346,-0.10436 -0.0506,-0.19527 -0.06026,-0.202c-0.00972,-0.00679 -0.03554,-0.09476 -0.05744,-0.1955c-0.02191,-0.1008 -0.04819,-0.1867 -0.05848,-0.1909c-0.01024,-0.00426 -0.01863,-0.02731 -0.01863,-0.05129c0,-0.05704 -0.06825,-0.22655 -0.11374,-0.2825c-0.01967,-0.02421 -0.0579,-0.06883 -0.08499,-0.09919c-0.02708,-0.0303 -0.06285,-0.08803 -0.07952,-0.12828c-0.01668,-0.04019 -0.04882,-0.09166 -0.07153,-0.11437c-0.02266,-0.02266 -0.04123,-0.05601 -0.04123,-0.07406c0,-0.01811 -0.01369,-0.04658 -0.03042,-0.06331c-0.01673,-0.01673 -0.04842,-0.07757 -0.07044,-0.13524c-0.02202,-0.05767 -0.06728,-0.12495 -0.10051,-0.1495c-0.11592,-0.08556 -0.258,-0.24098 -0.27226,-0.29785c-0.00788,-0.03151 -0.02133,-0.05727 -0.0299,-0.05727c-0.00857,0 -0.03375,-0.03076 -0.05595,-0.06837c-0.02737,-0.04635 -0.07147,-0.0774 -0.1372,-0.0966c-0.05325,-0.01558 -0.10201,-0.03398 -0.10833,-0.04094c-0.00633,-0.0069 -0.04893,-0.03163 -0.0947,-0.05486c-0.05963,-0.03025 -0.09131,-0.06664 -0.11161,-0.12817c-0.03048,-0.0924 -0.08108,-0.13593 -0.14266,-0.12265" fill="#120606" fill-rule="evenodd" stroke="null"/>
  <path id="path2" d="m11.06358,1.30341c-0.08188,0.00552 -0.15433,0.01834 -0.161,0.02846c-0.01127,0.01725 -0.40451,0.05974 -0.81133,0.08775c-0.09804,0.00679 -0.17825,0.01984 -0.17825,0.02904c0,0.0092 -0.08539,0.02358 -0.18975,0.03191c-0.33931,0.02714 -0.66125,0.06837 -0.66125,0.08458c0,0.00874 -0.06268,0.023 -0.13927,0.03168c-0.09378,0.01058 -0.15456,0.03099 -0.18601,0.06245c-0.0257,0.0257 -0.08464,0.06256 -0.13099,0.08182c-0.04635,0.01926 -0.08987,0.04399 -0.09672,0.05486c-0.00684,0.01093 -0.08447,0.03818 -0.1725,0.06066c-0.08803,0.02248 -0.1652,0.04721 -0.17152,0.05491c-0.00633,0.00771 -0.11241,0.03289 -0.23575,0.05595c-0.12334,0.02306 -0.22425,0.04905 -0.22425,0.05773c0,0.00868 -0.03761,0.02185 -0.08355,0.02933c-0.05877,0.00955 -0.11287,0.04422 -0.18279,0.11713c-0.06659,0.06952 -0.13748,0.11609 -0.21545,0.14162c-0.06388,0.02093 -0.11621,0.04548 -0.11621,0.05463c0,0.00909 -0.08539,0.03577 -0.18975,0.05928c-0.10436,0.02346 -0.19493,0.04865 -0.20125,0.05595c-0.00633,0.0073 -0.03996,0.02582 -0.07475,0.04111c-0.03479,0.01524 -0.06325,0.03991 -0.06325,0.05468c0,0.04267 -0.14174,0.16813 -0.23,0.20361c-0.04428,0.01777 -0.08568,0.03841 -0.092,0.04577c-0.00633,0.00742 -0.05808,0.0337 -0.115,0.05842c-0.05693,0.02473 -0.11719,0.05808 -0.13392,0.07412c-0.01668,0.01604 -0.04962,0.02915 -0.0732,0.02915c-0.02352,0 -0.04957,0.02128 -0.05779,0.04732c-0.00828,0.02605 -0.041,0.05721 -0.0728,0.06929c-0.03174,0.01208 -0.06314,0.04249 -0.06969,0.06768c-0.00661,0.02513 -0.0211,0.04571 -0.03232,0.04571c-0.01116,0 -0.03927,0.01811 -0.0625,0.04025c-0.064,0.06107 -0.12754,0.09298 -0.21948,0.11023c-0.04583,0.00863 -0.08332,0.02312 -0.08332,0.0322c0,0.00909 -0.02455,0.02967 -0.05457,0.04577c-0.03082,0.0165 -0.06762,0.06871 -0.08458,0.11995c-0.01823,0.05532 -0.05532,0.10574 -0.09488,0.12915c-0.03577,0.0211 -0.06498,0.04606 -0.06498,0.05549c0,0.00943 -0.04399,0.02967 -0.09775,0.04502c-0.1016,0.02898 -0.22425,0.13564 -0.22425,0.19498c0,0.04566 -0.2181,0.26197 -0.26416,0.26197c-0.05279,0 -0.19585,0.15123 -0.19585,0.20694c0,0.02611 -0.01553,0.05348 -0.0345,0.06072c-0.01898,0.0073 -0.0345,0.02519 -0.0345,0.03979c0,0.04531 -0.11322,0.15123 -0.17894,0.16738c-0.08798,0.02156 -0.15347,0.09953 -0.18843,0.22437c-0.0165,0.05888 -0.04146,0.11454 -0.05555,0.12368c-0.01409,0.00914 -0.03663,0.03663 -0.05014,0.06107c-0.01346,0.0245 -0.04451,0.05555 -0.069,0.069c-0.02444,0.01351 -0.04985,0.03168 -0.05641,0.04037c-0.00661,0.00868 -0.03922,0.02616 -0.07251,0.03881c-0.04686,0.01783 -0.06406,0.04405 -0.0763,0.11644c-0.00868,0.05141 -0.02444,0.09344 -0.03496,0.09344c-0.01058,0 -0.0314,0.03697 -0.04629,0.08211c-0.01489,0.04514 -0.04014,0.08711 -0.05601,0.09321c-0.01593,0.0061 -0.04261,0.05256 -0.05934,0.10327c-0.01673,0.05072 -0.04928,0.10229 -0.07228,0.11466c-0.023,0.01231 -0.04186,0.03686 -0.04186,0.05451c0,0.01771 -0.02047,0.03864 -0.04554,0.04658c-0.02501,0.00799 -0.06348,0.04491 -0.08545,0.08205c-0.02197,0.0372 -0.04755,0.06762 -0.05681,0.06762c-0.00932,0 -0.02927,0.06285 -0.04439,0.13967c-0.01512,0.07682 -0.04002,0.15226 -0.05537,0.16761c-0.01535,0.01535 -0.04215,0.06728 -0.05957,0.1154c-0.01737,0.04807 -0.04991,0.09723 -0.07222,0.10919c-0.02237,0.01196 -0.04065,0.03462 -0.04065,0.05031c0,0.0157 -0.03117,0.05589 -0.06917,0.0893c-0.03807,0.03341 -0.07561,0.09263 -0.08338,0.13162c-0.00782,0.03899 -0.02128,0.0709 -0.02996,0.0709c-0.01616,0 -0.05629,0.15019 -0.08154,0.30475c-0.00771,0.04744 -0.02145,0.08625 -0.03053,0.08625c-0.00909,0 -0.03577,0.06728 -0.05934,0.1495c-0.02352,0.08223 -0.05118,0.1495 -0.06141,0.1495c-0.01024,0 -0.02519,0.02087 -0.03329,0.0464c-0.00811,0.02553 -0.04439,0.07889 -0.08067,0.11862c-0.03841,0.04209 -0.07245,0.11132 -0.08159,0.16629c-0.00868,0.05181 -0.02375,0.09936 -0.03358,0.10569c-0.00978,0.00633 -0.03628,0.14605 -0.05882,0.3105c-0.02254,0.16445 -0.04813,0.30418 -0.05693,0.3105c-0.00874,0.00633 -0.03398,0.11241 -0.05606,0.23575c-0.02208,0.12334 -0.04709,0.22425 -0.05555,0.22425c-0.00851,0 -0.03571,0.06728 -0.06055,0.1495c-0.02484,0.08223 -0.05187,0.1495 -0.06015,0.1495c-0.03203,0 -0.06561,0.15284 -0.08016,0.3649c-0.0084,0.1219 -0.02662,0.22897 -0.04054,0.23799c-0.03594,0.02335 -0.03577,2.58905 0.00017,2.61223c0.01403,0.00903 0.03283,0.11834 0.0418,0.243c0.01581,0.21959 0.04117,0.31792 0.09712,0.37668c0.01478,0.01558 0.03398,0.07009 0.04261,0.12121c0.00863,0.05112 0.03036,0.10758 0.0483,0.12552c0.01788,0.01788 0.05037,0.13932 0.07216,0.26979c0.02179,0.13047 0.04617,0.24236 0.05417,0.24869c0.00799,0.00633 0.03237,0.13564 0.05417,0.28739c0.02179,0.15169 0.04784,0.28106 0.0579,0.2875c0.01001,0.00638 0.0253,0.06365 0.03398,0.12731c0.01225,0.08987 0.03341,0.13294 0.09476,0.19297c0.04347,0.04255 0.07906,0.09137 0.07906,0.10856c0,0.01719 0.00937,0.03128 0.02082,0.03128c0.02317,0 0.09419,0.19245 0.09419,0.25519c0,0.02197 0.01024,0.04341 0.02277,0.04767c0.01248,0.0042 0.04014,0.09562 0.06141,0.20315c0.02128,0.10753 0.04566,0.20068 0.05422,0.207c0.00851,0.00633 0.02248,0.03996 0.03099,0.07475c0.00851,0.03479 0.02404,0.06325 0.0345,0.06325c0.04261,0 0.18567,0.16572 0.2131,0.24673c0.01616,0.04773 0.04088,0.09712 0.05497,0.10977c0.01409,0.01265 0.04548,0.09286 0.06981,0.17825c0.02427,0.08539 0.05204,0.15525 0.0617,0.15525c0.00966,0 0.01788,0.02329 0.01829,0.05175c0.00092,0.06797 0.03835,0.11138 0.14065,0.16336c0.04957,0.02519 0.10132,0.07694 0.1265,0.1265c0.02346,0.04612 0.04824,0.08907 0.05509,0.09539c0.00684,0.00633 0.02731,0.05762 0.04548,0.11397c0.01817,0.05635 0.05135,0.11816 0.07377,0.13737c0.02243,0.01921 0.04077,0.04813 0.04077,0.06429c0,0.01616 0.01001,0.02938 0.02225,0.02938c0.03364,0 0.17888,0.15226 0.19567,0.20516c0.00811,0.02553 0.0452,0.07521 0.0824,0.11034c0.0372,0.03513 0.06768,0.07694 0.06768,0.09292c0,0.01593 0.0207,0.04675 0.046,0.06843c0.0253,0.02168 0.046,0.04882 0.046,0.06032c0,0.02496 0.16526,0.19878 0.189,0.19884c0.01478,0 0.10942,0.09453 0.20982,0.20947c0.02036,0.02329 0.04387,0.07107 0.05227,0.1062c0.02018,0.08447 0.05135,0.12133 0.10258,0.12133c0.02312,0 0.05031,0.01357 0.06043,0.03007c0.01012,0.01656 0.05227,0.04382 0.09361,0.06049c0.04134,0.01673 0.09275,0.06009 0.1142,0.09643c0.02145,0.03628 0.04479,0.06601 0.05181,0.06601c0.00707,0 0.03174,0.03519 0.05491,0.07814c0.02317,0.04301 0.0797,0.09735 0.12564,0.12075c0.04594,0.02346 0.09735,0.05555 0.11425,0.07136c0.01696,0.01581 0.03927,0.02875 0.04974,0.02875c0.01041,0 0.06825,0.04658 0.12851,0.1035c0.06026,0.05693 0.11569,0.10385 0.12317,0.10425c0.02662,0.0015 0.11707,0.08757 0.11707,0.11138c0,0.01334 0.02266,0.0364 0.05031,0.05118c0.02766,0.01484 0.07084,0.04612 0.09603,0.06952c0.02513,0.02346 0.08016,0.04905 0.12219,0.05698c0.04209,0.00788 0.07648,0.02283 0.07648,0.03324c0,0.01035 0.02329,0.02611 0.05175,0.03496c0.06394,0.01984 0.19027,0.14617 0.21074,0.21068c0.00834,0.02628 0.04065,0.05417 0.07182,0.06199c0.03117,0.00782 0.0567,0.02438 0.0567,0.0368c0,0.01236 0.02036,0.02254 0.0452,0.02254c0.05509,0 0.26088,0.06785 0.27681,0.09131c0.00633,0.00932 0.0529,0.03617 0.1035,0.0598c0.0506,0.02358 0.11207,0.06135 0.13656,0.08389c0.02455,0.02254 0.05325,0.041 0.06377,0.041c0.01052,0 0.03094,0.02588 0.04537,0.0575c0.01438,0.03163 0.04451,0.0575 0.06687,0.0575c0.02237,0 0.05641,0.01576 0.07567,0.03502c0.01926,0.01926 0.12351,0.05146 0.23167,0.07153c0.1081,0.02007 0.19659,0.04543 0.19659,0.05629c0,0.01093 0.05693,0.0364 0.1265,0.05664c0.06958,0.02024 0.1265,0.0464 0.1265,0.05813c0,0.01179 0.01323,0.02139 0.02944,0.02139c0.01622,0 0.06273,0.03531 0.10344,0.07849c0.05187,0.05497 0.10327,0.08332 0.17181,0.09482c0.05382,0.00897 0.10298,0.02346 0.10931,0.03214c0.01277,0.01754 0.4416,0.09447 0.52325,0.0939c0.02846,-0.00017 0.05175,0.00788 0.05175,0.01788c0,0.01006 0.08798,0.03835 0.1955,0.06296c0.10753,0.02455 0.1955,0.05095 0.1955,0.05859c0,0.00765 0.0414,0.02634 0.09194,0.04146c0.0506,0.01518 0.11115,0.04819 0.13455,0.07331c0.04347,0.04669 0.23483,0.09005 0.39836,0.09033c0.04635,0.00006 0.08775,0.0092 0.092,0.02024c0.03841,0.10103 3.4979,0.10206 3.5343,0.00109c0.00426,-0.01167 0.04681,-0.02122 0.09465,-0.02122c0.13294,0 0.33201,-0.0429 0.35771,-0.07705c0.01265,-0.01685 0.07671,-0.04842 0.14231,-0.07015c0.06561,-0.02174 0.12253,-0.04853 0.1265,-0.05957c0.00397,-0.01104 0.10034,-0.03876 0.21419,-0.06158c0.11385,-0.02283 0.21235,-0.0487 0.21885,-0.05744c0.0065,-0.00874 0.13024,-0.03243 0.27497,-0.05261c0.14473,-0.02018 0.2691,-0.04629 0.27635,-0.05808c0.0073,-0.01173 0.05727,-0.02841 0.11115,-0.03703c0.05382,-0.00857 0.11046,-0.03306 0.12581,-0.05434c0.01535,-0.02133 0.06411,-0.05877 0.10839,-0.0832c0.04428,-0.02444 0.08775,-0.05555 0.0966,-0.06917c0.00891,-0.01357 0.06066,-0.03899 0.115,-0.05652c0.0544,-0.01748 0.10408,-0.03772 0.1104,-0.04485c0.00633,-0.00719 0.09171,-0.03266 0.18975,-0.05658c0.09804,-0.02392 0.17825,-0.051 0.17825,-0.0602c0,-0.00914 0.04807,-0.02553 0.10678,-0.0364c0.06515,-0.01202 0.11673,-0.03669 0.13225,-0.06319c0.04727,-0.08073 0.17549,-0.19728 0.23293,-0.21172c0.03134,-0.00788 0.05704,-0.02277 0.05704,-0.03318c0,-0.01041 0.05595,-0.03048 0.12437,-0.04468c0.06837,-0.0142 0.14755,-0.046 0.17601,-0.07067c0.02841,-0.02461 0.05785,-0.04479 0.06544,-0.04479c0.00753,0 0.07441,-0.05693 0.14858,-0.1265c0.07418,-0.06958 0.14881,-0.1265 0.16595,-0.1265c0.01708,0 0.04146,-0.01949 0.05422,-0.04324c0.01271,-0.02381 0.06998,-0.05716 0.12731,-0.07406c0.05727,-0.01691 0.10413,-0.03755 0.10413,-0.04583c0,-0.00834 0.03076,-0.02128 0.06837,-0.02881c0.04755,-0.00949 0.07274,-0.03088 0.08257,-0.07021c0.00782,-0.03111 0.02881,-0.0621 0.04663,-0.069c0.01783,-0.00684 0.03243,-0.02593 0.03243,-0.04249c0,-0.04882 0.14197,-0.16025 0.24374,-0.1913c0.11431,-0.03485 0.19665,-0.10937 0.23989,-0.21706c0.03387,-0.08441 0.1058,-0.15893 0.15462,-0.16025c0.01581,-0.0004 0.02875,-0.01006 0.02875,-0.02151c0,-0.01139 0.03341,-0.03237 0.07429,-0.04663c0.08062,-0.02812 0.20171,-0.14628 0.20171,-0.19688c0,-0.01731 0.01392,-0.04531 0.03088,-0.06233c0.01696,-0.01696 0.04318,-0.05394 0.05831,-0.08211c0.01507,-0.02823 0.03743,-0.05129 0.04962,-0.05129c0.01219,0 0.0429,-0.0207 0.0682,-0.046c0.0253,-0.0253 0.06705,-0.046 0.09275,-0.046c0.02565,0 0.05348,-0.01811 0.06181,-0.04025c0.00828,-0.02214 0.02691,-0.0506 0.04134,-0.06325c0.01449,-0.01265 0.03985,-0.06647 0.05647,-0.11954c0.01662,-0.05313 0.04428,-0.10195 0.06141,-0.10856c0.01719,-0.00656 0.03122,-0.02731 0.03122,-0.04612c0,-0.01875 0.03623,-0.05129 0.0805,-0.07234c0.04428,-0.02099 0.0805,-0.04738 0.0805,-0.05859c0,-0.01121 0.02053,-0.02036 0.04554,-0.02036c0.03065,0 0.05066,-0.02076 0.06107,-0.06325c0.00851,-0.03479 0.02168,-0.06843 0.02933,-0.07475c0.00759,-0.00633 0.02806,-0.0529 0.04548,-0.1035c0.03174,-0.09229 0.04117,-0.10638 0.15048,-0.22529c0.03249,-0.03536 0.05911,-0.07205 0.05911,-0.08148c0,-0.00943 0.0414,-0.0552 0.092,-0.10172c0.0506,-0.04652 0.092,-0.10045 0.092,-0.11983c0,-0.01932 0.00897,-0.03519 0.0199,-0.03519c0.02323,0 0.09511,-0.17877 0.09511,-0.2365c0,-0.02174 0.00776,-0.03962 0.01725,-0.03973c0.00949,-0.00012 0.03766,-0.04669 0.06268,-0.1035c0.02496,-0.05681 0.05146,-0.10327 0.05888,-0.10327c0.00742,0 0.03358,-0.01863 0.05813,-0.0414c0.0245,-0.02277 0.06193,-0.04807 0.0832,-0.05618c0.02455,-0.00937 0.04439,-0.05302 0.05434,-0.1196c0.00868,-0.05767 0.0234,-0.10482 0.03272,-0.10482c0.00932,0 0.03519,-0.06728 0.05744,-0.1495c0.02225,-0.08223 0.04968,-0.1495 0.06089,-0.1495c0.01127,0 0.02047,-0.02047 0.02047,-0.04554c0,-0.08993 0.07941,-0.24121 0.17463,-0.3327c0.07774,-0.07464 0.10034,-0.11506 0.11333,-0.20252c0.00897,-0.06009 0.02409,-0.10925 0.03364,-0.10925c0.01806,0 0.05537,-0.17618 0.08159,-0.38525c0.00834,-0.06641 0.02363,-0.12075 0.03404,-0.12075c0.01041,0 0.0368,-0.0828 0.05865,-0.184c0.02191,-0.1012 0.04663,-0.184 0.05503,-0.184c0.0084,0 0.0345,-0.04399 0.05808,-0.09775c0.02352,-0.05376 0.06049,-0.1104 0.08217,-0.12587c0.02806,-0.02007 0.04399,-0.07768 0.05555,-0.20125c0.00891,-0.09522 0.02415,-0.17313 0.03381,-0.17313c0.01932,0 0.06187,-0.42981 0.08545,-0.8625c0.00863,-0.15876 0.02576,-0.28296 0.04025,-0.29239c0.03881,-0.02524 0.03542,-2.18443 -0.00345,-2.19736c-0.01846,-0.00615 -0.02875,-0.05589 -0.02875,-0.13886c0,-0.20407 -0.07124,-1.00395 -0.09056,-1.01677c-0.00955,-0.00638 -0.02398,-0.07619 -0.03203,-0.15508c-0.01432,-0.14019 -0.04801,-0.23127 -0.09764,-0.26364c-0.01357,-0.00891 -0.0391,-0.06066 -0.05675,-0.115c-0.01771,-0.0544 -0.04416,-0.11138 -0.05888,-0.12656c-0.01472,-0.01524 -0.04019,-0.09545 -0.05664,-0.17825c-0.0165,-0.08286 -0.03634,-0.15059 -0.0441,-0.15059c-0.00782,0 -0.03387,-0.11385 -0.0579,-0.253c-0.02404,-0.13915 -0.05083,-0.253 -0.05951,-0.253c-0.00868,0 -0.02266,-0.04606 -0.03111,-0.10235c-0.01041,-0.06946 -0.02864,-0.10655 -0.05675,-0.11546c-0.02277,-0.00725 -0.06078,-0.04916 -0.08447,-0.09315c-0.02375,-0.04405 -0.05014,-0.08004 -0.05877,-0.08004c-0.00857,0 -0.03352,-0.05693 -0.05543,-0.1265c-0.02185,-0.06958 -0.04698,-0.1265 -0.05583,-0.1265c-0.01685,0 -0.09263,-0.2898 -0.09263,-0.35403c0,-0.02036 -0.01035,-0.03697 -0.023,-0.03697c-0.01265,0 -0.023,-0.01495 -0.023,-0.03324c0,-0.01829 -0.051,-0.08338 -0.11328,-0.14473c-0.06233,-0.06135 -0.13156,-0.15761 -0.15393,-0.21402c-0.02237,-0.05641 -0.05284,-0.11287 -0.06774,-0.12552c-0.01495,-0.01265 -0.04111,-0.07216 -0.05813,-0.13225c-0.01702,-0.06009 -0.03778,-0.10925 -0.04606,-0.10925c-0.00834,0 -0.02139,-0.03128 -0.02904,-0.06952c-0.00765,-0.0383 -0.03174,-0.07642 -0.05359,-0.08481c-0.04543,-0.01742 -0.11241,-0.06889 -0.16595,-0.12742c-0.08913,-0.09752 -0.1173,-0.13334 -0.11742,-0.1495c-0.00081,-0.10505 -0.15514,-0.3488 -0.22258,-0.3515c-0.04123,-0.00167 -0.12512,-0.09246 -0.15778,-0.1706c-0.01903,-0.04548 -0.05244,-0.10132 -0.07429,-0.12409c-0.02185,-0.02271 -0.06935,-0.07941 -0.10551,-0.12593c-0.03623,-0.04658 -0.07538,-0.08464 -0.08706,-0.08464c-0.02421,0 -0.18067,-0.15146 -0.18067,-0.17492c0,-0.02059 -0.28302,-0.3074 -0.30372,-0.3078c-0.02254,-0.0004 -0.13329,-0.11328 -0.13329,-0.13582c0,-0.01012 -0.04215,-0.05365 -0.09373,-0.09672c-0.05152,-0.04301 -0.11742,-0.10155 -0.1464,-0.13001c-0.02898,-0.02846 -0.06383,-0.05175 -0.07751,-0.05175c-0.03939,0 -0.18222,-0.14433 -0.19912,-0.20125c-0.00845,-0.02846 -0.02979,-0.05175 -0.0475,-0.05175c-0.01765,0 -0.04255,-0.01949 -0.05532,-0.04324c-0.01271,-0.02381 -0.06998,-0.05716 -0.12731,-0.07406c-0.05727,-0.01691 -0.10413,-0.03881 -0.10413,-0.0487c0,-0.00989 -0.01369,-0.018 -0.03036,-0.018c-0.04957,0 -0.17446,-0.12495 -0.20102,-0.20108c-0.01558,-0.04462 -0.04531,-0.0759 -0.08062,-0.08476c-0.03082,-0.00771 -0.05601,-0.02421 -0.05601,-0.03663c0,-0.01236 -0.01938,-0.02254 -0.04313,-0.02254c-0.07101,0 -0.22897,-0.0636 -0.28302,-0.11391c-0.02777,-0.02588 -0.0625,-0.04709 -0.07711,-0.04709c-0.01466,0 -0.0567,-0.02588 -0.09344,-0.0575c-0.03674,-0.03157 -0.07458,-0.05744 -0.08407,-0.0575c-0.00949,0 -0.01725,-0.01392 -0.01725,-0.03088c0,-0.01696 -0.03864,-0.0506 -0.08591,-0.07475c-0.04727,-0.02415 -0.09844,-0.05555 -0.11379,-0.06981c-0.01535,-0.01426 -0.09574,-0.0387 -0.1786,-0.05434c-0.08292,-0.01564 -0.15071,-0.03761 -0.15071,-0.04882c0,-0.01121 -0.01587,-0.02041 -0.03531,-0.02041c-0.03628,0 -0.13662,-0.05739 -0.19061,-0.10896c-0.01668,-0.01599 -0.04491,-0.02904 -0.06268,-0.02904c-0.01783,0 -0.04928,-0.02582 -0.06992,-0.05733c-0.02168,-0.03306 -0.07791,-0.06912 -0.13277,-0.08516c-0.05238,-0.0153 -0.10057,-0.03531 -0.10707,-0.04451c-0.0065,-0.0092 -0.10988,-0.03375 -0.22966,-0.05451c-0.11977,-0.02076 -0.22316,-0.04566 -0.22966,-0.05526c-0.0065,-0.0096 -0.0774,-0.03117 -0.15749,-0.0479c-0.0801,-0.01673 -0.15772,-0.0418 -0.1725,-0.05566c-0.01478,-0.01386 -0.06567,-0.04313 -0.1131,-0.06509c-0.04744,-0.02191 -0.08625,-0.04911 -0.08625,-0.06043c0,-0.02933 -0.10741,-0.06751 -0.2415,-0.08585c-0.06325,-0.00863 -0.12018,-0.02358 -0.1265,-0.03318c-0.00633,-0.00966 -0.20815,-0.03611 -0.4485,-0.05882c-0.24035,-0.02271 -0.44218,-0.04801 -0.4485,-0.05629c-0.00633,-0.00828 -0.22368,-0.03393 -0.483,-0.05698c-0.25933,-0.02306 -0.4776,-0.05106 -0.48513,-0.06222c-0.01466,-0.02185 -0.97169,-0.04186 -1.2163,-0.02542m1.24718,5.04643c0.08539,0.01541 0.15525,0.0368 0.15525,0.04755c0,0.01081 0.01811,0.01955 0.04025,0.01949c0.05882,-0.00017 0.25875,0.07498 0.25875,0.09723c0,0.01047 0.02605,0.02892 0.0579,0.04106c0.03186,0.01208 0.06785,0.04807 0.07993,0.07993c0.01213,0.03186 0.03732,0.0579 0.05595,0.0579c0.01869,0 0.04221,0.01294 0.05233,0.02875c0.02375,0.03709 0.11178,0.08625 0.15445,0.08625c0.01823,0 0.04686,0.01294 0.06354,0.02875c0.01673,0.01581 0.05888,0.04341 0.09367,0.06141c0.03479,0.01794 0.06325,0.0464 0.06325,0.06325c0,0.01679 0.01087,0.03059 0.02415,0.03059c0.01334,0 0.03933,0.03623 0.05785,0.0805c0.01852,0.04428 0.04261,0.0805 0.05365,0.0805c0.01098,0 0.02553,0.0211 0.03226,0.04692c0.01196,0.04566 0.11989,0.04537 0.1541,-0.0004c0.00633,-0.00845 0.02703,-0.02231 0.046,-0.03082c0.05526,-0.02467 0.12351,-0.07096 0.14898,-0.10091c0.06371,-0.07504 0.28802,-0.06526 0.28802,0.01259c0,0.02628 0.16715,0.09562 0.23046,0.09562c0.02507,0 0.04554,0.01035 0.04554,0.023c0,0.01265 0.01944,0.023 0.04318,0.023c0.128,0 0.43982,0.23679 0.43982,0.33402c0,0.02001 0.03105,0.04721 0.069,0.06043c0.03795,0.01323 0.069,0.03145 0.069,0.04048c0,0.00909 0.03715,0.03105 0.08257,0.04888c0.04623,0.01817 0.09706,0.06049 0.11558,0.09631c0.01817,0.03513 0.04198,0.06388 0.0529,0.06388c0.01093,0 0.03364,0.04658 0.05043,0.1035c0.02168,0.07337 0.04272,0.1035 0.07228,0.1035c0.02294,0 0.04767,0.01553 0.05491,0.0345c0.0073,0.01898 0.02599,0.0345 0.04152,0.0345c0.04974,0 0.19458,0.18302 0.20999,0.26542c0.00822,0.04376 0.02208,0.07958 0.03076,0.07958c0.00868,0 0.02892,0.03623 0.04497,0.0805c0.01599,0.04428 0.03979,0.0805 0.05284,0.0805c0.05083,0 0.22626,0.21735 0.22626,0.28026c0,0.01213 0.01357,0.03559 0.03019,0.05221c0.01662,0.01662 0.04445,0.09091 0.06193,0.16514c0.01742,0.07418 0.03784,0.14007 0.04531,0.1464c0.00748,0.00633 0.02766,0.06843 0.04485,0.138c0.01719,0.06958 0.05566,0.15123 0.0855,0.18141c0.02979,0.03019 0.05422,0.06222 0.05422,0.07119c0,0.00903 0.01926,0.03858 0.04284,0.06572c0.02352,0.0272 0.05635,0.11414 0.07285,0.19332c0.01656,0.07912 0.03847,0.1495 0.04876,0.15646c0.02582,0.01737 0.08855,0.69535 0.08855,0.95709c0,0.12788 0.00932,0.21482 0.023,0.21482c0.01265,0 0.023,0.02588 0.023,0.0575c0,0.03163 -0.0088,0.0575 -0.01961,0.0575c-0.01075,0 -0.0257,0.21476 -0.03324,0.47725c-0.01426,0.4983 -0.05192,0.88585 -0.0874,0.8989c-0.01139,0.00426 -0.02076,0.02714 -0.02076,0.05095c0,0.06486 -0.06889,0.25507 -0.10574,0.29193c-0.01771,0.01777 -0.03226,0.04681 -0.03226,0.06457c0,0.01783 -0.02455,0.04842 -0.05451,0.06808c-0.03939,0.02576 -0.06256,0.07377 -0.08366,0.17302c-0.01599,0.0755 -0.03674,0.13731 -0.04606,0.13731c-0.00926,0 -0.02381,0.04399 -0.03226,0.09775c-0.02082,0.13288 -0.06469,0.2549 -0.09965,0.27715c-0.01587,0.01012 -0.02887,0.03232 -0.02887,0.04934c0,0.01702 -0.0479,0.08119 -0.10649,0.1426c-0.05854,0.06141 -0.12075,0.1453 -0.13829,0.18642c-0.01754,0.04111 -0.04065,0.07475 -0.05141,0.07475c-0.01075,0 -0.03812,0.04916 -0.06078,0.10925c-0.02266,0.06009 -0.05509,0.11753 -0.07211,0.12765c-0.01702,0.01012 -0.03094,0.03318 -0.03094,0.05123c0,0.01806 -0.02846,0.05089 -0.06325,0.07303c-0.03479,0.02214 -0.07153,0.05342 -0.08165,0.06952c-0.01012,0.01616 -0.03082,0.02933 -0.04606,0.02933c-0.04037,0 -0.15404,0.12731 -0.15404,0.17244c0,0.05451 -0.24139,0.28756 -0.29779,0.28756c-0.02576,0 -0.05974,0.0207 -0.07556,0.046c-0.01581,0.0253 -0.04198,0.046 -0.05819,0.046c-0.01622,0 -0.04186,0.0272 -0.05698,0.06049c-0.04399,0.09643 -0.13714,0.18291 -0.23029,0.21361c-0.04738,0.01564 -0.08619,0.036 -0.08619,0.04514c0,0.00914 -0.05175,0.03531 -0.115,0.05802c-0.06325,0.02277 -0.115,0.04985 -0.115,0.0602c0,0.01041 -0.03214,0.02593 -0.07142,0.03456c-0.04129,0.00909 -0.11747,0.06273 -0.18055,0.12713c-0.06716,0.0686 -0.14582,0.12294 -0.20459,0.14128c-0.0525,0.01639 -0.09545,0.03651 -0.09545,0.04474c0,0.00822 -0.09833,0.03347 -0.2185,0.05612c-0.12018,0.02266 -0.2185,0.04842 -0.2185,0.05727c0,0.00891 -0.05687,0.02323 -0.12633,0.03191c-0.07964,0.00995 -0.13702,0.03059 -0.15525,0.05583c-0.01593,0.02202 -0.07544,0.05848 -0.13237,0.08096c-0.05687,0.02248 -0.10879,0.04957 -0.11535,0.0602c-0.01748,0.02823 -0.50272,0.09154 -0.70202,0.09154c-0.09913,0 -0.1717,0.00972 -0.1717,0.023c0,0.01328 -0.07285,0.023 -0.1725,0.023c-0.09965,0 -0.1725,-0.00972 -0.1725,-0.023c0,-0.01294 -0.06434,-0.023 -0.14697,-0.023c-0.18682,0 -0.51612,-0.06181 -0.5593,-0.105c-0.01817,-0.01817 -0.04198,-0.03301 -0.05296,-0.03301c-0.01098,0 -0.05394,-0.03105 -0.09545,-0.069c-0.04157,-0.03795 -0.09321,-0.069 -0.11483,-0.069c-0.02156,0 -0.0529,-0.01328 -0.06958,-0.02956c-0.01673,-0.01627 -0.09712,-0.04796 -0.17871,-0.07038c-0.08499,-0.02335 -0.16163,-0.05986 -0.17957,-0.08545c-0.01719,-0.02455 -0.04617,-0.04462 -0.06446,-0.04462c-0.01823,0 -0.03318,-0.01495 -0.03318,-0.03318c0,-0.01829 -0.01944,-0.04686 -0.04324,-0.06354c-0.02381,-0.01662 -0.04715,-0.05049 -0.05192,-0.07521c-0.00581,-0.03002 -0.03715,-0.05169 -0.09476,-0.06526c-0.04732,-0.01121 -0.08608,-0.02973 -0.08608,-0.04111c0,-0.01139 -0.01392,-0.0207 -0.03099,-0.0207c-0.05658,0 -0.17601,-0.07188 -0.17601,-0.10592c0,-0.01846 -0.01478,-0.03922 -0.03278,-0.04612c-0.01806,-0.0069 -0.04014,-0.05578 -0.04905,-0.1085c-0.01409,-0.08297 -0.0188,-0.08913 -0.03508,-0.04531c-0.02237,0.06032 -0.13495,0.19084 -0.16457,0.19084c-0.01144,0 -0.03571,0.01489 -0.05394,0.03312c-0.07055,0.07055 -0.4466,0.06101 -0.4466,-0.01133c0,-0.01001 -0.0341,-0.0295 -0.07579,-0.04324c-0.08522,-0.02812 -0.1821,-0.09735 -0.26778,-0.1913c-0.03174,-0.03479 -0.07055,-0.06325 -0.08625,-0.06325c-0.0157,0 -0.03968,-0.0207 -0.05319,-0.046c-0.01351,-0.0253 -0.03743,-0.046 -0.05313,-0.046c-0.0157,0 -0.07078,-0.04491 -0.12242,-0.09976c-0.05164,-0.05491 -0.11115,-0.10643 -0.13219,-0.11448c-0.02105,-0.00811 -0.04433,-0.03042 -0.05169,-0.04962c-0.00736,-0.01921 -0.05762,-0.07975 -0.11167,-0.13461c-0.05411,-0.0548 -0.10517,-0.12121 -0.11351,-0.14749c-0.00834,-0.02628 -0.0303,-0.05359 -0.04876,-0.06066c-0.01852,-0.00713 -0.03387,-0.02622 -0.0341,-0.04238c-0.00029,-0.01622 -0.06239,-0.09051 -0.138,-0.16508c-0.07567,-0.07464 -0.13754,-0.14967 -0.13754,-0.16675c0,-0.01714 -0.00983,-0.03117 -0.02185,-0.03117c-0.01196,0 -0.04014,-0.05951 -0.06262,-0.13225c-0.02243,-0.07274 -0.04623,-0.13743 -0.0529,-0.14375c-0.00667,-0.00633 -0.03186,-0.05031 -0.05601,-0.09775c-0.02415,-0.04744 -0.05796,-0.08625 -0.07527,-0.08625c-0.01725,0 -0.04313,-0.02588 -0.05756,-0.0575c-0.01438,-0.03163 -0.03404,-0.0575 -0.04364,-0.0575c-0.0096,0 -0.03536,-0.05434 -0.05721,-0.12075c-0.02185,-0.06641 -0.04813,-0.12627 -0.05842,-0.13306c-0.01029,-0.00673 -0.03663,-0.1154 -0.05865,-0.2415c-0.02197,-0.12604 -0.04652,-0.23437 -0.05457,-0.2407c-0.00805,-0.00633 -0.02674,-0.07285 -0.04152,-0.14783c-0.01478,-0.07498 -0.04612,-0.15422 -0.06958,-0.17612c-0.02346,-0.02185 -0.05526,-0.08976 -0.07067,-0.15082c-0.01535,-0.06112 -0.03703,-0.11673 -0.04819,-0.12363c-0.10166,-0.06285 -0.10224,-1.84328 -0.00063,-1.9082c0.01024,-0.00656 0.02616,-0.05698 0.03536,-0.11207c0.00926,-0.05514 0.03381,-0.11811 0.05457,-0.13996c0.06463,-0.06797 0.08913,-0.12541 0.10615,-0.24955c0.00909,-0.0659 0.02588,-0.11983 0.03738,-0.11983c0.01144,0 0.02082,-0.02565 0.02082,-0.05704c0,-0.07763 0.07228,-0.43464 0.09091,-0.44896c0.00822,-0.00633 0.03329,-0.06038 0.05566,-0.12006c0.04186,-0.11167 0.13478,-0.22833 0.20188,-0.25352c0.02237,-0.00834 0.04445,-0.05273 0.05376,-0.10781c0.00874,-0.05146 0.02363,-0.09361 0.03318,-0.09361c0.00955,0 0.02921,-0.03973 0.04376,-0.08826c0.01455,-0.04853 0.04727,-0.11218 0.07268,-0.14151c0.02536,-0.02933 0.04617,-0.06636 0.04617,-0.0824c0,-0.04065 0.16192,-0.21683 0.1993,-0.21683c0.01691,0 0.03071,-0.00776 0.03076,-0.01725c0,-0.00949 0.03111,-0.05348 0.06912,-0.09775c0.03795,-0.04428 0.07544,-0.1004 0.08326,-0.12472c0.02846,-0.08872 0.22488,-0.28928 0.2833,-0.28928c0.04807,0 0.15439,-0.09999 0.17486,-0.16445c0.01926,-0.06072 0.15715,-0.1959 0.22023,-0.21597c0.02812,-0.00891 0.07199,-0.03565 0.09752,-0.0594c0.02547,-0.02375 0.05917,-0.04318 0.07487,-0.04318c0.0157,0 0.04221,-0.01305 0.05888,-0.02904c0.01673,-0.01599 0.06147,-0.04893 0.09942,-0.07326c0.03795,-0.02432 0.08786,-0.0682 0.11092,-0.09746c0.02306,-0.02927 0.0556,-0.05325 0.07228,-0.05325c0.01673,0 0.03634,-0.01553 0.04364,-0.0345c0.00725,-0.01898 0.02714,-0.0345 0.0441,-0.0345c0.01696,0 0.05169,-0.01938 0.07711,-0.04307c0.04054,-0.03778 0.29457,-0.11793 0.37381,-0.11793c0.01593,0 0.04445,-0.01553 0.06342,-0.0345c0.01898,-0.01898 0.05388,-0.0345 0.07757,-0.0345c0.02369,0 0.05658,-0.0188 0.07308,-0.0418c0.01656,-0.023 0.0663,-0.06181 0.11057,-0.08625c0.04428,-0.02444 0.08568,-0.04968 0.092,-0.05606c0.02087,-0.0211 0.17078,-0.06682 0.27025,-0.0824c0.05376,-0.00845 0.09775,-0.02306 0.09775,-0.03249c0,-0.00937 0.15266,-0.0295 0.33925,-0.04474c0.18659,-0.01524 0.35995,-0.0314 0.38525,-0.03588c0.10597,-0.01886 1.18554,0.01075 1.32825,0.03646m-1.0676,3.60928c-0.04163,0.03801 -0.09608,0.07561 -0.1211,0.08355c-0.02496,0.00794 -0.05957,0.02858 -0.07688,0.04589c-0.01731,0.01725 -0.07199,0.03789 -0.12161,0.04583c-0.04962,0.00794 -0.11874,0.03904 -0.15364,0.06917c-0.03485,0.03013 -0.08154,0.06055 -0.10367,0.06762c-0.02214,0.00713 -0.04025,0.02036 -0.04025,0.02944c0,0.00903 -0.03105,0.03479 -0.069,0.05721c-0.03795,0.02243 -0.069,0.05319 -0.069,0.06837c0,0.01518 -0.03623,0.06089 -0.0805,0.10149c-0.04428,0.04065 -0.0805,0.08976 -0.0805,0.10914c0,0.01932 -0.00955,0.03519 -0.02122,0.03519c-0.03059,0 -0.06636,0.1265 -0.08458,0.299c-0.00868,0.08223 -0.02306,0.15468 -0.03191,0.161c-0.0088,0.00633 -0.03341,0.15071 -0.05457,0.32091c-0.02122,0.17014 -0.04675,0.31504 -0.05681,0.322c-0.01006,0.0069 -0.03111,0.0713 -0.04681,0.143c-0.0199,0.09074 -0.04474,0.14105 -0.08177,0.16526c-0.10459,0.06854 -0.09074,0.12437 0.03531,0.14168c0.06181,0.00851 0.11236,0.02484 0.11236,0.03634c0,0.01144 0.01852,0.02082 0.04117,0.02082c0.069,0 0.30337,0.06705 0.34144,0.09769c0.03726,0.03002 0.12581,0.11742 0.18251,0.18026c0.01811,0.02001 0.03289,0.05365 0.03289,0.07475c0,0.02105 0.00874,0.0383 0.01949,0.0383c0.0107,0 0.04083,0.01852 0.06693,0.04117c0.02691,0.02335 0.12552,0.05428 0.22776,0.07142c0.09919,0.01662 0.18676,0.0406 0.19464,0.05325c0.02254,0.03605 0.73842,0.03692 0.75043,0.00092c0.00529,-0.01581 0.0341,-0.02875 0.06406,-0.02875c0.0901,0 0.28543,-0.04807 0.31579,-0.07768c0.01564,-0.0153 0.06107,-0.04111 0.10097,-0.05744c0.03991,-0.01627 0.07774,-0.04939 0.08401,-0.07349c0.00633,-0.02409 0.03835,-0.05405 0.07119,-0.06653c0.03289,-0.01248 0.05974,-0.0314 0.05974,-0.04198c0,-0.01058 0.01863,-0.03927 0.0414,-0.06383c0.02277,-0.0245 0.06158,-0.08062 0.08625,-0.12466c0.02467,-0.04405 0.05635,-0.09252 0.07044,-0.1077c0.01403,-0.01518 0.03214,-0.069 0.04025,-0.11954c0.00805,-0.05054 0.0276,-0.10557 0.04341,-0.1223c0.01581,-0.01668 0.04669,-0.06917 0.06866,-0.11661c0.02191,-0.04744 0.0487,-0.08625 0.05957,-0.08625c0.02789,0 0.06912,-0.20913 0.08384,-0.4255c0.0069,-0.1012 0.02283,-0.18745 0.03536,-0.19165c0.01254,-0.00426 0.02283,-0.02524 0.02283,-0.04675c0,-0.02151 0.01374,-0.09206 0.03053,-0.15686c0.03784,-0.14582 0.00713,-0.19774 -0.13978,-0.23633c-0.05376,-0.01415 -0.09787,-0.03306 -0.09804,-0.04203c-0.00012,-0.00903 -0.03973,-0.03531 -0.08798,-0.05842c-0.06567,-0.0314 -0.09833,-0.06762 -0.12972,-0.14375c-0.02306,-0.05595 -0.0552,-0.10172 -0.07136,-0.10172c-0.01616,0 -0.04307,-0.01351 -0.05974,-0.03007c-0.01673,-0.01656 -0.07952,-0.04376 -0.1395,-0.06043c-0.06003,-0.01673 -0.13766,-0.05491 -0.1725,-0.08493c-0.0349,-0.02996 -0.07561,-0.05451 -0.09051,-0.05457c-0.01495,0 -0.04083,-0.01294 -0.0575,-0.02875c-0.01673,-0.01581 -0.08539,-0.0475 -0.15266,-0.0705c-0.06722,-0.02294 -0.14226,-0.06176 -0.16675,-0.08625c-0.08269,-0.08269 -0.52498,-0.06526 -0.62336,0.02461" fill="#f83333" fill-rule="evenodd" stroke="null"/>
  <path id="path3" d="m10.9825,6.31339c-0.0253,0.00449 -0.19866,0.02064 -0.38525,0.03588c-0.18659,0.01524 -0.33925,0.03536 -0.33925,0.04474c0,0.00943 -0.04399,0.02404 -0.09775,0.03249c-0.09948,0.01558 -0.24938,0.0613 -0.27025,0.0824c-0.00633,0.00638 -0.04773,0.03163 -0.092,0.05606c-0.04428,0.02444 -0.09401,0.06325 -0.11057,0.08625c-0.0165,0.023 -0.04939,0.0418 -0.07308,0.0418c-0.02369,0 -0.05859,0.01553 -0.07757,0.0345c-0.01898,0.01898 -0.0475,0.0345 -0.06342,0.0345c-0.07924,0 -0.33327,0.08016 -0.37381,0.11793c-0.02542,0.02369 -0.06015,0.04307 -0.07711,0.04307c-0.01696,0 -0.03686,0.01553 -0.0441,0.0345c-0.0073,0.01898 -0.02691,0.0345 -0.04364,0.0345c-0.01668,0 -0.04922,0.02398 -0.07228,0.05325c-0.02306,0.02927 -0.07297,0.07314 -0.11092,0.09746c-0.03795,0.02432 -0.08269,0.05727 -0.09942,0.07326c-0.01668,0.01599 -0.04318,0.02904 -0.05888,0.02904c-0.0157,0 -0.04939,0.01944 -0.07487,0.04318c-0.02553,0.02375 -0.0694,0.05049 -0.09752,0.0594c-0.06308,0.02007 -0.20096,0.15525 -0.22023,0.21597c-0.02047,0.06446 -0.12679,0.16445 -0.17486,0.16445c-0.05842,0 -0.25484,0.20056 -0.2833,0.28928c-0.00782,0.02432 -0.04531,0.08044 -0.08326,0.12472c-0.03801,0.04428 -0.06912,0.08826 -0.06912,0.09775c-0.00006,0.00949 -0.01386,0.01725 -0.03076,0.01725c-0.03738,0 -0.1993,0.17618 -0.1993,0.21683c0,0.01604 -0.02082,0.05307 -0.04617,0.0824c-0.02542,0.02933 -0.05813,0.09298 -0.07268,0.14151c-0.01455,0.04853 -0.03421,0.08826 -0.04376,0.08826c-0.00955,0 -0.02444,0.04215 -0.03318,0.09361c-0.00932,0.05509 -0.0314,0.09948 -0.05376,0.10781c-0.0671,0.02519 -0.16002,0.14185 -0.20188,0.25352c-0.02237,0.05969 -0.04744,0.11374 -0.05566,0.12006c-0.01863,0.01432 -0.09091,0.37134 -0.09091,0.44896c0,0.0314 -0.00937,0.05704 -0.02082,0.05704c-0.0115,0 -0.02829,0.05394 -0.03738,0.11983c-0.01702,0.12414 -0.04152,0.18159 -0.10615,0.24955c-0.02076,0.02185 -0.04531,0.08481 -0.05457,0.13996c-0.0092,0.05509 -0.02513,0.10551 -0.03536,0.11207c-0.1016,0.06492 -0.10103,1.84535 0.00063,1.9082c0.01116,0.0069 0.03283,0.0625 0.04819,0.12363c0.01541,0.06107 0.04721,0.12897 0.07067,0.15082c0.02346,0.02191 0.0548,0.10114 0.06958,0.17612c0.01478,0.07498 0.03347,0.14151 0.04152,0.14783c0.00805,0.00633 0.0326,0.11466 0.05457,0.2407c0.02202,0.1261 0.04836,0.23477 0.05865,0.2415c0.01029,0.00679 0.03657,0.06664 0.05842,0.13306c0.02185,0.06641 0.04761,0.12075 0.05721,0.12075c0.0096,0 0.02927,0.02588 0.04364,0.0575c0.01443,0.03163 0.04031,0.0575 0.05756,0.0575c0.01731,0 0.05112,0.03881 0.07527,0.08625c0.02415,0.04744 0.04934,0.09143 0.05601,0.09775c0.00667,0.00633 0.03048,0.07101 0.0529,0.14375c0.02248,0.07274 0.05066,0.13225 0.06262,0.13225c0.01202,0 0.02185,0.01403 0.02185,0.03117c0,0.01708 0.06187,0.09212 0.13754,0.16675c0.07561,0.07458 0.13771,0.14887 0.138,0.16508c0.00023,0.01616 0.01558,0.03525 0.0341,0.04238c0.01846,0.00707 0.04042,0.03439 0.04876,0.06066c0.00834,0.02628 0.0594,0.09269 0.11351,0.14749c0.05405,0.05486 0.10431,0.1154 0.11167,0.13461c0.00736,0.01921 0.03065,0.04152 0.05169,0.04962c0.02105,0.00805 0.08056,0.05957 0.13219,0.11448c0.05164,0.05486 0.10672,0.09976 0.12242,0.09976c0.0157,0 0.03962,0.0207 0.05313,0.046c0.01351,0.0253 0.03749,0.046 0.05319,0.046c0.0157,0 0.05451,0.02846 0.08625,0.06325c0.08568,0.09396 0.18256,0.16319 0.26778,0.1913c0.04169,0.01374 0.07579,0.03324 0.07579,0.04324c0,0.07234 0.37605,0.08188 0.4466,0.01133c0.01823,-0.01823 0.04249,-0.03312 0.05394,-0.03312c0.02961,0 0.1422,-0.13053 0.16457,-0.19084c0.01627,-0.04382 0.02099,-0.03766 0.03508,0.04531c0.00891,0.05273 0.03099,0.1016 0.04905,0.1085c0.018,0.0069 0.03278,0.02766 0.03278,0.04612c0,0.03404 0.11943,0.10592 0.17601,0.10592c0.01708,0 0.03099,0.00932 0.03099,0.0207c0,0.01139 0.03876,0.0299 0.08608,0.04111c0.05762,0.01357 0.08895,0.03525 0.09476,0.06526c0.00477,0.02473 0.02812,0.05859 0.05192,0.07521c0.02381,0.01668 0.04324,0.04525 0.04324,0.06354c0,0.01823 0.01495,0.03318 0.03318,0.03318c0.01829,0 0.04727,0.02007 0.06446,0.04462c0.01794,0.02559 0.09459,0.0621 0.17957,0.08545c0.08159,0.02243 0.16198,0.05411 0.17871,0.07038c0.01668,0.01627 0.04801,0.02956 0.06958,0.02956c0.02162,0 0.07326,0.03105 0.11483,0.069c0.04152,0.03795 0.08447,0.069 0.09545,0.069c0.01098,0 0.03479,0.01484 0.05296,0.03301c0.04318,0.04318 0.37249,0.105 0.5593,0.105c0.08263,0 0.14697,0.01006 0.14697,0.023c0,0.01328 0.07285,0.023 0.1725,0.023c0.09965,0 0.1725,-0.00972 0.1725,-0.023c0,-0.01328 0.07257,-0.023 0.1717,-0.023c0.1993,0 0.68454,-0.06331 0.70202,-0.09154c0.00656,-0.01064 0.05848,-0.03772 0.11535,-0.0602c0.05693,-0.02248 0.11644,-0.05894 0.13237,-0.08096c0.01823,-0.02524 0.07561,-0.04589 0.15525,-0.05583c0.06946,-0.00868 0.12633,-0.023 0.12633,-0.03191c0,-0.00886 0.09833,-0.03462 0.2185,-0.05727c0.12018,-0.02266 0.2185,-0.0479 0.2185,-0.05612c0,-0.00822 0.04295,-0.02835 0.09545,-0.04474c0.05877,-0.01834 0.13743,-0.07268 0.20459,-0.14128c0.06308,-0.0644 0.13927,-0.11805 0.18055,-0.12713c0.03927,-0.00863 0.07142,-0.02415 0.07142,-0.03456c0,-0.01035 0.05175,-0.03743 0.115,-0.0602c0.06325,-0.02271 0.115,-0.04888 0.115,-0.05802c0,-0.00914 0.03881,-0.0295 0.08619,-0.04514c0.09315,-0.03071 0.1863,-0.11719 0.23029,-0.21361c0.01512,-0.03329 0.04077,-0.06049 0.05698,-0.06049c0.01622,0 0.04238,-0.0207 0.05819,-0.046c0.01581,-0.0253 0.0498,-0.046 0.07556,-0.046c0.05641,0 0.29779,-0.23305 0.29779,-0.28756c0,-0.04514 0.11368,-0.17244 0.15404,-0.17244c0.01524,0 0.03594,-0.01317 0.04606,-0.02933c0.01012,-0.0161 0.04686,-0.04738 0.08165,-0.06952c0.03479,-0.02214 0.06325,-0.05497 0.06325,-0.07303c0,-0.01806 0.01392,-0.04111 0.03094,-0.05123c0.01702,-0.01012 0.04945,-0.06756 0.07211,-0.12765c0.02266,-0.06009 0.05003,-0.10925 0.06078,-0.10925c0.01075,0 0.03387,-0.03364 0.05141,-0.07475c0.01754,-0.04111 0.07975,-0.12501 0.13829,-0.18642c0.05859,-0.06141 0.10649,-0.12558 0.10649,-0.1426c0,-0.01702 0.013,-0.03922 0.02887,-0.04934c0.03496,-0.02225 0.07883,-0.14427 0.09965,-0.27715c0.00845,-0.05376 0.023,-0.09775 0.03226,-0.09775c0.00932,0 0.03007,-0.06181 0.04606,-0.13731c0.0211,-0.09925 0.04428,-0.14726 0.08366,-0.17302c0.02996,-0.01967 0.05451,-0.05026 0.05451,-0.06808c0,-0.01777 0.01455,-0.04681 0.03226,-0.06457c0.03686,-0.03686 0.10574,-0.22707 0.10574,-0.29193c0,-0.02381 0.00937,-0.04669 0.02076,-0.05095c0.03548,-0.01305 0.07314,-0.4006 0.0874,-0.8989c0.00753,-0.26249 0.02248,-0.47725 0.03324,-0.47725c0.01081,0 0.01961,-0.02588 0.01961,-0.0575c0,-0.03163 -0.01035,-0.0575 -0.023,-0.0575c-0.01369,0 -0.023,-0.08694 -0.023,-0.21482c0,-0.26174 -0.06273,-0.93972 -0.08855,-0.95709c-0.01029,-0.00696 -0.0322,-0.07734 -0.04876,-0.15646c-0.0165,-0.07918 -0.04934,-0.16612 -0.07285,-0.19332c-0.02358,-0.02714 -0.04284,-0.0567 -0.04284,-0.06572c0,-0.00897 -0.02444,-0.041 -0.05422,-0.07119c-0.02984,-0.03019 -0.06831,-0.11184 -0.0855,-0.18141c-0.01719,-0.06958 -0.03738,-0.13168 -0.04485,-0.138c-0.00748,-0.00633 -0.02789,-0.07222 -0.04531,-0.1464c-0.01748,-0.07423 -0.04531,-0.14852 -0.06193,-0.16514c-0.01662,-0.01662 -0.03019,-0.04008 -0.03019,-0.05221c0,-0.06291 -0.17543,-0.28026 -0.22626,-0.28026c-0.01305,0 -0.03686,-0.03623 -0.05284,-0.0805c-0.01604,-0.04428 -0.03628,-0.0805 -0.04497,-0.0805c-0.00868,0 -0.02254,-0.03582 -0.03076,-0.07958c-0.01541,-0.0824 -0.16025,-0.26542 -0.20999,-0.26542c-0.01553,0 -0.03421,-0.01553 -0.04152,-0.0345c-0.00725,-0.01898 -0.03197,-0.0345 -0.05491,-0.0345c-0.02956,0 -0.0506,-0.03013 -0.07228,-0.1035c-0.01679,-0.05693 -0.0395,-0.1035 -0.05043,-0.1035c-0.01093,0 -0.03473,-0.02875 -0.0529,-0.06388c-0.01852,-0.03582 -0.06935,-0.07814 -0.11558,-0.09631c-0.04543,-0.01783 -0.08257,-0.03979 -0.08257,-0.04888c0,-0.00903 -0.03105,-0.02726 -0.069,-0.04048c-0.03795,-0.01323 -0.069,-0.04042 -0.069,-0.06043c0,-0.09723 -0.31182,-0.33402 -0.43982,-0.33402c-0.02375,0 -0.04318,-0.01035 -0.04318,-0.023c0,-0.01265 -0.02047,-0.023 -0.04554,-0.023c-0.06331,0 -0.23046,-0.06935 -0.23046,-0.09562c0,-0.07786 -0.22431,-0.08763 -0.28802,-0.01259c-0.02547,0.02996 -0.09373,0.07625 -0.14898,0.10091c-0.01898,0.00851 -0.03968,0.02237 -0.046,0.03082c-0.03421,0.04577 -0.14214,0.04606 -0.1541,0.0004c-0.00673,-0.02582 -0.02128,-0.04692 -0.03226,-0.04692c-0.01104,0 -0.03513,-0.03623 -0.05365,-0.0805c-0.01852,-0.04428 -0.04451,-0.0805 -0.05785,-0.0805c-0.01328,0 -0.02415,-0.0138 -0.02415,-0.03059c0,-0.01685 -0.02846,-0.04531 -0.06325,-0.06325c-0.03479,-0.018 -0.07694,-0.0456 -0.09367,-0.06141c-0.01668,-0.01581 -0.04531,-0.02875 -0.06354,-0.02875c-0.04267,0 -0.1307,-0.04916 -0.15445,-0.08625c-0.01012,-0.01581 -0.03364,-0.02875 -0.05233,-0.02875c-0.01863,0 -0.04382,-0.02605 -0.05595,-0.0579c-0.01208,-0.03186 -0.04807,-0.06785 -0.07993,-0.07993c-0.03186,-0.01213 -0.0579,-0.03059 -0.0579,-0.04106c0,-0.02225 -0.19993,-0.09741 -0.25875,-0.09723c-0.02214,0.00006 -0.04025,-0.00868 -0.04025,-0.01949c0,-0.05394 -1.25362,-0.12495 -1.4835,-0.08401m1.0871,0.30584c0.00506,0.0153 0.03456,0.02777 0.06555,0.02777c0.07142,0 0.21586,0.05951 0.21586,0.08895c0,0.01225 0.04916,0.04065 0.10925,0.06319c0.06009,0.02254 0.11443,0.04727 0.12075,0.05497c0.00633,0.00771 0.04773,0.02795 0.092,0.04497c0.04428,0.01708 0.09085,0.04238 0.1035,0.05624c0.01265,0.01386 0.0644,0.04577 0.115,0.07096c0.0506,0.02519 0.10028,0.05882 0.1104,0.07475c0.01012,0.01593 0.03318,0.02898 0.05123,0.02898c0.01806,0 0.05118,0.02829 0.0736,0.06285c0.04094,0.06314 0.05118,0.07625 0.15634,0.19924c0.03134,0.03669 0.05693,0.07291 0.05693,0.0805c0.00006,0.00765 0.02593,0.04399 0.0575,0.08073c0.03163,0.03674 0.0575,0.07826 0.0575,0.09229c0,0.01397 0.03605,0.0667 0.08004,0.11713c0.04405,0.05049 0.08027,0.10097 0.0805,0.11224c0.00029,0.01127 0.01656,0.0322 0.03623,0.04663c0.03916,0.02858 0.0778,0.1671 0.07866,0.28175c0.00035,0.04002 0.01351,0.07711 0.02933,0.0824c0.03582,0.01196 0.04065,1.11424 0.005,1.13977c-0.01225,0.0088 -0.04014,0.08602 -0.06199,0.17164c-0.02185,0.08562 -0.0529,0.17181 -0.069,0.19148c-0.09258,0.11333 -0.33781,0.35437 -0.36047,0.35437c-0.01472,0 -0.03249,0.01489 -0.03945,0.03312c-0.03226,0.08401 -0.11546,0.10643 -0.17842,0.04807c-0.0326,-0.03019 -0.09056,-0.07337 -0.12886,-0.09597c-0.03824,-0.02266 -0.06958,-0.04761 -0.06958,-0.05549c0,-0.00794 -0.04249,-0.02841 -0.09447,-0.04554c-0.05192,-0.01714 -0.09959,-0.04468 -0.10592,-0.06118c-0.00633,-0.0165 -0.02519,-0.03002 -0.04192,-0.03002c-0.01668,0 -0.04922,-0.02386 -0.07228,-0.05296c-0.02306,-0.02915 -0.07797,-0.07314 -0.12202,-0.09775c-0.04405,-0.02467 -0.09281,-0.05658 -0.10839,-0.07101c-0.03099,-0.02875 -0.27847,-0.07728 -0.39416,-0.07728c-0.04008,0 -0.07285,-0.01035 -0.07285,-0.023c0,-0.02685 -0.54395,-0.03249 -0.55585,-0.00575c-0.0042,0.00949 -0.09948,0.03588 -0.21166,0.05865c-0.11224,0.02271 -0.21908,0.05635 -0.23742,0.07475c-0.01834,0.01834 -0.04865,0.03335 -0.06728,0.03335c-0.01869,0 -0.08148,0.04681 -0.1395,0.10402c-0.05808,0.05727 -0.13777,0.12196 -0.17716,0.14375c-0.03939,0.02185 -0.07993,0.05267 -0.09005,0.06848c-0.01012,0.01581 -0.03053,0.02875 -0.04543,0.02875c-0.04094,0 -0.17411,0.15939 -0.20533,0.2457c-0.01518,0.04198 -0.0349,0.0763 -0.04382,0.0763c-0.00891,0 -0.03416,0.05693 -0.05606,0.1265c-0.02185,0.06958 -0.0483,0.1265 -0.05871,0.1265c-0.01047,0 -0.03496,0.05376 -0.05445,0.11943c-0.01949,0.06572 -0.04502,0.12535 -0.0567,0.1326c-0.01167,0.00719 -0.03996,0.10615 -0.06285,0.21982c-0.02289,0.11368 -0.04847,0.21183 -0.05687,0.21816c-0.0084,0.00633 -0.02225,0.0736 -0.03088,0.1495c-0.01984,0.1748 -0.05572,0.29383 -0.0958,0.3174c-0.01714,0.01012 -0.03122,0.02979 -0.03122,0.0437c0,0.01392 -0.05434,0.07906 -0.12075,0.14467c-0.15416,0.15243 -0.18124,0.18705 -0.23391,0.29923c-0.02369,0.0506 -0.05031,0.09718 -0.05911,0.1035c-0.00874,0.00633 -0.0345,0.06066 -0.05721,0.12075c-0.02271,0.06009 -0.04899,0.10925 -0.05848,0.10925c-0.00943,0 -0.02323,0.01811 -0.03071,0.04025c-0.01673,0.04985 -0.05974,0.115 -0.11259,0.17049c-0.02214,0.02323 -0.04025,0.05704 -0.04025,0.0751c0,0.01811 -0.01541,0.0483 -0.03427,0.06716c-0.0456,0.0456 -0.10373,0.46776 -0.10373,0.75308c0,0.1568 -0.00863,0.2281 -0.02875,0.23753c-0.023,0.0107 -0.023,0.0161 0,0.0268c0.0203,0.00949 0.02887,0.08533 0.02915,0.25875c0.00023,0.13495 0.01001,0.33672 0.02179,0.44833c0.02513,0.23914 0.00909,0.29624 -0.09499,0.33839c-0.04221,0.01708 -0.08464,0.04198 -0.09436,0.05532c-0.0115,0.01581 -0.02599,0.01024 -0.0414,-0.01593c-0.01305,-0.02214 -0.03686,-0.04025 -0.05284,-0.04025c-0.03341,0 -0.17561,-0.15335 -0.17561,-0.18935c0,-0.0291 -0.09769,-0.12184 -0.1675,-0.15899c-0.07464,-0.03968 -0.1775,-0.14145 -0.1775,-0.17555c0,-0.01627 -0.01501,-0.03531 -0.03341,-0.04238c-0.01834,-0.00702 -0.04474,-0.04732 -0.05865,-0.08947c-0.01392,-0.04221 -0.092,-0.14335 -0.17348,-0.22483c-0.11425,-0.11431 -0.15715,-0.17647 -0.18739,-0.27203c-0.02162,-0.06814 -0.04594,-0.12909 -0.05405,-0.13541c-0.00811,-0.00633 -0.03329,-0.06066 -0.05601,-0.12075c-0.02271,-0.06009 -0.04853,-0.10925 -0.05744,-0.10925c-0.00891,0 -0.03025,-0.04249 -0.04738,-0.09447c-0.01714,-0.05192 -0.04336,-0.09907 -0.05831,-0.10482c-0.01489,-0.00575 -0.04623,-0.05382 -0.06963,-0.10684c-0.02335,-0.05302 -0.05129,-0.10264 -0.06204,-0.11029c-0.01075,-0.00765 -0.03582,-0.11115 -0.05572,-0.23c-0.01984,-0.11885 -0.04324,-0.22126 -0.05198,-0.22759c-0.0184,-0.01328 -0.09252,-0.55332 -0.09252,-0.67396c0,-0.04468 -0.01098,-0.08487 -0.02444,-0.08936c-0.03329,-0.0111 -0.03939,-0.95916 -0.00633,-0.98072c0.01311,-0.00851 0.03053,-0.09309 0.0387,-0.18797c0.02731,-0.31631 0.06883,-0.598 0.08803,-0.598c0.01047,0 0.01903,-0.02639 0.01903,-0.05871c0,-0.07533 0.06998,-0.38617 0.09039,-0.40129c0.00851,-0.00633 0.03393,-0.06066 0.05647,-0.12075c0.02254,-0.06009 0.04968,-0.10925 0.06038,-0.10925c0.0107,0 0.03772,-0.0414 0.06003,-0.092c0.02231,-0.0506 0.04727,-0.092 0.05543,-0.092c0.00817,0 0.03462,-0.05951 0.05871,-0.13225c0.02415,-0.07274 0.04939,-0.13743 0.05612,-0.14375c0.00673,-0.00633 0.03266,-0.05779 0.05762,-0.11437c0.02496,-0.05658 0.08936,-0.14686 0.14312,-0.20062c0.05376,-0.05382 0.09775,-0.10689 0.09775,-0.11805c0,-0.01116 0.02559,-0.0502 0.05693,-0.08688c0.10528,-0.12317 0.11546,-0.13616 0.15738,-0.20073c0.07901,-0.12184 0.25524,-0.31435 0.28773,-0.31435c0.0096,0 0.0659,-0.05135 0.12512,-0.11408c0.05928,-0.06279 0.1326,-0.13041 0.16296,-0.15031c0.03042,-0.01995 0.10419,-0.08246 0.16399,-0.13892c0.0598,-0.05647 0.12156,-0.1027 0.13731,-0.1027c0.0157,0 0.05192,-0.02024 0.08044,-0.04502c0.02852,-0.02473 0.08706,-0.05658 0.13001,-0.07078c0.04295,-0.01415 0.07814,-0.03531 0.07814,-0.04698c0,-0.01167 0.01478,-0.02122 0.03283,-0.02122c0.01806,0 0.05169,-0.02398 0.07475,-0.05325c0.02306,-0.02927 0.07297,-0.07314 0.11092,-0.09746c0.03795,-0.02432 0.0805,-0.05509 0.09453,-0.06837c0.01403,-0.01334 0.09424,-0.03789 0.17825,-0.05457c0.08401,-0.01668 0.15272,-0.03887 0.15272,-0.04928c0,-0.01041 0.08021,-0.03663 0.17825,-0.05831c0.09804,-0.02162 0.18343,-0.0464 0.18975,-0.05503c0.00633,-0.00863 0.06153,-0.02938 0.12265,-0.04623c0.06107,-0.01679 0.12317,-0.04261 0.138,-0.05733c0.02898,-0.02892 0.30527,-0.10419 0.38232,-0.10419c0.02588,0 0.04704,-0.00983 0.04704,-0.02179c0,-0.05077 1.24269,-0.0567 1.2596,-0.00598m2.5361,1.08784c0.0203,0.06153 0.05198,0.09792 0.11161,0.12817c0.04577,0.02323 0.08838,0.04796 0.0947,0.05486c0.00633,0.00696 0.05509,0.02536 0.10833,0.04094c0.06572,0.01921 0.10983,0.05026 0.1372,0.0966c0.0222,0.03761 0.04738,0.06837 0.05595,0.06837c0.00857,0 0.02202,0.02576 0.0299,0.05727c0.01426,0.05687 0.15634,0.21229 0.27226,0.29785c0.03324,0.02455 0.07849,0.09183 0.10051,0.1495c0.02202,0.05767 0.05371,0.11851 0.07044,0.13524c0.01673,0.01673 0.03042,0.0452 0.03042,0.06331c0,0.01806 0.01857,0.05141 0.04123,0.07406c0.02271,0.02271 0.05486,0.07418 0.07153,0.11437c0.01668,0.04025 0.05244,0.09798 0.07952,0.12828c0.02708,0.03036 0.06532,0.07498 0.08499,0.09919c0.04548,0.05595 0.11374,0.22546 0.11374,0.2825c0,0.02398 0.0084,0.04704 0.01863,0.05129c0.01029,0.0042 0.03657,0.0901 0.05848,0.1909c0.02191,0.10074 0.04773,0.18872 0.05744,0.1955c0.00966,0.00673 0.0368,0.09764 0.06026,0.202c0.02352,0.10436 0.05049,0.18975 0.05997,0.18975c0.00955,0 0.03588,0.08021 0.05854,0.17825c0.02271,0.09804 0.04876,0.1836 0.05796,0.19015c0.06003,0.0429 0.05704,1.47068 -0.00311,1.49069c-0.01277,0.00426 -0.02317,0.02639 -0.02317,0.04916c0,0.05031 -0.07239,0.28365 -0.09292,0.29975c-0.00811,0.00633 -0.03387,0.08395 -0.05727,0.1725c-0.02335,0.08855 -0.04899,0.16618 -0.05698,0.1725c-0.00799,0.00633 -0.03249,0.10442 -0.05451,0.21798c-0.02202,0.11356 -0.04876,0.21189 -0.05946,0.2185c-0.0107,0.00661 -0.03519,0.07234 -0.0544,0.14599c-0.02455,0.0939 -0.05848,0.1568 -0.11333,0.21011c-0.04313,0.04186 -0.09614,0.11351 -0.11782,0.15928c-0.02174,0.04571 -0.04709,0.08315 -0.05635,0.08315c-0.00932,0 -0.03071,0.04675 -0.04761,0.10385c-0.01685,0.0571 -0.04359,0.11144 -0.0594,0.12075c-0.01581,0.00932 -0.04594,0.05054 -0.06693,0.09166c-0.02105,0.04111 -0.0483,0.07475 -0.06061,0.07475c-0.01236,0 -0.02243,0.01317 -0.02243,0.02933c0,0.0161 -0.06239,0.09631 -0.13863,0.17825c-0.07625,0.08188 -0.16485,0.17998 -0.19688,0.21793c-0.10321,0.12236 -0.23058,0.25179 -0.29411,0.299c-0.0341,0.0253 -0.09493,0.07446 -0.1353,0.10925c-0.04031,0.03479 -0.08619,0.06325 -0.10189,0.06325c-0.0157,0 -0.03968,0.0207 -0.05319,0.046c-0.01351,0.0253 -0.03749,0.046 -0.05319,0.046c-0.0157,0 -0.0548,0.02846 -0.08683,0.06325c-0.08401,0.09131 -0.15496,0.14438 -0.24058,0.18021c-0.04134,0.01725 -0.07872,0.03956 -0.08303,0.04957c-0.00437,0.00995 -0.06739,0.03663 -0.14013,0.05923c-0.07274,0.0226 -0.13225,0.05095 -0.13225,0.06291c0,0.01202 -0.01294,0.02202 -0.02875,0.02231c-0.01581,0.00023 -0.069,0.03559 -0.11822,0.07855c-0.04922,0.04295 -0.12426,0.08464 -0.16675,0.09258c-0.04249,0.00799 -0.07728,0.02312 -0.07728,0.03364c0,0.02248 -0.27025,0.09378 -0.35547,0.09378c-0.0322,0 -0.05854,0.00811 -0.05854,0.018c0,0.0176 -0.4684,0.09792 -0.56735,0.09735c-0.02737,-0.00023 -0.05325,0.00886 -0.0575,0.02018c-0.03105,0.08315 -1.21515,0.08539 -1.21515,0.0023c0,-0.00966 -0.04916,-0.02432 -0.10925,-0.03255c-0.15335,-0.02099 -0.32775,-0.06515 -0.32775,-0.08297c0,-0.00828 -0.06469,-0.03444 -0.14375,-0.05819c-0.07906,-0.02375 -0.16382,-0.06164 -0.18831,-0.08418c-0.02455,-0.02248 -0.05302,-0.04094 -0.06325,-0.04094c-0.01029,0 -0.01869,-0.01369 -0.01869,-0.03036c0,-0.03358 -0.29181,-0.31464 -0.32666,-0.31464c-0.03864,0 -0.14588,-0.12397 -0.17906,-0.207c-0.01771,-0.04428 -0.03847,-0.08568 -0.04617,-0.092c-0.00771,-0.00633 -0.03318,-0.06325 -0.0567,-0.1265c-0.02346,-0.06325 -0.04911,-0.12018 -0.05693,-0.1265c-0.00782,-0.00633 -0.0326,-0.07101 -0.05503,-0.14375c-0.02248,-0.07274 -0.0483,-0.13225 -0.05739,-0.13225c-0.00914,0 -0.03697,-0.03881 -0.06187,-0.08625c-0.0249,-0.04744 -0.05187,-0.09143 -0.05992,-0.09775c-0.05279,-0.04134 -0.05457,-0.92794 -0.00196,-0.96456c0.01024,-0.00713 0.03663,-0.05175 0.05871,-0.09919c0.02202,-0.04744 0.04945,-0.08625 0.06084,-0.08625c0.01139,0 0.03818,-0.0621 0.05946,-0.138c0.02128,-0.0759 0.04566,-0.138 0.05417,-0.138c0.00845,0 0.03404,-0.05175 0.05675,-0.115c0.02277,-0.06325 0.04899,-0.115 0.05836,-0.115c0.00937,0 0.03094,-0.04399 0.04801,-0.09775c0.04318,-0.13628 0.20637,-0.25984 0.20637,-0.15629c0,0.01208 0.03634,0.02875 0.08073,0.03709c0.04445,0.00834 0.08642,0.02432 0.09338,0.03554c0.00696,0.01121 0.03272,0.02041 0.05727,0.02041c0.02455,0 0.04462,0.0092 0.04462,0.02053c0,0.01127 0.02329,0.02639 0.05175,0.03364c0.02846,0.00725 0.08522,0.04382 0.1261,0.08131c0.04088,0.03749 0.09522,0.07481 0.12075,0.08292c0.02553,0.00811 0.0464,0.02231 0.0464,0.03163c0,0.00932 0.05175,0.03554 0.115,0.05825c0.06325,0.02277 0.115,0.04842 0.115,0.05704c0,0.00863 0.04675,0.02944 0.10385,0.04635c0.0571,0.01685 0.11144,0.04336 0.12075,0.05888c0.07653,0.12794 0.97911,0.13984 1.06335,0.01403c0.00638,-0.00949 0.06072,-0.03582 0.12081,-0.05854c0.06009,-0.02271 0.10925,-0.04819 0.10925,-0.05658c0,-0.00845 0.05175,-0.03398 0.115,-0.0567c0.06325,-0.02277 0.115,-0.04859 0.115,-0.05744c0,-0.00886 0.03433,-0.02846 0.07636,-0.04364c0.08188,-0.02961 0.22264,-0.14381 0.22264,-0.18061c0,-0.01231 0.01817,-0.04244 0.04042,-0.06699c0.02225,-0.0245 0.05917,-0.07372 0.08205,-0.10931c0.06015,-0.09373 0.11052,-0.15468 0.18228,-0.22074c0.03479,-0.03203 0.06325,-0.07073 0.06325,-0.08602c0,-0.01524 0.01438,-0.04209 0.03197,-0.05969c0.03387,-0.03387 0.10603,-0.34471 0.10603,-0.45678c0,-0.03657 0.01035,-0.06653 0.023,-0.06653c0.0134,0 0.023,-0.07653 0.023,-0.18354c0,-0.22563 0.04226,-0.34052 0.17371,-0.47196c0.05348,-0.05348 0.10419,-0.11931 0.11282,-0.14634c0.00857,-0.02703 0.02507,-0.04916 0.03674,-0.04916c0.01162,0 0.03588,-0.03531 0.05394,-0.07849c0.018,-0.04318 0.05181,-0.09942 0.07504,-0.12506c0.02323,-0.02559 0.06296,-0.07481 0.08826,-0.10937c0.0253,-0.03456 0.07291,-0.0897 0.10574,-0.12242c0.03289,-0.03278 0.07377,-0.09833 0.09091,-0.14565c0.01708,-0.04732 0.03899,-0.08602 0.04859,-0.08602c0.02179,0 0.08826,-0.21959 0.08826,-0.2917c0,-0.02933 0.00828,-0.0533 0.01834,-0.0533c0.01955,0 0.09798,-0.42999 0.09712,-0.53285c-0.00023,-0.0337 0.01248,-0.06561 0.02829,-0.0709c0.03916,-0.01305 0.0414,-0.74693 0.00242,-0.77131c-0.06601,-0.04117 -0.08654,-0.42452 -0.03991,-0.74537c0.02099,-0.14433 0.14214,-0.12587 0.19343,0.0295m-2.73919,2.22744c0.0245,0.0245 0.09953,0.06331 0.16675,0.08625c0.06728,0.023 0.13593,0.05468 0.15266,0.0705c0.01668,0.01581 0.04255,0.02875 0.0575,0.02875c0.01489,0.00006 0.0556,0.02461 0.09051,0.05457c0.03485,0.03002 0.11247,0.0682 0.1725,0.08493c0.05997,0.01668 0.12276,0.04387 0.1395,0.06043c0.01668,0.01656 0.04359,0.03007 0.05974,0.03007c0.01616,0 0.0483,0.04577 0.07136,0.10172c0.0314,0.07613 0.06406,0.11236 0.12972,0.14375c0.04824,0.02312 0.08786,0.04939 0.08798,0.05842c0.00017,0.00897 0.04428,0.02789 0.09804,0.04203c0.14691,0.03858 0.17762,0.09051 0.13978,0.23633c-0.01679,0.0648 -0.03053,0.13536 -0.03053,0.15686c0,0.02151 -0.01029,0.04249 -0.02283,0.04675c-0.01254,0.0042 -0.02846,0.09045 -0.03536,0.19165c-0.01472,0.21637 -0.05595,0.4255 -0.08384,0.4255c-0.01087,0 -0.03766,0.03881 -0.05957,0.08625c-0.02197,0.04744 -0.05284,0.09994 -0.06866,0.11661c-0.01581,0.01673 -0.03536,0.07176 -0.04341,0.1223c-0.00811,0.05054 -0.02622,0.10436 -0.04025,0.11954c-0.01409,0.01518 -0.04577,0.06365 -0.07044,0.1077c-0.02467,0.04405 -0.06348,0.10017 -0.08625,0.12466c-0.02277,0.02455 -0.0414,0.05325 -0.0414,0.06383c0,0.01058 -0.02685,0.0295 -0.05974,0.04198c-0.03283,0.01248 -0.06486,0.04244 -0.07119,0.06653c-0.00627,0.02409 -0.0441,0.05721 -0.08401,0.07349c-0.03991,0.01633 -0.08533,0.04215 -0.10097,0.05744c-0.03036,0.02961 -0.22569,0.07768 -0.31579,0.07768c-0.02996,0 -0.05877,0.01294 -0.06406,0.02875c-0.01202,0.036 -0.72789,0.03513 -0.75043,-0.00092c-0.00788,-0.01265 -0.09545,-0.03663 -0.19464,-0.05325c-0.10224,-0.01714 -0.20085,-0.04807 -0.22776,-0.07142c-0.02611,-0.02266 -0.05624,-0.04117 -0.06693,-0.04117c-0.01075,0 -0.01949,-0.01725 -0.01949,-0.0383c0,-0.0211 -0.01478,-0.05474 -0.03289,-0.07475c-0.0567,-0.06285 -0.14525,-0.15025 -0.18251,-0.18026c-0.03807,-0.03065 -0.27244,-0.09769 -0.34144,-0.09769c-0.02266,0 -0.04117,-0.00937 -0.04117,-0.02082c0,-0.0115 -0.05054,-0.02783 -0.11236,-0.03634c-0.12604,-0.01731 -0.1399,-0.07314 -0.03531,-0.14168c0.03703,-0.02421 0.06187,-0.07452 0.08177,-0.16526c0.0157,-0.0717 0.03674,-0.1361 0.04681,-0.143c0.01006,-0.00696 0.03559,-0.15186 0.05681,-0.322c0.02116,-0.1702 0.04577,-0.31458 0.05457,-0.32091c0.00886,-0.00633 0.02323,-0.07878 0.03191,-0.161c0.01823,-0.1725 0.05399,-0.299 0.08458,-0.299c0.01167,0 0.02122,-0.01587 0.02122,-0.03519c0,-0.01938 0.03623,-0.06848 0.0805,-0.10914c0.04428,-0.0406 0.0805,-0.08631 0.0805,-0.10149c0,-0.01518 0.03105,-0.04594 0.069,-0.06837c0.03795,-0.02243 0.069,-0.04819 0.069,-0.05721c0,-0.00909 0.01811,-0.02231 0.04025,-0.02944c0.02214,-0.00707 0.06883,-0.03749 0.10367,-0.06762c0.0349,-0.03013 0.10402,-0.06124 0.15364,-0.06917c0.04962,-0.00794 0.10431,-0.02858 0.12161,-0.04583c0.01731,-0.01731 0.05192,-0.03795 0.07688,-0.04589c0.02501,-0.00794 0.07947,-0.04554 0.1211,-0.08355c0.09838,-0.08987 0.54067,-0.1073 0.62336,-0.02461" fill="#9c2222" fill-rule="evenodd" stroke="null"/>
  <path id="path4" d="m10.925,0.91028c-0.59352,0.03801 -0.88728,0.06302 -0.897,0.0763c-0.00633,0.00863 -0.1039,0.03312 -0.21678,0.05445c-0.11293,0.02139 -0.2116,0.04899 -0.21925,0.06141c-0.01587,0.02565 -0.26071,0.09355 -0.33741,0.09355c-0.02789,0 -0.05417,0.00978 -0.05842,0.02174c-0.0042,0.01196 -0.13185,0.03939 -0.28365,0.06095c-0.1518,0.02156 -0.28118,0.04617 -0.2875,0.05463c-0.00633,0.00845 -0.10442,0.03335 -0.21798,0.05537c-0.11356,0.02202 -0.21189,0.04882 -0.21856,0.05957c-0.00667,0.01075 -0.05865,0.03801 -0.11552,0.06049c-0.05693,0.02248 -0.11615,0.05848 -0.13162,0.07993c-0.01553,0.02145 -0.06469,0.04583 -0.10925,0.05422c-0.04462,0.00834 -0.08108,0.02438 -0.08108,0.03559c0,0.01121 -0.08021,0.03807 -0.17825,0.05974c-0.09804,0.02162 -0.18343,0.04612 -0.18975,0.0544c-0.00633,0.00828 -0.07855,0.03508 -0.16048,0.05946c-0.1487,0.04428 -0.17647,0.06084 -0.29446,0.17503c-0.03439,0.03335 -0.08585,0.06768 -0.11431,0.0763c-0.02846,0.00863 -0.05175,0.02369 -0.05175,0.03347c0,0.00978 -0.06728,0.03697 -0.1495,0.06049c-0.08223,0.02352 -0.1495,0.04968 -0.1495,0.05808c0,0.0084 -0.04658,0.03312 -0.1035,0.05486c-0.05693,0.02174 -0.1035,0.0483 -0.1035,0.05905c0,0.01075 -0.02329,0.02662 -0.05175,0.03525c-0.02846,0.00863 -0.07814,0.04295 -0.11046,0.0763c-0.09304,0.09614 -0.18613,0.16163 -0.26801,0.18866c-0.04169,0.01374 -0.07579,0.03249 -0.07579,0.04163c0,0.00909 -0.03784,0.03025 -0.08401,0.04698c-0.08717,0.03151 -0.21327,0.14266 -0.25915,0.22845c-0.01455,0.02714 -0.04054,0.04939 -0.05767,0.04939c-0.01719,0 -0.0372,0.01553 -0.04451,0.0345c-0.00725,0.01898 -0.02921,0.0345 -0.04876,0.0345c-0.08142,0 -0.4029,0.25593 -0.4029,0.32079c0,0.01392 -0.02588,0.03519 -0.0575,0.04721c-0.03163,0.01202 -0.0575,0.0318 -0.0575,0.04387c0,0.01213 -0.02294,0.02933 -0.05095,0.03818c-0.02806,0.00891 -0.10827,0.07648 -0.17825,0.15013c-0.184,0.19366 -0.18187,0.19153 -0.35156,0.34799c-0.08539,0.07878 -0.15525,0.15634 -0.15525,0.1725c0,0.0161 -0.01058,0.02933 -0.02358,0.02933c-0.01294,0 -0.03352,0.02616 -0.04566,0.05808c-0.01213,0.03197 -0.04037,0.06486 -0.06268,0.07314c-0.03479,0.01288 -0.09925,0.07481 -0.24656,0.23679c-0.01725,0.01898 -0.04514,0.06555 -0.06204,0.1035c-0.01685,0.03795 -0.04888,0.08907 -0.07107,0.11356c-0.02225,0.02455 -0.04042,0.05302 -0.04042,0.06325c0,0.01029 -0.01294,0.01869 -0.02875,0.01869c-0.03979,0.00006 -0.19153,0.16117 -0.2112,0.22425c-0.00891,0.02846 -0.02375,0.05175 -0.03301,0.05175c-0.00926,0 -0.03059,0.03881 -0.04744,0.08625c-0.03358,0.09442 -0.03847,0.10103 -0.20459,0.27468c-0.06285,0.06572 -0.13225,0.16664 -0.15427,0.22425c-0.02197,0.05767 -0.04727,0.10482 -0.05612,0.10482c-0.00891,0 -0.03554,0.05693 -0.05917,0.1265c-0.02363,0.06958 -0.05118,0.1265 -0.06124,0.1265c-0.01001,0 -0.01823,0.01587 -0.01823,0.03519c0,0.01938 -0.03623,0.06848 -0.0805,0.10914c-0.04428,0.0406 -0.0805,0.08717 -0.0805,0.1035c0,0.01627 -0.01558,0.03559 -0.03456,0.0429c-0.01903,0.0073 -0.05146,0.07165 -0.07205,0.143c-0.02064,0.07142 -0.04439,0.13495 -0.05279,0.14128c-0.00845,0.00633 -0.03502,0.07878 -0.05911,0.161c-0.02409,0.08223 -0.05054,0.15468 -0.05882,0.161c-0.00822,0.00633 -0.02772,0.05037 -0.04318,0.09792c-0.01553,0.04755 -0.04807,0.09706 -0.07234,0.11006c-0.02427,0.013 -0.04416,0.03686 -0.04416,0.05302c0,0.0161 -0.01938,0.05014 -0.04307,0.07556c-0.02369,0.02542 -0.0621,0.12828 -0.08533,0.22862c-0.02317,0.10028 -0.04893,0.18751 -0.05716,0.19383c-0.00828,0.00633 -0.03387,0.11241 -0.05693,0.23575c-0.02306,0.12334 -0.04928,0.22425 -0.05825,0.22425c-0.00897,0 -0.02317,0.02846 -0.03157,0.06325c-0.02191,0.09079 -0.06716,0.18975 -0.08665,0.18975c-0.00926,0 -0.03398,0.05951 -0.05497,0.13225c-0.02099,0.07274 -0.04612,0.13743 -0.05583,0.14375c-0.02024,0.01323 -0.09125,0.46851 -0.09125,0.58529c0,0.04284 -0.00897,0.08131 -0.02001,0.08556c-0.02059,0.00788 -0.09539,0.81248 -0.09516,1.0235c0.00012,0.06848 -0.01093,0.12253 -0.02599,0.12754c-0.03703,0.01236 -0.03674,1.61098 0.00023,1.62328c0.01432,0.00477 0.02593,0.05687 0.02593,0.11598c0,0.20844 0.0751,1.02747 0.09493,1.035c0.01104,0.00426 0.02007,0.04433 0.02007,0.08907c0,0.13386 0.07061,0.56971 0.09361,0.57793c0.01179,0.00426 0.02139,0.02197 0.02139,0.03945c0,0.06176 0.07349,0.24714 0.11604,0.29285c0.02375,0.02547 0.04991,0.09137 0.05819,0.14645c0.00822,0.05503 0.02289,0.10011 0.03255,0.10011c0.00966,0 0.03594,0.09574 0.05848,0.21275c0.02248,0.11701 0.04715,0.21793 0.05474,0.22425c0.00765,0.00633 0.03329,0.08913 0.05704,0.184c0.02375,0.09488 0.04951,0.17768 0.05733,0.184c0.00776,0.00633 0.03479,0.0529 0.06003,0.1035c0.02524,0.0506 0.06406,0.10551 0.08625,0.12207c0.0222,0.0165 0.04037,0.04422 0.04037,0.06158c0,0.01737 0.01512,0.04669 0.03364,0.06521c0.01852,0.01852 0.05043,0.10724 0.07084,0.19717c0.02047,0.08993 0.04531,0.16347 0.0552,0.16347c0.00995,0 0.03646,0.05854 0.05894,0.13007c0.04301,0.13668 0.07446,0.18653 0.17814,0.28192c0.03479,0.03203 0.06325,0.07182 0.06325,0.08838c0,0.01656 0.01432,0.03559 0.0318,0.04226c0.01748,0.00673 0.04951,0.06848 0.07113,0.13731c0.02168,0.06877 0.04709,0.12506 0.05652,0.12506c0.00949,0 0.03122,0.04249 0.04836,0.09447c0.01714,0.05192 0.04468,0.09959 0.06118,0.10592c0.0165,0.00633 0.03002,0.02519 0.03002,0.04192c0,0.01668 0.02398,0.04922 0.05325,0.07228c0.02927,0.02306 0.0732,0.07297 0.09758,0.11092c0.02438,0.03795 0.0625,0.08907 0.08476,0.11356c0.02225,0.02455 0.04042,0.05744 0.04042,0.07314c0,0.0157 0.01593,0.04439 0.03536,0.06383c0.01944,0.01944 0.0506,0.07193 0.06929,0.11667c0.01869,0.04474 0.04249,0.08131 0.05296,0.08131c0.01047,0 0.03094,0.02616 0.04548,0.05813c0.01461,0.03197 0.04474,0.06503 0.06699,0.07343c0.0487,0.0184 0.16692,0.13265 0.16692,0.16135c0,0.01121 0.01846,0.04048 0.041,0.06503c0.02254,0.0245 0.05928,0.08338 0.08159,0.13081c0.02231,0.04744 0.04847,0.08625 0.05813,0.08625c0.00972,0 0.03766,0.01863 0.06222,0.0414c0.0245,0.02277 0.07774,0.06095 0.11834,0.08487c0.0406,0.02392 0.08637,0.07515 0.10178,0.11385c0.03048,0.07648 0.05198,0.10557 0.15059,0.20424c0.0989,0.0989 0.12777,0.12012 0.20591,0.15123c0.04301,0.01719 0.0893,0.06199 0.115,0.11132c0.06245,0.12 0.23506,0.28629 0.32758,0.31568c0.05371,0.01708 0.23288,0.1813 0.23288,0.2135c0,0.03272 0.10678,0.1169 0.19516,0.15381c0.04445,0.01857 0.08085,0.04209 0.08085,0.05233c0,0.01018 0.03364,0.03306 0.07475,0.05077c0.07711,0.03324 0.08533,0.03922 0.22954,0.16733c0.16986,0.15088 0.20821,0.17825 0.28486,0.20355c0.04284,0.01415 0.07786,0.03381 0.07786,0.04376c0,0.00995 0.05693,0.036 0.1265,0.05785c0.06958,0.02191 0.1265,0.04853 0.1265,0.05911c0,0.01064 0.02018,0.0257 0.04485,0.03358c0.02461,0.00782 0.05072,0.03283 0.05796,0.05566c0.00725,0.02283 0.04916,0.06084 0.09315,0.08453c0.04405,0.02375 0.08004,0.05031 0.08004,0.05905c0,0.00874 0.05434,0.03381 0.12075,0.05566c0.06641,0.02185 0.12593,0.04646 0.13225,0.05474c0.01426,0.01857 0.24656,0.09321 0.29015,0.09321c0.01754,0 0.03186,0.01018 0.03186,0.02254c0,0.01242 0.02611,0.02915 0.05802,0.03715c0.03191,0.00799 0.07073,0.03157 0.08625,0.05233c0.01553,0.02076 0.06705,0.05813 0.11448,0.08309c0.04744,0.02496 0.08625,0.05227 0.08625,0.06066c0,0.0084 0.07504,0.03352 0.16675,0.05578c0.09171,0.02225 0.17193,0.0475 0.17825,0.05606c0.00633,0.00857 0.09884,0.03283 0.20568,0.05399c0.10678,0.02116 0.19993,0.0475 0.207,0.05854c0.00702,0.01104 0.0475,0.0276 0.08993,0.0368c0.04238,0.00926 0.09608,0.03577 0.11937,0.05905c0.04152,0.04152 0.22299,0.11402 0.28543,0.11402c0.01748,0 0.03519,0.0096 0.03945,0.02139c0.00805,0.02243 0.37599,0.09344 0.4849,0.09355c0.03479,0 0.06325,0.00909 0.06325,0.02018c0,0.01104 0.1863,0.03881 0.414,0.06164c0.2277,0.02283 0.414,0.0487 0.414,0.05744c0,0.00868 0.08539,0.0226 0.18975,0.03088c0.26559,0.02099 0.50876,0.06371 0.52814,0.09281c0.02346,0.03513 1.46263,0.03421 1.48517,-0.00092c0.01777,-0.0276 0.27025,-0.06825 0.5742,-0.09246c0.10436,-0.00834 0.18975,-0.02243 0.18975,-0.0314c0,-0.00891 0.18371,-0.03485 0.40825,-0.05756c0.22454,-0.02271 0.41343,-0.04813 0.41975,-0.05641c0.00633,-0.00834 0.12989,-0.0326 0.27456,-0.05399c0.14467,-0.02139 0.26887,-0.04824 0.276,-0.05963c0.00713,-0.01144 0.05951,-0.03295 0.11644,-0.04778c0.05693,-0.01489 0.11408,-0.03927 0.12696,-0.05417c0.03531,-0.04077 0.10747,-0.07682 0.19004,-0.09499c0.04071,-0.00891 0.074,-0.02381 0.074,-0.03301c0,-0.00926 0.09574,-0.03605 0.21275,-0.05951c0.11701,-0.02352 0.21793,-0.04939 0.22425,-0.05756c0.00633,-0.00817 0.08136,-0.03347 0.16675,-0.05624c0.08539,-0.02277 0.15525,-0.04859 0.15525,-0.05739c0,-0.00886 0.04399,-0.03531 0.09775,-0.05888c0.05376,-0.02352 0.11126,-0.06176 0.12782,-0.08493c0.0165,-0.02312 0.04422,-0.04209 0.06158,-0.04209c0.01737,0 0.04525,-0.01334 0.06193,-0.02961c0.03151,-0.03065 0.25312,-0.10839 0.30906,-0.10839c0.01754,0 0.03186,-0.00995 0.03186,-0.02214c0,-0.01213 0.04399,-0.03387 0.09775,-0.0483c0.05376,-0.01438 0.11328,-0.04002 0.13225,-0.05693c0.01898,-0.01691 0.07349,-0.06745 0.12121,-0.11236c0.04767,-0.04491 0.11236,-0.08809 0.14375,-0.09597c0.03134,-0.00788 0.05704,-0.02248 0.05704,-0.03249c0,-0.01001 0.05175,-0.0368 0.115,-0.05957c0.06325,-0.02271 0.115,-0.04824 0.115,-0.0567c0,-0.0084 0.04911,-0.03404 0.10914,-0.05698c0.06003,-0.02294 0.12989,-0.0682 0.15525,-0.10063c0.09936,-0.12702 0.21706,-0.22787 0.29647,-0.25409c0.04571,-0.01507 0.08315,-0.03588 0.08315,-0.04617c0,-0.01029 0.0245,-0.02484 0.05445,-0.03237c0.05583,-0.01403 0.19855,-0.14467 0.19855,-0.18176c0,-0.02812 0.0966,-0.10684 0.13225,-0.10781c0.01581,-0.0004 0.02875,-0.00937 0.02875,-0.01984c0,-0.01052 0.02846,-0.03381 0.06325,-0.05175c0.07883,-0.04071 0.60835,-0.54556 0.83519,-0.79632c0.04508,-0.04985 0.1004,-0.09769 0.12294,-0.10632c0.02254,-0.00868 0.04629,-0.03594 0.05273,-0.06055c0.00644,-0.02467 0.03651,-0.06107 0.06682,-0.08096c0.0303,-0.01984 0.05509,-0.0506 0.05509,-0.06843c0,-0.01777 0.01392,-0.04617 0.03088,-0.06319c0.01696,-0.01696 0.04318,-0.05394 0.05831,-0.08211c0.01507,-0.02823 0.03709,-0.05129 0.04882,-0.05129c0.03163,0 0.23,-0.21292 0.23,-0.24685c0,-0.01604 0.00955,-0.02915 0.02122,-0.02915c0.01167,0 0.03341,-0.03697 0.0483,-0.08211c0.01489,-0.04514 0.0406,-0.08729 0.05704,-0.09361c0.01645,-0.00627 0.03513,-0.0314 0.04152,-0.05578c0.00633,-0.02432 0.02858,-0.05077 0.04939,-0.05877c0.06779,-0.02605 0.16669,-0.1422 0.20712,-0.24323c0.02179,-0.0544 0.04669,-0.10408 0.05537,-0.11046c0.00868,-0.00633 0.03519,-0.05555 0.05894,-0.10931c0.02369,-0.05376 0.05077,-0.09775 0.06009,-0.09775c0.00937,0 0.02329,-0.02496 0.03094,-0.05549c0.00771,-0.03053 0.04502,-0.08481 0.08303,-0.12069c0.03795,-0.03582 0.06906,-0.07849 0.06906,-0.0947c0,-0.01627 0.01438,-0.03508 0.03191,-0.0418c0.0176,-0.00673 0.05026,-0.06078 0.07268,-0.12006c0.02237,-0.05928 0.04709,-0.11293 0.05491,-0.11926c0.00782,-0.00633 0.0326,-0.07101 0.05503,-0.14375c0.02248,-0.07274 0.04951,-0.13225 0.06015,-0.13225c0.01064,0 0.0257,-0.02542 0.03352,-0.05652c0.00782,-0.03111 0.03979,-0.08412 0.07107,-0.11788c0.03122,-0.03375 0.06946,-0.09626 0.08493,-0.13898c0.01541,-0.04267 0.03536,-0.07763 0.04428,-0.07763c0.02001,0 0.08953,-0.19964 0.08953,-0.25708c0,-0.02306 0.00799,-0.04192 0.01783,-0.04192c0.00978,0 0.03709,-0.08798 0.06066,-0.1955c0.02358,-0.10753 0.05095,-0.1955 0.06089,-0.1955c0.00989,0 0.0253,-0.03329 0.03421,-0.074c0.01863,-0.0847 0.05664,-0.16014 0.09263,-0.1836c0.01357,-0.00891 0.03899,-0.06066 0.05652,-0.115c0.01748,-0.0544 0.03962,-0.10442 0.04911,-0.11121c0.00949,-0.00673 0.03525,-0.1154 0.05727,-0.2415c0.02197,-0.12604 0.04721,-0.23437 0.05618,-0.2407c0.00891,-0.00633 0.0349,-0.15899 0.05773,-0.33925c0.02283,-0.18026 0.04968,-0.32775 0.05974,-0.32775c0.01001,0 0.01823,-0.02116 0.01823,-0.04698c0,-0.07584 0.07159,-0.40037 0.09108,-0.41297c0.02427,-0.01564 0.09292,-0.42866 0.09292,-0.55873c0,-0.06314 0.01139,-0.10827 0.02875,-0.11408c0.04198,-0.01397 0.04198,-1.86053 0,-1.8745c-0.01581,-0.00529 -0.02875,-0.04451 -0.02875,-0.08723c0,-0.10891 -0.07119,-0.54861 -0.09102,-0.56252c-0.03048,-0.02133 -0.06906,-0.16457 -0.08424,-0.31274c-0.00828,-0.08102 -0.02277,-0.14726 -0.03214,-0.14726c-0.00937,0 -0.03542,-0.14231 -0.0579,-0.31625c-0.02243,-0.17394 -0.04715,-0.32143 -0.05497,-0.32775c-0.00776,-0.00633 -0.0322,-0.11966 -0.05428,-0.25185c-0.02208,-0.13219 -0.0483,-0.24604 -0.05825,-0.253c-0.00995,-0.00696 -0.03726,-0.0644 -0.06072,-0.12765c-0.0234,-0.06325 -0.05537,-0.12259 -0.0709,-0.13191c-0.01558,-0.00932 -0.04209,-0.06365 -0.05894,-0.12075c-0.01691,-0.0571 -0.03743,-0.10385 -0.04571,-0.10385c-0.00828,0 -0.03387,-0.0828 -0.05687,-0.184c-0.02294,-0.1012 -0.05014,-0.184 -0.06038,-0.184c-0.01029,0 -0.01869,-0.01719 -0.01869,-0.03824c0,-0.05537 -0.07464,-0.28376 -0.09275,-0.28376c-0.0084,0 -0.0345,-0.04658 -0.05796,-0.10344c-0.02346,-0.05687 -0.06124,-0.10931 -0.08395,-0.11655c-0.02266,-0.00719 -0.04755,-0.03824 -0.05526,-0.06906c-0.00776,-0.03076 -0.02116,-0.05595 -0.02979,-0.05595c-0.00863,0 -0.03554,-0.07245 -0.0598,-0.161c-0.02427,-0.08855 -0.05089,-0.161 -0.05917,-0.161c-0.00828,0 -0.03347,-0.04819 -0.05595,-0.10701c-0.04186,-0.10965 -0.06383,-0.14226 -0.18389,-0.27347c-0.11172,-0.12213 -0.1725,-0.21833 -0.1725,-0.27307c0,-0.01823 -0.0134,-0.04686 -0.02973,-0.06354c-0.01633,-0.01673 -0.04428,-0.06664 -0.0621,-0.11092c-0.01777,-0.04428 -0.08205,-0.12759 -0.14277,-0.18515c-0.06072,-0.05762 -0.1104,-0.11661 -0.1104,-0.13116c0,-0.01449 -0.01294,-0.03467 -0.02875,-0.04479c-0.01581,-0.01012 -0.04934,-0.0598 -0.07452,-0.1104c-0.02519,-0.0506 -0.05882,-0.10028 -0.07475,-0.1104c-0.01593,-0.01012 -0.02898,-0.03329 -0.02898,-0.05152c0,-0.01829 -0.0207,-0.04612 -0.046,-0.06193c-0.0253,-0.01581 -0.046,-0.03835 -0.046,-0.05014c0,-0.01179 -0.0759,-0.09608 -0.16865,-0.18739c-0.09275,-0.09125 -0.18659,-0.20073 -0.2085,-0.24328c-0.02191,-0.04255 -0.07441,-0.10678 -0.11667,-0.14277c-0.16623,-0.14168 -0.35719,-0.33482 -0.35719,-0.36133c0,-0.03588 -0.09798,-0.12673 -0.18527,-0.17187c-0.03726,-0.01926 -0.06774,-0.04445 -0.06774,-0.05589c0,-0.0115 -0.0199,-0.0272 -0.04422,-0.0349c-0.04951,-0.0157 -0.18578,-0.14743 -0.18578,-0.17952c0,-0.023 -0.09367,-0.10661 -0.12075,-0.10781c-0.00949,-0.0004 -0.03795,-0.01886 -0.06325,-0.041c-0.0253,-0.02214 -0.06613,-0.05779 -0.09079,-0.07929c-0.02461,-0.02145 -0.07636,-0.05537 -0.115,-0.07533c-0.03858,-0.01995 -0.07021,-0.0464 -0.07021,-0.05871c0,-0.01236 -0.0142,-0.02243 -0.03151,-0.02243c-0.01737,0 -0.0717,-0.0414 -0.12075,-0.092c-0.04911,-0.05054 -0.10109,-0.09194 -0.11552,-0.092c-0.01449,0 -0.03243,-0.01604 -0.03996,-0.03559c-0.00753,-0.01955 -0.04485,-0.04646 -0.08297,-0.05974c-0.03812,-0.01328 -0.06929,-0.03186 -0.06929,-0.04123c0,-0.00937 -0.04399,-0.03082 -0.09775,-0.04767c-0.05376,-0.01679 -0.10833,-0.04175 -0.12127,-0.05543c-0.01294,-0.01369 -0.04399,-0.03605 -0.069,-0.04974c-0.02501,-0.01369 -0.05572,-0.04732 -0.0682,-0.07475c-0.01248,-0.02743 -0.03519,-0.04985 -0.05043,-0.04985c-0.0153,0 -0.04134,-0.01938 -0.0579,-0.04307c-0.01656,-0.02363 -0.08706,-0.06245 -0.15657,-0.08625c-0.06952,-0.02375 -0.13794,-0.05399 -0.15209,-0.06728c-0.01415,-0.01323 -0.07107,-0.03876 -0.1265,-0.05675c-0.05543,-0.01806 -0.11448,-0.046 -0.13122,-0.06222c-0.01668,-0.01622 -0.04261,-0.02944 -0.05756,-0.02944c-0.01495,0 -0.05652,-0.03111 -0.09235,-0.06906c-0.03588,-0.03801 -0.09016,-0.07533 -0.12069,-0.08303c-0.03053,-0.00765 -0.05549,-0.02283 -0.05549,-0.03375c0,-0.01093 -0.05951,-0.03709 -0.13225,-0.05808c-0.07274,-0.02099 -0.13743,-0.04583 -0.14375,-0.0552c-0.00633,-0.00932 -0.09689,-0.03531 -0.20125,-0.05779c-0.10436,-0.02243 -0.18975,-0.04876 -0.18975,-0.05859c0,-0.00983 -0.03105,-0.02467 -0.069,-0.03301c-0.03789,-0.00834 -0.08188,-0.03329 -0.09775,-0.05549c-0.01581,-0.0222 -0.07791,-0.059 -0.138,-0.08182c-0.06009,-0.02277 -0.10925,-0.04928 -0.10925,-0.05888c0,-0.0096 -0.09833,-0.03594 -0.2185,-0.05859c-0.12018,-0.02266 -0.2185,-0.04962 -0.2185,-0.05992c0,-0.01035 -0.02329,-0.01869 -0.05175,-0.01857c-0.08441,0.00035 -0.55677,-0.07728 -0.56925,-0.09361c-0.00633,-0.00822 -0.0529,-0.02225 -0.1035,-0.03117c-0.10626,-0.01875 -0.24777,-0.06417 -0.2645,-0.08499c-0.01702,-0.0211 -0.30366,-0.08947 -0.37525,-0.08947c-0.03398,0 -0.06176,-0.00874 -0.06176,-0.01938c0,-0.05095 -1.72615,-0.11466 -2.231,-0.08234m1.35487,0.41854c0.00753,0.01116 0.2258,0.03916 0.48513,0.06222c0.25933,0.02306 0.47668,0.0487 0.483,0.05698c0.00633,0.00828 0.20815,0.03358 0.4485,0.05629c0.24035,0.02271 0.44218,0.04916 0.4485,0.05882c0.00633,0.0096 0.06325,0.02455 0.1265,0.03318c0.13409,0.01834 0.2415,0.05652 0.2415,0.08585c0,0.01133 0.03881,0.03853 0.08625,0.06043c0.04744,0.02197 0.09833,0.05123 0.1131,0.06509c0.01478,0.01386 0.0924,0.03893 0.1725,0.05566c0.0801,0.01673 0.151,0.0383 0.15749,0.0479c0.0065,0.0096 0.10988,0.0345 0.22966,0.05526c0.11977,0.02076 0.22316,0.04531 0.22966,0.05451c0.0065,0.0092 0.05468,0.02921 0.10707,0.04451c0.05486,0.01604 0.11109,0.0521 0.13277,0.08516c0.02064,0.03151 0.0521,0.05733 0.06992,0.05733c0.01777,0 0.046,0.01305 0.06268,0.02904c0.05399,0.05158 0.15433,0.10896 0.19061,0.10896c0.01944,0 0.03531,0.0092 0.03531,0.02041c0,0.01121 0.06779,0.03318 0.15071,0.04882c0.08286,0.01564 0.16324,0.04008 0.1786,0.05434c0.01535,0.01426 0.06653,0.04566 0.11379,0.06981c0.04727,0.02415 0.08591,0.05779 0.08591,0.07475c0,0.01696 0.00776,0.03088 0.01725,0.03088c0.00949,0.00006 0.04732,0.02593 0.08407,0.0575c0.03674,0.03163 0.07878,0.0575 0.09344,0.0575c0.01461,0 0.04934,0.02122 0.07711,0.04709c0.05405,0.05031 0.212,0.11391 0.28302,0.11391c0.02375,0 0.04313,0.01018 0.04313,0.02254c0,0.01242 0.02519,0.02892 0.05601,0.03663c0.03531,0.00886 0.06503,0.04014 0.08062,0.08476c0.02657,0.07613 0.15146,0.20108 0.20102,0.20108c0.01668,0 0.03036,0.00811 0.03036,0.018c0,0.00989 0.04686,0.0318 0.10413,0.0487c0.05733,0.01691 0.1146,0.05026 0.12731,0.07406c0.01277,0.02375 0.03766,0.04324 0.05532,0.04324c0.01771,0 0.03904,0.02329 0.0475,0.05175c0.01691,0.05693 0.15974,0.20125 0.19912,0.20125c0.01369,0 0.04853,0.02329 0.07751,0.05175c0.02898,0.02846 0.09488,0.087 0.1464,0.13001c0.05158,0.04307 0.09373,0.0866 0.09373,0.09672c0,0.02254 0.11075,0.13541 0.13329,0.13582c0.0207,0.0004 0.30372,0.28721 0.30372,0.3078c0,0.02346 0.15646,0.17492 0.18067,0.17492c0.01167,0 0.05083,0.03807 0.08706,0.08464c0.03617,0.04652 0.08366,0.10321 0.10551,0.12593c0.02185,0.02277 0.05526,0.0786 0.07429,0.12409c0.03266,0.07814 0.11655,0.16894 0.15778,0.1706c0.06745,0.0027 0.22178,0.24645 0.22258,0.3515c0.00012,0.01616 0.02829,0.05198 0.11742,0.1495c0.05353,0.05854 0.12052,0.11 0.16595,0.12742c0.02185,0.0084 0.04594,0.04652 0.05359,0.08481c0.00765,0.03824 0.0207,0.06952 0.02904,0.06952c0.00828,0 0.02904,0.04916 0.04606,0.10925c0.01702,0.06009 0.04318,0.1196 0.05813,0.13225c0.01489,0.01265 0.04537,0.06912 0.06774,0.12552c0.02237,0.05641 0.0916,0.15266 0.15393,0.21402c0.06227,0.06135 0.11328,0.12644 0.11328,0.14473c0,0.01829 0.01035,0.03324 0.023,0.03324c0.01265,0 0.023,0.01662 0.023,0.03697c0,0.06423 0.07579,0.35403 0.09263,0.35403c0.00886,0 0.03398,0.05693 0.05583,0.1265c0.02191,0.06958 0.04686,0.1265 0.05543,0.1265c0.00863,0 0.03502,0.036 0.05877,0.08004c0.02369,0.04399 0.0617,0.08591 0.08447,0.09315c0.02812,0.00891 0.04635,0.046 0.05675,0.11546c0.00845,0.05629 0.02243,0.10235 0.03111,0.10235c0.00868,0 0.03548,0.11385 0.05951,0.253c0.02404,0.13915 0.05008,0.253 0.0579,0.253c0.00776,0 0.0276,0.06774 0.0441,0.15059c0.01645,0.0828 0.04192,0.16301 0.05664,0.17825c0.01472,0.01518 0.04117,0.07216 0.05888,0.12656c0.01765,0.05434 0.04318,0.10609 0.05675,0.115c0.04962,0.03237 0.08332,0.12345 0.09764,0.26364c0.00805,0.07889 0.02248,0.1487 0.03203,0.15508c0.01932,0.01282 0.09056,0.81271 0.09056,1.01677c0,0.08297 0.01029,0.13271 0.02875,0.13886c0.03887,0.01294 0.04226,2.17212 0.00345,2.19736c-0.01449,0.00943 -0.03163,0.13363 -0.04025,0.29239c-0.02358,0.43269 -0.06613,0.8625 -0.08545,0.8625c-0.00966,0 -0.0249,0.07791 -0.03381,0.17313c-0.01156,0.12357 -0.02749,0.18118 -0.05555,0.20125c-0.02168,0.01547 -0.05865,0.07211 -0.08217,0.12587c-0.02358,0.05376 -0.04968,0.09775 -0.05808,0.09775c-0.0084,0 -0.03312,0.0828 -0.05503,0.184c-0.02185,0.1012 -0.04824,0.184 -0.05865,0.184c-0.01041,0 -0.0257,0.05434 -0.03404,0.12075c-0.02622,0.20907 -0.06354,0.38525 -0.08159,0.38525c-0.00955,0 -0.02467,0.04916 -0.03364,0.10925c-0.013,0.08746 -0.03559,0.12788 -0.11333,0.20252c-0.09522,0.09148 -0.17463,0.24277 -0.17463,0.3327c0,0.02507 -0.0092,0.04554 -0.02047,0.04554c-0.01121,0 -0.03864,0.06728 -0.06089,0.1495c-0.02225,0.08223 -0.04813,0.1495 -0.05744,0.1495c-0.00932,0 -0.02404,0.04715 -0.03272,0.10482c-0.00995,0.06659 -0.02979,0.11023 -0.05434,0.1196c-0.02128,0.00811 -0.05871,0.03341 -0.0832,0.05618c-0.02455,0.02277 -0.05072,0.0414 -0.05813,0.0414c-0.00742,0 -0.03393,0.04646 -0.05888,0.10327c-0.02501,0.05681 -0.05319,0.10339 -0.06268,0.1035c-0.00949,0.00012 -0.01725,0.018 -0.01725,0.03973c0,0.05773 -0.07188,0.2365 -0.09511,0.2365c-0.01093,0 -0.0199,0.01587 -0.0199,0.03519c0,0.01938 -0.0414,0.07331 -0.092,0.11983c-0.0506,0.04652 -0.092,0.09229 -0.092,0.10172c0,0.00943 -0.02662,0.04612 -0.05911,0.08148c-0.10931,0.11891 -0.11874,0.133 -0.15048,0.22529c-0.01742,0.0506 -0.03789,0.09718 -0.04548,0.1035c-0.00765,0.00633 -0.02082,0.03996 -0.02933,0.07475c-0.01041,0.04249 -0.03042,0.06325 -0.06107,0.06325c-0.02501,0 -0.04554,0.00914 -0.04554,0.02036c0,0.01121 -0.03623,0.03761 -0.0805,0.05859c-0.04428,0.02105 -0.0805,0.05359 -0.0805,0.07234c0,0.0188 -0.01403,0.03956 -0.03122,0.04612c-0.01714,0.00661 -0.04479,0.05543 -0.06141,0.10856c-0.01662,0.05307 -0.04198,0.10689 -0.05647,0.11954c-0.01443,0.01265 -0.03306,0.04111 -0.04134,0.06325c-0.00834,0.02214 -0.03617,0.04025 -0.06181,0.04025c-0.0257,0 -0.06745,0.0207 -0.09275,0.046c-0.0253,0.0253 -0.05601,0.046 -0.0682,0.046c-0.01219,0 -0.03456,0.02306 -0.04962,0.05129c-0.01512,0.02818 -0.04134,0.06515 -0.05831,0.08211c-0.01696,0.01702 -0.03088,0.04502 -0.03088,0.06233c0,0.0506 -0.1211,0.16876 -0.20171,0.19688c-0.04088,0.01426 -0.07429,0.03525 -0.07429,0.04663c0,0.01144 -0.01294,0.0211 -0.02875,0.02151c-0.04882,0.00132 -0.12075,0.07584 -0.15462,0.16025c-0.04324,0.1077 -0.12558,0.18222 -0.23989,0.21706c-0.10178,0.03105 -0.24374,0.14249 -0.24374,0.1913c0,0.01656 -0.01461,0.03565 -0.03243,0.04249c-0.01783,0.0069 -0.03881,0.03789 -0.04663,0.069c-0.00983,0.03933 -0.03502,0.06072 -0.08257,0.07021c-0.03761,0.00753 -0.06837,0.02047 -0.06837,0.02881c0,0.00828 -0.04686,0.02892 -0.10413,0.04583c-0.05733,0.01691 -0.1146,0.05026 -0.12731,0.07406c-0.01277,0.02375 -0.03715,0.04324 -0.05422,0.04324c-0.01714,0 -0.09177,0.05693 -0.16595,0.1265c-0.07418,0.06958 -0.14105,0.1265 -0.14858,0.1265c-0.00759,0 -0.03703,0.02018 -0.06544,0.04479c-0.02846,0.02467 -0.10764,0.05647 -0.17601,0.07067c-0.06843,0.0142 -0.12437,0.03427 -0.12437,0.04468c0,0.01041 -0.0257,0.0253 -0.05704,0.03318c-0.05744,0.01443 -0.18567,0.13099 -0.23293,0.21172c-0.01553,0.02651 -0.0671,0.05118 -0.13225,0.06319c-0.05871,0.01087 -0.10678,0.02726 -0.10678,0.0364c0,0.0092 -0.08021,0.03628 -0.17825,0.0602c-0.09804,0.02392 -0.18343,0.04939 -0.18975,0.05658c-0.00633,0.00713 -0.05601,0.02737 -0.1104,0.04485c-0.05434,0.01754 -0.10609,0.04295 -0.115,0.05652c-0.00886,0.01363 -0.05233,0.04474 -0.0966,0.06917c-0.04428,0.02444 -0.09304,0.06187 -0.10839,0.0832c-0.01535,0.02128 -0.07199,0.04577 -0.12581,0.05434c-0.05388,0.00863 -0.10385,0.0253 -0.11115,0.03703c-0.00725,0.01179 -0.13162,0.03789 -0.27635,0.05808c-0.14473,0.02018 -0.26847,0.04387 -0.27497,0.05261c-0.0065,0.00874 -0.105,0.03462 -0.21885,0.05744c-0.11385,0.02283 -0.21022,0.05054 -0.21419,0.06158c-0.00397,0.01104 -0.06089,0.03784 -0.1265,0.05957c-0.06561,0.02174 -0.12966,0.0533 -0.14231,0.07015c-0.0257,0.03416 -0.22477,0.07705 -0.35771,0.07705c-0.04784,0 -0.09039,0.00955 -0.09465,0.02122c-0.0364,0.10097 -3.49589,0.09994 -3.5343,-0.00109c-0.00426,-0.01104 -0.04566,-0.02018 -0.092,-0.02024c-0.16353,-0.00029 -0.35489,-0.04364 -0.39836,-0.09033c-0.0234,-0.02513 -0.08395,-0.05813 -0.13455,-0.07331c-0.05054,-0.01512 -0.09194,-0.03381 -0.09194,-0.04146c0,-0.00765 -0.08798,-0.03404 -0.1955,-0.05859c-0.10753,-0.02461 -0.1955,-0.0529 -0.1955,-0.06296c0,-0.01001 -0.02329,-0.01806 -0.05175,-0.01788c-0.08165,0.00058 -0.51049,-0.07636 -0.52325,-0.0939c-0.00633,-0.00868 -0.05549,-0.02317 -0.10931,-0.03214c-0.06854,-0.0115 -0.11995,-0.03985 -0.17181,-0.09482c-0.04071,-0.04318 -0.08723,-0.07849 -0.10344,-0.07849c-0.01622,0 -0.02944,-0.0096 -0.02944,-0.02139c0,-0.01173 -0.05693,-0.03789 -0.1265,-0.05813c-0.06958,-0.02024 -0.1265,-0.04571 -0.1265,-0.05664c0,-0.01087 -0.08849,-0.03623 -0.19659,-0.05629c-0.10816,-0.02007 -0.21241,-0.05227 -0.23167,-0.07153c-0.01926,-0.01926 -0.0533,-0.03502 -0.07567,-0.03502c-0.02237,0 -0.0525,-0.02588 -0.06687,-0.0575c-0.01443,-0.03163 -0.03485,-0.0575 -0.04537,-0.0575c-0.01052,0 -0.03922,-0.01846 -0.06377,-0.041c-0.0245,-0.02254 -0.08596,-0.06032 -0.13656,-0.08389c-0.0506,-0.02363 -0.09718,-0.05049 -0.1035,-0.0598c-0.01593,-0.02346 -0.22172,-0.09131 -0.27681,-0.09131c-0.02484,0 -0.0452,-0.01018 -0.0452,-0.02254c0,-0.01242 -0.02553,-0.02898 -0.0567,-0.0368c-0.03117,-0.00782 -0.06348,-0.03571 -0.07182,-0.06199c-0.02047,-0.06452 -0.1468,-0.19084 -0.21074,-0.21068c-0.02846,-0.00886 -0.05175,-0.02461 -0.05175,-0.03496c0,-0.01041 -0.03439,-0.02536 -0.07648,-0.03324c-0.04203,-0.00794 -0.09706,-0.03352 -0.12219,-0.05698c-0.02519,-0.0234 -0.06837,-0.05468 -0.09603,-0.06952c-0.02766,-0.01478 -0.05031,-0.03784 -0.05031,-0.05118c0,-0.02381 -0.09045,-0.10988 -0.11707,-0.11138c-0.00748,-0.0004 -0.06291,-0.04732 -0.12317,-0.10425c-0.06026,-0.05693 -0.11811,-0.1035 -0.12851,-0.1035c-0.01047,0 -0.03278,-0.01294 -0.04974,-0.02875c-0.01691,-0.01581 -0.06831,-0.0479 -0.11425,-0.07136c-0.04594,-0.0234 -0.10247,-0.07774 -0.12564,-0.12075c-0.02317,-0.04295 -0.04784,-0.07814 -0.05491,-0.07814c-0.00702,0 -0.03036,-0.02973 -0.05181,-0.06601c-0.02145,-0.03634 -0.07285,-0.0797 -0.1142,-0.09643c-0.04134,-0.01668 -0.08349,-0.04393 -0.09361,-0.06049c-0.01012,-0.0165 -0.03732,-0.03007 -0.06043,-0.03007c-0.05123,0 -0.0824,-0.03686 -0.10258,-0.12133c-0.0084,-0.03513 -0.03191,-0.08292 -0.05227,-0.1062c-0.1004,-0.11494 -0.19504,-0.20947 -0.20982,-0.20947c-0.02375,-0.00006 -0.189,-0.17388 -0.189,-0.19884c0,-0.0115 -0.0207,-0.03864 -0.046,-0.06032c-0.0253,-0.02168 -0.046,-0.0525 -0.046,-0.06843c0,-0.01599 -0.03048,-0.05779 -0.06768,-0.09292c-0.0372,-0.03513 -0.07429,-0.08481 -0.0824,-0.11034c-0.01679,-0.0529 -0.16204,-0.20516 -0.19567,-0.20516c-0.01225,0 -0.02225,-0.01323 -0.02225,-0.02938c0,-0.01616 -0.01834,-0.04508 -0.04077,-0.06429c-0.02243,-0.01921 -0.0556,-0.08102 -0.07377,-0.13737c-0.01817,-0.05635 -0.03864,-0.10764 -0.04548,-0.11397c-0.00684,-0.00633 -0.03163,-0.04928 -0.05509,-0.09539c-0.02519,-0.04957 -0.07694,-0.10132 -0.1265,-0.1265c-0.10229,-0.05198 -0.13973,-0.09539 -0.14065,-0.16336c-0.0004,-0.02846 -0.00863,-0.05175 -0.01829,-0.05175c-0.00966,0 -0.03743,-0.06986 -0.0617,-0.15525c-0.02432,-0.08539 -0.05572,-0.1656 -0.06981,-0.17825c-0.01409,-0.01265 -0.03881,-0.06204 -0.05497,-0.10977c-0.02743,-0.08102 -0.17049,-0.24673 -0.2131,-0.24673c-0.01047,0 -0.02599,-0.02846 -0.0345,-0.06325c-0.00851,-0.03479 -0.02248,-0.06843 -0.03099,-0.07475c-0.00857,-0.00633 -0.03295,-0.09948 -0.05422,-0.207c-0.02128,-0.10753 -0.04893,-0.19895 -0.06141,-0.20315c-0.01254,-0.00426 -0.02277,-0.0257 -0.02277,-0.04767c0,-0.06273 -0.07101,-0.25519 -0.09419,-0.25519c-0.01144,0 -0.02082,-0.01409 -0.02082,-0.03128c0,-0.01719 -0.03559,-0.06601 -0.07906,-0.10856c-0.06135,-0.06003 -0.08251,-0.1031 -0.09476,-0.19297c-0.00868,-0.06365 -0.02398,-0.12092 -0.03398,-0.12731c-0.01006,-0.00644 -0.03611,-0.13582 -0.0579,-0.2875c-0.02179,-0.15174 -0.04617,-0.28106 -0.05417,-0.28739c-0.00799,-0.00633 -0.03237,-0.11822 -0.05417,-0.24869c-0.02179,-0.13047 -0.05428,-0.25191 -0.07216,-0.26979c-0.01794,-0.01794 -0.03968,-0.07441 -0.0483,-0.12552c-0.00863,-0.05112 -0.02783,-0.10563 -0.04261,-0.12121c-0.05595,-0.05877 -0.08131,-0.15709 -0.09712,-0.37668c-0.00897,-0.12466 -0.02777,-0.23397 -0.0418,-0.243c-0.03594,-0.02317 -0.03611,-2.58888 -0.00017,-2.61223c0.01392,-0.00903 0.03214,-0.11609 0.04054,-0.23799c0.01455,-0.21206 0.04813,-0.3649 0.08016,-0.3649c0.00828,0 0.03531,-0.06728 0.06015,-0.1495c0.02484,-0.08223 0.05204,-0.1495 0.06055,-0.1495c0.00845,0 0.03347,-0.10091 0.05555,-0.22425c0.02208,-0.12334 0.04732,-0.22943 0.05606,-0.23575c0.0088,-0.00633 0.03439,-0.14605 0.05693,-0.3105c0.02254,-0.16445 0.04905,-0.30418 0.05882,-0.3105c0.00983,-0.00633 0.0249,-0.05388 0.03358,-0.10569c0.00914,-0.05497 0.04318,-0.1242 0.08159,-0.16629c0.03628,-0.03973 0.07257,-0.09309 0.08067,-0.11862c0.00811,-0.02553 0.02306,-0.0464 0.03329,-0.0464c0.01024,0 0.03789,-0.06728 0.06141,-0.1495c0.02358,-0.08223 0.05026,-0.1495 0.05934,-0.1495c0.00909,0 0.02283,-0.03881 0.03053,-0.08625c0.02524,-0.15456 0.06538,-0.30475 0.08154,-0.30475c0.00868,0 0.02214,-0.03191 0.02996,-0.0709c0.00776,-0.03899 0.04531,-0.09821 0.08338,-0.13162c0.03801,-0.03341 0.06917,-0.0736 0.06917,-0.0893c0,-0.0157 0.01829,-0.03835 0.04065,-0.05031c0.02231,-0.01196 0.05486,-0.06112 0.07222,-0.10919c0.01742,-0.04813 0.04422,-0.10005 0.05957,-0.1154c0.01535,-0.01535 0.04025,-0.09079 0.05537,-0.16761c0.01512,-0.07682 0.03508,-0.13967 0.04439,-0.13967c0.00926,0 0.03485,-0.03042 0.05681,-0.06762c0.02197,-0.03715 0.06043,-0.07406 0.08545,-0.08205c0.02507,-0.00794 0.04554,-0.02887 0.04554,-0.04658c0,-0.01765 0.01886,-0.04221 0.04186,-0.05451c0.023,-0.01236 0.05555,-0.06394 0.07228,-0.11466c0.01673,-0.05072 0.04341,-0.09718 0.05934,-0.10327c0.01587,-0.0061 0.04111,-0.04807 0.05601,-0.09321c0.01489,-0.04514 0.03571,-0.08211 0.04629,-0.08211c0.01052,0 0.02628,-0.04203 0.03496,-0.09344c0.01225,-0.07239 0.02944,-0.09861 0.0763,-0.11644c0.03329,-0.01265 0.0659,-0.03013 0.07251,-0.03881c0.00656,-0.00868 0.03197,-0.02685 0.05641,-0.04037c0.0245,-0.01346 0.05555,-0.04451 0.069,-0.069c0.01351,-0.02444 0.03605,-0.05192 0.05014,-0.06107c0.01409,-0.00914 0.03904,-0.0648 0.05555,-0.12368c0.03496,-0.12483 0.10045,-0.2028 0.18843,-0.22437c0.06572,-0.01616 0.17894,-0.12207 0.17894,-0.16738c0,-0.01461 0.01553,-0.03249 0.0345,-0.03979c0.01898,-0.00725 0.0345,-0.03462 0.0345,-0.06072c0,-0.05572 0.14306,-0.20694 0.19585,-0.20694c0.04606,0 0.26416,-0.21632 0.26416,-0.26197c0,-0.05934 0.12265,-0.166 0.22425,-0.19498c0.05376,-0.01535 0.09775,-0.03559 0.09775,-0.04502c0,-0.00943 0.02921,-0.03439 0.06498,-0.05549c0.03956,-0.0234 0.07665,-0.07383 0.09488,-0.12915c0.01696,-0.05123 0.05376,-0.10344 0.08458,-0.11995c0.03002,-0.0161 0.05457,-0.03669 0.05457,-0.04577c0,-0.00909 0.03749,-0.02358 0.08332,-0.0322c0.09194,-0.01725 0.15548,-0.04916 0.21948,-0.11023c0.02323,-0.02214 0.05135,-0.04025 0.0625,-0.04025c0.01121,0 0.0257,-0.02059 0.03232,-0.04571c0.00656,-0.02519 0.03795,-0.0556 0.06969,-0.06768c0.0318,-0.01208 0.06452,-0.04324 0.0728,-0.06929c0.00822,-0.02605 0.03427,-0.04732 0.05779,-0.04732c0.02358,0 0.05652,-0.01311 0.0732,-0.02915c0.01673,-0.01604 0.07699,-0.04939 0.13392,-0.07412c0.05693,-0.02473 0.10868,-0.051 0.115,-0.05842c0.00633,-0.00736 0.04773,-0.028 0.092,-0.04577c0.08826,-0.03548 0.23,-0.16094 0.23,-0.20361c0,-0.01478 0.02846,-0.03945 0.06325,-0.05468c0.03479,-0.0153 0.06843,-0.03381 0.07475,-0.04111c0.00633,-0.0073 0.09689,-0.03249 0.20125,-0.05595c0.10436,-0.02352 0.18975,-0.0502 0.18975,-0.05928c0,-0.00914 0.05233,-0.0337 0.11621,-0.05463c0.07797,-0.02553 0.14887,-0.07211 0.21545,-0.14162c0.06992,-0.07291 0.12403,-0.10758 0.18279,-0.11713c0.04594,-0.00748 0.08355,-0.02064 0.08355,-0.02933c0,-0.00868 0.10091,-0.03467 0.22425,-0.05773c0.12334,-0.02306 0.22943,-0.04824 0.23575,-0.05595c0.00633,-0.00771 0.08349,-0.03243 0.17152,-0.05491c0.08803,-0.02248 0.16566,-0.04974 0.1725,-0.06066c0.00684,-0.01087 0.05037,-0.03559 0.09672,-0.05486c0.04635,-0.01926 0.10528,-0.05612 0.13099,-0.08182c0.03145,-0.03145 0.09223,-0.05187 0.18601,-0.06245c0.07659,-0.00868 0.13927,-0.02294 0.13927,-0.03168c0,-0.01622 0.32194,-0.05744 0.66125,-0.08458c0.10436,-0.00834 0.18975,-0.02271 0.18975,-0.03191c0,-0.0092 0.08021,-0.02225 0.17825,-0.02904c0.40681,-0.028 0.80006,-0.0705 0.81133,-0.08775c0.02818,-0.04284 1.34866,-0.04577 1.3773,-0.00305" fill="#fc8484" fill-rule="evenodd" stroke="null"/>
 </g>

</svg>