<svg width="44" height="42" xmlns="http://www.w3.org/2000/svg" version="1.1">
 <g>
  <title>Layer 1</title>
  <path stroke="null" id="path0" d="m12.18738,3.04674c-0.30818,0.04408 -0.37449,0.06735 -0.32737,0.11447c0.02964,0.02964 0.74109,0.04294 2.41661,0.04541c2.43532,0.00361 2.60072,-0.00579 2.3731,-0.13547c-0.09813,-0.05586 -4.08975,-0.07771 -4.46234,-0.02441m-1.62687,0.58244c-0.15162,0.15162 -0.00741,0.21593 0.41182,0.18373c0.5396,-0.04151 0.52582,-0.1767 -0.02232,-0.21945c-0.27464,-0.02137 -0.3382,-0.01558 -0.3895,0.03572m6.93367,0.00294c-0.29089,0.06365 -0.30134,0.07106 -0.18677,0.13243c0.15798,0.08474 1.05972,0.09728 1.11938,0.01558c0.14877,-0.2033 -0.33126,-0.27949 -0.93261,-0.14801m-8.1111,0.61759c-0.10925,0.12074 0.00304,0.16995 0.36594,0.16036c0.34456,-0.00912 0.42873,-0.04541 0.36803,-0.15893c-0.05662,-0.10573 -0.63859,-0.10687 -0.73397,-0.00142m9.50066,-0.00076c-0.1159,0.12806 0.02014,0.19617 0.39216,0.19617c0.35767,0 0.47414,-0.06574 0.3534,-0.1995c-0.0893,-0.09908 -0.65521,-0.09652 -0.74556,0.00332m-10.65776,0.58691c-0.07609,0.09167 0.01216,0.13309 0.34105,0.16036c0.34114,0.02831 0.43823,-0.01254 0.38484,-0.16159c-0.02413,-0.06707 -0.67013,-0.06593 -0.72589,0.00123m11.83652,-0.02337c-0.04474,0.04465 -0.02707,0.1558 0.02802,0.17698c0.07989,0.03068 0.1862,-0.09956 0.12853,-0.15722c-0.05006,-0.05006 -0.1178,-0.05861 -0.15656,-0.01976m-0.57076,0.61446c-0.05909,0.06526 -0.05861,0.074 0.00693,0.13328c0.09899,0.08958 0.22135,-0.02831 0.14183,-0.13661c-0.0608,-0.08293 -0.07087,-0.08274 -0.14877,0.00332m1.16926,0.0095c-0.06925,0.07666 0.01748,0.16511 0.19988,0.20387c0.16672,0.03543 0.29963,0.18078 0.35074,0.38351c0.03942,0.15684 0.05985,0.17831 0.24652,0.26087c0.17575,0.0778 0.21223,0.11286 0.26742,0.25745c0.08436,0.22078 0.1614,0.266 0.38247,0.22477c0.22885,-0.04275 0.24111,-0.06099 0.12397,-0.18468c-0.05415,-0.05728 -0.12815,-0.19817 -0.16444,-0.31312c-0.08379,-0.26533 -0.10478,-0.2907 -0.26457,-0.32072c-0.13594,-0.02546 -0.32186,-0.23702 -0.32186,-0.36622c0,-0.17461 -0.68438,-0.29621 -0.82013,-0.14573m-13.07931,0.00332c-0.05111,0.05111 0.00494,0.14535 0.08645,0.14535c0.08151,0 0.13756,-0.09424 0.08645,-0.14535c-0.02451,-0.02451 -0.06346,-0.04465 -0.08645,-0.04465c-0.02299,0 -0.06194,0.02014 -0.08645,0.04465m-0.53855,0.57997c-0.05899,0.07106 -0.0265,0.17337 0.055,0.17337c0.08474,0 0.11552,-0.10972 0.0494,-0.17584c-0.04921,-0.0493 -0.06175,-0.04902 -0.1044,0.00247m13.03913,-0.00855c-0.05937,0.05937 -0.05709,0.12464 0.00608,0.17717c0.09243,0.07666 0.19769,-0.07856 0.1082,-0.1596c-0.05339,-0.04826 -0.07951,-0.05234 -0.11428,-0.01757m-13.67449,0.62187c-0.03667,0.09538 0.07552,0.188 0.13737,0.11343c0.02669,-0.03211 0.03857,-0.08426 0.02641,-0.1159c-0.02888,-0.07543 -0.13452,-0.07381 -0.16378,0.00247m14.25171,-0.00446c-0.02546,0.06621 0.05386,0.32452 0.09965,0.32452c0.06384,0 0.12473,-0.26429 0.07476,-0.32442c-0.05909,-0.07125 -0.14706,-0.07134 -0.17442,-0.00009m1.81915,0.29184c-0.06013,0.06061 -0.06213,0.38285 -0.00285,0.44213c0.06051,0.06051 0.1463,-0.01168 0.1424,-0.1196c-0.00646,-0.18059 -0.08968,-0.37287 -0.13955,-0.32252m-1.2445,0.25013c-0.14744,0.03629 -0.17404,0.08445 -0.11238,0.20368c0.03116,0.06023 0.06726,0.19104 0.08018,0.2907c0.03106,0.23968 0.05662,0.28129 0.2279,0.37116c0.09091,0.04769 0.1805,0.13974 0.24054,0.247l0.09576,0.171l0.01938,1.786c0.01073,0.9823 0.00598,1.84015 -0.01035,1.90636c-0.03344,0.1348 -0.25992,0.35463 -0.36546,0.35463c-0.13898,0 -0.19456,0.12131 -0.19456,0.42493c0,0.29849 0.09414,0.48706 0.24329,0.48706c0.21669,0 0.29792,0.35824 0.33145,1.463c0.02232,0.7352 -0.44412,1.29314 -0.69274,0.82859c-0.07315,-0.1368 -0.22306,-0.19969 -0.61617,-0.25859c-0.43491,-0.06526 -0.42047,-0.08065 -0.44384,0.47604c-0.02213,0.52848 -0.10212,0.66823 -0.40584,0.70898c-0.24814,0.03325 -0.54349,-0.18914 -0.54406,-0.40964c-0.00019,-0.08103 -0.10773,-0.17014 -0.24481,-0.20282c-0.18487,-0.04408 -0.32015,-0.16539 -0.36337,-0.32585c-0.06336,-0.23541 -0.23009,-0.2261 -0.37601,0.02118c-0.16387,0.27778 -0.75325,0.36869 -2.15099,0.33174c-1.07435,-0.0284 -1.18503,-0.0132 -1.25789,0.17261c-0.08417,0.21451 -0.10763,0.24728 -0.24272,0.33924c-0.2204,0.1501 -0.52715,0.08103 -0.66329,-0.14943c-0.06498,-0.10991 -0.07106,-0.22363 -0.07438,-1.39583c-0.00446,-1.56104 -0.0152,-1.5199 0.45239,-1.72187c0.14554,-0.06279 0.1823,-0.43652 0.16216,-1.64996c-0.01444,-0.86706 -0.02242,-0.90117 -0.22078,-0.94477c-0.16093,-0.03534 -0.32746,-0.20938 -0.37724,-0.39425c-0.05567,-0.20681 -0.10782,-0.18819 -0.2394,0.08559c-0.1462,0.304 -0.32642,0.38646 -0.77045,0.35226c-0.33829,-0.02593 -0.39748,0.00085 -0.44944,0.20377c-0.06507,0.25441 -0.19133,0.32186 -0.62861,0.33582c-0.44203,0.01415 -0.51043,0.04389 -0.54938,0.23854c-0.02859,0.14288 -0.20672,0.32528 -0.3515,0.35995c-0.1576,0.03771 -0.19199,0.07533 -0.21812,0.23873c-0.0265,0.1653 -0.17603,0.33658 -0.32471,0.37183c-0.13955,0.03306 -0.22325,0.11656 -0.30732,0.30656c-0.19,0.42959 -1.25134,0.39843 -1.44637,-0.04246c-0.10678,-0.24139 -0.13157,-0.25298 -0.48535,-0.22562c-0.41591,0.03201 -0.48611,0.10421 -0.19323,0.19855c0.27027,0.08702 0.34732,0.21897 0.39064,0.66842c0.06108,0.63583 -0.09956,0.89366 -0.55698,0.89366c-0.14354,0 -0.51775,0.0646 -0.52164,0.08996c-0.00038,0.00275 -0.02365,0.14563 -0.05158,0.31758c-0.05595,0.34409 -0.04028,0.38636 0.16634,0.44764c0.23854,0.07068 0.342,0.2868 0.342,0.7144c0,0.34665 0.03258,0.4104 0.23455,0.45828c0.16007,0.038 0.33003,0.20358 0.3571,0.34808c0.02935,0.15618 0.08426,0.20577 0.31321,0.28243c0.3173,0.10621 0.33202,0.16397 0.3192,1.25105c-0.01121,0.95427 0.00522,1.06856 0.15361,1.06856c0.28642,0 0.46768,0.32433 0.43301,0.77463c-0.02432,0.31511 0.01966,0.44137 0.15371,0.44137c0.12768,0 0.34428,0.15219 0.38931,0.2735c0.09034,0.24348 0.076,0.22933 0.35406,0.34836c0.15076,0.0646 0.29383,0.25431 0.29412,0.38997c0.00019,0.1253 0.06916,0.15504 0.42693,0.18401c0.38437,0.03106 0.53038,0.10668 0.66291,0.34304c0.10488,0.18677 0.14725,0.20311 0.53627,0.20643c0.49979,0.00418 0.67925,0.13737 0.74689,0.55442c0.04161,0.25631 0.06336,0.26951 0.2736,0.16606c0.17879,-0.08797 0.21679,-0.0912 1.22949,-0.10288c1.19443,-0.01387 1.22426,-0.00684 1.39355,0.32794c0.14468,0.28623 0.07467,0.26923 1.05944,0.25669c0.64828,-0.00826 0.90563,-0.02441 0.94791,-0.05947c0.11276,-0.09357 -0.00722,-0.14098 -0.42778,-0.16891c-0.48041,-0.03192 -0.59508,-0.07809 -0.80104,-0.32233l-0.15361,-0.18221l0.19807,-0.20786c0.22021,-0.23094 0.29393,-0.25745 0.72371,-0.26096c0.4559,-0.0037 0.54682,-0.03296 0.64286,-0.20681c0.11647,-0.21099 0.33544,-0.3115 0.8131,-0.37306c0.37819,-0.04883 0.38646,-0.05215 0.58482,-0.23047c0.23113,-0.20776 0.36442,-0.28395 0.60486,-0.34561c0.17461,-0.04474 0.20805,-0.08312 0.30561,-0.35093c0.04151,-0.11381 0.17765,-0.20653 0.42588,-0.29013c0.03657,-0.01225 0.10858,-0.11761 0.16007,-0.23398c0.08464,-0.19142 0.1139,-0.22068 0.30514,-0.30523c0.19494,-0.08626 0.21926,-0.11143 0.30979,-0.32005c0.08901,-0.20539 0.11466,-0.23256 0.27436,-0.29108c0.22106,-0.08103 0.24776,-0.10849 0.30647,-0.3153c0.02726,-0.09604 0.09889,-0.21527 0.16767,-0.27882c0.06602,-0.06099 0.15684,-0.14573 0.20178,-0.18819c0.08113,-0.07685 0.16511,-0.06688 0.16558,0.01966c0.00009,0.02489 0.05149,0.07438 0.11409,0.11001c0.07543,0.04294 0.15561,0.15086 0.23721,0.31948c0.15817,0.32651 0.19427,0.31511 0.22201,-0.07011c0.0304,-0.42189 0.01425,-0.44716 -0.28481,-0.44716l-0.24044,0l-0.02479,-0.1805c-0.06346,-0.4617 0.13281,-1.05545 0.39444,-1.19358c0.16416,-0.08664 0.18145,-0.1444 0.18629,-0.62092c0.00446,-0.44384 0.06422,-0.60144 0.26913,-0.70927c0.40555,-0.21356 0.66633,0.03838 0.7087,0.68485c0.02631,0.40118 0.0741,0.51499 0.16843,0.40128c0.05225,-0.06289 0.06992,-1.67219 0.02014,-1.82761c-0.01225,-0.03809 -0.1121,-0.112 -0.22201,-0.16425c-0.33383,-0.15874 -0.33734,-0.17423 -0.32452,-1.425c0.01225,-1.20469 0.03942,-1.33389 0.33354,-1.58811c0.21812,-0.18857 0.23246,-0.24082 0.25536,-0.93261c0.01976,-0.5965 0.01662,-0.63716 -0.05386,-0.70005c-0.12445,-0.11115 -0.18791,0.00598 -0.21118,0.38978c-0.02717,0.44821 -0.18743,0.684 -0.46502,0.684c-0.56962,0 -0.68219,-1.21543 -0.1367,-1.47554l0.2127,-0.10146l0.02707,-0.29906c0.02166,-0.23864 0.01491,-0.32271 -0.03334,-0.4161l-0.06051,-0.11704l-0.07115,0.08778c-0.03904,0.04835 -0.07115,0.12445 -0.07115,0.1691c-0.00047,0.2697 -0.3211,0.49324 -0.5775,0.40261c-0.43975,-0.15532 -0.43263,-0.75895 0.01073,-0.91076c0.25726,-0.08816 0.25346,-0.08141 0.23341,-0.40679c-0.02888,-0.4712 -0.15409,-0.54976 -0.26837,-0.16834c-0.13423,0.44802 -0.67212,0.43063 -0.89423,-0.02888c-0.08512,-0.17613 -0.12967,-0.21327 -0.29839,-0.24871c-0.13908,-0.02916 -0.25013,-0.15599 -0.29991,-0.34219c-0.04132,-0.15447 -0.09851,-0.25241 -0.14278,-0.24424c-0.01311,0.00247 -0.05804,0.01282 -0.09984,0.02308m-15.40111,0.05586c-0.06431,0.06431 -0.06289,0.70224 0.00161,0.72542c0.14003,0.05016 0.17869,-0.03999 0.15561,-0.3629c-0.02356,-0.32832 -0.07438,-0.44536 -0.15722,-0.36252m-0.57636,1.14978c-0.0854,0.10298 -0.10089,0.66984 -0.01995,0.72903c0.12701,0.09291 0.17043,-0.00038 0.17043,-0.36613c0,-0.35292 -0.05291,-0.48041 -0.15048,-0.3629m-0.62491,1.19491c-0.08664,0.09576 -0.08521,0.63602 0.00199,0.76047l0.0626,0.08939l0.06954,-0.09044c0.16739,-0.21764 0.038,-0.94971 -0.13414,-0.75943m-0.5548,1.45122c-0.09101,0.3971 -0.09405,4.56655 -0.00332,4.64863c0.15228,0.13775 0.15817,0.03838 0.14335,-2.40198c-0.01434,-2.35172 -0.036,-2.70018 -0.14003,-2.24665m20.75018,1.93448c-0.04873,0.27759 -0.03771,0.8132 0.01976,0.96301c0.09072,0.23598 0.1596,-0.58624 0.08227,-0.98173l-0.05196,-0.266l-0.05006,0.28471m-20.17163,3.38228c-0.0816,0.41524 -0.08863,0.50521 -0.06279,0.80123c0.02451,0.28053 0.03211,0.30077 0.11333,0.30077c0.15247,0 0.16501,-0.68105 0.02204,-1.197c-0.03021,-0.10906 -0.03334,-0.10497 -0.07258,0.095m18.94024,0.9594c-0.0968,0.03353 -0.10564,0.05016 -0.0835,0.15656c0.01358,0.06545 0.03477,0.20453 0.04693,0.30903c0.05405,0.46388 0.27797,0.38731 0.27797,-0.095c0,-0.34637 -0.05728,-0.43434 -0.24139,-0.37059m-18.3577,0.60809c-0.12055,0.39035 -0.02251,0.85766 0.1539,0.73406c0.13138,-0.09205 0.03904,-0.78156 -0.10469,-0.78156c-0.0189,0 -0.04113,0.02137 -0.04921,0.0475m0.5966,1.11967c-0.06298,0.0228 -0.0607,0.14259 0.0037,0.19608c0.08977,0.07448 0.19874,-0.07837 0.11058,-0.15513c-0.03676,-0.03201 -0.08816,-0.05044 -0.11428,-0.04094m0.59764,0.63878c-0.0322,0.03895 -0.04664,0.14915 -0.04104,0.31445c0.01254,0.37344 0.02954,0.41572 0.1881,0.4674c0.20358,0.0664 0.32053,0.17233 0.38608,0.34969c0.05833,0.15789 0.15295,0.23237 0.34447,0.27094c0.05377,0.01073 0.16045,0.06213 0.23702,0.11409c0.15599,0.10583 0.18211,0.08806 0.22809,-0.15475c0.02707,-0.14354 -0.03543,-0.20833 -0.26419,-0.2735c-0.15485,-0.04408 -0.27968,-0.20377 -0.27968,-0.35758c0,-0.08312 -0.11713,-0.16824 -0.26885,-0.19532c-0.18249,-0.03268 -0.29564,-0.14668 -0.32452,-0.32689c-0.03078,-0.19256 -0.13271,-0.29611 -0.20548,-0.20852m16.04141,0.03154c-0.03306,0.0399 -0.03097,0.06279 0.00893,0.09595c0.0399,0.03306 0.06279,0.03097 0.09595,-0.00893c0.03306,-0.0399 0.03097,-0.06279 -0.00893,-0.09595c-0.0399,-0.03306 -0.06279,-0.03097 -0.09595,0.00893m-0.64505,0.60686c-0.03448,0.04161 -0.03173,0.06412 0.01254,0.10089c0.07438,0.06165 0.18116,0.01947 0.16482,-0.06517c-0.01624,-0.08455 -0.11951,-0.10535 -0.17736,-0.03572m-0.55062,0.55119c-0.05947,0.06564 -0.05899,0.07419 0.00665,0.13357c0.06564,0.05947 0.07419,0.05899 0.13357,-0.00665c0.05947,-0.06564 0.05899,-0.07419 -0.00665,-0.13357c-0.06564,-0.05947 -0.07419,-0.05899 -0.13357,0.00665m-13.30123,0.62538c-0.05966,0.0436 -0.04617,0.05548 0.12435,0.11001c0.20539,0.06574 0.30542,0.02612 0.2564,-0.10146c-0.02764,-0.07201 -0.28604,-0.0778 -0.38076,-0.00855m12.67385,0.00142c-0.03429,0.04142 -0.03249,0.06346 0.00817,0.09728c0.06897,0.05719 0.18335,0.01197 0.16824,-0.0665c-0.01548,-0.08037 -0.12008,-0.0987 -0.17641,-0.03078m-1.13629,0.33962c-0.20111,0.25346 -0.06707,0.40821 0.33126,0.38237c0.45885,-0.02973 0.50416,-0.11229 0.12245,-0.22325c-0.1178,-0.0342 -0.25973,-0.09462 -0.3153,-0.13423c-0.07856,-0.05595 -0.10944,-0.06146 -0.13841,-0.02489m-10.70868,0.25878c-0.08578,0.09471 0,0.13252 0.36898,0.16216c0.31844,0.02565 0.45144,-0.03163 0.33326,-0.14364c-0.0911,-0.08626 -0.62814,-0.10041 -0.70224,-0.01852m9.50237,0.52943c-0.11058,0.21375 0.53684,0.35644 0.71649,0.15798c0.08559,-0.09452 -0.01966,-0.19541 -0.20634,-0.19779c-0.07153,-0.00095 -0.20339,-0.01586 -0.29307,-0.03325c-0.15342,-0.02964 -0.16615,-0.02536 -0.21707,0.07305m-8.35952,0.05177c-0.11485,0.08398 0.03724,0.13803 0.38855,0.13803c0.30067,0 0.40213,-0.03838 0.36404,-0.13765c-0.02812,-0.07315 -0.65246,-0.07353 -0.75259,-0.00038m1.22122,0.58786c-0.05918,0.06536 -0.05842,0.07419 0.01092,0.13699c0.14155,0.12806 1.56047,0.04189 1.56047,-0.09471c0,-0.12882 -1.45758,-0.16805 -1.57139,-0.04227m2.82539,0.59489l-0.209,0.04284l0.19,0.03059c0.23408,0.03771 0.79154,0.02916 0.90459,-0.01387c0.18715,-0.07115 -0.57845,-0.12264 -0.88559,-0.05956" fill="#070707" fill-rule="evenodd"/>
  <path stroke="null" id="path1" d="m11.92186,2.69334c-0.25042,0.03068 -0.38703,0.12416 -0.47623,0.32594c-0.08882,0.20064 -0.11134,0.20976 -0.52212,0.21023c-0.48678,0.00066 -0.87362,0.15228 -1.05725,0.41448c-0.03401,0.04864 -0.17765,0.11523 -0.38323,0.17803c-0.36176,0.11029 -0.54188,0.24624 -0.54188,0.40897c0,0.12521 -0.00484,0.12739 -0.43519,0.19199c-0.43681,0.06564 -0.51224,0.1083 -0.65436,0.37002c-0.0893,0.16473 -0.13461,0.2071 -0.26847,0.25118c-0.16834,0.05538 -0.28614,0.18363 -0.35796,0.38978c-0.03182,0.09129 -0.08825,0.13898 -0.24804,0.20966c-0.18886,0.0835 -0.21508,0.11067 -0.30267,0.31378c-0.08901,0.20615 -0.11305,0.23047 -0.33012,0.33354c-0.20928,0.09927 -0.24063,0.12939 -0.29516,0.28215c-0.05092,0.14278 -0.09395,0.18905 -0.26068,0.28015c-0.2394,0.13081 -0.32319,0.28956 -0.36375,0.68884c-0.03154,0.31103 -0.06897,0.399 -0.16957,0.399c-0.1634,0 -0.32623,0.20957 -0.41999,0.54055c-0.0741,0.26134 -0.11913,0.34656 -0.26666,0.50445c-0.2716,0.29079 -0.31407,0.39843 -0.32936,0.836c-0.01833,0.52573 -0.02128,0.53409 -0.22572,0.63602c-0.34969,0.17442 -0.33354,0.04721 -0.34703,2.72697c-0.01406,2.77276 -0.01339,2.77761 0.38617,2.88068c0.14582,0.03771 0.16815,0.15181 0.17328,0.88521c0.00389,0.55622 0.05301,0.67545 0.3382,0.81966c0.27084,0.13689 0.27312,0.14107 0.27312,0.49333c0,0.47519 0.12948,0.69891 0.43823,0.75686c0.10431,0.01957 0.13756,0.05139 0.18933,0.18145c0.0798,0.20045 0.1519,0.27987 0.34143,0.37591c0.20244,0.10269 0.20776,0.11457 0.20843,0.46588c0.00085,0.40099 0.06631,0.53162 0.34257,0.68362c0.15646,0.08607 0.22809,0.15456 0.285,0.27236c0.10649,0.22049 0.19902,0.31141 0.36147,0.35511c0.1691,0.0456 0.34152,0.19636 0.34152,0.29868c0,0.06536 0.19009,0.26628 0.25944,0.27417c0.65664,0.07457 0.70461,0.08825 0.79163,0.22505c0.17432,0.27398 0.23959,0.33136 0.47471,0.41705c0.14269,0.05206 0.27626,0.13176 0.3344,0.19969c0.23208,0.27094 0.50777,0.3724 1.10342,0.40584c0.39843,0.02242 0.39871,0.02251 0.44783,0.13642c0.19798,0.45885 0.17869,0.45144 1.23671,0.4788c0.4845,0.01254 0.88597,0.02536 0.89214,0.0285c0.00627,0.00313 0.09652,0.09082 0.20054,0.19494c0.46778,0.46768 2.34982,0.44764 2.64442,-0.02831c0.12407,-0.20026 0.11628,-0.19883 1.11245,-0.19978c1.13876,-0.00104 1.19244,-0.01548 1.36011,-0.36746l0.10516,-0.22068l0.38674,-0.019c0.44422,-0.02185 0.55109,-0.07381 0.67725,-0.32974c0.13186,-0.26733 0.15,-0.27816 0.47015,-0.27911c0.40356,-0.00114 0.57019,-0.08151 0.71288,-0.3438c0.08759,-0.16112 0.13822,-0.21033 0.2584,-0.25127c0.19437,-0.06621 0.27854,-0.14497 0.378,-0.35378c0.05272,-0.11039 0.1215,-0.18819 0.19494,-0.2204c0.06251,-0.02745 0.13927,-0.06251 0.17062,-0.0779c0.03135,-0.01548 0.10773,-0.13423 0.16967,-0.264c0.09595,-0.20083 0.13556,-0.24481 0.266,-0.29526c0.21536,-0.08331 0.31891,-0.17888 0.37544,-0.34675c0.04104,-0.1216 0.08407,-0.16188 0.26733,-0.25023c0.19446,-0.09376 0.22847,-0.12796 0.30998,-0.31236c0.07771,-0.17565 0.12046,-0.22173 0.28167,-0.30343c0.25697,-0.13024 0.31692,-0.25336 0.34247,-0.70357c0.02023,-0.35691 0.02166,-0.36119 0.13442,-0.40983c0.40631,-0.17527 0.45049,-0.24443 0.475,-0.7428l0.019,-0.38674l0.22068,-0.10516c0.35197,-0.16767 0.36641,-0.22135 0.36746,-1.36068c0.00095,-1.02752 -0.01833,-0.93945 0.25317,-1.15577c0.43111,-0.34352 0.42778,-2.20143 -0.00465,-2.61582c-0.23693,-0.22705 -0.24766,-0.27616 -0.24766,-1.13382c0,-0.93451 -0.04512,-1.06732 -0.39225,-1.15444c-0.17375,-0.0436 -0.20491,-0.1215 -0.22695,-0.56829c-0.02669,-0.54112 -0.095,-0.73359 -0.34979,-0.98638c-0.13613,-0.13499 -0.21821,-0.25669 -0.26182,-0.38817c-0.06897,-0.20757 -0.15836,-0.30856 -0.36518,-0.4123c-0.17261,-0.08664 -0.18145,-0.10336 -0.20919,-0.39691c-0.04446,-0.4712 -0.13186,-0.64818 -0.34675,-0.70205c-0.09794,-0.0246 -0.23826,-0.15722 -0.24082,-0.22771c-0.0057,-0.16093 -0.17746,-0.37838 -0.36423,-0.46094c-0.15874,-0.0702 -0.20824,-0.11409 -0.2413,-0.21394c-0.1026,-0.31008 -0.29117,-0.41059 -0.77026,-0.41059c-0.32613,0 -0.35606,-0.01681 -0.46645,-0.26153c-0.05928,-0.13138 -0.10925,-0.17603 -0.29032,-0.25916c-0.18648,-0.08559 -0.22201,-0.11837 -0.24168,-0.22296c-0.05747,-0.30637 -0.23161,-0.40802 -0.74261,-0.43348l-0.39871,-0.01985l-0.04911,-0.114c-0.17717,-0.41087 -0.27778,-0.4749 -0.74565,-0.47519c-0.7694,-0.00057 -0.96558,-0.03353 -1.01061,-0.17005c-0.04731,-0.14326 -0.20453,-0.30276 -0.35425,-0.35938c-0.11561,-0.0436 -4.44524,-0.04921 -4.79731,-0.00617m4.77755,0.1843c0.26799,0.15779 0.27179,0.47272 0.00627,0.51661c-0.08008,0.0132 -1.15634,0.02422 -2.39172,0.02451c-2.52016,0.00047 -2.58751,0.00418 -2.64489,0.14848c-0.08768,0.22021 -0.11808,0.26077 -0.26837,0.35824c-0.14003,0.09082 -0.19342,0.10174 -0.50065,0.10288c-0.39377,0.00133 -0.43329,0.0209 -0.55185,0.27312c-0.1139,0.24215 -0.19807,0.28671 -0.5946,0.31445c-0.48792,0.0342 -0.5054,0.04037 -0.57142,0.20102c-0.12749,0.31074 -0.25241,0.38817 -0.62595,0.38817c-0.36546,0 -0.52706,0.04161 -0.52706,0.13585c0,0.20786 -0.26049,0.47215 -0.46531,0.47215c-0.12008,0 -0.16406,0.05576 -0.19323,0.24472c-0.03068,0.1995 -0.12663,0.28633 -0.35178,0.31853c-0.18373,0.02622 -0.18696,0.02907 -0.20719,0.18021c-0.03467,0.25849 -0.1976,0.43177 -0.45913,0.48811c-0.12017,0.02584 -0.14734,0.12815 -0.14734,0.5547l0,0.29488l-0.15209,0.13737c-0.08369,0.07562 -0.18363,0.13746 -0.22211,0.13746c-0.14098,0 -0.18791,0.11571 -0.21574,0.532c-0.02945,0.44194 -0.1234,0.61303 -0.36575,0.66623c-0.17632,0.03876 -0.2223,0.14573 -0.2223,0.51775c0,0.45885 -0.15038,0.75183 -0.41296,0.80427c-0.17499,0.03505 -0.17518,0.03828 -0.18715,2.69524l-0.0114,2.5365l0.16568,0c0.33877,0 0.44583,0.29687 0.44583,1.23595c0,0.4199 0.02327,0.47405 0.20349,0.47405c0.20947,0 0.37867,0.23275 0.4312,0.59308c0.05301,0.36413 0.10364,0.48687 0.22325,0.54131c0.12416,0.05662 0.32005,0.33801 0.32005,0.4597c0,0.12815 0.06393,0.1919 0.19247,0.1919c0.13129,0 0.28177,0.12046 0.41211,0.32984c0.05728,0.09205 0.18753,0.2222 0.28937,0.28927c0.12578,0.08274 0.21574,0.18135 0.28015,0.30694c0.07296,0.14231 0.131,0.20054 0.25127,0.25213c0.1595,0.0683 0.29155,0.20225 0.40498,0.41068c0.03486,0.06403 0.131,0.15086 0.21375,0.19313c0.19313,0.09851 0.34988,0.28547 0.34988,0.41733c0,0.1691 0.05956,0.19465 0.4541,0.19475c0.43139,0.00019 0.54929,0.05386 0.70604,0.32138c0.13404,0.22876 0.17983,0.24852 0.57693,0.24852c0.44849,0 0.568,0.08464 0.61683,0.437l0.02109,0.152l0.67364,0.01035c0.74537,0.01149 0.90449,-0.0208 0.98619,-0.20026c0.08569,-0.188 -0.10602,-0.3172 -0.52829,-0.35615c-0.33905,-0.03125 -0.73254,-0.19893 -0.73254,-0.31198c0,-0.06745 -0.17917,-0.14497 -0.47348,-0.2051c-0.34874,-0.07125 -0.36489,-0.08179 -0.53627,-0.34969c-0.07505,-0.11742 -0.20577,-0.25156 -0.31635,-0.32461c-0.10364,-0.06849 -0.24282,-0.20767 -0.30941,-0.30922c-0.0665,-0.10165 -0.17423,-0.2128 -0.23921,-0.247c-0.3059,-0.16121 -0.36727,-0.26837 -0.36727,-0.64201c0,-0.38047 0.04788,-0.29573 -0.4085,-0.72314l-0.1615,-0.15124l-0.00085,-0.90696c-0.00095,-1.01669 0.0075,-0.98296 -0.29098,-1.16736c-0.0873,-0.05396 -0.1899,-0.1444 -0.228,-0.20092c-0.06659,-0.09889 -0.25355,-0.28823 -0.55366,-0.5605l-0.1425,-0.12939l0,-0.31977c0,-0.34988 -0.01672,-0.3799 -0.33307,-0.59688c-0.20529,-0.14088 -0.2431,-0.25583 -0.20273,-0.61664c0.04655,-0.41676 0.1329,-0.492 0.62367,-0.54378c0.21185,-0.02232 0.28272,-0.04816 0.3895,-0.14193l0.13062,-0.11466l0,-0.342l0,-0.3419l-0.1425,-0.1311c-0.07837,-0.07201 -0.21783,-0.19579 -0.30998,-0.27502l-0.16748,-0.14411l0.15798,-0.15798l0.15798,-0.15798l0.32993,0l0.32993,0l0.27236,0.285l0.27227,0.285l0.32081,0c0.34884,0 0.41049,-0.03458 0.67079,-0.37658c0.04797,-0.06289 0.15266,-0.15114 0.23265,-0.19617c0.07999,-0.04493 0.19038,-0.15285 0.24538,-0.23978c0.05491,-0.08702 0.13841,-0.19427 0.18534,-0.23845c0.12122,-0.11381 0.42303,-0.42465 0.57532,-0.59251l0.12939,-0.1425l0.35824,0c0.38456,0 0.47604,-0.04303 0.53998,-0.25412c0.06507,-0.21498 0.26438,-0.31587 0.62377,-0.31587c0.37173,0 0.40536,-0.01947 0.62928,-0.3647c0.20206,-0.3116 0.36489,-0.28785 0.59679,0.08683c0.04123,0.06659 0.15903,0.18145 0.26172,0.25526c0.31692,0.22771 0.31321,0.20833 0.29754,1.53824c-0.01539,1.30786 -0.00522,1.2596 -0.30818,1.45473c-0.30751,0.19807 -0.29336,0.12587 -0.29336,1.50014l0,1.2236l0.11694,0.11694c0.1519,0.152 0.19076,0.14772 0.34418,-0.03752c0.0703,-0.08493 0.19,-0.22173 0.2659,-0.304l0.13803,-0.14953l1.2787,0c1.42091,0 1.39384,0.00408 1.71152,-0.25982c0.10345,-0.08607 0.28671,-0.18971 0.40707,-0.23037l0.21897,-0.07391l0.10763,0.12264c0.05918,0.06735 0.14601,0.18468 0.19294,0.26058c0.05367,0.08692 0.13328,0.1539 0.21508,0.18088c0.07134,0.02356 0.17746,0.10193 0.23588,0.17423c0.39957,0.49485 0.38798,0.48849 0.56981,0.31236c0.12226,-0.11846 0.1253,-0.12939 0.1253,-0.44175c0,-0.26419 0.01786,-0.36109 0.10184,-0.55309c0.14753,-0.33715 0.14316,-0.33402 0.32727,-0.23189c0.08797,0.04883 0.30428,0.1254 0.48079,0.17014c0.17651,0.04474 0.38703,0.11333 0.46787,0.15238l0.14687,0.07096l0.11485,-0.17822c0.12559,-0.19465 0.12559,-0.19323 0.04702,-1.2102l-0.02394,-0.31008l-0.18876,-0.17822c-0.38855,-0.3666 -0.42284,-1.03787 -0.06393,-1.24991c0.05928,-0.03496 0.1595,-0.10716 0.22287,-0.16055l0.11523,-0.0969l0,-1.65176c0,-1.8639 -0.00598,-1.91786 -0.23693,-2.13341c-0.17765,-0.16577 -0.30371,-0.35321 -0.3666,-0.54473c-0.02489,-0.07581 -0.12891,-0.22372 -0.23123,-0.3287c-0.1881,-0.19313 -0.2755,-0.39149 -0.33041,-0.74964c-0.03372,-0.22021 -0.07457,-0.27882 -0.2128,-0.30504c-0.20434,-0.03876 -0.37002,-0.21736 -0.37002,-0.39881c0,-0.12806 -0.06526,-0.18914 -0.20206,-0.18914c-0.188,0 -0.41733,-0.26011 -0.36404,-0.41287c0.04151,-0.11894 0.23189,-0.30913 0.30951,-0.30913c0.1538,0 0.23455,-0.25203 0.10649,-0.33202c-0.19275,-0.12036 -1.0279,-0.06982 -1.0279,0.06213c0,0.06346 -0.23132,0.30789 -0.29136,0.30789c-0.04503,0 -0.24063,-0.20073 -0.24063,-0.247c0,-0.05662 0.20852,-0.209 0.28595,-0.209c0.16169,0 0.20805,-0.07039 0.20748,-0.31483c-0.00085,-0.34713 0.00418,-0.3438 -0.49875,-0.32414c-0.475,0.01871 -0.54577,0.04284 -0.77653,0.26476c-0.23892,0.2299 -0.31644,0.1558 -0.39463,-0.37724c-0.07476,-0.51043 -0.08806,-0.50141 0.77767,-0.53l0.64609,-0.02147l0.1424,0.1576c0.10545,0.11675 0.14231,0.19085 0.14231,0.28633c0,0.16492 0.02973,0.17499 0.5148,0.17499c0.45951,0 0.62301,0.08977 0.70271,0.3857c0.03372,0.12511 0.06773,0.16273 0.20007,0.22106c0.22154,0.09766 0.36841,0.24728 0.36841,0.37515c0,0.17214 0.05776,0.19608 0.4731,0.19617c0.44222,0.00019 0.58035,0.05719 0.68789,0.28376c0.03562,0.07505 0.11447,0.17442 0.17527,0.22078c0.29146,0.22249 0.38921,0.32167 0.43833,0.44479c0.02935,0.07343 0.15485,0.22762 0.27882,0.34257l0.22553,0.209l0.07258,0.41334c0.07305,0.41581 0.10592,0.47794 0.25355,0.47908c0.12701,0.00095 0.3134,0.22961 0.4027,0.494c0.05101,0.15095 0.13699,0.30267 0.22676,0.40014c0.26106,0.28319 0.33668,0.50587 0.33706,0.99284c0.00038,0.44925 0.00893,0.46958 0.19712,0.46958c0.34874,0 0.42617,0.21736 0.40061,1.12442c-0.02517,0.88939 -0.05453,1.02505 -0.23854,1.1019c-0.31074,0.12986 -0.42493,0.77339 -0.33943,1.91415c0.02878,0.38465 0.15827,0.60952 0.35093,0.60952c0.19199,0 0.21774,0.10317 0.23104,0.92539c0.02023,1.25438 -0.01472,1.38662 -0.39235,1.48219l-0.19,0.04816l-0.019,0.44716l-0.019,0.44726l-0.14193,0.12986c-0.0912,0.0835 -0.18012,0.12996 -0.2489,0.12996c-0.15542,0 -0.19817,0.06507 -0.19845,0.3021c-0.00095,0.5794 -0.09984,0.79325 -0.39871,0.8625c-0.13984,0.03239 -0.15475,0.04826 -0.18658,0.19845c-0.05073,0.23968 -0.2108,0.38494 -0.42436,0.38494l-0.16805,0l0,0.17043c0,0.23199 -0.14259,0.39539 -0.37192,0.42607c-0.17394,0.02337 -0.20985,0.06298 -0.25042,0.27616c-0.03106,0.1634 -0.19788,0.34333 -0.31825,0.34333c-0.15485,0 -0.2374,0.06811 -0.2374,0.19579c0,0.15998 -0.24833,0.4122 -0.40593,0.4122c-0.13243,0 -0.20206,0.06051 -0.20206,0.17565c0,0.24586 -0.28775,0.39377 -0.76674,0.39415c-0.32262,0.00019 -0.41125,0.04683 -0.41125,0.21641c0,0.06165 -0.05339,0.1501 -0.14753,0.24424l-0.14753,0.14753l-0.39396,0.00057c-0.45467,0.00066 -0.47281,0.00788 -0.50901,0.20064c-0.06868,0.36594 -0.20425,0.40698 -1.3432,0.40622c-0.97669,-0.00066 -1.0089,-0.00826 -1.10219,-0.26153c-0.10763,-0.29203 -0.15836,-0.30979 -0.9576,-0.33497c-1.05706,-0.03325 -1.43032,0.05928 -1.49245,0.37021c-0.03496,0.17442 -0.14364,0.19608 -1.09307,0.21755l-0.85956,0.01947l-0.14402,-0.13214c-0.11191,-0.1025 -0.14915,-0.16957 -0.16653,-0.29953l-0.02232,-0.16748l-0.456,-0.02099c-0.50635,-0.02327 -0.66186,-0.07761 -0.92074,-0.32186c-0.09082,-0.08569 -0.23835,-0.16387 -0.42883,-0.22733c-0.32423,-0.10801 -0.53143,-0.27968 -0.53143,-0.44051c0,-0.12473 -0.06602,-0.18629 -0.19959,-0.18629c-0.34143,0 -0.65065,-0.11865 -0.8644,-0.33174c-0.11495,-0.11457 -0.28205,-0.24282 -0.37145,-0.2849c-0.16207,-0.07647 -0.24196,-0.15798 -0.40099,-0.40935c-0.04617,-0.07315 -0.14117,-0.16169 -0.2109,-0.19665c-0.27379,-0.13756 -0.29811,-0.18582 -0.32784,-0.65179c-0.02983,-0.46521 -0.05196,-0.51955 -0.21194,-0.51955c-0.131,0 -0.27939,-0.14459 -0.3781,-0.36841c-0.05833,-0.13233 -0.09595,-0.16634 -0.22106,-0.20007c-0.29906,-0.08046 -0.3857,-0.24168 -0.3857,-0.71725c0,-0.44479 -0.02185,-0.50027 -0.1975,-0.50027c-0.06944,0 -0.16102,-0.0494 -0.2641,-0.1425l-0.15779,-0.1425l0.02451,-0.7315l0.02451,-0.7315l-0.13471,0c-0.47794,0 -0.4731,0.02479 -0.47177,-2.4396c0.00152,-2.67805 0.02042,-2.82064 0.38456,-2.90063c0.15741,-0.03458 0.1843,-0.11723 0.1843,-0.56705c0,-0.45866 0.05434,-0.5909 0.33411,-0.81253c0.14582,-0.11542 0.27388,-0.4332 0.27388,-0.67963c0,-0.12901 0.19076,-0.35558 0.36081,-0.42845c0.1861,-0.0798 0.19199,-0.09243 0.24481,-0.52345c0.04702,-0.38418 0.15941,-0.55755 0.38465,-0.59356c0.14677,-0.02346 0.18772,-0.07581 0.18772,-0.23968c0,-0.16463 0.26153,-0.3914 0.45153,-0.3914c0.15342,0 0.15646,-0.00256 0.15646,-0.1329c0,-0.1899 0.21175,-0.41866 0.418,-0.45172c0.14696,-0.02346 0.152,-0.02916 0.152,-0.17138c0,-0.18192 0.2336,-0.42199 0.41049,-0.42199c0.131,0 0.1975,-0.06203 0.1975,-0.18449c0,-0.21185 0.25536,-0.37192 0.64153,-0.40213c0.35169,-0.02745 0.49846,-0.10687 0.49846,-0.26961c0,-0.08445 0.25973,-0.2793 0.42702,-0.32024c0.45049,-0.11039 0.55366,-0.1558 0.65436,-0.28775c0.18259,-0.2394 0.41002,-0.32176 0.88872,-0.32176c0.44089,0 0.47281,-0.01206 0.51889,-0.19551c0.04702,-0.18724 0.21859,-0.30685 0.48298,-0.33696c0.58168,-0.06602 4.51459,-0.04151 4.63429,0.02897m0.00294,0.76c0.03714,0.04189 0.07391,0.20539 0.09918,0.44156c0.05244,0.49048 0.21802,0.68799 0.48326,0.57646c0.10849,-0.04569 0.32034,-0.25811 0.32034,-0.32129c0,-0.12739 0.81386,-0.209 0.853,-0.08559c0.0361,0.11381 -0.03638,0.2242 -0.16596,0.2527c-0.25327,0.05557 -0.39168,0.30894 -0.28804,0.52725c0.17594,0.37088 0.61389,0.34988 0.84265,-0.04056c0.10032,-0.17109 0.10117,-0.17157 0.27084,-0.14839c0.09357,0.01292 0.24044,0.0247 0.32632,0.02641c0.16872,0.00323 0.1614,0.00997 -0.07514,0.07068c-0.40992,0.10516 -0.36176,0.82317 0.06583,0.98116c0.15029,0.05548 0.21622,0.10383 0.25232,0.18468c0.11504,0.25802 0.15361,0.30371 0.34912,0.41287l0.20596,0.11504l0.04892,0.33896c0.05557,0.38456 0.16235,0.58814 0.34922,0.66557c0.1121,0.04636 0.27075,0.29364 0.27103,0.42246c0.00028,0.08569 0.14639,0.30732 0.30333,0.45999c0.25878,0.25184 0.26657,0.31036 0.26657,2.00839c0,1.6625 0.01026,1.59144 -0.23911,1.65366c-0.1501,0.03752 -0.32357,0.22496 -0.35292,0.38123c-0.08236,0.43899 0.04664,1.06276 0.24918,1.2046c0.05111,0.03572 0.09433,0.14003 0.1311,0.31597c0.03021,0.14449 0.09006,0.39947 0.13309,0.56667c0.09414,0.36641 0.09395,0.35786 0.00817,0.46949l-0.06887,0.08949l-0.34884,-0.05994c-0.41068,-0.07049 -0.44745,-0.08768 -0.6744,-0.31464l-0.17318,-0.17318l-0.09585,0.08939c-0.22268,0.20767 -0.35435,0.62766 -0.35435,1.1304c0,0.47053 -0.1539,0.54207 -0.31701,0.14715c-0.04702,-0.1139 -0.10203,-0.16254 -0.2793,-0.247c-0.18677,-0.08901 -0.23531,-0.13423 -0.31568,-0.29412c-0.12758,-0.25365 -0.30723,-0.37382 -0.51195,-0.34238c-0.42921,0.06583 -0.74252,0.2203 -0.79743,0.39311c-0.05538,0.1747 -0.21137,0.19513 -1.49444,0.19608c-1.38861,0.00095 -1.47668,0.0171 -1.59039,0.29241c-0.09671,0.23417 -0.16273,0.29127 -0.24795,0.21413c-0.06498,-0.05871 -0.06982,-0.14639 -0.06982,-1.25153c0,-1.32981 -0.01738,-1.24621 0.28775,-1.3812c0.30704,-0.13575 0.31844,-0.19351 0.31939,-1.61908c0.00095,-1.41398 -0.01149,-1.47478 -0.33715,-1.63599c-0.13062,-0.06469 -0.18686,-0.12445 -0.25821,-0.27455c-0.21555,-0.45362 -0.79695,-0.41372 -0.90991,0.06241c-0.04788,0.20187 -0.11162,0.23455 -0.45799,0.23455c-0.43025,0 -0.56183,0.05804 -0.66414,0.29317c-0.13148,0.30229 -0.15209,0.31473 -0.52212,0.31568c-0.44222,0.00114 -0.62225,0.08103 -0.72551,0.32195c-0.04816,0.11248 -0.11685,0.19684 -0.19446,0.23902c-0.20102,0.10915 -0.30438,0.2127 -0.3894,0.38988c-0.05975,0.12454 -0.12293,0.18943 -0.23892,0.24529c-0.2127,0.1025 -0.30628,0.19342 -0.35691,0.34684c-0.05624,0.17043 -0.13119,0.20415 -0.45438,0.20415c-0.29079,0 -0.418,-0.04237 -0.418,-0.13936c0,-0.50388 -1.23633,-0.62386 -1.45008,-0.14069l-0.07904,0.1785l0.08037,0.1653c0.057,0.11732 0.1216,0.18392 0.22296,0.22971c0.26258,0.11865 0.27578,0.14193 0.27578,0.48554c0,0.39425 -0.02403,0.41838 -0.45077,0.45229c-0.5851,0.04645 -0.7049,0.17993 -0.70689,0.78736c-0.00152,0.47785 0.03819,0.56116 0.34323,0.71981l0.18743,0.09737l0.03971,0.35862c0.04968,0.44735 0.11628,0.57874 0.35055,0.69065c0.13461,0.06431 0.19883,0.12521 0.25574,0.24234c0.10621,0.2185 0.16634,0.28129 0.342,0.35653c0.247,0.10583 0.24206,0.08436 0.2546,1.11036c0.01292,1.06257 0.01681,1.07701 0.3305,1.22977c0.2165,0.10545 0.23066,0.13575 0.23132,0.49789c0.00085,0.44336 0.10915,0.64847 0.37791,0.71554c0.13518,0.03372 0.22201,0.12046 0.25051,0.25051c0.03116,0.14145 0.2146,0.3249 0.35606,0.35606c0.12654,0.02774 0.21118,0.11153 0.25051,0.24785c0.06973,0.24111 0.23854,0.36527 0.61807,0.45467c0.30238,0.07115 0.24301,0.10507 -0.23607,0.13509c-0.56145,0.03505 -0.60648,0.02251 -0.71345,-0.19864c-0.13509,-0.27911 -0.23208,-0.32889 -0.67497,-0.34665c-0.40517,-0.01634 -0.42123,-0.02413 -0.49048,-0.2394c-0.05215,-0.16207 -0.14269,-0.25184 -0.35881,-0.35606c-0.11742,-0.05662 -0.18192,-0.12359 -0.2527,-0.26239c-0.07875,-0.15456 -0.13072,-0.2033 -0.304,-0.285c-0.16302,-0.07695 -0.22572,-0.13233 -0.285,-0.25213c-0.11552,-0.23332 -0.17622,-0.30096 -0.342,-0.38104c-0.10649,-0.05149 -0.1747,-0.12065 -0.228,-0.23113c-0.10545,-0.21869 -0.18639,-0.2983 -0.37781,-0.37145c-0.14981,-0.05719 -0.17299,-0.08407 -0.25004,-0.29022c-0.08369,-0.22372 -0.25175,-0.41562 -0.36404,-0.41562c-0.07543,0 -0.12891,-0.15713 -0.16625,-0.48963c-0.03866,-0.34314 -0.10678,-0.44593 -0.38636,-0.58263l-0.21118,-0.10326l-0.02071,-0.62785c-0.02451,-0.74157 -0.06555,-0.86564 -0.31939,-0.96624c-0.30837,-0.12217 -0.28329,0.10041 -0.27113,-2.41366c0.01225,-2.51056 0.00199,-2.41642 0.28196,-2.60442c0.22268,-0.14962 0.2925,-0.32879 0.31654,-0.81244l0.02042,-0.41116l0.209,-0.08284c0.2963,-0.11742 0.38,-0.28823 0.38,-0.77586c0,-0.35188 0.00057,-0.35406 0.1045,-0.39035c0.35644,-0.12426 0.44802,-0.26039 0.48431,-0.71981c0.02802,-0.35349 0.04769,-0.39349 0.2127,-0.43282c0.14354,-0.0342 0.29412,-0.20216 0.34209,-0.38161c0.05263,-0.19684 0.08892,-0.24063 0.22401,-0.27027c0.14839,-0.03258 0.29868,-0.18069 0.35691,-0.35159c0.02869,-0.08436 0.08493,-0.15798 0.13775,-0.1805c0.33155,-0.14126 0.40099,-0.19465 0.49371,-0.37952c0.10469,-0.209 0.18126,-0.24063 0.59289,-0.24529c0.26163,-0.00294 0.42484,-0.11457 0.54482,-0.37268l0.09281,-0.1995l0.3457,0c0.46797,0 0.65113,-0.08711 0.75905,-0.361c0.04123,-0.1045 0.08122,-0.19855 0.08892,-0.209c0.00769,-0.01045 0.19674,-0.0285 0.42018,-0.04018c0.48716,-0.02546 0.68666,-0.11219 0.79439,-0.34551c0.11362,-0.24614 0.18648,-0.25308 2.69182,-0.25697c2.02093,-0.00313 2.17369,0.00123 2.2286,0.06317m3.26154,1.66763c-0.17138,0.21793 -0.07096,0.46987 0.18724,0.46987c0.19313,0 0.266,-0.07809 0.266,-0.285c0,-0.28756 -0.28196,-0.40261 -0.45324,-0.18487m0.23883,0.24795c-0.06593,0.07267 -0.16558,0.03657 -0.16558,-0.06013c0,-0.09813 0.08711,-0.13765 0.15941,-0.07229c0.0646,0.05852 0.06498,0.06735 0.00617,0.13243m0.32841,0.33592c-0.08255,0.08255 -0.10003,0.26419 -0.03667,0.38247c0.06327,0.11827 0.39453,0.10459 0.47595,-0.01957c0.15456,-0.23588 -0.24025,-0.56192 -0.43928,-0.3629m0.27911,0.27246c-0.05937,0.06564 -0.06792,0.06612 -0.13357,0.00665c-0.06564,-0.05937 -0.06612,-0.06792 -0.00665,-0.13357c0.05937,-0.06564 0.06792,-0.06612 0.13357,-0.00665c0.06564,0.05937 0.06612,0.06792 0.00665,0.13357m0.41334,0.35672c-0.14345,0.10041 -0.03211,0.35881 0.15466,0.35881c0.18259,0 0.20406,-0.28519 0.0285,-0.37914c-0.09139,-0.04892 -0.08303,-0.04987 -0.18316,0.02033m0.48554,0.54881c-0.10896,0.10896 -0.09462,0.24158 0.04094,0.37705c0.19826,0.19836 0.45305,0.13271 0.45305,-0.11666c0,-0.25175 -0.32917,-0.42522 -0.494,-0.26039m0.27911,0.27246c-0.05937,0.06564 -0.06792,0.06612 -0.13357,0.00665c-0.06564,-0.05937 -0.06612,-0.06792 -0.00665,-0.13357c0.05937,-0.06564 0.06792,-0.06612 0.13357,-0.00665c0.06564,0.05937 0.06612,0.06792 0.00665,0.13357m0.38142,0.29687c-0.12036,0.04864 -0.14155,0.22705 -0.03999,0.33668c0.15095,0.16283 0.19997,0.16929 0.3419,0.04465c0.25802,-0.22648 0.02935,-0.51518 -0.30191,-0.38133m0.21764,0.27768c-0.06374,0.06374 -0.17385,-0.00095 -0.11742,-0.06897c0.03676,-0.04427 0.05928,-0.04702 0.10089,-0.01254c0.03477,0.02888 0.04056,0.05747 0.01653,0.08151m0.37971,0.99731c-0.13129,0.14953 -0.10811,0.24462 0.09148,0.37544c0.1045,0.0684 0.33877,-0.15181 0.29488,-0.27721c-0.08369,-0.23892 -0.23009,-0.27616 -0.38636,-0.09823m0.2241,0.13167c0,0.09718 -0.05719,0.12549 -0.11438,0.05662c-0.03724,-0.04493 -0.03724,-0.0683 0,-0.11324c0.05719,-0.06887 0.11438,-0.04056 0.11438,0.05662m0.35843,1.01213c-0.226,0.226 -0.05947,1.03635 0.19313,0.93936c0.16891,-0.06479 0.34627,-0.97308 0.19893,-1.01849c-0.21679,-0.06678 -0.25355,-0.05937 -0.39206,0.07913m0.24909,0.10839c0.0417,0.05006 -0.05301,0.62529 -0.09566,0.58178c-0.076,-0.07752 -0.12929,-0.50217 -0.07106,-0.56648c0.07837,-0.08664 0.10554,-0.08911 0.16672,-0.01529m1.14902,2.17597c0.3401,0.38798 0.26961,2.1375 -0.08616,2.1375c-0.16777,0 -0.29136,-0.80892 -0.23303,-1.52522c0.05025,-0.6174 0.14886,-0.80655 0.3192,-0.61227m-0.51138,1.18256c-0.01054,0.93252 -0.04531,1.09478 -0.1804,0.84236c-0.06764,-0.12635 -0.07001,-1.62184 -0.00275,-1.78315l0.05358,-0.12882l0.06992,0.08635c0.06412,0.07913 0.06897,0.16017 0.05966,0.98325m-0.90259,2.46116l-0.12141,0.13813l0.01292,0.37819c0.01662,0.48716 0.19703,0.67915 0.49039,0.52212c0.14155,-0.07581 0.10773,-0.86906 -0.04436,-1.04234c-0.14772,-0.16824 -0.18686,-0.16777 -0.33753,0.00389m0.30343,0.48706c0,0.37249 -0.08749,0.52459 -0.2052,0.35663c-0.08607,-0.12293 -0.08445,-0.62719 0.00247,-0.75135l0.06327,-0.09034l0.06973,0.08607c0.055,0.06792 0.06973,0.15219 0.06973,0.399m-0.74822,0.96263c-0.0588,0.03733 -0.23892,0.42455 -0.2394,0.51452c-0.00104,0.18781 0.3609,0.37107 0.48602,0.24595c0.09025,-0.09025 -0.07961,-0.79562 -0.19028,-0.78983c-0.00608,0.00028 -0.03144,0.01349 -0.05633,0.02935m0.09889,0.37449c0.05576,0.20225 -0.00931,0.32186 -0.11675,0.21432c-0.07201,-0.07191 -0.07229,-0.07913 -0.00817,-0.21356c0.08113,-0.17033 0.07809,-0.17033 0.12492,-0.00076m-0.78764,1.14465c-0.21356,0.2697 -0.14506,0.43985 0.1691,0.41961c0.2641,-0.01691 0.30162,-0.1862 0.09243,-0.41724l-0.1405,-0.15523l-0.12103,0.15285m0.17841,0.22344c-0.03315,0.0399 -0.05605,0.04199 -0.09595,0.00893c-0.0399,-0.03315 -0.04199,-0.05605 -0.00893,-0.09595c0.03315,-0.0399 0.05605,-0.04199 0.09595,-0.00893c0.0399,0.03315 0.04199,0.05605 0.00893,0.09595m-0.84996,0.40935c-0.10773,0.11428 -0.1197,0.14753 -0.09899,0.2755l0.02356,0.14563l0.29944,0.01121l0.29934,0.01121l-0.0209,-0.23113c-0.03458,-0.38085 -0.25555,-0.47424 -0.50245,-0.21242m0.3002,0.10915c0.0303,0.04816 0.02394,0.07961 -0.0265,0.13015c-0.06802,0.06792 -0.17584,0.0399 -0.2071,-0.05396c-0.04142,-0.12435 0.1614,-0.19047 0.2336,-0.07619m-0.84531,0.49542c-0.10108,0.10421 -0.1235,0.15523 -0.11362,0.25821l0.01225,0.12834l0.247,0l0.247,0l0,-0.247l0,-0.247l-0.13338,-0.01121c-0.10963,-0.00931 -0.1557,0.01178 -0.25925,0.11865m0.23474,0.22201c-0.05937,0.06564 -0.06792,0.06612 -0.13357,0.00665c-0.06564,-0.05937 -0.06612,-0.06792 -0.00665,-0.13357c0.05937,-0.06564 0.06792,-0.06612 0.13357,-0.00665c0.06564,0.05937 0.06612,0.06792 0.00665,0.13357m-0.83381,0.31758c-0.24139,0.22771 -0.15323,0.47395 0.16986,0.47395c0.22762,0 0.27094,-0.04541 0.27027,-0.2831c-0.00104,-0.3267 -0.20311,-0.41439 -0.44013,-0.19085m0.24557,0.1215c0.07837,0.13993 -0.08407,0.26495 -0.18544,0.14269c-0.03923,-0.04721 -0.03553,-0.07134 0.02023,-0.133c0.0836,-0.09234 0.11789,-0.09433 0.1652,-0.00969m-0.92264,0.55546l-0.14886,0.12587l0.17793,0.13585c0.25954,0.19817 0.4427,0.14069 0.4427,-0.13879c0,-0.28604 -0.21327,-0.34162 -0.47177,-0.12293m0.27721,0.16349c-0.03315,0.0399 -0.05605,0.04199 -0.09595,0.00893c-0.0399,-0.03315 -0.04199,-0.05605 -0.00893,-0.09595c0.03315,-0.0399 0.05605,-0.04199 0.09595,-0.00893c0.0399,0.03315 0.04199,0.05605 0.00893,0.09595m-1.49406,0.33772c-0.18534,0.05092 -0.36575,0.15779 -0.39026,0.23132c-0.01358,0.04075 0.37515,0.18629 0.60239,0.22553c0.25574,0.04408 0.39054,-0.11039 0.28101,-0.32205c-0.10155,-0.19646 -0.18506,-0.21926 -0.49314,-0.1348m0.3419,0.2678c-0.05614,0.04104 -0.3363,0.01767 -0.38617,-0.0323c-0.01092,-0.01092 0.05386,-0.04503 0.14402,-0.07581c0.19228,-0.06574 0.37088,0.01396 0.24215,0.10811m-7.69614,0.18819c0.11153,0.11865 0.37677,0.19617 0.78669,0.2298c0.6668,0.05472 0.48051,0.20738 -0.28604,0.23455c-0.6821,0.02413 -0.72979,0.00836 -0.72979,-0.24139c0,-0.30305 0.08037,-0.38133 0.22914,-0.22296m5.67368,0.12929c-0.40441,0.24662 -0.13974,0.49685 0.5243,0.4959c0.46379,-0.00066 0.49704,-0.01567 0.50255,-0.22686c0.00855,-0.32452 -0.65208,-0.49751 -1.02685,-0.26904m0.70765,0.10288c0.14725,0.02945 0.19228,0.11922 0.09547,0.19009c-0.10735,0.07837 -0.65673,0.06982 -0.74679,-0.01168c-0.17252,-0.15608 0.2222,-0.26429 0.65132,-0.17841m-2.44131,0.64362c0.13822,0.02137 0.17347,0.05804 0.13993,0.14554c-0.03296,0.08578 -1.74467,0.09129 -1.86038,0.00598c-0.19247,-0.14202 0.17404,-0.20235 1.10428,-0.18154c0.2717,0.00608 0.549,0.01957 0.61617,0.03002m-0.50217,0.41002c0.32357,0.01757 0.684,0.13186 0.684,0.21688c0,0.27037 -1.43383,0.41277 -1.89743,0.18829c-0.42531,-0.20586 -0.30105,-0.34219 0.37743,-0.4141c0.1463,-0.01548 0.32585,-0.02356 0.399,-0.01786c0.07315,0.0057 0.2698,0.01776 0.437,0.02679" fill="#acacac" fill-rule="evenodd"/>
  <path stroke="null" id="path2" d="m12.06512,2.84866c-0.26438,0.03011 -0.43595,0.14972 -0.48298,0.33696c-0.04607,0.18344 -0.07799,0.19551 -0.51889,0.19551c-0.4787,0 -0.70613,0.08236 -0.88872,0.32176c-0.1007,0.13195 -0.20387,0.17736 -0.65436,0.28775c-0.16729,0.04094 -0.42702,0.23579 -0.42702,0.32024c0,0.16273 -0.14677,0.24215 -0.49846,0.26961c-0.38617,0.03021 -0.64153,0.19028 -0.64153,0.40213c0,0.12245 -0.0665,0.18449 -0.1975,0.18449c-0.17689,0 -0.41049,0.24006 -0.41049,0.42199c0,0.14221 -0.00503,0.14791 -0.152,0.17138c-0.20624,0.03306 -0.418,0.26182 -0.418,0.45172c0,0.13034 -0.00304,0.1329 -0.15646,0.1329c-0.19,0 -0.45153,0.22676 -0.45153,0.3914c0,0.16387 -0.04094,0.21622 -0.18772,0.23968c-0.22524,0.036 -0.33763,0.20938 -0.38465,0.59356c-0.05282,0.43101 -0.05871,0.44365 -0.24481,0.52345c-0.17005,0.07286 -0.36081,0.29944 -0.36081,0.42845c0,0.24643 -0.12806,0.5642 -0.27388,0.67963c-0.27977,0.22163 -0.33411,0.35387 -0.33411,0.81253c0,0.44982 -0.02688,0.53247 -0.1843,0.56705c-0.36413,0.07999 -0.38304,0.22258 -0.38456,2.90063c-0.00133,2.46439 -0.00617,2.4396 0.47177,2.4396l0.13471,0l-0.02451,0.7315l-0.02451,0.7315l0.15779,0.1425c0.10307,0.0931 0.19465,0.1425 0.2641,0.1425c0.17565,0 0.1975,0.05548 0.1975,0.50027c0,0.47557 0.08664,0.63678 0.3857,0.71725c0.12511,0.03372 0.16273,0.06773 0.22106,0.20007c0.0987,0.22382 0.24709,0.36841 0.3781,0.36841c0.15998,0 0.18211,0.05434 0.21194,0.51955c0.02973,0.46597 0.05405,0.51423 0.32784,0.65179c0.06973,0.03496 0.16473,0.1235 0.2109,0.19665c0.15903,0.25137 0.23892,0.33288 0.40099,0.40935c0.08939,0.04208 0.2565,0.17033 0.37145,0.2849c0.21375,0.21308 0.52297,0.33174 0.8644,0.33174c0.13357,0 0.19959,0.06156 0.19959,0.18629c0,0.16083 0.20719,0.3325 0.53143,0.44051c0.19047,0.06346 0.33801,0.14164 0.42883,0.22733c0.25887,0.24424 0.41439,0.29858 0.92074,0.32186l0.456,0.02099l0.02232,0.16748c0.01738,0.12996 0.05462,0.19703 0.16653,0.29953l0.14402,0.13214l0.85956,-0.01947c0.94943,-0.02147 1.05811,-0.04313 1.09307,-0.21755c0.06213,-0.31093 0.43538,-0.40346 1.49245,-0.37021c0.79923,0.02517 0.84996,0.04294 0.9576,0.33497c0.09329,0.25327 0.12549,0.26087 1.10219,0.26153c1.13895,0.00076 1.27452,-0.04028 1.3432,-0.40622c0.03619,-0.19275 0.05434,-0.19997 0.50901,-0.20064l0.39396,-0.00057l0.14753,-0.14753c0.09414,-0.09414 0.14753,-0.18259 0.14753,-0.24424c0,-0.16957 0.08863,-0.21622 0.41125,-0.21641c0.47899,-0.00038 0.76674,-0.14829 0.76674,-0.39415c0,-0.11514 0.06963,-0.17565 0.20206,-0.17565c0.1576,0 0.40593,-0.25222 0.40593,-0.4122c0,-0.12768 0.08255,-0.19579 0.2374,-0.19579c0.12036,0 0.28718,-0.17993 0.31825,-0.34333c0.04056,-0.21318 0.07647,-0.25279 0.25042,-0.27616c0.22933,-0.03068 0.37192,-0.19408 0.37192,-0.42607l0,-0.17043l0.16805,0c0.21356,0 0.37363,-0.14525 0.42436,-0.38494c0.03182,-0.15019 0.04674,-0.16606 0.18658,-0.19845c0.29887,-0.06925 0.39776,-0.2831 0.39871,-0.8625c0.00028,-0.23702 0.04303,-0.3021 0.19845,-0.3021c0.06878,0 0.1577,-0.04645 0.2489,-0.12996l0.14193,-0.12986l0.019,-0.44726l0.019,-0.44716l0.19,-0.04816c0.37762,-0.09557 0.41258,-0.22781 0.39235,-1.48219c-0.0133,-0.82222 -0.03904,-0.92539 -0.23104,-0.92539c-0.52269,0 -0.53314,-2.30565 -0.01149,-2.52367c0.18401,-0.07685 0.21337,-0.21251 0.23854,-1.1019c0.02555,-0.90706 -0.05187,-1.12442 -0.40061,-1.12442c-0.18819,0 -0.19674,-0.02033 -0.19712,-0.46958c-0.00038,-0.48697 -0.076,-0.70965 -0.33706,-0.99284c-0.08977,-0.09747 -0.17575,-0.24918 -0.22676,-0.40014c-0.0893,-0.26438 -0.27569,-0.49305 -0.4027,-0.494c-0.14763,-0.00114 -0.1805,-0.06327 -0.25355,-0.47908l-0.07258,-0.41334l-0.22553,-0.209c-0.12397,-0.11495 -0.24947,-0.26913 -0.27882,-0.34257c-0.04911,-0.12312 -0.14687,-0.2223 -0.43833,-0.44479c-0.0608,-0.04636 -0.13965,-0.14573 -0.17527,-0.22078c-0.10754,-0.22657 -0.24567,-0.28357 -0.68789,-0.28376c-0.41534,-0.00009 -0.4731,-0.02403 -0.4731,-0.19617c0,-0.12787 -0.14687,-0.27749 -0.36841,-0.37515c-0.13233,-0.05833 -0.16634,-0.09595 -0.20007,-0.22106c-0.0797,-0.29592 -0.2432,-0.3857 -0.70271,-0.3857c-0.48507,0 -0.5148,-0.01007 -0.5148,-0.17499c0,-0.09547 -0.03686,-0.16957 -0.14231,-0.28633l-0.1424,-0.1576l-0.64609,0.02147c-0.86573,0.02859 -0.85243,0.01957 -0.77767,0.53c0.07818,0.53304 0.1557,0.60714 0.39463,0.37724c0.23075,-0.22192 0.30153,-0.24605 0.77653,-0.26476c0.50293,-0.01966 0.49789,-0.02299 0.49875,0.32414c0.00057,0.24443 -0.04579,0.31483 -0.20748,0.31483c-0.07742,0 -0.28595,0.15238 -0.28595,0.209c0,0.04626 0.1956,0.247 0.24063,0.247c0.06004,0 0.29136,-0.24443 0.29136,-0.30789c0,-0.13195 0.83514,-0.18249 1.0279,-0.06213c0.12806,0.07999 0.04731,0.33202 -0.10649,0.33202c-0.07761,0 -0.26799,0.19019 -0.30951,0.30913c-0.05329,0.15276 0.17603,0.41287 0.36404,0.41287c0.1368,0 0.20206,0.06108 0.20206,0.18914c0,0.18145 0.16568,0.36005 0.37002,0.39881c0.13822,0.02622 0.17907,0.08483 0.2128,0.30504c0.05491,0.35815 0.14231,0.55651 0.33041,0.74964c0.10231,0.10497 0.20634,0.25289 0.23123,0.3287c0.06289,0.19152 0.18895,0.37895 0.3666,0.54473c0.23094,0.21555 0.23693,0.26951 0.23693,2.13341l0,1.65176l-0.11523,0.0969c-0.06336,0.05339 -0.16359,0.12559 -0.22287,0.16055c-0.35891,0.21204 -0.32461,0.88331 0.06393,1.24991l0.18876,0.17822l0.02394,0.31008c0.07856,1.01697 0.07856,1.01555 -0.04702,1.2102l-0.11485,0.17822l-0.14687,-0.07096c-0.08084,-0.03904 -0.29136,-0.10763 -0.46787,-0.15238c-0.17651,-0.04474 -0.39282,-0.12131 -0.48079,-0.17014c-0.18411,-0.10212 -0.17974,-0.10526 -0.32727,0.23189c-0.08398,0.19199 -0.10184,0.28889 -0.10184,0.55309c0,0.31236 -0.00304,0.32328 -0.1253,0.44175c-0.18183,0.17613 -0.17024,0.18249 -0.56981,-0.31236c-0.05842,-0.07229 -0.16454,-0.15067 -0.23588,-0.17423c-0.08179,-0.02698 -0.1614,-0.09395 -0.21508,-0.18088c-0.04693,-0.0759 -0.13376,-0.19323 -0.19294,-0.26058l-0.10763,-0.12264l-0.21897,0.07391c-0.12036,0.04066 -0.30362,0.1443 -0.40707,0.23037c-0.31768,0.26391 -0.2906,0.25982 -1.71152,0.25982l-1.2787,0l-0.13803,0.14953c-0.0759,0.08227 -0.1956,0.21907 -0.2659,0.304c-0.15342,0.18525 -0.19228,0.18952 -0.34418,0.03752l-0.11694,-0.11694l0,-1.2236c0,-1.37427 -0.01415,-1.30207 0.29336,-1.50014c0.30295,-0.19513 0.29279,-0.14687 0.30818,-1.45473c0.01567,-1.3299 0.01938,-1.31052 -0.29754,-1.53824c-0.10269,-0.07381 -0.22049,-0.18867 -0.26172,-0.25526c-0.23189,-0.37468 -0.39472,-0.39843 -0.59679,-0.08683c-0.22391,0.34523 -0.25754,0.3647 -0.62928,0.3647c-0.35938,0 -0.55869,0.10089 -0.62377,0.31587c-0.06393,0.21109 -0.15542,0.25412 -0.53998,0.25412l-0.35824,0l-0.12939,0.1425c-0.15228,0.16786 -0.4541,0.4787 -0.57532,0.59251c-0.04693,0.04417 -0.13043,0.15143 -0.18534,0.23845c-0.055,0.08692 -0.16539,0.19484 -0.24538,0.23978c-0.07999,0.04503 -0.18468,0.13328 -0.23265,0.19617c-0.2603,0.342 -0.32195,0.37658 -0.67079,0.37658l-0.32081,0l-0.27227,-0.285l-0.27236,-0.285l-0.32993,0l-0.32993,0l-0.15798,0.15798l-0.15798,0.15798l0.16748,0.14411c0.09215,0.07923 0.23161,0.20301 0.30998,0.27502l0.1425,0.1311l0,0.3419l0,0.342l-0.13062,0.11466c-0.10678,0.09376 -0.17765,0.1196 -0.3895,0.14193c-0.49077,0.05177 -0.57712,0.12701 -0.62367,0.54378c-0.04037,0.36081 -0.00256,0.47576 0.20273,0.61664c0.31635,0.21698 0.33307,0.247 0.33307,0.59688l0,0.31977l0.1425,0.12939c0.3001,0.27227 0.48706,0.4616 0.55366,0.5605c0.03809,0.05652 0.14069,0.14696 0.228,0.20092c0.29849,0.18439 0.29003,0.15067 0.29098,1.16736l0.00085,0.90696l0.1615,0.15124c0.45638,0.4274 0.4085,0.34266 0.4085,0.72314c0,0.37363 0.06137,0.48079 0.36727,0.64201c0.06498,0.0342 0.17271,0.14535 0.23921,0.247c0.06659,0.10155 0.20577,0.24073 0.30941,0.30922c0.11058,0.07305 0.2413,0.20719 0.31635,0.32461c0.17138,0.2679 0.18753,0.27844 0.53627,0.34969c0.29431,0.06013 0.47348,0.13765 0.47348,0.2051c0,0.11305 0.39349,0.28072 0.73254,0.31198c0.42227,0.03895 0.61398,0.16815 0.52829,0.35615c-0.0817,0.17945 -0.24082,0.21175 -0.98619,0.20026l-0.67364,-0.01035l-0.02109,-0.152c-0.04883,-0.35235 -0.16834,-0.437 -0.61683,-0.437c-0.3971,0 -0.44289,-0.01976 -0.57693,-0.24852c-0.15675,-0.26752 -0.27464,-0.32119 -0.70604,-0.32138c-0.39453,-0.00009 -0.4541,-0.02565 -0.4541,-0.19475c0,-0.13186 -0.15675,-0.31882 -0.34988,-0.41733c-0.08274,-0.04227 -0.17888,-0.1291 -0.21375,-0.19313c-0.11343,-0.20843 -0.24548,-0.34238 -0.40498,-0.41068c-0.12027,-0.05158 -0.17831,-0.10982 -0.25127,-0.25213c-0.06441,-0.12559 -0.15437,-0.2242 -0.28015,-0.30694c-0.10184,-0.06707 -0.23208,-0.19722 -0.28937,-0.28927c-0.13034,-0.20938 -0.28082,-0.32984 -0.41211,-0.32984c-0.12853,0 -0.19247,-0.06374 -0.19247,-0.1919c0,-0.12169 -0.19589,-0.40308 -0.32005,-0.4597c-0.1196,-0.05443 -0.17024,-0.17717 -0.22325,-0.54131c-0.05253,-0.36033 -0.22173,-0.59308 -0.4312,-0.59308c-0.18021,0 -0.20349,-0.05415 -0.20349,-0.47405c0,-0.93907 -0.10706,-1.23595 -0.44583,-1.23595l-0.16568,0l0.0114,-2.5365c0.01197,-2.65696 0.01216,-2.66019 0.18715,-2.69524c0.26258,-0.05244 0.41296,-0.34542 0.41296,-0.80427c0,-0.37202 0.04598,-0.47899 0.2223,-0.51775c0.24234,-0.0532 0.3363,-0.22429 0.36575,-0.66623c0.02783,-0.41629 0.07476,-0.532 0.21574,-0.532c0.03847,0 0.13841,-0.06184 0.22211,-0.13746l0.15209,-0.13737l0,-0.29488c0,-0.42655 0.02717,-0.52886 0.14734,-0.5547c0.26153,-0.05633 0.42446,-0.22961 0.45913,-0.48811c0.02023,-0.15114 0.02346,-0.15399 0.20719,-0.18021c0.22515,-0.0322 0.3211,-0.11903 0.35178,-0.31853c0.02916,-0.18895 0.07315,-0.24472 0.19323,-0.24472c0.20482,0 0.46531,-0.26429 0.46531,-0.47215c0,-0.09424 0.16159,-0.13585 0.52706,-0.13585c0.37354,0 0.49846,-0.07742 0.62595,-0.38817c0.06602,-0.16064 0.0835,-0.16682 0.57142,-0.20102c0.39653,-0.02774 0.4807,-0.07229 0.5946,-0.31445c0.11856,-0.25222 0.15808,-0.27179 0.55185,-0.27312c0.30723,-0.00114 0.36062,-0.01206 0.50065,-0.10288c0.15029,-0.09747 0.18069,-0.13803 0.26837,-0.35824c0.05738,-0.1443 0.12473,-0.14801 2.64489,-0.14848c1.23538,-0.00028 2.31163,-0.0113 2.39172,-0.02451c0.26552,-0.04389 0.26172,-0.35881 -0.00627,-0.51661c-0.1197,-0.07049 -4.0526,-0.095 -4.63429,-0.02897m4.5846,0.22249c0.22762,0.12967 0.06222,0.13908 -2.3731,0.13547c-1.67551,-0.00247 -2.38697,-0.01577 -2.41661,-0.04541c-0.04712,-0.04712 0.01919,-0.07039 0.32737,-0.11447c0.37259,-0.05329 4.3642,-0.03144 4.46234,0.02441m-5.32361,0.58596c0.09547,0.07581 -0.02964,0.13091 -0.35378,0.1558c-0.41923,0.0322 -0.56344,-0.03211 -0.41182,-0.18373c0.06859,-0.06859 0.67165,-0.04664 0.7656,0.02793m7.11217,-0.0152c0.09129,0.17052 -0.01672,0.20738 -0.55147,0.188c-0.42645,-0.01548 -0.70974,-0.07134 -0.65246,-0.12872c0.11932,-0.11922 1.14484,-0.16986 1.20393,-0.05928m-8.32124,0.60923c0.0607,0.11352 -0.02346,0.14981 -0.36803,0.15893c-0.3629,0.00959 -0.47519,-0.03961 -0.36594,-0.16036c0.09538,-0.10545 0.67735,-0.10431 0.73397,0.00142m9.51225,-0.00551c0.12074,0.13376 0.00427,0.1995 -0.3534,0.1995c-0.37202,0 -0.50806,-0.06811 -0.39216,-0.19617c0.09034,-0.09984 0.65626,-0.10241 0.74556,-0.00332m-10.67743,0.589c0.05339,0.14905 -0.0437,0.1899 -0.38484,0.16159c-0.32889,-0.02726 -0.41714,-0.06868 -0.34105,-0.16036c0.05576,-0.06716 0.70176,-0.0683 0.72589,-0.00123m11.26719,-0.00237c0.03477,0.03477 0.03135,0.06023 -0.01501,0.11143c-0.0702,0.07752 -0.16691,0.05415 -0.16691,-0.04028c0,-0.11789 0.09718,-0.15589 0.18192,-0.07115m0.13832,0.43263c0.17432,0.17423 0.03857,0.51024 -0.20624,0.51024c-0.18012,0 -0.266,-0.07904 -0.266,-0.24462c0,-0.26258 0.30419,-0.43377 0.47224,-0.26562m-0.71687,0.15874c0.07951,0.1083 -0.04284,0.22619 -0.14183,0.13661c-0.06555,-0.05928 -0.06602,-0.06802 -0.00693,-0.13328c0.0779,-0.08607 0.08797,-0.08626 0.14877,-0.00332m1.77412,0.03743c0.03657,0.03287 0.0665,0.0874 0.0665,0.12112c0,0.1292 0.18591,0.34076 0.32186,0.36622c0.15979,0.03002 0.18078,0.05538 0.26457,0.32072c0.03629,0.11495 0.11029,0.25583 0.16444,0.31312c0.11713,0.12369 0.10488,0.14193 -0.12397,0.18468c-0.22106,0.04123 -0.29811,-0.00399 -0.38247,-0.22477c-0.05519,-0.14459 -0.09167,-0.17964 -0.26742,-0.25745c-0.18667,-0.08255 -0.2071,-0.10402 -0.24652,-0.26087c-0.05111,-0.20273 -0.18401,-0.34808 -0.35074,-0.38351c-0.1824,-0.03876 -0.26913,-0.1272 -0.19988,-0.20387c0.07476,-0.08293 0.65521,-0.06403 0.75363,0.0246m-13.66005,-0.02128c0.05111,0.05111 -0.00494,0.14535 -0.08645,0.14535c-0.08151,0 -0.13756,-0.09424 -0.08645,-0.14535c0.02451,-0.02451 0.06346,-0.04465 0.08645,-0.04465c0.02299,0 0.06194,0.02014 0.08645,0.04465m13.11361,0.47006c0.24776,0.20843 0.17138,0.43529 -0.14658,0.43529c-0.20985,0 -0.26647,-0.05595 -0.26647,-0.26353c0,-0.24595 0.21745,-0.33639 0.41306,-0.17176m-13.68769,0.22334c-0.02926,0.07628 -0.1349,0.0779 -0.16378,0.00247c-0.01216,-0.03163 -0.00028,-0.08379 0.02641,-0.1159c0.06184,-0.07457 0.17404,0.01805 0.13737,0.11343m13.02222,0.02802c-0.06593,0.07267 -0.16558,0.03657 -0.16558,-0.06013c0,-0.09813 0.08711,-0.13765 0.15941,-0.07229c0.0646,0.05852 0.06498,0.06735 0.00617,0.13243m1.20403,0.33677c0.12625,0.06754 0.16406,0.18154 0.09519,0.28671c-0.07495,0.11438 -0.16036,0.11742 -0.27483,0.00978c-0.16976,-0.15941 -0.02147,-0.40413 0.17964,-0.29649m-14.8352,0.13262c0.01216,0.03163 0.00028,0.08379 -0.02641,0.1159c-0.06184,0.07457 -0.17404,-0.01805 -0.13737,-0.11343c0.02926,-0.07628 0.1349,-0.0779 0.16378,-0.00247m14.26235,-0.0019c0.04997,0.06013 -0.01092,0.32442 -0.07476,0.32442c-0.04579,0 -0.12511,-0.2583 -0.09965,-0.32452c0.02736,-0.07125 0.11533,-0.07115 0.17442,0.00009m1.78429,0.61427c0.00389,0.10792 -0.08189,0.18012 -0.1424,0.1196c-0.05928,-0.05928 -0.05728,-0.38152 0.00285,-0.44213c0.04987,-0.05035 0.13309,0.14193 0.13955,0.32252m-0.52611,-0.14079c0.19228,0.19228 0.12445,0.45894 -0.11675,0.45894c-0.13613,0 -0.34219,-0.19627 -0.34219,-0.32594c0,-0.23598 0.27597,-0.31587 0.45894,-0.133m-0.6953,0.08844c0.02137,0.02612 0.05738,0.11666 0.07999,0.20111c0.04978,0.1862 0.16083,0.31302 0.29991,0.34219c0.16872,0.03543 0.21327,0.07258 0.29839,0.24871c0.22211,0.45951 0.76,0.4769 0.89423,0.02888c0.11428,-0.38142 0.23949,-0.30286 0.26837,0.16834c0.02004,0.32537 0.02384,0.31863 -0.23341,0.40679c-0.44336,0.15181 -0.45049,0.75544 -0.01073,0.91076c0.2564,0.09063 0.57703,-0.1329 0.5775,-0.40261c0,-0.04465 0.03211,-0.12074 0.07115,-0.1691l0.07115,-0.08778l0.06051,0.11704c0.04826,0.09338 0.055,0.17746 0.03334,0.4161l-0.02707,0.29906l-0.2127,0.10146c-0.44165,0.21052 -0.49105,1.15957 -0.07267,1.39469c0.37439,0.21042 0.63944,-0.0266 0.6744,-0.60315c0.02327,-0.3838 0.08673,-0.50093 0.21118,-0.38978c0.07049,0.06289 0.07362,0.10355 0.05386,0.70005c-0.02289,0.69179 -0.03724,0.74404 -0.25536,0.93261c-0.29412,0.25422 -0.32129,0.38342 -0.33354,1.58811c-0.01282,1.25077 -0.00931,1.26625 0.32452,1.425c0.10991,0.05225 0.20976,0.12616 0.22201,0.16425c0.04978,0.15542 0.03211,1.76472 -0.02014,1.82761c-0.09433,0.11371 -0.14212,-0.00009 -0.16843,-0.40128c-0.04237,-0.64647 -0.30314,-0.89841 -0.7087,-0.68485c-0.20491,0.10782 -0.26467,0.26543 -0.26913,0.70927c-0.00484,0.47652 -0.02213,0.53428 -0.18629,0.62092c-0.26163,0.13813 -0.4579,0.73188 -0.39444,1.19358l0.02479,0.1805l0.24044,0c0.29906,0 0.31521,0.02527 0.28481,0.44716c-0.02774,0.38522 -0.06384,0.39662 -0.22201,0.07011c-0.0816,-0.16862 -0.16178,-0.27654 -0.23721,-0.31948c-0.0626,-0.03562 -0.114,-0.08512 -0.11409,-0.11001c-0.00047,-0.08654 -0.08445,-0.09652 -0.16558,-0.01966c-0.04493,0.04246 -0.13575,0.1272 -0.20178,0.18819c-0.06878,0.06355 -0.14041,0.18278 -0.16767,0.27882c-0.05871,0.20681 -0.0854,0.23427 -0.30647,0.3153c-0.15969,0.05852 -0.18534,0.08569 -0.27436,0.29108c-0.09053,0.20862 -0.11485,0.23379 -0.30979,0.32005c-0.19123,0.08455 -0.22049,0.11381 -0.30514,0.30523c-0.05149,0.11637 -0.1235,0.22173 -0.16007,0.23398c-0.24823,0.0836 -0.38437,0.17632 -0.42588,0.29013c-0.09756,0.2678 -0.131,0.30618 -0.30561,0.35093c-0.24044,0.06165 -0.37373,0.13784 -0.60486,0.34561c-0.19836,0.17831 -0.20662,0.18164 -0.58482,0.23047c-0.47766,0.06156 -0.69663,0.16207 -0.8131,0.37306c-0.09604,0.17385 -0.18696,0.20311 -0.64286,0.20681c-0.42978,0.00351 -0.5035,0.03002 -0.72371,0.26096l-0.19807,0.20786l0.15361,0.18221c0.20596,0.24424 0.32062,0.29041 0.80104,0.32233c0.42056,0.02793 0.54055,0.07533 0.42778,0.16891c-0.04227,0.03505 -0.29963,0.0512 -0.94791,0.05947c-0.98477,0.01254 -0.91475,0.02954 -1.05944,-0.25669c-0.16929,-0.33478 -0.19912,-0.34181 -1.39355,-0.32794c-1.0127,0.01168 -1.0507,0.01491 -1.22949,0.10288c-0.21023,0.10345 -0.23199,0.09025 -0.2736,-0.16606c-0.06764,-0.41705 -0.24709,-0.55024 -0.74689,-0.55442c-0.38902,-0.00332 -0.43139,-0.01966 -0.53627,-0.20643c-0.13252,-0.23636 -0.27854,-0.31198 -0.66291,-0.34304c-0.35777,-0.02897 -0.42674,-0.05871 -0.42693,-0.18401c-0.00028,-0.13566 -0.14335,-0.32537 -0.29412,-0.38997c-0.27806,-0.11903 -0.26372,-0.10488 -0.35406,-0.34836c-0.04503,-0.12131 -0.26163,-0.2735 -0.38931,-0.2735c-0.13404,0 -0.17803,-0.12625 -0.15371,-0.44137c0.03467,-0.4503 -0.14658,-0.77463 -0.43301,-0.77463c-0.14839,0 -0.16482,-0.11428 -0.15361,-1.06856c0.01282,-1.08708 -0.0019,-1.14484 -0.3192,-1.25105c-0.22895,-0.07666 -0.28386,-0.12625 -0.31321,-0.28243c-0.02707,-0.14449 -0.19703,-0.31008 -0.3571,-0.34808c-0.20197,-0.04788 -0.23455,-0.11162 -0.23455,-0.45828c0,-0.42759 -0.10345,-0.64372 -0.342,-0.7144c-0.20662,-0.06127 -0.2223,-0.10355 -0.16634,-0.44764c0.02793,-0.17195 0.0512,-0.31483 0.05158,-0.31758c0.00389,-0.02536 0.3781,-0.08996 0.52164,-0.08996c0.45742,0 0.61807,-0.25783 0.55698,-0.89366c-0.04332,-0.44944 -0.12036,-0.5814 -0.39064,-0.66842c-0.29288,-0.09433 -0.22268,-0.16653 0.19323,-0.19855c0.35378,-0.02736 0.37857,-0.01577 0.48535,0.22562c0.19503,0.44089 1.25637,0.47205 1.44637,0.04246c0.08407,-0.19 0.16777,-0.2735 0.30732,-0.30656c0.14867,-0.03524 0.2982,-0.20653 0.32471,-0.37183c0.02612,-0.1634 0.06051,-0.20102 0.21812,-0.23873c0.14478,-0.03467 0.3229,-0.21707 0.3515,-0.35995c0.03895,-0.19465 0.10735,-0.22439 0.54938,-0.23854c0.43728,-0.01396 0.56354,-0.08141 0.62861,-0.33582c0.05196,-0.20292 0.11115,-0.22971 0.44944,-0.20377c0.44403,0.0342 0.62424,-0.04826 0.77045,-0.35226c0.13157,-0.27379 0.18373,-0.29241 0.2394,-0.08559c0.04978,0.18487 0.21631,0.35891 0.37724,0.39425c0.19836,0.0436 0.20634,0.07771 0.22078,0.94477c0.02014,1.21343 -0.01662,1.58716 -0.16216,1.64996c-0.46759,0.20197 -0.45685,0.16083 -0.45239,1.72187c0.00332,1.1722 0.0094,1.28592 0.07438,1.39583c0.13613,0.23047 0.44289,0.29953 0.66329,0.14943c0.13509,-0.09196 0.15855,-0.12473 0.24272,-0.33924c0.07286,-0.18582 0.18354,-0.20102 1.25789,-0.17261c1.39773,0.03695 1.98711,-0.05396 2.15099,-0.33174c0.14592,-0.24728 0.31264,-0.25659 0.37601,-0.02118c0.04322,0.16045 0.1785,0.28177 0.36337,0.32585c0.13708,0.03268 0.24462,0.12179 0.24481,0.20282c0.00057,0.22049 0.29592,0.44289 0.54406,0.40964c0.30371,-0.04075 0.3837,-0.1805 0.40584,-0.70898c0.02337,-0.5567 0.00893,-0.54131 0.44384,-0.47604c0.39311,0.0589 0.54302,0.12179 0.61617,0.25859c0.24861,0.46455 0.71506,-0.09338 0.69274,-0.82859c-0.03353,-1.10475 -0.11476,-1.463 -0.33145,-1.463c-0.14915,0 -0.24329,-0.18857 -0.24329,-0.48706c0,-0.30362 0.05557,-0.42493 0.19456,-0.42493c0.10554,0 0.33202,-0.21983 0.36546,-0.35463c0.01634,-0.06621 0.02109,-0.92406 0.01035,-1.90636l-0.01938,-1.786l-0.09576,-0.171c-0.06004,-0.10725 -0.14962,-0.19931 -0.24054,-0.247c-0.17128,-0.08987 -0.19684,-0.13148 -0.2279,-0.37116c-0.01292,-0.09965 -0.04902,-0.23047 -0.08018,-0.2907c-0.07011,-0.13566 -0.02612,-0.18268 0.21223,-0.22676c0.01311,-0.00237 0.04132,0.017 0.06279,0.04313m-15.40653,0.39833c0.01947,0.27141 0.01377,0.3173 -0.04284,0.34637c-0.13328,0.06849 -0.16026,0.01254 -0.16026,-0.33174c0,-0.55432 0.16349,-0.5661 0.20311,-0.01463m16.66765,0.04389c0.16549,0.04607 0.17261,0.24538 0.01368,0.38494c-0.09766,0.08569 -0.14611,0.10545 -0.19475,0.07923c-0.37449,-0.20197 -0.22771,-0.57817 0.18107,-0.46417m-17.25076,1.10627c0,0.36575 -0.04341,0.45904 -0.17043,0.36613c-0.06051,-0.04427 -0.0665,-0.08968 -0.04788,-0.36176c0.03857,-0.56316 0.21831,-0.56677 0.21831,-0.00437m17.84774,0.1235c0.12663,0.14069 0.12777,0.19931 0.00693,0.34599c-0.12578,0.15257 -0.21831,0.13376 -0.35302,-0.07182c-0.1215,-0.18544 0.19807,-0.43861 0.34608,-0.27417m-18.44197,0.9101c0.03724,0.35577 0.0284,0.4597 -0.04702,0.55784l-0.06954,0.09044l-0.0626,-0.08939c-0.08721,-0.12445 -0.08863,-0.66471 -0.00199,-0.76047c0.09889,-0.10925 0.15523,-0.04655 0.18116,0.20159m19.12872,0.20339c0.05928,0.01824 0.06184,0.26742 0.00598,0.56971c-0.1254,0.67811 -0.41553,0.58862 -0.51176,-0.15779c-0.04208,-0.32566 0.18515,-0.51072 0.50578,-0.41192m-19.72466,3.29289c0.01482,2.44036 0.00893,2.53973 -0.14335,2.40198c-0.09072,-0.08208 -0.08768,-4.25153 0.00332,-4.64863c0.10402,-0.45353 0.12568,-0.10507 0.14003,2.24665m20.51183,-0.90421c-0.2166,0.3306 -0.10469,2.11232 0.13271,2.11232c0.26514,0 0.43054,-1.50983 0.21223,-1.938c-0.14202,-0.27863 -0.2431,-0.32974 -0.34494,-0.17432m0.22838,1.18398c-0.03942,0.56316 -0.11865,0.56173 -0.15855,-0.00294c-0.01292,-0.18259 -0.00152,-0.41809 0.0285,-0.589l0.05006,-0.28471l0.05196,0.266c0.03477,0.17784 0.04408,0.38028 0.02802,0.61066m-1.08594,2.43067c0.15209,0.17328 0.18591,0.96653 0.04436,1.04234c-0.29336,0.15703 -0.47376,-0.03496 -0.49039,-0.52212l-0.01292,-0.37819l0.12141,-0.13813c0.15067,-0.17166 0.18981,-0.17214 0.33753,-0.00389m-19.0684,0.67336c0.06279,0.42949 0.01871,0.78831 -0.0968,0.78831c-0.09775,0 -0.16596,-0.44108 -0.11561,-0.74727c0.10592,-0.64305 0.12378,-0.64657 0.21242,-0.04104m19.03429,1.01631c0,0.48231 -0.22391,0.55888 -0.27797,0.095c-0.01216,-0.1045 -0.03334,-0.24358 -0.04693,-0.30903c-0.02213,-0.1064 -0.0133,-0.12302 0.0835,-0.15656c0.18411,-0.06374 0.24139,0.02422 0.24139,0.37059m-0.56838,-0.0285c0.17746,0.37506 0.14449,0.5985 -0.08816,0.5985c-0.1254,0 -0.33164,-0.18164 -0.33107,-0.29155c0.00076,-0.1406 0.21783,-0.53979 0.29573,-0.54387c0.00608,-0.00028 0.06165,0.1063 0.1235,0.23693m-17.90056,0.27426c0.09186,0.11077 0.1101,0.66538 0.02375,0.7258c-0.15219,0.10659 -0.21717,-0.02251 -0.19104,-0.37933c0.03106,-0.42436 0.05738,-0.4788 0.16729,-0.34646m17.40865,1.32002c-0.02403,0.11837 -0.03534,0.12587 -0.20757,0.13689c-0.31416,0.02023 -0.38266,-0.14991 -0.1691,-0.41961l0.12103,-0.15285l0.1405,0.15523c0.12198,0.13471 0.13718,0.17176 0.11514,0.28034m-16.82412,-0.03971c-0.07258,0.08008 -0.16558,0.03315 -0.16558,-0.0836c0,-0.09291 0.08075,-0.11504 0.16178,-0.04436c0.06232,0.05434 0.0626,0.06289 0.0038,0.12796m16.21127,0.31549c0.02536,0.03059 0.05548,0.1596 0.06707,0.28671l0.0209,0.23113l-0.29934,-0.01121l-0.29944,-0.01121l-0.02356,-0.14563c-0.04455,-0.2755 0.3705,-0.5472 0.53437,-0.34979m-15.52623,0.3629c0.02888,0.18021 0.14202,0.29421 0.32452,0.32689c0.15171,0.02707 0.26885,0.11219 0.26885,0.19532c0,0.1538 0.12483,0.3135 0.27968,0.35758c0.22876,0.06517 0.29127,0.12996 0.26419,0.2735c-0.04598,0.24282 -0.0721,0.26058 -0.22809,0.15475c-0.07657,-0.05196 -0.18325,-0.10336 -0.23702,-0.11409c-0.19152,-0.03857 -0.28614,-0.11305 -0.34447,-0.27094c-0.06555,-0.17736 -0.18249,-0.28329 -0.38608,-0.34969c-0.15855,-0.05168 -0.17556,-0.09395 -0.1881,-0.4674c-0.01387,-0.40821 0.18458,-0.49343 0.24652,-0.10592m15.94081,-0.08996c-0.03315,0.0399 -0.05605,0.04199 -0.09595,0.00893c-0.0399,-0.03315 -0.04199,-0.05605 -0.00893,-0.09595c0.03315,-0.0399 0.05605,-0.04199 0.09595,-0.00893c0.0399,0.03315 0.04199,0.05605 0.00893,0.09595m-1.00244,0.54549l0,0.247l-0.247,0l-0.247,0l-0.01225,-0.12834c-0.01805,-0.18829 0.18439,-0.39282 0.37287,-0.37686l0.13338,0.01121l0,0.247m0.42987,0.01007c0.01634,0.08464 -0.09044,0.12682 -0.16482,0.06517c-0.04427,-0.03676 -0.04702,-0.05928 -0.01254,-0.10089c0.05785,-0.06963 0.16112,-0.04883 0.17736,0.03572m-1.00994,0.34665c0.04531,0.06868 0.03296,0.42218 -0.01653,0.47167c-0.15181,0.15181 -0.5244,0.01672 -0.5244,-0.19009c0,-0.24719 0.41942,-0.4655 0.54093,-0.28158m0.42218,0.29573c-0.05937,0.06564 -0.06792,0.06612 -0.13357,0.00665c-0.06564,-0.05937 -0.06612,-0.06792 -0.00665,-0.13357c0.05937,-0.06564 0.06792,-0.06612 0.13357,-0.00665c0.06564,0.05937 0.06612,0.06792 0.00665,0.13357m-1.08471,0.34314c0.06013,0.06013 0.05871,0.35283 -0.0019,0.40023c-0.11837,0.09262 -0.21793,0.07828 -0.3952,-0.05709l-0.17793,-0.13585l0.14886,-0.12587c0.15599,-0.13195 0.34038,-0.1672 0.42617,-0.08141m-11.97598,0.16387c0.04902,0.12758 -0.05101,0.1672 -0.2564,0.10146c-0.17052,-0.05453 -0.18401,-0.0664 -0.12435,-0.11001c0.09471,-0.06925 0.35311,-0.06346 0.38076,0.00855m12.46951,0.02365c0.0151,0.07847 -0.09927,0.12369 -0.16824,0.0665c-0.04066,-0.03382 -0.04246,-0.05586 -0.00817,-0.09728c0.05633,-0.06792 0.16093,-0.04959 0.17641,0.03078m-0.85899,0.46797c0.38171,0.11096 0.33639,0.19351 -0.12245,0.22325c-0.36337,0.02356 -0.4275,-0.00826 -0.39377,-0.19541c0.03847,-0.21356 0.08075,-0.24766 0.20092,-0.16207c0.05557,0.03961 0.1975,0.10003 0.3153,0.13423m-0.91684,-0.09196c0.18354,0.09823 0.2241,0.37449 0.06735,0.45837c-0.12464,0.06669 -0.84854,-0.11732 -0.81833,-0.20795c0.05263,-0.15789 0.58938,-0.33687 0.75097,-0.25042m-9.54332,0.21014c0.11818,0.112 -0.01482,0.16929 -0.33326,0.14364c-0.36898,-0.02964 -0.45476,-0.06745 -0.36898,-0.16216c0.0741,-0.08189 0.61113,-0.06773 0.70224,0.01852m8.42707,0.41192c0.11837,0.10184 0.14687,0.38028 0.04541,0.4445c-0.21992,0.13936 -1.09791,-0.00893 -1.14627,-0.19361c-0.0778,-0.29763 0.81092,-0.50027 1.10086,-0.25089m0.88321,0.05918c0.18667,0.00237 0.29193,0.10326 0.20634,0.19779c-0.08626,0.09538 -0.59954,0.10136 -0.70252,0.00817c-0.13357,-0.12084 0.00019,-0.27844 0.20311,-0.23921c0.08968,0.01738 0.22154,0.0323 0.29307,0.03325m-8.11708,0.09196c0.03809,0.09927 -0.06336,0.13765 -0.36404,0.13765c-0.35131,0 -0.5034,-0.05405 -0.38855,-0.13803c0.10013,-0.07315 0.72447,-0.07277 0.75259,0.00038m1.89753,0.55765c0.36204,0.10051 0.0437,0.19589 -0.72418,0.21698c-0.6915,0.0189 -0.85253,-0.02384 -0.70471,-0.18715c0.07353,-0.08132 1.16175,-0.10402 1.42889,-0.02983m1.3395,0.42113c-0.67849,0.07191 -0.80275,0.20824 -0.37743,0.4141c0.4636,0.22448 1.89743,0.08208 1.89743,-0.18829c0,-0.08502 -0.36043,-0.19931 -0.684,-0.21688c-0.1672,-0.00902 -0.36385,-0.02109 -0.437,-0.02679c-0.07315,-0.0057 -0.2527,0.00237 -0.399,0.01786m0.893,0.20995c0.1197,0.01938 0.12464,0.0247 0.04959,0.0532c-0.11305,0.04303 -0.67051,0.05158 -0.90459,0.01387l-0.19,-0.03059l0.209,-0.04284c0.20111,-0.04132 0.55736,-0.03857 0.836,0.00636" fill="#5c5c5c" fill-rule="evenodd"/>
  <path stroke="null" id="path3" d="m11.53758,2.63852c-0.13965,0.0608 -0.19627,0.15114 -0.23417,0.37392l-0.02717,0.15969l-0.64505,0.02033c-0.79724,0.02517 -0.89775,0.05871 -1.0164,0.33962c-0.06935,0.16416 -0.09775,0.19304 -0.20605,0.20966c-0.06906,0.01064 -0.18553,0.02869 -0.25868,0.04009c-0.07324,0.01149 -0.15447,0.04645 -0.1805,0.0779c-0.02612,0.03135 -0.07163,0.07761 -0.10117,0.10269c-0.02954,0.02517 -0.12454,0.11713 -0.21109,0.20444c-0.14212,0.14354 -0.18078,0.1614 -0.40223,0.18563c-0.39653,0.04332 -0.49542,0.13043 -0.53732,0.47262c-0.00997,0.08179 -0.03534,0.09785 -0.18259,0.11571c-0.29877,0.03629 -0.418,0.16748 -0.418,0.45999c0,0.09376 -0.01453,0.1083 -0.1083,0.1083c-0.29013,0 -0.4617,0.16615 -0.4617,0.44716c0,0.13556 -0.06213,0.19883 -0.19513,0.19883c-0.25156,0 -0.37145,0.11618 -0.41078,0.39795c-0.01995,0.14297 -0.02954,0.15247 -0.18078,0.17822c-0.31017,0.05291 -0.36176,0.12701 -0.41125,0.5908c-0.02574,0.24187 -0.30324,0.61902 -0.45533,0.61902c-0.05567,0 -0.13176,0.21745 -0.133,0.38c-0.00142,0.18515 -0.04275,0.26106 -0.1557,0.28585c-0.31141,0.0684 -0.42113,0.35416 -0.42978,1.11938l-0.00617,0.55014l-0.16492,0.02821c-0.44526,0.076 -0.4274,-0.05519 -0.41372,3.0324c0.01235,2.78198 0.00931,2.73799 0.1957,2.79718c0.03876,0.01225 0.13908,0.09101 0.22296,0.17489l0.15266,0.15266l0.02023,0.64324c0.02204,0.69834 0.05586,0.79106 0.28965,0.79249c0.2355,0.00152 0.24263,0.01358 0.26904,0.44954c0.03695,0.61208 0.0626,0.66224 0.36366,0.71003c0.23493,0.03724 0.24605,0.04389 0.25545,0.152c0.03078,0.35672 0.1197,0.45695 0.42721,0.48212l0.133,0.01083l0.02023,0.456c0.02574,0.58054 0.09414,0.703 0.3932,0.703c0.11884,0 0.21356,0.09281 0.21356,0.20928c0,0.24301 0.11305,0.35064 0.41315,0.39339c0.17204,0.0246 0.17679,0.02897 0.21983,0.20292c0.08882,0.359 0.1253,0.37886 0.79201,0.43215c0.32043,0.02565 0.35948,0.04873 0.36043,0.21365c0.00095,0.17584 0.1443,0.29925 0.38114,0.32813c0.20187,0.0247 0.20957,0.03002 0.25783,0.17717c0.112,0.3419 0.26847,0.40318 1.1096,0.43443l0.589,0.02185l0.02375,0.22135c0.01311,0.12179 0.04313,0.24073 0.06669,0.26429c0.03809,0.03809 0.88568,0.09243 1.57025,0.1007c0.20966,0.00256 0.21878,0.00703 0.28025,0.13642c0.16226,0.342 0.41496,0.40802 1.63371,0.42712c1.37512,0.02147 1.57291,-0.02337 1.68834,-0.38294l0.057,-0.17755l0.29915,-0.00019c1.86532,-0.00123 1.97704,-0.02394 2.03252,-0.41334l0.02498,-0.17584l0.48326,-0.019c0.56515,-0.02223 0.62396,-0.05415 0.66804,-0.36271c0.03163,-0.22106 0.06431,-0.23588 0.53076,-0.24149c0.49628,-0.00598 0.61617,-0.0892 0.66167,-0.45942c0.01026,-0.08369 0.03572,-0.09794 0.22059,-0.1235c0.25384,-0.03515 0.3591,-0.13699 0.39605,-0.38332c0.0247,-0.16463 0.03182,-0.17252 0.17803,-0.19722c0.23484,-0.03971 0.33943,-0.15257 0.36945,-0.399l0.02546,-0.20833l0.22201,-0.02384c0.2735,-0.02935 0.32936,-0.08236 0.36109,-0.34209c0.02213,-0.18183 0.03524,-0.2051 0.11989,-0.21403c0.35245,-0.03705 0.44526,-0.11723 0.48868,-0.42218c0.02147,-0.15076 0.03847,-0.17746 0.1197,-0.18743c0.38294,-0.04702 0.43006,-0.12055 0.45524,-0.71041c0.01919,-0.45248 0.02014,-0.45609 0.11438,-0.46597c0.41961,-0.04408 0.46806,-0.114 0.49362,-0.71164l0.01938,-0.45571l0.17584,-0.02498c0.35178,-0.05006 0.37401,-0.09728 0.37477,-0.7961c0.00095,-0.9918 0.04503,-1.55458 0.1215,-1.55458c0.42351,0 0.46787,-0.14782 0.46787,-1.558c0,-1.42604 -0.07277,-1.72501 -0.43937,-1.80557c-0.14117,-0.03097 -0.16577,-0.18477 -0.13062,-0.81681c0.04921,-0.88426 -0.01197,-1.05402 -0.40308,-1.11843l-0.13708,-0.02261l-0.02413,-0.25574c-0.0133,-0.14069 -0.02432,-0.35701 -0.02441,-0.4807c-0.00076,-0.59631 -0.11742,-0.86013 -0.41828,-0.94572c-0.17005,-0.04845 -0.17109,-0.04978 -0.19598,-0.25146c-0.03116,-0.25365 -0.11476,-0.34133 -0.35834,-0.3761l-0.18667,-0.0265l-0.02014,-0.4465c-0.02356,-0.52069 -0.07229,-0.60429 -0.40109,-0.68808l-0.18677,-0.04759l-0.02356,-0.19028c-0.03933,-0.31872 -0.15912,-0.43187 -0.45714,-0.43187c-0.09376,0 -0.1083,-0.01453 -0.1083,-0.1083c0,-0.36518 -0.11181,-0.43662 -0.722,-0.46141l-0.475,-0.01928l-0.02489,-0.20406c-0.03173,-0.25973 -0.08759,-0.31274 -0.36109,-0.34209l-0.22201,-0.02384l-0.03192,-0.23797c-0.04142,-0.30951 -0.07391,-0.32651 -0.67108,-0.35074c-0.47281,-0.01919 -0.475,-0.01976 -0.48497,-0.11428c-0.04465,-0.42474 -0.07581,-0.44365 -0.79011,-0.47804l-0.56791,-0.02726l-0.14934,-0.12739c-0.08217,-0.07001 -0.16815,-0.1273 -0.19114,-0.1273c-0.02299,0 -0.0607,-0.04997 -0.08379,-0.11096c-0.03106,-0.08236 -0.0797,-0.1215 -0.18876,-0.15181c-0.2394,-0.0665 -5.24229,-0.05329 -5.39752,0.01415m5.18158,0.06099c0.14972,0.05662 0.30694,0.21612 0.35425,0.35938c0.04503,0.13651 0.2412,0.16948 1.01061,0.17005c0.46787,0.00028 0.56848,0.06431 0.74565,0.47519l0.04911,0.114l0.39871,0.01985c0.511,0.02546 0.68514,0.12711 0.74261,0.43348c0.01966,0.10459 0.05519,0.13737 0.24168,0.22296c0.18107,0.08312 0.23104,0.12777 0.29032,0.25916c0.11039,0.24472 0.14031,0.26153 0.46645,0.26153c0.47908,0 0.66766,0.10051 0.77026,0.41059c0.03306,0.09984 0.08255,0.14373 0.2413,0.21394c0.18677,0.08255 0.35853,0.30001 0.36423,0.46094c0.00256,0.07049 0.14288,0.20311 0.24082,0.22771c0.21489,0.05386 0.30229,0.23085 0.34675,0.70205c0.02774,0.29355 0.03657,0.31027 0.20919,0.39691c0.20681,0.10374 0.29621,0.20472 0.36518,0.4123c0.0436,0.13148 0.12568,0.25317 0.26182,0.38817c0.25479,0.25279 0.32309,0.44526 0.34979,0.98638c0.02204,0.44678 0.0532,0.52468 0.22695,0.56829c0.34713,0.08711 0.39225,0.21992 0.39225,1.15444c0,0.85766 0.01073,0.90677 0.24766,1.13382c0.43244,0.41439 0.43576,2.2723 0.00465,2.61582c-0.27151,0.21631 -0.25222,0.12825 -0.25317,1.15577c-0.00104,1.13933 -0.01548,1.19301 -0.36746,1.36068l-0.22068,0.10516l-0.019,0.38674c-0.02451,0.49837 -0.06868,0.56753 -0.475,0.7428c-0.11276,0.04864 -0.11419,0.05291 -0.13442,0.40983c-0.02555,0.4502 -0.0855,0.57332 -0.34247,0.70357c-0.16121,0.0817 -0.20396,0.12777 -0.28167,0.30343c-0.08151,0.18439 -0.11552,0.21859 -0.30998,0.31236c-0.18325,0.08835 -0.22629,0.12863 -0.26733,0.25023c-0.05652,0.16786 -0.16007,0.26343 -0.37544,0.34675c-0.13043,0.05044 -0.17005,0.09443 -0.266,0.29526c-0.06194,0.12977 -0.13832,0.24852 -0.16967,0.264c-0.03135,0.01539 -0.10811,0.05044 -0.17062,0.0779c-0.07343,0.0322 -0.14221,0.11001 -0.19494,0.2204c-0.09946,0.20881 -0.18363,0.28756 -0.378,0.35378c-0.12017,0.04094 -0.17081,0.09015 -0.2584,0.25127c-0.14269,0.26229 -0.30932,0.34266 -0.71288,0.3438c-0.32015,0.00095 -0.33829,0.01178 -0.47015,0.27911c-0.12616,0.25593 -0.23303,0.30789 -0.67725,0.32974l-0.38674,0.019l-0.10516,0.22068c-0.16767,0.35197 -0.22135,0.36641 -1.36011,0.36746c-0.99617,0.00095 -0.98838,-0.00047 -1.11245,0.19978c-0.15941,0.25764 -0.45761,0.33174 -1.35859,0.33763c-0.84284,0.00551 -1.01156,-0.03505 -1.28582,-0.30932c-0.10402,-0.10412 -0.19427,-0.1918 -0.20054,-0.19494c-0.00617,-0.00313 -0.40764,-0.01596 -0.89214,-0.0285c-1.05801,-0.02736 -1.03873,-0.01995 -1.23671,-0.4788c-0.04911,-0.1139 -0.0494,-0.114 -0.44783,-0.13642c-0.59565,-0.03344 -0.87134,-0.1349 -1.10342,-0.40584c-0.05814,-0.06792 -0.19171,-0.14763 -0.3344,-0.19969c-0.23512,-0.08569 -0.30039,-0.14307 -0.47471,-0.41705c-0.08702,-0.1368 -0.13499,-0.15048 -0.79163,-0.22505c-0.06935,-0.00788 -0.25944,-0.20881 -0.25944,-0.27417c0,-0.10231 -0.17242,-0.25308 -0.34152,-0.29868c-0.16245,-0.0437 -0.25498,-0.13461 -0.36147,-0.35511c-0.0569,-0.1178 -0.12853,-0.18629 -0.285,-0.27236c-0.27626,-0.152 -0.34171,-0.28262 -0.34257,-0.68362c-0.00066,-0.35131 -0.00598,-0.36318 -0.20843,-0.46588c-0.18952,-0.09604 -0.26163,-0.17546 -0.34143,-0.37591c-0.05177,-0.13005 -0.08502,-0.16188 -0.18933,-0.18145c-0.30875,-0.05795 -0.43823,-0.28167 -0.43823,-0.75686c0,-0.35226 -0.00228,-0.35644 -0.27312,-0.49333c-0.28519,-0.14421 -0.3343,-0.26343 -0.3382,-0.81966c-0.00513,-0.7334 -0.02745,-0.84749 -0.17328,-0.88521c-0.39957,-0.10307 -0.40023,-0.10792 -0.38617,-2.88068c0.01349,-2.67976 -0.00266,-2.55255 0.34703,-2.72697c0.20444,-0.10193 0.20738,-0.11029 0.22572,-0.63602c0.01529,-0.43757 0.05776,-0.5452 0.32936,-0.836c0.14753,-0.15789 0.19256,-0.2431 0.26666,-0.50445c0.09376,-0.33098 0.25659,-0.54055 0.41999,-0.54055c0.1006,0 0.13803,-0.08797 0.16957,-0.399c0.04056,-0.39928 0.12435,-0.55803 0.36375,-0.68884c0.16672,-0.0911 0.20976,-0.13737 0.26068,-0.28015c0.05453,-0.15276 0.08588,-0.18287 0.29516,-0.28215c0.21707,-0.10307 0.24111,-0.12739 0.33012,-0.33354c0.08759,-0.20311 0.11381,-0.23028 0.30267,-0.31378c0.15979,-0.07068 0.21622,-0.11837 0.24804,-0.20966c0.07182,-0.20615 0.18962,-0.3344 0.35796,-0.38978c0.13385,-0.04408 0.17917,-0.08645 0.26847,-0.25118c0.14212,-0.26172 0.21755,-0.30438 0.65436,-0.37002c0.43035,-0.0646 0.43519,-0.06678 0.43519,-0.19199c0,-0.16273 0.18012,-0.29868 0.54188,-0.40897c0.20558,-0.06279 0.34922,-0.12939 0.38323,-0.17803c0.18363,-0.2622 0.57047,-0.41382 1.05725,-0.41448c0.41078,-0.00047 0.43329,-0.00959 0.52212,-0.21023c0.0892,-0.20178 0.22581,-0.29526 0.47623,-0.32594c0.35207,-0.04303 4.68169,-0.03743 4.79731,0.00617m-4.64303,0.93347c-0.20605,0.04978 -0.23436,0.06887 -0.29421,0.19845c-0.10773,0.23332 -0.30723,0.32005 -0.79439,0.34551c-0.22344,0.01168 -0.41249,0.02973 -0.42018,0.04018c-0.00769,0.01045 -0.04769,0.1045 -0.08892,0.209c-0.10792,0.27388 -0.29108,0.361 -0.75905,0.361l-0.3457,0l-0.09281,0.1995c-0.11998,0.25811 -0.28319,0.36974 -0.54482,0.37268c-0.41163,0.00465 -0.4882,0.03629 -0.59289,0.24529c-0.09272,0.18487 -0.16216,0.23826 -0.49371,0.37952c-0.05282,0.02251 -0.10906,0.09614 -0.13775,0.1805c-0.05823,0.1709 -0.20852,0.31901 -0.35691,0.35159c-0.13509,0.02964 -0.17138,0.07343 -0.22401,0.27027c-0.04797,0.17945 -0.19855,0.34741 -0.34209,0.38161c-0.16501,0.03933 -0.18468,0.07932 -0.2127,0.43282c-0.03629,0.45942 -0.12787,0.59555 -0.48431,0.71981c-0.10393,0.03629 -0.1045,0.03847 -0.1045,0.39035c0,0.48763 -0.08369,0.65844 -0.38,0.77586l-0.209,0.08284l-0.02042,0.41116c-0.02403,0.48364 -0.09386,0.66281 -0.31654,0.81244c-0.27996,0.188 -0.2697,0.09386 -0.28196,2.60442c-0.01216,2.51408 -0.03724,2.29149 0.27113,2.41366c0.25384,0.1006 0.29488,0.22467 0.31939,0.96624l0.02071,0.62785l0.21118,0.10326c0.27958,0.1367 0.3477,0.23949 0.38636,0.58263c0.03733,0.3325 0.09082,0.48963 0.16625,0.48963c0.11229,0 0.28034,0.1919 0.36404,0.41562c0.07704,0.20615 0.10022,0.23303 0.25004,0.29022c0.19142,0.07315 0.27236,0.15276 0.37781,0.37145c0.05329,0.11048 0.1215,0.17964 0.228,0.23113c0.16577,0.08008 0.22648,0.14772 0.342,0.38104c0.05928,0.11979 0.12198,0.17518 0.285,0.25213c0.17328,0.0817 0.22524,0.13043 0.304,0.285c0.07077,0.13879 0.13528,0.20577 0.2527,0.26239c0.21612,0.10421 0.30666,0.19399 0.35881,0.35606c0.06925,0.21527 0.08531,0.22306 0.49048,0.2394c0.44289,0.01776 0.53988,0.06754 0.67497,0.34665c0.10697,0.22116 0.152,0.2337 0.71345,0.19864c0.47908,-0.03002 0.53846,-0.06393 0.23607,-0.13509c-0.37952,-0.08939 -0.54834,-0.21356 -0.61807,-0.45467c-0.03933,-0.13632 -0.12397,-0.22011 -0.25051,-0.24785c-0.14145,-0.03116 -0.3249,-0.2146 -0.35606,-0.35606c-0.0285,-0.13005 -0.11533,-0.21679 -0.25051,-0.25051c-0.26875,-0.06707 -0.37705,-0.27217 -0.37791,-0.71554c-0.00066,-0.36214 -0.01482,-0.39244 -0.23132,-0.49789c-0.31369,-0.15276 -0.31758,-0.1672 -0.3305,-1.22977c-0.01254,-1.026 -0.0076,-1.00453 -0.2546,-1.11036c-0.17565,-0.07524 -0.23579,-0.13803 -0.342,-0.35653c-0.0569,-0.11713 -0.12112,-0.17803 -0.25574,-0.24234c-0.23427,-0.11191 -0.30086,-0.24329 -0.35055,-0.69065l-0.03971,-0.35862l-0.18743,-0.09737c-0.30504,-0.15865 -0.34475,-0.24196 -0.34323,-0.71981c0.00199,-0.60743 0.12179,-0.7409 0.70689,-0.78736c0.42674,-0.03391 0.45077,-0.05804 0.45077,-0.45229c0,-0.34361 -0.0132,-0.36689 -0.27578,-0.48554c-0.10136,-0.04579 -0.16596,-0.11238 -0.22296,-0.22971l-0.08037,-0.1653l0.07904,-0.1785c0.21375,-0.48317 1.45008,-0.36318 1.45008,0.14069c0,0.09699 0.1272,0.13936 0.418,0.13936c0.32319,0 0.39814,-0.03372 0.45438,-0.20415c0.05063,-0.15342 0.14421,-0.24434 0.35691,-0.34684c0.11599,-0.05586 0.17917,-0.12074 0.23892,-0.24529c0.08502,-0.17717 0.18838,-0.28072 0.3894,-0.38988c0.07761,-0.04218 0.1463,-0.12654 0.19446,-0.23902c0.10326,-0.24092 0.28329,-0.32081 0.72551,-0.32195c0.37002,-0.00095 0.39064,-0.01339 0.52212,-0.31568c0.10231,-0.23512 0.23389,-0.29317 0.66414,-0.29317c0.34637,0 0.41011,-0.03268 0.45799,-0.23455c0.11295,-0.47614 0.69435,-0.51604 0.90991,-0.06241c0.07134,0.1501 0.12758,0.20985 0.25821,0.27455c0.32566,0.16121 0.3381,0.22201 0.33715,1.63599c-0.00095,1.42557 -0.01235,1.48333 -0.31939,1.61908c-0.30514,0.13499 -0.28775,0.05139 -0.28775,1.3812c0,1.10513 0.00484,1.19282 0.06982,1.25153c0.08521,0.07714 0.15124,0.02004 0.24795,-0.21413c0.11371,-0.27531 0.20178,-0.29146 1.59039,-0.29241c1.28307,-0.00095 1.43906,-0.02137 1.49444,-0.19608c0.05491,-0.1728 0.36822,-0.32727 0.79743,-0.39311c0.20472,-0.03144 0.38437,0.08873 0.51195,0.34238c0.08037,0.15988 0.12891,0.2051 0.31568,0.29412c0.17727,0.08445 0.23227,0.13309 0.2793,0.247c0.16311,0.39491 0.31701,0.32338 0.31701,-0.14715c0,-0.50274 0.13167,-0.92273 0.35435,-1.1304l0.09585,-0.08939l0.17318,0.17318c0.22695,0.22695 0.26372,0.24415 0.6744,0.31464l0.34884,0.05994l0.06887,-0.08949c0.08578,-0.11162 0.08597,-0.10307 -0.00817,-0.46949c-0.04303,-0.1672 -0.10288,-0.42218 -0.13309,-0.56667c-0.03676,-0.17594 -0.07999,-0.28025 -0.1311,-0.31597c-0.20254,-0.14183 -0.33155,-0.7656 -0.24918,-1.2046c0.02935,-0.15627 0.20282,-0.34371 0.35292,-0.38123c0.24937,-0.06222 0.23911,0.00883 0.23911,-1.65366c0,-1.69803 -0.00779,-1.75655 -0.26657,-2.00839c-0.15694,-0.15266 -0.30305,-0.3743 -0.30333,-0.45999c-0.00028,-0.12882 -0.15893,-0.3761 -0.27103,-0.42246c-0.18686,-0.07742 -0.29364,-0.28101 -0.34922,-0.66557l-0.04892,-0.33896l-0.20596,-0.11504c-0.19551,-0.10915 -0.23408,-0.15485 -0.34912,-0.41287c-0.0361,-0.08084 -0.10203,-0.1292 -0.25232,-0.18468c-0.42759,-0.15798 -0.47576,-0.87599 -0.06583,-0.98116c0.23655,-0.0607 0.24386,-0.06745 0.07514,-0.07068c-0.08588,-0.00171 -0.23275,-0.01349 -0.32632,-0.02641c-0.16967,-0.02318 -0.17052,-0.0227 -0.27084,0.14839c-0.22876,0.39045 -0.66671,0.41144 -0.84265,0.04056c-0.10364,-0.21831 0.03477,-0.47167 0.28804,-0.52725c0.12958,-0.0285 0.20206,-0.13889 0.16596,-0.2527c-0.03914,-0.1234 -0.853,-0.0418 -0.853,0.08559c0,0.06317 -0.21185,0.27559 -0.32034,0.32129c-0.26524,0.11153 -0.43082,-0.08597 -0.48326,-0.57646c-0.02527,-0.23617 -0.06203,-0.39966 -0.09918,-0.44156c-0.0816,-0.09196 -4.24745,-0.09623 -4.62621,-0.00465m4.58242,0.45115c0.03486,0.65046 0.08388,0.71402 0.54824,0.7106c0.35919,-0.00266 0.45505,-0.04455 0.52155,-0.228c0.0607,-0.16739 0.09851,-0.07476 0.10212,0.25013c0.00361,0.32043 0.07837,0.4901 0.24709,0.56059c0.22857,0.09557 0.67355,0.05111 0.82393,-0.08236c0.06916,-0.06137 0.10839,0.07875 0.10925,0.39035c0.00057,0.23902 0.09547,0.33079 0.36689,0.35492c0.2032,0.01805 0.22334,0.02802 0.23246,0.11476c0.03629,0.34504 0.16891,0.494 0.43994,0.494c0.08749,0 0.09234,0.01387 0.11742,0.33421c0.04911,0.62766 0.13442,0.79249 0.43092,0.8322c0.15418,0.02071 0.15494,0.02166 0.17993,0.21574c0.06507,0.50454 0.18658,0.75154 0.41648,0.84607c0.09462,0.03895 0.17252,0.08787 0.17299,0.10877c0.0209,0.81168 0.02717,2.3788 0.01073,2.66627l-0.02213,0.38627l-0.13718,0.02375c-0.23655,0.04104 -0.33772,0.09899 -0.39035,0.22344c-0.0703,0.16672 -0.05415,1.1247 0.02413,1.42671c0.03192,0.1235 0.05814,0.32946 0.05814,0.4578c0,0.359 0.17204,0.64875 0.38513,0.64875c0.05339,0 0.07087,0.02812 0.07087,0.114c0,0.1291 -0.02489,0.13404 -0.45106,0.08949c-0.21223,-0.02213 -0.23645,-0.03372 -0.25792,-0.1235c-0.12416,-0.51917 -0.82564,-0.56876 -0.96881,-0.06849c-0.02508,0.08778 -0.05548,0.4331 -0.06745,0.7675c-0.02109,0.589 -0.07077,0.77624 -0.11884,0.44792c-0.04028,-0.27502 -0.14972,-0.36394 -0.49191,-0.39995c-0.07001,-0.00731 -0.09766,-0.03496 -0.10497,-0.10497c-0.04275,-0.4066 -0.15751,-0.494 -0.64866,-0.494c-0.61731,0 -0.85965,0.09728 -0.95541,0.38342c-0.03087,0.09215 -0.06222,0.17613 -0.06963,0.18658c-0.00741,0.01045 -0.63583,0.02755 -1.3964,0.038c-1.58726,0.02185 -1.53159,0.00874 -1.5731,0.36974c-0.05795,0.50483 -0.0968,0.08635 -0.0968,-1.04424l0,-1.2065l0.095,-0.00997c0.49865,-0.05244 0.48725,-0.01206 0.49713,-1.7594c0.00845,-1.48447 -0.0056,-1.63485 -0.16197,-1.73223c-0.02859,-0.01786 -0.08436,-0.08369 -0.12388,-0.14639c-0.15333,-0.24301 -0.43861,-0.475 -0.58415,-0.475c-0.04056,0 -0.09509,-0.02565 -0.12112,-0.057c-0.02603,-0.03135 -0.08854,-0.057 -0.13889,-0.057c-0.05025,0 -0.10136,0.02565 -0.11333,0.057c-0.01206,0.03135 -0.05348,0.057 -0.09205,0.057c-0.20586,0 -0.37772,0.22258 -0.37772,0.48906l0,0.10754l-0.42161,0.02555c-0.59356,0.0361 -0.68352,0.10013 -0.72741,0.51784c-0.00997,0.09452 -0.01216,0.09509 -0.48497,0.11428c-0.60648,0.0246 -0.69511,0.07761 -0.72998,0.43643c-0.01016,0.10516 -0.02517,0.11571 -0.19769,0.14022c-0.24415,0.03467 -0.32718,0.12217 -0.35834,0.37772l-0.02498,0.20434l-0.20434,0.02498c-0.25545,0.03116 -0.34304,0.11419 -0.37781,0.35834l-0.0266,0.18667l-0.30856,0.01092l-0.30865,0.01102l-0.02726,-0.18202c-0.05434,-0.36233 -0.12017,-0.39092 -0.90117,-0.39092c-0.73872,0 -0.83125,0.07894 -0.78251,0.66709c0.02185,0.26277 0.12188,0.37924 0.35587,0.41439l0.16805,0.02517l0,0.31711l0,0.31711l-0.3705,0.02536c-0.68856,0.04721 -0.72922,0.08198 -0.77947,0.66642c-0.05709,0.66395 0.05472,1.06333 0.29763,1.06333c0.11447,0 0.28006,0.2374 0.2812,0.40327c0.00351,0.49371 0.11922,0.70157 0.40888,0.73492l0.18126,0.0208l0.02498,0.20434c0.03163,0.25973 0.1082,0.33639 0.37401,0.37458l0.209,0.03002l0.019,1.07207c0.02166,1.22189 0.0189,1.21201 0.34589,1.25229c0.24291,0.02992 0.2621,0.07277 0.2621,0.58615c0,0.51262 0.03391,0.57152 0.35663,0.61987c0.15732,0.02356 0.1691,0.03382 0.19199,0.16587c0.05633,0.32452 0.12207,0.38959 0.44773,0.44346c0.13708,0.02261 0.14221,0.02926 0.16701,0.21603c0.03372,0.25412 0.13395,0.3628 0.37563,0.40698l0.19,0.03486l-0.2945,0.00418c-0.16197,0.00237 -0.30732,0.00855 -0.323,0.01377c-0.01567,0.00522 -0.03923,-0.09044 -0.05234,-0.21251c-0.03553,-0.33069 -0.06023,-0.34456 -0.6516,-0.36698l-0.50179,-0.019l-0.02508,-0.17584c-0.04341,-0.30495 -0.13623,-0.38513 -0.48868,-0.42218c-0.08502,-0.00893 -0.09709,-0.03097 -0.11504,-0.20909c-0.02565,-0.25536 -0.0911,-0.31749 -0.36546,-0.34703l-0.22154,-0.02384l-0.03002,-0.209c-0.03714,-0.25821 -0.11362,-0.33886 -0.35425,-0.37325l-0.18667,-0.02669l-0.02498,-0.20387c-0.0322,-0.26362 -0.11476,-0.34599 -0.37867,-0.37819l-0.20434,-0.02498l-0.02517,-0.228c-0.04085,-0.36888 -0.22895,-0.6878 -0.45676,-0.77444c-0.08531,-0.03239 -0.10554,-0.06821 -0.12464,-0.22116c-0.01263,-0.10032 -0.03515,-0.2508 -0.05025,-0.3344l-0.02736,-0.152l-0.21992,-0.02365c-0.28405,-0.03049 -0.25821,0.04227 -0.28718,-0.80892c-0.02926,-0.86212 -0.05453,-0.92359 -0.39596,-0.96206c-0.22724,-0.02555 -0.21679,0.08208 -0.21736,-2.2381c-0.00038,-2.10814 0.00285,-2.16324 0.13062,-2.19535c0.3191,-0.08008 0.44545,-0.36983 0.47405,-1.0868l0.02194,-0.55081l0.228,-0.03135c0.30428,-0.0418 0.29725,-0.02821 0.3211,-0.62405l0.0209,-0.52202l0.209,-0.03002c0.29649,-0.04246 0.34352,-0.10412 0.39463,-0.51803c0.0418,-0.33829 0.0455,-0.34694 0.18506,-0.44184c0.07828,-0.0532 0.14231,-0.11134 0.14231,-0.1292c0,-0.01786 0.04085,-0.04275 0.09082,-0.05529c0.11143,-0.02802 0.13984,-0.09215 0.17033,-0.38446c0.02299,-0.21935 0.02812,-0.22838 0.13784,-0.23902c0.28699,-0.02783 0.39653,-0.13034 0.43491,-0.40698c0.02099,-0.15143 0.02185,-0.15209 0.22097,-0.17641c0.26742,-0.03258 0.37933,-0.11124 0.41116,-0.2888c0.0379,-0.21137 0.11172,-0.27569 0.31635,-0.27607c0.58805,-0.00095 0.79505,-0.10583 0.83362,-0.42237l0.02498,-0.20434l0.5225,-0.0209c0.59631,-0.02375 0.58263,-0.01672 0.62443,-0.3211l0.03135,-0.228l0.53181,-0.02147c0.64011,-0.02584 0.86431,-0.11172 1.0393,-0.39795c0.12796,-0.20928 -0.04474,-0.1957 2.4376,-0.1918l2.033,0.00323l0.02242,0.418m1.75693,0.22895c0.00902,0.05006 -0.22258,0.06897 -0.38978,0.03173c-0.13072,-0.02907 -0.12739,-0.03097 0.09243,-0.0532c0.27208,-0.02745 0.2888,-0.02631 0.29735,0.02147m1.66677,1.09012c-0.05937,0.05937 -0.05709,0.12464 0.00608,0.17717c0.09243,0.07666 0.19769,-0.07856 0.1082,-0.1596c-0.05339,-0.04826 -0.07951,-0.05234 -0.11428,-0.01757m0.58776,0.63146c-0.05947,0.06564 -0.05899,0.07419 0.00665,0.13357c0.06564,0.05947 0.07419,0.05899 0.13357,-0.00665c0.05947,-0.06564 0.05899,-0.07419 -0.00665,-0.13357c-0.06564,-0.05947 -0.07419,-0.05899 -0.13357,0.00665m1.178,1.178c-0.05947,0.06564 -0.05899,0.07419 0.00665,0.13357c0.06564,0.05947 0.07419,0.05899 0.13357,-0.00665c0.05947,-0.06564 0.05899,-0.07419 -0.00665,-0.13357c-0.06564,-0.05947 -0.07419,-0.05899 -0.13357,0.00665m0.62187,0.63251c-0.03857,0.04655 -0.03553,0.06156 0.01653,0.08151c0.08882,0.0341 0.15285,-0.03724 0.08436,-0.09405c-0.04161,-0.03448 -0.06412,-0.03173 -0.10089,0.01254m0.60686,1.14133c-0.03724,0.04493 -0.03724,0.0683 0,0.11324c0.05719,0.06887 0.11438,0.04056 0.11438,-0.05662c0,-0.09718 -0.05719,-0.12549 -0.11438,-0.05662m0.55518,1.19244c-0.05823,0.06431 -0.00494,0.48896 0.07106,0.56648c0.04265,0.04351 0.13737,-0.53171 0.09566,-0.58178c-0.06118,-0.07381 -0.08835,-0.07134 -0.16672,0.01529m0.09813,0.14573l-0.02099,0.10545l-0.02498,-0.095c-0.02726,-0.10383 -0.01102,-0.16387 0.03657,-0.13452c0.01662,0.01026 0.0209,0.06612 0.0094,0.12407m0.52307,2.25672c-0.04113,0.0988 -0.05196,0.31169 -0.04655,0.91637c0.00712,0.80731 0.0322,0.95741 0.15561,0.93366c0.10288,-0.01976 0.11618,-1.76681 0.01444,-1.89249l-0.06992,-0.08635l-0.05358,0.12882m0.06821,1.06922c-0.00722,0.15152 -0.01311,0.02755 -0.01311,-0.2755c0,-0.30305 0.00589,-0.42702 0.01311,-0.2755c0.00722,0.15152 0.00722,0.39947 0,0.551m-0.68694,2.42506c-0.16055,0.22923 -0.04227,0.92938 0.13053,0.77292c0.10364,-0.09376 0.10545,-0.65008 0.00247,-0.77719l-0.06973,-0.08607l-0.06327,0.09034m0.0912,0.41543l-0.02422,0.323l-0.02052,-0.323c-0.02061,-0.32566 -0.01054,-0.41315 0.04094,-0.35482c0.01539,0.01748 0.0171,0.17717 0.0038,0.35482m-0.66272,1.31717c-0.06412,0.13442 -0.06384,0.14164 0.00817,0.21356c0.10744,0.10754 0.17252,-0.01206 0.11675,-0.21432c-0.04683,-0.16957 -0.04379,-0.16957 -0.12492,0.00076m-0.58919,1.28031c-0.03306,0.0399 -0.03097,0.06279 0.00893,0.09595c0.0399,0.03306 0.06279,0.03097 0.09595,-0.00893c0.03306,-0.0399 0.03097,-0.06279 -0.00893,-0.09595c-0.0399,-0.03306 -0.06279,-0.03097 -0.09595,0.00893m-0.6288,0.57826c-0.0721,0.07201 -0.06403,0.12625 0.02726,0.18392c0.04816,0.0303 0.07961,0.02394 0.13015,-0.0265c0.05044,-0.05054 0.05681,-0.08198 0.0265,-0.13015c-0.05766,-0.09129 -0.11191,-0.09937 -0.18392,-0.02726m-0.56686,0.61778c-0.05947,0.06564 -0.05899,0.07419 0.00665,0.13357c0.06564,0.05947 0.07419,0.05899 0.13357,-0.00665c0.05947,-0.06564 0.05899,-0.07419 -0.00665,-0.13357c-0.06564,-0.05947 -0.07419,-0.05899 -0.13357,0.00665m-0.61322,0.5757c-0.05576,0.06165 -0.05947,0.08578 -0.02023,0.133c0.10136,0.12226 0.26381,-0.00275 0.18544,-0.14269c-0.04731,-0.08464 -0.0816,-0.08265 -0.1652,0.00969m-0.5851,0.62225c-0.03306,0.0399 -0.03097,0.06279 0.00893,0.09595c0.0399,0.03306 0.06279,0.03097 0.09595,-0.00893c0.03306,-0.0399 0.03097,-0.06279 -0.00893,-0.09595c-0.0399,-0.03306 -0.06279,-0.03097 -0.09595,0.00893m-1.28943,0.58444c-0.18857,0.06441 -0.18373,0.08483 0.02916,0.12378c0.19959,0.03648 0.30903,-0.02774 0.20377,-0.1196c-0.06184,-0.05396 -0.08616,-0.05434 -0.23294,-0.00418m-7.64379,0.2736c-0.07486,0.13984 -0.04892,0.41268 0.04398,0.46236c0.11305,0.06051 1.18579,0.02441 1.26654,-0.04265c0.1025,-0.08502 -0.00817,-0.1405 -0.33402,-0.1672c-0.40992,-0.03363 -0.67516,-0.11115 -0.78669,-0.2298c-0.10849,-0.11552 -0.13822,-0.11913 -0.18981,-0.0227m0.54967,0.30865c0.1881,0.01852 0.3933,0.03667 0.456,0.04009c0.19532,0.01102 -0.2811,0.06393 -0.61113,0.06792c-0.33725,0.00418 -0.35881,-0.00332 -0.32974,-0.11457c0.01349,-0.05158 0.03952,-0.06811 0.08141,-0.05158c0.03382,0.01339 0.21536,0.03952 0.40346,0.05814m5.3636,-0.00836c-0.11447,0.12644 0.02052,0.19617 0.37962,0.19617c0.31901,0 0.46274,-0.05453 0.42218,-0.16007c-0.04759,-0.12407 -0.69578,-0.15323 -0.8018,-0.0361m0.50739,0.04949l0.247,0.00646l-0.323,0.02622c-0.17765,0.01444 -0.33611,0.01909 -0.35216,0.01045c-0.0607,-0.03277 0.02242,-0.09205 0.09994,-0.07125c0.04465,0.01197 0.19237,0.0246 0.32822,0.02812m-3.69369,0.52668c-0.32832,0.02128 -0.44061,0.08274 -0.31758,0.17356c0.11571,0.08531 1.82742,0.0798 1.86038,-0.00598c0.03353,-0.08749 -0.00171,-0.12416 -0.13993,-0.14554c-0.18886,-0.02926 -1.07644,-0.04322 -1.40286,-0.02204m0.75819,0.10421c-0.14107,0.00731 -0.37192,0.00731 -0.513,0c-0.14107,-0.00731 -0.02565,-0.0133 0.2565,-0.0133c0.28215,0 0.39757,0.00598 0.2565,0.0133" fill="#dcdcdc" fill-rule="evenodd"/>
 </g>

</svg>