<?xml version="1.0" standalone="no"?>
<!DOCTYPE svg PUBLIC "-//W3C//DTD SVG 20010904//EN"
 "http://www.w3.org/TR/2001/REC-SVG-20010904/DTD/svg10.dtd">
<svg version="1.0" xmlns="http://www.w3.org/2000/svg"
 width="31.000000pt" height="32.000000pt" viewBox="0 0 31.000000 32.000000"
 preserveAspectRatio="xMidYMid meet">
<metadata>
Created by potrace 1.10, written by Peter Selinger 2001-2011
</metadata>
<g transform="translate(0.000000,32.000000) scale(0.100000,-0.100000)"
fill="#f1c232" stroke="none">
<path d="M75 280 c-60 -40 -81 -118 -49 -186 47 -99 211 -99 258 0 32 68 11
149 -49 186 -43 27 -120 27 -160 0z m153 -62 c3 -14 -3 -18 -26 -18 -25 0 -29
-4 -29 -25 0 -28 4 -29 43 -15 15 6 29 8 33 5 9 -10 -22 -25 -53 -25 -27 0
-28 -2 -23 -35 5 -32 4 -35 -20 -35 -23 0 -25 3 -19 30 6 32 5 33 -46 44 -16
4 -28 11 -28 17 0 6 7 8 16 5 51 -20 62 -18 62 8 0 22 -5 26 -29 26 -28 0 -39
17 -22 34 4 4 37 6 72 4 53 -2 66 -6 69 -20z m-169 -44 c-13 -16 3 -44 25 -44
14 0 37 -58 26 -65 -16 -10 -59 40 -61 70 -3 48 0 67 11 60 8 -5 7 -11 -1 -21z
m206 -42 c-6 -25 -48 -72 -64 -72 -5 0 -5 14 2 35 6 19 16 35 22 35 22 0 39
28 26 43 -6 8 -8 17 -4 21 11 11 25 -36 18 -62z"/>
</g>
</svg>
