<?xml version="1.0" standalone="no"?>
<!DOCTYPE svg PUBLIC "-//W3C//DTD SVG 20010904//EN"
 "http://www.w3.org/TR/2001/REC-SVG-20010904/DTD/svg10.dtd">
<svg version="1.0" xmlns="http://www.w3.org/2000/svg"
 width="32.000000pt" height="32.000000pt" viewBox="0 0 32.000000 32.000000"
 preserveAspectRatio="xMidYMid meet">
<metadata>
Created by potrace 1.10, written by Peter Selinger 2001-2011
</metadata>
<g transform="translate(0.000000,32.000000) scale(0.100000,-0.100000)"
fill="#f1c232" stroke="none">
<path d="M95 305 c-46 -25 -63 -44 -81 -91 -29 -75 3 -157 75 -194 51 -25 91
-25 141 0 59 30 85 74 85 142 0 61 -17 94 -67 131 -36 27 -114 33 -153 12z
m105 -60 c26 -27 31 -38 22 -47 -9 -9 -17 -6 -37 12 l-25 23 -25 -23 c-20 -18
-28 -21 -37 -12 -9 9 -4 20 22 47 19 19 37 35 40 35 3 0 21 -16 40 -35z m-124
-76 c10 -17 -13 -36 -27 -22 -12 12 -4 33 11 33 5 0 12 -5 16 -11z m100 0 c10
-17 -13 -36 -27 -22 -12 12 -4 33 11 33 5 0 12 -5 16 -11z m100 0 c10 -17 -13
-36 -27 -22 -12 12 -4 33 11 33 5 0 12 -5 16 -11z m-139 -61 l23 -21 25 23
c20 19 28 21 37 12 10 -10 4 -21 -25 -50 l-37 -37 -36 37 c-20 20 -33 41 -30
47 10 16 17 14 43 -11z"/>
</g>
</svg>
