<svg width="1440" height="500" viewBox="0 0 1440 187" fill="#FFD639" xmlns="http://www.w3.org/2000/svg">
    <g clip-path="url(#clip0_855_2980)">
    <rect width="1440" height="187" fill="#FFD639"/>
    <path d="M1442.78 -114.713C1433.52 -110.488 1415.24 -92.0862 1416.27 -52.2778C1417.56 -2.51731 1445.59 28.6221 1452.59 75.566C1457.77 110.214 1457.03 196.994 1425.5 233.454" stroke="#121212" stroke-opacity="0.12" stroke-width="2" fill="#FFD639"/>
    <path d="M1387.64 -105.218C1378.57 -100.993 1360.66 -82.5908 1361.67 -42.7824C1362.93 6.97805 1390.39 38.1175 1397.25 85.0613C1402.32 119.709 1401.6 206.489 1370.71 242.949" stroke="#121212" stroke-opacity="0.12" stroke-width="2" fill="#FFD639"/>
    <path d="M1333.29 -95.7224C1324.41 -91.4879 1306.88 -73.044 1307.86 -33.1452C1309.1 16.7284 1335.98 47.9386 1342.7 94.9892C1347.66 129.716 1346.96 216.693 1316.71 253.236" stroke="#121212" stroke-opacity="0.12" stroke-width="2" fill="#FFD639"/>
    <path d="M1278.99 -87.0181C1269.72 -82.7835 1251.45 -64.3397 1252.47 -24.4408C1253.76 25.4327 1281.79 56.6429 1288.8 103.693C1293.97 138.42 1293.23 225.398 1261.7 261.94" stroke="#121212" stroke-opacity="0.12" stroke-width="2" fill="#FFD639"/>
    <path d="M1223.6 -78.314C1214.33 -74.0794 1196.06 -55.6356 1197.08 -15.7367C1198.37 34.1369 1226.4 65.347 1233.41 112.398C1238.58 147.124 1237.84 234.102 1206.31 270.644" stroke="#121212" stroke-opacity="0.12" stroke-width="2" fill="#FFD639"/>
    <path d="M1168.46 -69.6099C1159.38 -65.4041 1141.48 -47.0858 1142.48 -7.45833C1143.74 42.076 1171.2 73.0739 1178.07 119.804C1183.13 154.295 1182.41 240.681 1151.52 276.975" stroke="#121212" stroke-opacity="0.12" stroke-width="2" fill="#FFD639"/>
    <path d="M1113.36 -62.4883C1103.9 -58.2633 1085.26 -39.8613 1086.3 -0.0529458C1087.62 49.7075 1116.22 80.847 1123.37 127.791C1128.65 162.439 1127.9 249.219 1095.72 285.679" stroke="#121212" stroke-opacity="0.12" stroke-width="2" fill="#FFD639"/>
    <path d="M1057.97 -56.158C1048.51 -51.933 1029.87 -33.531 1030.91 6.27738C1032.23 56.0379 1060.83 87.1773 1067.98 134.121C1073.26 168.769 1072.51 255.549 1040.33 292.009" stroke="#121212" stroke-opacity="0.12" stroke-width="2" fill="#FFD639"/>
    <path d="M1002.28 -50.6189C993.208 -46.3939 975.307 -27.992 976.314 11.8164C977.573 61.5769 1005.03 92.7164 1011.89 139.66C1016.96 174.308 1016.24 261.088 985.352 297.548" stroke="#121212" stroke-opacity="0.12" stroke-width="2" fill="#FFD639"/>
    <path d="M947.686 -45.0798C938.609 -40.8645 920.708 -22.5043 921.715 17.2136C922.974 66.861 950.431 97.9297 957.296 144.767C962.362 179.336 961.643 265.919 930.753 302.296" stroke="#121212" stroke-opacity="0.12" stroke-width="2" fill="#FFD639"/>
    <path d="M892.837 -41.9148C883.572 -37.6802 865.298 -19.2364 866.326 20.6624C867.61 70.536 895.64 101.746 902.648 148.797C907.82 183.524 907.086 270.501 875.552 307.043" stroke="#121212" stroke-opacity="0.12" stroke-width="2" fill="#FFD639"/>
    <path d="M837.198 -38.7495C827.743 -34.515 809.096 -16.0711 810.145 23.8277C811.456 73.7013 840.058 104.912 847.208 151.962C852.486 186.689 851.737 273.666 819.56 310.209" stroke="#121212" stroke-opacity="0.12" stroke-width="2" fill="#FFD639"/>
    <path d="M781.515 -37.167C772.439 -32.942 754.538 -14.5401 755.544 25.2683C756.803 75.0288 784.261 106.168 791.125 153.112C796.192 187.76 795.473 274.54 764.583 311" stroke="#121212" stroke-opacity="0.12" stroke-width="2" fill="#FFD639"/>
    <path d="M726.667 -37.167C717.401 -32.942 699.127 -14.5401 700.155 25.2683C701.44 75.0288 729.47 106.168 736.477 153.112C741.649 187.76 740.915 274.54 709.382 311" stroke="#121212" stroke-opacity="0.12" stroke-width="2" fill="#FFD639"/>
    <path d="M671.526 -41.1235C662.45 -36.889 644.549 -18.4452 645.555 21.4537C646.814 71.3273 674.272 102.537 681.136 149.588C686.203 184.315 685.484 271.292 654.594 307.835" stroke="#121212" stroke-opacity="0.12" stroke-width="2" fill="#FFD639"/>
    <path d="M616.678 -45.0798C607.412 -40.8645 589.138 -22.5043 590.166 17.2136C591.451 66.861 619.481 97.9297 626.488 144.767C631.66 179.336 630.926 265.919 599.393 302.296" stroke="#121212" stroke-opacity="0.12" stroke-width="2" fill="#FFD639"/>
    <path d="M562.328 -54.5752C553.252 -50.3502 535.351 -31.9483 536.358 7.86014C537.616 57.6206 565.074 88.7601 571.939 135.704C577.005 170.352 576.286 257.132 545.396 293.592" stroke="#121212" stroke-opacity="0.12" stroke-width="2" fill="#FFD639"/>
    <path d="M507.48 -62.4883C498.215 -58.2633 479.941 -39.8613 480.968 -0.0529458C482.253 49.7075 510.283 80.847 517.29 127.791C522.463 162.439 521.729 249.219 490.195 285.679" stroke="#121212" stroke-opacity="0.12" stroke-width="2" fill="#FFD639"/>
    <path d="M452.09 -67.2358C442.824 -63.0301 424.55 -44.7117 425.578 -5.0843C426.863 44.45 454.893 75.4479 461.9 122.178C467.072 156.669 466.338 243.055 434.805 279.349" stroke="#121212" stroke-opacity="0.12" stroke-width="2" fill="#FFD639"/>
    <path d="M396.949 -72.7749C387.872 -68.5404 369.971 -50.0965 370.978 -10.1977C372.237 39.6759 399.695 70.8861 406.559 117.937C411.626 152.663 410.907 239.641 380.016 276.183" stroke="#121212" stroke-opacity="0.12" stroke-width="2" fill="#FFD639"/>
    <path d="M342.101 -74.3574C332.835 -70.1421 314.561 -51.7819 315.589 -12.064C316.874 37.5834 344.904 68.6521 351.911 115.489C357.083 150.059 356.349 236.641 324.815 273.018" stroke="#121212" stroke-opacity="0.12" stroke-width="2" fill="#FFD639"/>
    <path d="M286.461 -76.7314C277.006 -72.5065 258.359 -54.1045 259.408 -14.2961C260.719 35.4644 289.321 66.6038 296.472 113.548C301.749 148.196 301 234.976 268.823 271.436" stroke="#121212" stroke-opacity="0.12" stroke-width="2" fill="#FFD639"/>
    <path d="M230.778 -75.9402C221.702 -71.7056 203.801 -53.2618 204.808 -13.363C206.066 36.5106 233.524 67.7208 240.388 114.771C245.455 149.498 244.736 236.475 213.846 273.018" stroke="#121212" stroke-opacity="0.12" stroke-width="2" fill="#FFD639"/>
    <path d="M175.93 -74.3574C166.665 -70.1325 148.391 -51.7305 149.418 -11.9221C150.703 37.8384 178.733 68.9778 185.74 115.922C190.912 150.57 190.179 237.35 158.645 273.81" stroke="#121212" stroke-opacity="0.12" stroke-width="2" fill="#FFD639"/>
    <path d="M120.54 -71.1924C111.274 -66.9674 93.0004 -48.5654 94.0282 -8.75705C95.3129 41.0034 123.343 72.1429 130.35 119.087C135.522 153.735 134.788 240.515 103.255 276.975" stroke="#121212" stroke-opacity="0.12" stroke-width="2" fill="#FFD639"/>
    <path d="M65.6913 -67.2358C56.2368 -63.0109 37.5899 -44.6089 38.6386 -4.8005C39.9496 44.96 68.5516 76.0994 75.702 123.043C80.9796 157.691 80.2307 244.471 48.0535 280.931" stroke="#121212" stroke-opacity="0.12" stroke-width="2" fill="#FFD639"/>
    <path d="M10.0087 -61.697C0.932298 -57.4625 -16.9687 -39.0187 -15.9619 0.880211C-14.7035 50.7538 12.7545 81.964 19.6189 129.015C24.6854 163.741 23.9664 250.719 -6.92371 287.261" stroke="#121212" stroke-opacity="0.12" stroke-width="2" fill="#FFD639"/>
    </g>
    <defs>
    <!-- <clipPath id="clip0_855_2980"> -->
    <rect width="1440" height="187" fill="#FFD639"/>
    <!-- </clipPath> -->
    </defs>
    </svg>
    